<?xml version="1.0" encoding="utf-8"?>
<!-- Generator: Adobe Illustrator 19.0.0, SVG Export Plug-In . SVG Version: 6.00 Build 0)  -->
<svg version="1.1" id="Layer_1" xmlns="http://www.w3.org/2000/svg" xmlns:xlink="http://www.w3.org/1999/xlink" x="0px" y="0px"
	 viewBox="0 0 512 512" style="enable-background:new 0 0 512 512;" xml:space="preserve">
<style type="text/css">
	.st0{fill:#2cb1ff;}
</style>
<g id="XMLID_7_">
	<path class="st0" d="M488.4282837,106.6946411c-7.6590271-14.2173767-18.539917-22.9771118-32.3330383-26.0384293
		c-12.703949-2.809082-25.2473145,0.0114594-34.6261902,3.5314102c0.1948853-9.1725006,0.3210449-18.52845,0.3669128-28.2398338
		l-0.6879578-8.6336136H90.1010666l0.0458603,8.6336136c0.0458679,9.7113838,0.1719818,19.0558662,0.3669052,28.2168999
		c-9.3788834-3.5084763-21.8993454-6.3060913-34.5917892-3.5084763
		C42.1059647,83.7175293,31.22509,92.4657974,23.5775185,106.6831741
		c-7.3379993,13.6440964-7.4411907,29.3519974-0.2751751,45.403862
		c15.5129871,34.7637634,61.4328079,65.8126831,100.0261002,79.4223785
		c15.7537689,21.5209808,38.8340607,37.4696503,73.1392212,47.0319977
		c11.993042,3.3250427,20.4890747,12.6809692,20.6610565,22.7478027c0.1490631,8.415741-4.838501,15.627655-15.0658264,22.0139771
		h-8.4616241c-18.5972443,0-33.7203979,13.6670227-33.7203979,30.4526978v5.5379028
		c0,4.7811584,1.3300171,9.2413025,3.5084686,13.2657166h-54.6795731c-15.7423019,0-28.5494003,11.5802917-28.5494003,25.8206177
		v66.3056946h351.55896V398.380127c0-14.2403259-12.818573-25.8206177-28.5608826-25.8206177h-54.69104
		c2.1784973-4.01297,3.5084839-8.4845581,3.5084839-13.2657166v-5.5379028c0-16.785675-15.134613-30.4641418-33.7203979-30.4641418
		h-8.3355103c-10.2273254-6.3863525-15.2148743-13.5867615-15.0657959-22.002533
		c0.1719666-10.0668335,8.6679993-19.4113159,20.6725159-22.7478027
		c34.3051453-9.5508728,57.3739624-25.499527,73.1277466-47.0205231
		c38.5932922-13.6096954,84.5245972-44.6471252,100.0375977-79.4223633
		C495.8580627,136.0351868,495.7663269,120.3387451,488.4282837,106.6946411z M40.9823341,145.6433716
		c-5.1709976-11.5802917-5.262722-22.1630554-0.26371-31.4387436c5.1022034-9.5164719,11.5458832-15.0199661,19.6635437-16.8315353
		c11.8325233-2.6256332,24.6281624,2.9810638,30.7278709,6.2258301
		c1.6510468,40.4277954,6.1914368,74.9393158,18.1156845,102.8810425
		C80.6763229,192.2281952,51.656826,169.5721283,40.9823341,145.6433716z M403.1470032,389.7694397
		c5.2512512,0,9.5164795,3.8524475,9.5164795,8.5992126v49.1187439H99.193306v-49.1187439
		c0-4.7467651,4.27668-8.5992126,9.5164642-8.5992126H403.1470032z M318.2555237,340.5016479
		c8.083252,0,14.6759949,5.9506531,14.6759949,13.2542419v5.5379028c0,7.3265381-6.5927429,13.2657166-14.6759949,13.2657166
		h-124.642807c-8.0947266,0-14.6759949-5.9391785-14.6759949-13.2657166v-5.5379028
		c0-7.3035889,6.5812683-13.2542419,14.6759949-13.2542419h124.6313324H318.2555237z M309.9200134,262.0882263
		c-20.0992432,5.5952454-33.8121033,21.2458191-34.1102295,38.9372559
		c-0.1146545,6.2831726,1.5249329,14.2288513,7.4526367,22.2662354h-54.5305023
		c5.9277344-8.0259399,7.5673065-15.9716187,7.452652-22.2662354c-0.3095703-17.6914368-14.0109863-33.342041-34.1102295-38.9372559
		c-83.6417313-23.2981415-91.9772415-90.2688446-92.8256912-197.5641785H402.745697
		C401.8972168,171.8193665,393.5732117,238.8015289,309.9200134,262.0882263z M471.0349731,145.6548309
		c-10.6744995,23.9287567-39.7054749,46.5962982-68.2663269,60.8480682
		c11.9242554-27.9417419,16.4646606-62.4532623,18.1157227-102.8810425
		c6.0767517-3.2333069,18.9183044-8.8858566,30.6819763-6.248764c8.1520386,1.8001022,14.6072083,7.3036041,19.7323608,16.8544693
		C476.2977295,123.4917831,476.2059937,134.0630951,471.0349731,145.6548309z"/>
</g>
</svg>
