<?xml version="1.0" encoding="utf-8"?>
<!-- Generator: Adobe Illustrator 19.0.0, SVG Export Plug-In . SVG Version: 6.00 Build 0)  -->
<svg version="1.1" id="Layer_1" xmlns="http://www.w3.org/2000/svg" xmlns:xlink="http://www.w3.org/1999/xlink" x="0px" y="0px"
	 viewBox="0 0 512 512" style="enable-background:new 0 0 512 512;" xml:space="preserve">
<style type="text/css">
	.st0{fill:#2cb1ff;}
</style>
<g>
	<path class="st0" d="M458.3189392,347.2671509V124.8195724c0-20.1516037-16.5617371-36.552742-36.9312439-36.552742H90.5893631
		c-20.3580551,0-36.9312286,16.4011383-36.9312286,36.552742v222.4476013H18v41.2322083
		c0,19.4405212,15.9653015,35.2337646,35.5893173,35.2337646H458.410675c19.6239929,0,35.589325-15.804718,35.589325-35.2337646
		v-41.2322083h-35.6696167L458.3189392,347.2671509z M72.1237488,124.8195724
		c0-10.0930023,8.2808533-18.2821045,18.4656143-18.2821045h330.8097839c10.1847839,0,18.4656372,8.1891022,18.4656372,18.2821045
		v222.4476013H72.1237488V124.8195724z M475.5343628,388.487915c0,9.3475037-7.6844177,16.9516602-17.1236877,16.9516602H53.5778503
		c-9.4058228,0.038147-17.0668564-7.5459595-17.1237068-16.9516602v-22.9386597h132.505127
		c3.3035278,9.0975952,11.9523315,15.1508179,21.631134,15.1394958h130.7962189
		c10.0127258,0,18.442688-6.3195801,21.6426086-15.1394958h132.505127V388.487915z"/>
</g>
</svg>
