<?xml version="1.0" encoding="utf-8"?>
<!-- Generator: Adobe Illustrator 19.0.0, SVG Export Plug-In . SVG Version: 6.00 Build 0)  -->
<svg version="1.1" id="Layer_1" xmlns="http://www.w3.org/2000/svg" xmlns:xlink="http://www.w3.org/1999/xlink" x="0px" y="0px"
	 viewBox="1673.7740479 -286 692.4517822 1132" style="enable-background:new 1673.7740479 -286 692.4517822 1132;"
	 xml:space="preserve">
<style type="text/css">
	.st0{fill:#D8B347;}
</style>
<g>
	<path class="st0" d="M1839.1987305,283.0453186c-51.0169678,102.0405579-129.5037842-27.4697266,9.8093262-98.1052856
		C1849.0144043,184.940033,1746.9803467,316.4083252,1839.1987305,283.0453186z M2066.8208008,408.6332092l43.1787109,13.7316589
		l-11.7800293,39.2498474l-41.2080078-9.8092651L2066.8208008,408.6332092z M2094.296875,722.586853l39.2370605,17.6605225
		l-9.8156738,35.3145752l-39.2304688-13.7380371l9.809082-39.2369385V722.586853z M1951.048584,614.6658325l33.3630371,33.3565674
		l-31.4050293,27.4697266l-25.505249-27.4697266L1951.048584,614.6658325z M1943.1973877,697.081543l29.434082,27.4633179
		l-29.434082,25.5117188l-29.4342041-23.5473633L1943.1973877,697.081543z M2109.9995117,204.558548v25.511734
		l-80.4642334,82.4156189l-3.9223633-29.4405823L2109.9995117,204.558548L2109.9995117,204.558548z M1974.5959473,25.9956245
		c0,18.4205055-15.3804932,33.3630066-34.342041,33.3630066s-34.342041-14.9360657-34.342041-33.3630066
		c0-18.4140682,15.3741455-33.3565712,34.342041-33.3565712C1959.2154541-7.3545089,1974.5959473,7.5815558,1974.5959473,25.9956245
		z M2020.7115479-36.7951012c0,18.4205055-15.3933105,33.3565712-34.3355713,33.3565712
		c-18.9678955,0-34.3483887-14.9360638-34.3483887-33.3565712c0-18.4140663,15.3740234-33.3565712,34.3483887-33.3565712
		C2005.3182373-70.1452332,2020.7115479-55.2091675,2020.7115479-36.7951012z"/>
	<path class="st0" d="M2078.6008301,595.0409546c298.263916,133.4326782,329.6496582-255.0788879,100.0698242-535.682312
		c-72.5935059-86.3380432-117.7302246-260.9785767-117.7302246-260.9785767S2053.0891113-252.6369934,2086.4521484-286
		c-7.8513184,182.485321,141.2839355,270.7877808,247.2404785,551.378418
		c105.956543,280.5970459-64.7617188,541.5755615-255.0852051,410.1073608
		c-37.2855225,259.0140991-202.1168213,180.520874-251.1694336,43.1722412
		C1719.5169678,700.9974976,1648.875,622.5042725,1694.005249,465.5307617
		c-109.885376-290.4127197,262.9365234-378.71521,278.6325684-408.149353
		c15.7026367-5.8868408,49.059082-56.9038849,49.059082-56.9038849s31.3985596,45.1302261-35.3145752,166.7892609
		c-186.4141846,288.4482727-135.3970947,457.1954956-135.3970947,457.1954956s43.1658936-23.5473633,51.0170898-98.1116943
		c-15.7025146-103.9920959,111.8497314-143.2355042,111.8497314-143.2355042s-3.928833,35.3145447-5.8868408,51.0170288
		c-70.6484375,27.4761658-74.5708008,64.7550964-74.5708008,64.7550964s-7.8513184,107.9209595-64.755127,204.074646
		c29.4277344,160.8960571,151.0931396,80.4448242,151.0931396-66.7194824
		c-98.1116943-119.6946411-49.059082-145.1999817-49.059082-145.1999817s68.684082,82.4156799,62.7972412,70.6419983
		s198.1878662-176.5985107,200.1522217-182.4853516c1.9645996-5.8868408,0-31.3985596,0-31.3985596l-86.3444824,51.023468
		c0,0-15.6894531-27.4761658-19.6120605-60.8262939c133.4199219-121.6654816-21.5891113-257.0561829-37.2854004-262.9430237
		c-7.8510742,62.7907257-115.7785645,215.8419189-123.6298828,229.5800171
		c-7.8447266,13.7380981-11.7736816,86.3380432-11.7736816,86.3380432l-13.7315674,1.9644165c0,0-7.8513184-84.3800354,0-84.3800354
		c5.8868408-33.3630066,105.9628906-125.5879059,115.7720947-268.8233948
		c-37.2854004-137.3551025,0-141.2774963,13.7382813-143.2419128c-13.7382813,29.4341507,1.9643555,72.5999527,1.9643555,72.5999527
		c162.8666992,209.9550781,147.1706543,278.6325989,121.6589355,321.8048706s35.3210449-13.7380981,56.9104004-21.589325
		c19.6120605,9.8092651,19.6120605,153.0576172,3.9094238,160.9024658
		c-15.6896973,7.8512573-176.592041,158.9379883-176.592041,158.9379883v5.8932495H2078.6008301L2078.6008301,595.0409546z
		 M1996.1851807,77.019104c-133.4390869,74.5579681-300.2283936,149.1287689-290.4127197,321.8049011
		c94.1893311-119.7010498,170.711792,206.0262756,9.8093262,107.920929
		c-3.9224854,31.3920898-22.3945313,147.9050293,98.1116943,131.4682617c0,0,11.7736816-276.6746216,82.4091797-364.9770813
		C1943.1972656,179.0532379,1996.1851807,77.019104,1996.1851807,77.019104z M1756.7895508,434.1385193
		c-17.3383789,0-31.3985596,11.8509216-31.3985596,26.4907227c0,14.6268921,14.0601807,26.4842834,31.3985596,26.4842834
		c17.338501,0,31.3985596-11.8573914,31.3985596-26.4842834
		C1788.1817627,445.9894409,1774.1280518,434.1385193,1756.7895508,434.1385193z"/>
</g>
</svg>
