<?xml version="1.0" encoding="utf-8"?>
<!-- Generator: Adobe Illustrator 19.0.0, SVG Export Plug-In . SVG Version: 6.00 Build 0)  -->
<svg version="1.1" id="Layer_1" xmlns="http://www.w3.org/2000/svg" xmlns:xlink="http://www.w3.org/1999/xlink" x="0px" y="0px"
	 viewBox="2459.9121094 185.7468414 1211.7512207 353.876709"
	 style="enable-background:new 2459.9121094 185.7468414 1211.7512207 353.876709;" xml:space="preserve">
<style type="text/css">
	.st0{fill:#2B2C2D;stroke:#FFFFFF;stroke-width:0.482;stroke-miterlimit:2.6129999;}
	.st1{fill:#4F4F9D;}
</style>
<g>
	<path class="st0" d="M3574.473877,412.6968079c0-5.2814331,5.2607422-8.8046875,17.5129395-8.8046875
		c4.7963867-0.0545044,9.5561523,0.8430786,14.003418,2.6407471c3.5095215,1.7650452,7.0119629,5.2951965,7.8876953,11.4454346
		h50.7734375c-3.5026855-29.0340881-24.5180664-52.7867737-70.0375977-52.7867737
		c-30.640625,0-54.282959,9.6803284-64.7839355,28.1584778l5.2470703-23.7526855h-51.6491699l-18.3884277,102.036499h-0.8825684
		l-19.2573242-102.036438h-44.6508789l-19.2641602,102.036438h-0.8754883l-18.3886719-102.036438h-185.6154785v87.0884705
		l-56.0341797-87.0884705h-71.7956543c-0.8757324,9.6803284-3.5026855,15.8374023-7.0119629,20.2294006l-18.3886719-21.1050415
		c5.2539063-2.6407166,21.8979492-12.3210449,21.8979492-29.0340881c0-20.2362671-17.5126953-29.0271912-32.3986816-29.0271912
		c-20.1328125,0-34.1501465,11.4385071-34.1501465,28.1446838c0,11.4454346,6.1296387,20.2431641,11.3835449,26.3934021
		l-2.6269531,0.8894043c-21.0153809,12.3072815-24.5180664,24.6282959-24.5180664,36.0599365
		c0,18.4781494,15.7617188,35.1912231,40.2727051,35.1912231c19.2641602,0,29.7719727-7.0396423,37.6525879-14.0723572
		l8.7563477,10.5421753h20.1398926v101.1746521h51.6560059v-51.8973389l-1.7512207-37.8249817l56.909668,87.9641418v1.7650757
		h137.4621582V496.276062h-83.1723633v-25.5039368h67.4106445v-38.7006226h-67.4106445v-23.752655h86.6816406
		l33.2607422,126.6785889h53.4140625l18.3886719-95.8793945h0.8686523l18.3886719,95.8793945h53.4072266l28.0136719-116.1226196
		c0.8825684,62.4601746,94.5625,45.7471619,94.5625,70.3754578c0,7.9152527-8.7631836,12.3072815-21.8911133,12.3072815
		c-5.5395508-0.1007996-10.9619141-1.6123962-15.7546387-4.3920288c-4.7971191-2.8152161-8.029541-7.6832886-8.7634277-13.1966858
		h-51.6560059c1.7512207,29.9096985,29.7651367,55.4137268,72.6713867,55.4137268
		c45.5334473,0,77.0498047-18.4781494,77.0498047-57.178772c0.0068359-59.8332825-94.5556641-43.9958496-94.5556641-69.5067139
		V412.6968079z M3008.0021973,330.0140686c6.1225586,0,11.3764648,3.5163879,11.3764648,10.5490723
		c0,6.1708374-5.2607422,10.5559692-12.2590332,14.9617615c-6.1293945-6.157074-9.6252441-11.4316101-9.6252441-15.8374023
		C2997.4943848,333.5304565,3002.7414551,330.0140686,3008.0021973,330.0140686z M3002.7414551,417.978241
		c-14.8859863,0-19.2573242-11.4454346-19.2573242-16.7130737c0-9.6803284,5.2470703-13.1967163,15.7617188-20.2431946
		l23.635498,28.1446838C3018.5100098,412.6968079,3011.5048828,417.978241,3002.7414551,417.978241L3002.7414551,417.978241z
		 M3056.1486816,406.5328064c7.005127-8.7771301,11.3835449-14.0585632,13.1347656-25.5039368v38.7144165L3056.1486816,406.5328064z
		"/>
	<path class="st1" d="M2895.0581055,187.5050049l-31.5231934,112.5993347l-31.5161133-112.5993347h-233.7758789v42.2238922
		l-14.8789063-42.2238922h-59.5368652l-63.9150391,181.2166443h57.7854004l6.1296387-24.6282959h58.6611328l7.005127,24.6282959
		h57.7854004l-47.284668-133.7112732h50.7873535v133.7112732h58.6611328V235.0103149h51.6560059v133.7112732h52.5317383v-61.5776062
		l-0.8757324-28.1515503l-2.6269531-26.3934021l32.3918457,116.1156616h41.1552734l32.3918457-116.1157074h0.8754883
		l-3.5024414,32.5504608l-0.8757324,28.1446533v55.4274902h52.5385742V187.5050049H2895.0581055z M2535.2104492,307.137085
		l18.3815918-65.0940094l18.3884277,65.0940094H2535.2104492z"/>
	<path class="st1" d="M3525.4448242,220.9310913h51.6491699v-35.1842499h-51.6491699V220.9310913z"/>
	<path class="st1" d="M3525.4448242,278.9924316c-7.0119629-27.2759247-27.1450195-45.7471619-53.4072266-45.7471619
		c-15.7617188,0-28.0136719,4.3988953-37.645752,16.7130737v-62.4532928h-51.65625v104.6771393
		c-7.005127-35.1842651-34.1499023-58.9369202-74.4226074-58.9369202c-32.3989258,0-59.5368652,16.7130737-69.1689453,45.7471619
		v-5.2814331c0-58.9369659-35.9013672-86.2059479-93.6799316-86.2059479h-77.9250488v181.2165985h77.0427246
		c46.4089355,0,79.6765137-17.6025085,90.1843262-60.7020264c2.626709,41.3482666,34.1499023,64.2115173,73.5471191,64.2115173
		c30.640625,0,63.0461426-10.5559692,71.7956543-43.9820557h-49.0358887
		c-3.5026855,7.9221497-11.3696289,12.3141479-19.2573242,12.3141479c-13.1345215,0-25.3935547-10.5559387-25.3935547-26.3865051
		h96.3137207v54.5449829h46.4020996v-19.3537598c7.005127,13.1966858,18.3884277,22.8632202,40.2727051,22.8632202
		c32.3850098,0,49.8977051-18.4781189,56.0341797-44.864563v41.3551331h51.6491699V236.7685394h-51.6491699V278.9924316z
		 M3138.4592285,326.4908447h-12.2590332v-96.7619476h11.3833008c30.6337891,0,42.8996582,9.6734314,42.8996582,47.4984283
		c0,34.3086243-14.8859863,49.2634888-42.0239258,49.2634888V326.4908447z M3286.421875,287.7833252
		c0-14.0723267,8.7565918-22.8632202,23.642334-22.8632202c12.2590332,0,22.7668457,10.5559387,22.7668457,22.8632202H3286.421875z
		 M3454.5246582,334.4061279c-16.6303711,0-21.8842773-17.5955811-21.8842773-31.6679382
		c0-14.0723267,6.1296387-29.0271912,21.8842773-29.0271912c16.637207,0,21.8911133,15.8374023,21.8911133,29.909729
		s-4.3781738,30.7853394-21.8911133,30.7853394V334.4061279z M3671.6633301,266.6782532v-29.9097137h-24.5180664v-50.1460571
		h-50.7802734v50.1460571h-19.2709961v29.9097137h18.3952637v55.4136963c0,44.8576965,8.7565918,50.1391907,76.1740723,46.6228027
		v-37.8249817h-8.7634277c-14.003418,0-15.7546387-4.3989258-15.7546387-16.7130737v-47.4984436H3671.6633301z"/>
</g>
</svg>
