<?xml version="1.0" encoding="utf-8"?>
<!-- Generator: Adobe Illustrator 19.0.0, SVG Export Plug-In . SVG Version: 6.00 Build 0)  -->
<svg version="1.1" id="Layer_1" xmlns="http://www.w3.org/2000/svg" xmlns:xlink="http://www.w3.org/1999/xlink" x="0px" y="0px"
	 viewBox="2468.7878418 143.2041779 1194.2539063 337.9151306"
	 style="enable-background:new 2468.7878418 143.2041779 1194.2539063 337.9151306;" xml:space="preserve">
<style type="text/css">
	.st0{fill:#F33333;}
	.st1{fill:#101010;}
</style>
<path class="st0" d="M2620.4304199,297.6233521c4.0114746-5.2612915,5.5144043-12.0170593,4.1115723-18.4828186
	c-1.3706055-6.6188354-5.3652344-13.5660706-11.9841309-20.8417358c-4.0639648-4.4985199-8.4697266-8.6761627-13.1774902-12.4955597
	c-5.1347656-4.2188721-11.1347656-8.6114349-17.9997559-13.1776581
	c-9.6765137-6.4989624-19.6743164-12.5064545-29.9553223-17.9996796
	c-10.8249512-5.8546448-22.3952637-11.5198059-34.7109375-16.9954987c-0.4233398,0.0102081-0.8395996-0.1087494-1.1936035-0.3410492
	c-0.3554688-0.2290649-0.7709961-0.3477325-1.1936035-0.3410339c0.2272949,0,0.3408203-0.0568542,0.3408203-0.1705322
	s0.1137695-0.170517,0.3410645-0.170517c0.5019531-0.7404938,1.076416-1.4291382,1.7148438-2.0557556
	c0.6315918-0.6379242,1.199707-1.3359528,1.6958008-2.0841675c2.0524902-1.8252411,4.1052246-3.7199402,6.1577148-5.6841125
	s4.2219238-3.8588867,6.5083008-5.6841125c11.4060059,4.1051941,22.0732422,8.2103729,32.0014648,12.315567
	s19.114502,8.3272247,27.5585938,12.6660919c8.6713867,4.1051941,16.5439453,8.2703857,23.6174316,12.495575
	c6.5463867,3.8660431,12.8342285,8.1539764,18.8237305,12.8366089c7.7111816,5.5574646,14.8710938,11.8419342,21.3818359,18.7670288
	c5.3894043,5.6689453,9.9472656,12.0736694,13.5375977,19.0228271c3.1015625,6.0305786,5.0305176,12.5950623,5.684082,19.3449097
	c0.5534668,6.6224976-0.0883789,13.2905884-1.8945313,19.6859741c-2.0239258,6.5644836-5.4064941,12.6295166-9.9284668,17.8007202
	c-5.0100098,5.5520325-11.0651855,10.0621033-17.8195801,13.2723999c-7.9321289,4.202179-16.3959961,7.3124084-25.1616211,9.2461548
	c-10.8608398,2.4431458-21.9140625,3.9329529-33.0341797,4.4525452c-9.5871582,0.6820984-19.1142578,1.1399841-28.581543,1.3736572
	s-18.9943848,0.2336731-28.581543,0c-9.3598633-0.2273865-18.7165527-0.6852722-28.0700684-1.3736572
	c-9.3535156-0.6884155-18.5935059-1.5915527-27.7194824-2.7094116c-1.1433105-4.5524292-2.0007324-9.171875-2.5673828-13.8313293
	c-0.574707-4.6925659-1.0893555-9.4293213-1.5441895-14.2102966c8.4377441,0.915802,16.7680664,1.5473633,24.9912109,1.8947144
	c8.2229004,0.3473511,16.3132324,0.6221008,24.2709961,0.8241882c11.6398926,0,22.3764648-0.3978882,32.2099609-1.1936646
	s18.7324219-1.8789063,26.6965332-3.2493896c7.1811523-1.3641357,14.2258301-3.3678894,21.0500488-5.9872742
	c5.3891602-2.0445557,10.5056152-4.7459717,15.2333984-8.0430298c1.3706055-1.3704834,2.684082-2.797821,3.940918-4.2820129
	C2618.401123,300.7880249,2619.4885254,299.2501526,2620.4304199,297.6233521L2620.4304199,297.6233521z M2530.0625,217.0984802
	c13.2629395,9.8145752,22.392334,19.7996521,27.3879395,29.9552612s5.9052734,20.3807068,2.7285156,30.6752319
	c-1.5544434,5.1654358-4.1787109,9.9458313-7.7021484,14.0302734c-3.9020996,4.3845825-8.6064453,7.9827881-13.8596191,10.6008606
	c-6.2207031,3.2441406-12.8388672,5.6614075-19.6860352,7.1903992c-8.4975586,1.9613342-17.140625,3.2286377-25.84375,3.7893982
	l-12.154541,0.6820984c-3.9914551,0.2273865-8.0397949,0.3378906-12.1450195,0.3315735v-2.0462646
	c0-4.1051941,0.1137695-8.1567078,0.3410645-12.154541c0.2243652-3.9614563,0.6831055-7.906189,1.3735352-11.813446h4.7937012
	c13.0102539,0,23.907959-0.9126282,32.6931152-2.737854s15.4606934-4.5630798,20.0270996-8.2135315
	c0.9094238-0.6820984,1.7651367-1.3673401,2.5671387-2.0557556c0.8273926-0.71521,1.5739746-1.5189514,2.2263184-2.3967896
	c2.0263672-3.0692139,2.7646484-6.8120728,2.0559082-10.4208679c-0.6821289-3.7894287-2.965332-7.7272491-6.8493652-11.8134918
	c-2.1413574-2.6083984-4.5549316-4.9807587-7.1999512-7.0767059c-2.9685059-2.3936462-6.277832-4.84729-9.9282227-7.3609161
	c-2.7409668-1.8252411-5.6494141-3.6504669-8.7250977-5.4756927c-3.0756836-1.8252411-6.2145996-3.6504669-9.416748-5.4756927
	c2.2800293-3.8778381,4.7336426-7.6419678,7.3608398-11.2924347c2.6274414-3.6504517,5.4221191-7.3009186,8.3842773-10.9513855
	c4.1049805,2.5262756,7.986084,4.9230652,11.6428223,7.1903992S2527.1005859,214.8058929,2530.0625,217.0984802z
	 M2498.5725098,261.9840088c-1.4484863,4.8926697-4.6269531,9.0914917-8.9428711,11.8134766
	c-4.5664063,3.0820618-10.6135254,5.2925415-18.1418457,6.6314392c1.3525391-8.3696899,3.4125977-16.6096191,6.1577148-24.631134
	c2.7329102-7.9328766,6.1828613-15.600235,10.307373-22.9069519c5.0146484,4.7935944,8.4377441,9.587204,10.2692871,14.3807983
	C2500.0415039,251.9866943,2500.1655273,257.1876221,2498.5725098,261.9840088z M2747.7260742,333.8690491
	c4.9299316-6.8768311,6.7321777-15.5134277,4.9641113-23.7880249c-1.692627-8.5577087-6.7578125-17.630188-15.1955566-27.2173767
	c-5.1259766-5.542572-10.6135254-10.7391357-16.427002-15.555542c-7.1293945-5.9090576-14.5568848-11.4488525-22.253418-16.5975952
	c-10.7592773-7.3656158-21.8996582-14.1580963-33.3752441-20.3491058
	c-11.9997559-6.5051575-24.7226563-12.7229309-38.1687012-18.6533508
	c-13.6923828-6.1641083-28.1269531-12.0408478-43.3034668-17.6302185s-31.092041-11.0240021-47.746582-16.3039093
	c7.2155762-5.6438293,14.8869629-10.6789246,22.9355469-15.053421c7.911377-4.3126831,16.1542969-7.9874268,24.6501465-10.9892731
	c17.692627-5.7076416,36.1757813-8.585144,54.7663574-8.5261688c11.3103027-0.0305939,22.5983887,1.0002136,33.7160645,3.0789032
	c10.6206055,1.9875336,21.0036621,5.0833588,30.9785156,9.2366638c10.0874023,4.1340942,19.722168,9.2959595,28.7519531,15.4039459
	c9.3405762,6.3325653,18.0517578,13.546524,26.0144043,21.5427704c7.9545898,8.1282654,15.1704102,16.9481506,21.5617676,26.3553162
	c6.0585938,8.9427338,11.2185059,18.4625549,15.4038086,28.4205475c4.1264648,10.1027069,7.2241211,20.5955353,9.2463379,31.3194427
	c4.1074219,22.289856,4.1074219,45.1426086,0,67.4324646c-2.020752,10.7243042-5.1184082,21.2172546-9.2463379,31.319458
	c-4.1315918,10.088501-9.2937012,19.7236023-15.4038086,28.7521057
	c-12.7539063,18.6861267-28.8898926,34.8222046-47.5759277,47.5759888
	c-9.0280762,6.1243896-18.6628418,11.3021851-28.7521973,15.4512939
	c-9.9746094,4.1565552-20.3574219,7.2555847-30.9785156,9.2461853c-11.1140137,2.0743103-22.4130859,2.9918213-33.7160645,2.737854
	c-11.3596191,0.2492065-22.7145996-0.6682129-33.8869629-2.737854c-10.6801758-1.9733887-21.121582-5.0727539-31.1489258-9.2461853
	c-10.0883789-4.1316833-19.7233887-9.2937012-28.7519531-15.4039307
	c-9.4118652-6.3821106-18.2351074-13.5916443-26.3647461-21.5427551
	c-5.5627441-5.7671204-10.8183594-11.8227234-15.7451172-18.1417847
	c-4.7209473-6.0574341-8.9562988-12.4783325-12.6660156-19.2027893
	c-7.7312012-13.1674805-13.2788086-27.5001526-16.427002-42.4413757
	c12.7766113,2.5262756,25.3857422,4.6957092,37.8276367,6.5083008c12.4418945,1.8126221,24.7070313,3.4104614,36.795166,4.7936096
	c12.0944824,1.1431274,23.9616699,2.0557556,35.6015625,2.737854c11.6396484,0.6820984,23.1625977,1.124176,34.5688477,1.3262634
	c14.8291016,0,28.4077148-0.4578857,40.736084-1.3736572c11.2651367-0.7702942,22.4697266-2.2575073,33.5456543-4.4525452
	c8.9973145-1.5369873,17.8239746-3.9451294,26.3552246-7.1903992c6.8078613-2.5748291,13.2507324-6.0270691,19.1650391-10.2692871
	c1.8251953-1.5915527,3.5935059-3.2462463,5.3051758-4.9641113c1.6794434-1.6626587,3.1206055-3.5500488,4.2819824-5.6083069
	H2747.7260742z"/>
<path class="st1" d="M2877.1530762,388.9764404l45.1887207-169.4432678h135.8977051l-10.951416,40.0540161h-89.0036621
	l-7.1904297,25.7206116h80.7805176l-9.9282227,36.9466858h-80.7805176l-7.2282715,26.6774292h90.3676758l-10.6103516,40.0540161
	h-136.541748V388.9764404z M3037.6914063,388.9764404l47.2443848-176.6147156h45.8708496l-47.2351074,176.6147156h-45.8706055
	H3037.6914063z M3166.0385742,391.4111633c-13.2629395,0-23.1911621-2.737854-29.784668-8.2135315
	c-6.59375-5.475708-9.9030762-13.0071716-9.9282227-22.5943604c-0.0012207-2.7520447,0.2268066-5.4993896,0.6818848-8.2135315
	c0.454834-2.7409973,1.0263672-5.7062073,1.7148438-8.8956299l13.3481445-48.2675476h-15.7165527l9.9282227-36.9467163h15.744873
	l8.895752-33.1573029h45.8518066l-8.895752,33.1573029h30.4667969l-9.9282227,36.9467163h-30.4477539l-11.2924805,41.0771484
	c-0.2272949,1.5978699-0.4545898,3.0820618-0.6821289,4.4525452c-0.2055664,1.1289368-0.3195801,2.272644-0.3408203,3.4199524
	c0,2.7409973,0.7988281,4.7936096,2.3967285,6.1577759c1.5979004,1.3641968,4.2219238,2.049469,7.8725586,2.0557556
	c2.7023926-0.0183716,5.3964844-0.3039551,8.0429688-0.8526001c3.2207031-0.6809692,6.3728027-1.6544495,9.4165039-2.9083862
	l-10.2692871,38.339325c-4.2490234,1.4046021-8.5966797,2.4907532-13.0070801,3.2493896
	C3175.4609375,391.024292,3170.7536621,391.4237061,3166.0385742,391.4111633z M3214.3535156,388.9764404l34.9191895-130.7344971
	h45.8708496l-34.9194336,130.7344971H3214.3535156z M3251.6601563,246.2390137l9.2177734-33.8772888h47.9265137
	l-9.2460938,33.8867645h-47.9172363L3251.6601563,246.2390137z M3286.2290039,388.9764404l34.9194336-130.7344971h45.8706055
	l-3.7893066,14.3807983c4.6313477-4.7932129,9.9353027-8.8875732,15.744873-12.1545105
	c6.2539063-3.5600891,13.3430176-5.3911591,20.5385742-5.3051758c9.1262207,0,16.4870605,2.109436,22.0827637,6.3283081
	c5.5898438,4.2226563,9.8161621,9.9940186,12.154541,16.5975952c5.935791-6.8980713,13.1394043-12.5935059,21.2207031-16.7775879
	c8.0476074-4.1216125,16.9731445-6.2343597,26.0144043-6.1577911c12.5490723,0,22.1333008,3.4736176,28.7519531,10.4208527
	c6.6188965,6.9472351,9.9282227,16.4744568,9.9282227,28.581604c-0.03125,3.7857971-0.3735352,7.5626221-1.0229492,11.2924194
	c-0.6960449,4.1504211-1.6098633,8.2612915-2.7380371,12.3155823l-19.1647949,71.2029419h-45.548584l18.1418457-68.4650879
	c0.4545898-1.8252258,0.8522949-3.7199402,1.1936035-5.6841125c0.3227539-1.6077271,0.5097656-3.2397766,0.5588379-4.8788452
	c0-4.33255-1.1398926-7.698822-3.4199219-10.0987854c-2.2797852-2.3999634-5.8166504-3.5967712-10.6103516-3.5904541
	c-6.1640625,0-11.1850586,2.0526123-15.0627441,6.1578064c-3.8779297,4.1051941-6.8430176,9.9250793-8.895752,17.4596863
	l-18.4829102,69.1566467h-46.2495117l18.482666-68.4650879c0.454834-1.8251953,0.8525391-3.7199097,1.1938477-5.684082
	c0.3115234-1.6371155,0.482666-3.2978821,0.5114746-4.9641418c0-4.33255-1.1398926-7.698822-3.4199219-10.0987549
	c-2.2800293-2.3999939-5.8166504-3.5968018-10.6103516-3.5904846c-6.1640625,0-11.1850586,2.0526123-15.0629883,6.1578064
	c-3.8776855,4.1051636-6.8430176,9.9250793-8.8955078,17.4596863l-18.4829102,69.1566467h-45.8708496L3286.2290039,388.9764404z
	 M3561.7661133,391.4111633c-10.7365723,0-19.4648438-3.1957397-26.1848145-9.5871887
	c-6.7197266-6.3914795-10.0861816-14.9491882-10.0986328-25.6732483c-0.1228027-6.7323303,1.282959-13.4048462,4.1113281-19.5154419
	c2.6777344-5.640564,6.651123-10.5681763,11.5957031-14.3807983c5.355957-4.2831421,11.5290527-7.4292603,18.1418457-9.2461243
	c7.6877441-2.1355286,15.6391602-3.1721191,23.6174316-3.0788879c5.734375-0.013092,11.4599609,0.4463501,17.1186523,1.3736572
	c5.3312988,0.888855,10.5930176,2.1551514,15.744873,3.7893982l0.6821289-1.7147217
	c0.2272949-1.1368103,0.454834-2.3999329,0.6821289-3.7893982c0.234375-1.4724731,0.3483887-2.9615784,0.3410645-4.4525452
	c0.0529785-4.0057373-1.8669434-7.7814636-5.1347656-10.0987854c-3.4230957-2.6210022-9.1293945-3.9346313-17.1186523-3.940979
	c-6.3295898,0.0189514-12.6391602,0.7080383-18.8237305,2.0557556c-5.5620117,1.1453857-11.0480957,2.6323853-16.427002,4.4525452
	l-6.5083008-33.1572876c7.7163086-2.7244263,15.6850586-4.6729736,23.7878418-5.8167419
	c9.1213379-1.3781738,18.3337402-2.0653992,27.5585938-2.0557556c8.6367188-0.1288147,17.2575684,0.7904968,25.6730957,2.737854
	c7.3010254,1.831543,13.3481445,4.569397,18.1418457,8.2135315c4.6867676,3.2992554,8.4084473,7.7894287,10.7807617,13.0071411
	c2.4453125,5.4917908,3.670166,11.4486084,3.5905762,17.4596558c-0.0092773,3.0942993-0.2370605,6.184021-0.6821289,9.2461548
	c-0.46875,3.2383423-1.1555176,6.4413452-2.0556641,9.5871887l-19.1650391,72.2260742h-45.1884766l3.4199219-14.0302734
	c-5.026123,4.933075-10.8044434,9.0357666-17.1186523,12.1545105c-6.4208984,2.9373474-13.4226074,4.3849792-20.4816895,4.2346802
	L3561.7661133,391.4111633z M3582.9868164,363.3411255c5.9304199,0,11.4631348-2.2831116,16.5976563-6.8493347
	c5.0522461-4.4423218,8.6782227-10.2796631,10.4208984-16.7776184l1.0231934-4.4525452
	c-2.6220703-0.9407654-5.3105469-1.6849365-8.0432129-2.2262878c-2.9899902-0.58078-6.0297852-0.8663635-9.0754395-0.8526001
	c-7.307373,0-13.1271973,1.7115479-17.4597168,5.1346436c-4.3327637,3.4230957-6.5021973,8.0998535-6.5083008,14.0302734
	c-0.1481934,3.2954712,1.1657715,6.4882813,3.590332,8.7250977c2.6210938,2.2489319,6.0056152,3.405365,9.4545898,3.2304993
	V363.3411255z"/>
</svg>
