<?xml version="1.0" standalone="no"?>
<!DOCTYPE svg PUBLIC "-//W3C//DTD SVG 1.1//EN" "http://www.w3.org/Graphics/SVG/1.1/DTD/svg11.dtd" >
<svg xmlns="http://www.w3.org/2000/svg">
<metadata>Generated by IcoMoon</metadata>
<defs>
<font id="icomoon" horiz-adv-x="1024">
<font-face units-per-em="1024" ascent="960" descent="-64" />
<missing-glyph horiz-adv-x="1024" />
<glyph unicode="&#x20;" horiz-adv-x="512" d="" />
<glyph unicode="&#xe900;" glyph-name="sent-mail" horiz-adv-x="1106" d="M1100.744 955.857c-2.904 2.564-6.742 4.13-10.946 4.13-2.525 0-4.918-0.565-7.060-1.575l0.101 0.043-1073.29-498.73c-5.585-2.743-9.362-8.391-9.362-14.92s3.777-12.177 9.265-14.877l0.097-0.043 303.745-149.064c2.125-1.063 4.63-1.685 7.28-1.685 3.741 0 7.192 1.239 9.965 3.33l-0.042-0.030 295.32 220.753-231.706-238.727c-2.895-2.98-4.68-7.052-4.68-11.542 0-0.435 0.017-0.867 0.050-1.294l-0.004 0.057 23.1-300.656c0.719-8.553 7.839-15.222 16.516-15.222 4.97 0 9.429 2.188 12.467 5.654l0.016 0.019 161.492 186.839 199.337-95.21c2.076-1.007 4.516-1.595 7.093-1.595 7.364 0 13.606 4.804 15.764 11.448l0.033 0.117 280.856 895.228c0.435 1.412 0.685 3.035 0.685 4.717 0 5.163-2.361 9.775-6.063 12.814l-0.029 0.023z" />
<glyph unicode="&#xe903;" glyph-name="edit" horiz-adv-x="1019" d="M637.506 881.353c0-14.035 11.378-25.412 25.412-25.412v0h225.752c42.121 0 76.268-34.146 76.268-76.268v0-713.499c0-42.121-34.146-76.268-76.268-76.268v0h-662.583c-42.121 0-76.268 34.146-76.268 76.268v0 225.752c0 14.043-11.384 25.428-25.428 25.428s-25.428-11.384-25.428-25.428v0-225.752c0.087-70.173 56.95-127.036 127.114-127.123h662.622c70.173 0.087 127.036 56.95 127.123 127.114v713.477c-0.087 70.173-56.95 127.036-127.114 127.123h-225.761c-14.035 0-25.412-11.378-25.412-25.412v0zM637.506 881.353M33.497 896.698c-20.665-20.701-33.444-49.28-33.444-80.844s12.779-60.143 33.446-80.845l453.638-453.638c3.019-3.021 6.794-5.285 11.017-6.485l0.179-0.044 215.38-59.641c2.044-0.592 4.392-0.932 6.82-0.932 14.035 0 25.412 11.378 25.412 25.412 0 2.428-0.34 4.776-0.976 6.999l0.044-0.179-59.672 215.38c-1.243 4.402-3.508 8.177-6.528 11.196l-453.64 453.64c-20.714 20.636-49.289 33.394-80.844 33.394s-60.129-12.758-80.847-33.398l0.004 0.004zM503.672 336.649l-371.301 371.271 119.771 119.71 371.393-371.24zM551.659 312.732l95.67 95.67 36.608-132.309zM189.205 890.596l26.968-26.968-119.74-119.74-26.968 26.968c-11.503 11.505-18.618 27.398-18.618 44.952s7.115 33.447 18.618 44.952l29.836 29.836c11.515 11.481 27.404 18.58 44.952 18.58s33.437-7.099 44.954-18.582l-0.002 0.002z" />
<glyph unicode="&#xe904;" glyph-name="forward" horiz-adv-x="1171" d="M14.286 507.075l439.108 439.108c8.826 8.825 21.018 14.283 34.485 14.283 26.934 0 48.769-21.834 48.77-48.768v0-195.257c286.21-12.152 524.097-205.76 602.321-468.185l1.189-4.646c19.595-65.877 30.871-141.569 30.871-219.895 0-10.36-0.197-20.674-0.588-30.939l0.045 1.48v-9.485c-0.079-22.241-15.033-40.967-35.429-46.755l-0.344-0.083c-3.895-1.107-8.37-1.748-12.993-1.756h-0.005c-17.698 0.018-33.189 9.448-41.739 23.553l-0.122 0.217c-193.208 324.647-449.061 333.722-543.265 324.706v-250.994c-0.001-26.934-21.836-48.768-48.77-48.768-13.467 0-25.659 5.458-34.485 14.283l-439.108 439.108c-8.769 8.807-14.191 20.954-14.191 34.367 0 13.442 5.445 25.613 14.249 34.427v0z" />
<glyph unicode="&#xe905;" glyph-name="forward-1" horiz-adv-x="1106" d="M1002.281 375.74l-246.024 426.28c-4.945 8.567-13.158 15.248-23.467 18.012-20.619 5.528-41.816-6.705-47.345-27.323v0l-40.077-149.476c-221.598 49.442-443.447-49.944-557.194-234.784l-1.864-3.313c-28.522-46.411-52.691-102.043-68.768-162.007-2.126-7.929-4.091-15.863-5.899-23.799l0.269 1.141-1.947-7.261c-4.504-17.042 3.1-34.447 17.526-43.064l0.246-0.134c2.755-1.646 6.049-3.055 9.585-4.011l0.004-0.001c13.552-3.619 27.346 0.42 36.787 9.464l0.138 0.141c214.541 208.872 412.269 163.305 482.534 137.067l-51.517-192.145c-5.527-20.619 6.706-41.815 27.326-47.344 10.309-2.764 20.763-1.088 29.331 3.856l426.28 246.024c8.521 4.942 15.164 13.129 17.917 23.397 2.759 10.291 1.089 20.725-3.842 29.279v0z" />
<glyph unicode="&#xe906;" glyph-name="number-one-in-a-circle" d="M0 448c0-282.77 229.23-512 512-512s512 229.23 512 512c0 282.77-229.23 512-512 512v0c-282.77 0-512-229.23-512-512v0zM944.026 448c0-238.601-193.424-432.026-432.026-432.026s-432.026 193.424-432.026 432.026c0 238.601 193.424 432.026 432.026 432.026v0c0.015 0 0.033 0 0.051 0 238.573 0 431.974-193.402 431.974-431.974 0-0.018 0-0.036 0-0.054v0.003z" />
<glyph unicode="&#xe907;" glyph-name="Path-259" d="M347.182 77.705l205.711 266.764c6.934 9.007 16.949 14.788 27.922 16.258l0.295 0.027 333.894 44.665c11.333 1.617 20.989 9.657 24.086 21.207 0.038 0.14 0.074 0.281 0.11 0.421l-0.005-0.021c2.981 11.847-1.713 23.856-10.996 30.71l-0.174 0.118-673.269 489.836c-2.71 2.029-6.041 3.677-9.724 4.665-7.736 2.074-15.579 0.846-22.033-2.82l0.004 0.002-0.933-0.572c-6.458-3.784-11.491-10.016-13.584-17.821-0.969-3.616-1.224-7.254-0.849-10.766l-0.014 0.213 87.44-828.046c1.306-11.676 9.355-21.748 21.083-25.088l0.022-0.006c0.186-0.055 0.405-0.116 0.626-0.175 11.577-3.104 23.398 1.316 30.272 10.263l0.117 0.166z" />
<glyph unicode="&#xe908;" glyph-name="pencil" d="M742.861-64h281.19v281.19l-562.381 562.33-281.19-281.19zM937.421 181.35v-72.346h-86.528v-86.477h-72.243l-61.44 61.44 158.72 158.72zM295.322 519.987c-0.080 0.545-0.126 1.175-0.126 1.815 0 7.267 5.891 13.158 13.158 13.158 0.64 0 1.27-0.046 1.886-0.134l-0.070 0.008c0.101 0.002 0.22 0.004 0.339 0.004 4.382 0 8.342-1.805 11.178-4.711l366.39-366.339c2.909-2.847 4.713-6.813 4.713-11.201 0-0.094-0.001-0.188-0.002-0.282v0.014c0.080-0.545 0.126-1.175 0.126-1.815 0-7.267-5.891-13.158-13.158-13.158-0.64 0-1.27 0.046-1.886 0.134l0.070-0.008c-0.095-0.002-0.206-0.003-0.318-0.003-4.388 0-8.355 1.804-11.199 4.711l-366.339 366.339c-2.909 2.839-4.713 6.799-4.713 11.18 0 0.102 0.001 0.203 0.003 0.304v-0.015zM183.859 935.014l-158.259-158.72c-15.799-15.28-25.607-36.669-25.607-60.349 0-0.384 0.003-0.767 0.008-1.149l-0.001 0.058c-0.016-0.596-0.025-1.297-0.025-2 0-23.207 9.841-44.116 25.577-58.781l0.048-0.044 111.616-112.435 281.19 281.19-112.23 112.23c-15.052 15.43-36.050 25-59.283 25-0.542 0-1.083-0.005-1.623-0.016l0.081 0.001c-0.185 0.001-0.404 0.002-0.622 0.002-23.73 0-45.232-9.541-60.878-24.996l0.009 0.009z" />
<glyph unicode="&#xe909;" glyph-name="picture" horiz-adv-x="1260" d="M0 960v-1024h1260.308v1024zM1181.538 14.769h-1102.769v866.462h1102.769zM866.462 684.308c0-65.255 52.899-118.154 118.154-118.154s118.154 52.899 118.154 118.154c0 65.255-52.899 118.154-118.154 118.154v0c-65.255 0-118.154-52.899-118.154-118.154v0zM1102.769 93.538h-945.231l236.308 630.154 315.077-393.846 157.538 118.154z" />
<glyph unicode="&#xe90a;" glyph-name="Rectangle-235" d="M0 4.267v887.467c0 37.703 30.564 68.267 68.267 68.267h887.467c37.703 0 68.267-30.564 68.267-68.267v-887.467c0-37.703-30.564-68.267-68.267-68.267h-887.467c-37.703 0-68.267 30.564-68.267 68.267z" />
<glyph unicode="&#xe90b;" glyph-name="test" horiz-adv-x="1354" d="M1185.688 569.366v-36.717c-39.474 31.896-90.271 51.203-145.578 51.203-128.435 0-232.551-104.117-232.551-232.551s104.117-232.551 232.551-232.551c55.307 0 106.104 19.307 146.020 51.549l-0.442-0.345v-36.717h87.219v436.13zM1040.322 205.969c-80.283 0-145.365 65.082-145.365 145.365s65.082 145.365 145.365 145.365c80.283 0 145.365-65.082 145.365-145.365v0c-0.095-80.245-65.121-145.271-145.356-145.365h-0.009zM8.345 31.564h1337.262v-87.219h-1337.262v87.219zM444.274 939.272l-354.485-805.969h95.264l121.533 276.178h275.644l121.533-276.178h95.264zM344.805 496.667l99.469 226.042 99.469-226.042z" />
<glyph unicode="&#xe90c;" glyph-name="type" horiz-adv-x="1078" d="M1053.373 960h-1028.851c-13.543 0-24.522-10.979-24.522-24.522v0-191.057c0.631-13.039 11.356-23.373 24.495-23.373s23.864 10.333 24.493 23.316l0.002 0.056c0.031 40.588 32.925 73.482 73.51 73.512h318.467v-759.431c-0.031-40.588-32.925-73.482-73.51-73.512h-0.003c-0.343 0.017-0.745 0.027-1.149 0.027-13.543 0-24.522-10.979-24.522-24.522s10.979-24.522 24.522-24.522c0.404 0 0.806 0.010 1.206 0.029l-0.056-0.002h343.956c0.343-0.017 0.745-0.027 1.149-0.027 13.543 0 24.522 10.979 24.522 24.522s-10.979 24.522-24.522 24.522c-0.404 0-0.806-0.010-1.206-0.029l0.056 0.002h-0.97c-40.588 0.031-73.482 32.925-73.512 73.51v759.434h318.464c40.588-0.031 73.482-32.925 73.512-73.51v-0.003c-0.017-0.343-0.027-0.745-0.027-1.149 0-13.543 10.979-24.522 24.522-24.522s24.522 10.979 24.522 24.522c0 0.404-0.010 0.806-0.029 1.206l0.002-0.056v191.057c0 13.543-10.979 24.522-24.522 24.522v0z" />
<glyph unicode="&#xe90d;" glyph-name="clip" horiz-adv-x="928" d="M426.997 503.296c5.612 6.334 9.039 14.716 9.039 23.899 0 19.944-16.168 36.112-36.112 36.112-9.137 0-17.481-3.393-23.841-8.988l0.040 0.035-191.173-191.173c-28.241-30.382-45.572-71.241-45.572-116.148 0-94.33 76.469-170.799 170.799-170.799 44.907 0 85.766 17.331 116.254 45.669l-0.106-0.097 431.633 431.633c41.16 42.76 66.512 100.989 66.512 165.14 0 131.59-106.675 238.264-238.264 238.264-64.394 0-122.821-25.545-165.701-67.054l0.064 0.062-430.718-430.657c-60.388-56.133-98.049-136.011-98.049-224.684 0-169.254 137.208-306.462 306.462-306.462 88.673 0 168.55 37.66 224.509 97.859l0.175 0.19 191.173 191.173c6.541 6.541 10.587 15.577 10.587 25.559 0 19.963-16.183 36.146-36.146 36.146-9.981 0-19.018-4.046-25.559-10.587v0l-190.868-191.478c-42.384-42.384-100.938-68.6-165.614-68.6-129.352 0-234.213 104.861-234.213 234.213 0 64.676 26.215 123.23 68.6 165.614l430.718 430.718c29.694 29.917 70.835 48.436 116.301 48.436 0.309 0 0.618-0.001 0.927-0.003h-0.047c45.741-0.008 87.159-18.512 117.185-48.438l-0.004 0.004c29.917-29.694 48.436-70.835 48.436-116.301 0-0.309-0.001-0.618-0.003-0.927v0.047c-0.008-45.741-18.512-87.159-48.438-117.185l-431.629-431.629c-17.92-17.575-42.493-28.423-69.601-28.423s-51.681 10.847-69.616 28.438l0.016-0.016c-18.015 17.719-29.179 42.356-29.179 69.601s11.163 51.882 29.165 69.587l0.013 0.013 191.844 191.234z" />
<glyph unicode="&#xe90e;" glyph-name="close-2" d="M602.563 448.036l402.661 402.661c9.362 11.089 15.052 25.542 15.052 41.325 0 35.487-28.768 64.254-64.254 64.254-15.782 0-30.236-5.69-41.42-15.131l0.096 0.079-402.661-402.375-402.732 402.375c-11.089 9.362-25.542 15.052-41.325 15.052-35.487 0-64.254-28.768-64.254-64.254 0-15.782 5.69-30.236 15.131-41.42l-0.079 0.096 402.446-402.661-402.446-402.732c-14.060-11.865-22.93-29.498-22.93-49.203 0-35.487 28.768-64.254 64.254-64.254 19.704 0 37.337 8.869 49.124 22.834l0.079 0.096 402.732 402.732 402.661-402.661c11.089-9.362 25.542-15.052 41.325-15.052 35.487 0 64.254 28.768 64.254 64.254 0 15.782-5.69 30.236-15.131 41.42l0.079-0.096z" />
<glyph unicode="&#xe90f;" glyph-name="download" horiz-adv-x="946" d="M299.52 539.276c-5.247-5.212-8.496-12.432-8.496-20.41s3.248-15.198 8.494-20.409l0.002-0.002 153.228-152.855c5.192-5.221 12.354-8.479 20.278-8.564h0.016c0.021 0 0.045 0 0.070 0 7.932 0 15.099 3.28 20.217 8.557l153.095 153.095c5.223 5.223 8.454 12.44 8.454 20.41 0 15.941-12.923 28.864-28.864 28.864-7.971 0-15.187-3.231-20.41-8.454l-103.703-103.703v495.337c0 15.938-12.92 28.858-28.858 28.858s-28.858-12.92-28.858-28.858v0-495.523l-103.703 103.703c-5.217 5.276-12.455 8.543-20.457 8.543-8.025 0-15.282-3.286-20.499-8.586l-0.004-0.004zM944.873 303.011l-100.678 363.055c-2.384 8.319-8.137 14.985-15.648 18.543l-0.178 0.076-2.793 1.303c-3.517 1.612-7.629 2.554-11.96 2.56h-181.064c-15.938 0-28.858-12.92-28.858-28.858s12.92-28.858 28.858-28.858h161.606l84.852-307.2h-224.442c-0.042 0-0.091 0-0.14 0-15.861 0-28.719-12.858-28.719-28.719 0-0.049 0-0.098 0-0.148v0.008-26.065c0-38.251-31.009-69.26-69.26-69.26v0h-176.128c-38.251 0-69.26 31.009-69.26 69.26v0 26.065c0 0.042 0 0.091 0 0.14 0 15.861-12.858 28.719-28.719 28.719-0.049 0-0.098 0-0.148 0h-215.73l85.318 308.038h161.606c15.938 0 28.858 12.92 28.858 28.858s-12.92 28.858-28.858 28.858h-181.295c-4.333-0.006-8.445-0.948-12.146-2.635l0.184 0.075-2.793-1.303c-7.735-3.571-13.513-10.263-15.778-18.417l-0.048-0.202-100.492-363.427c-0.637-2.291-1.025-4.93-1.070-7.653v-151.579c0.159-114.921 93.277-208.039 208.183-208.198h529.423c114.921 0.159 208.039 93.277 208.198 208.183v150.962c0.029 0.429 0.046 0.929 0.046 1.433 0 2.277-0.34 4.475-0.972 6.545l0.042-0.159zM888.227 144.384c-0.132-83.055-67.426-150.349-150.469-150.481h-529.561c-83.055 0.132-150.349 67.426-150.481 150.469v121.404h196.049c1.742-68.814 57.912-123.94 126.97-123.997h176.18c69.064 0.057 125.234 55.183 126.973 123.836l0.003 0.161h204.8v-121.623z" />
<glyph unicode="&#xe910;" glyph-name="download-arrow" horiz-adv-x="827" d="M790.924 280.704c6.811 5.933 11.091 14.621 11.091 24.309s-4.28 18.376-11.053 24.276l-0.039 0.033c-7.533 6.205-17.281 9.968-27.907 9.968s-20.374-3.763-27.983-10.029l0.076 0.061-282.764-248.245v820.289c-1.219 19.255-17.134 34.41-36.589 34.41-0.88 0-1.752-0.031-2.616-0.092l0.116 0.007c-0.73 0.051-1.583 0.080-2.442 0.080-19.57 0-35.614-15.094-37.125-34.275l-0.008-0.129v-820.289l-281.987 248.537c-7.539 6.188-17.285 9.94-27.907 9.94s-20.367-3.751-27.984-10.001l0.077 0.062c-6.811-5.933-11.091-14.621-11.091-24.309s4.28-18.376 11.053-24.276l0.039-0.033 349.566-307.949c7.533-6.205 17.281-9.968 27.907-9.968s20.374 3.763 27.983 10.029l-0.076-0.061z" />
<glyph unicode="&#xe911;" glyph-name="Path-676" d="M24.412-39.657l975.254 975.254" />
<glyph unicode="&#xe912;" glyph-name="auto-adjust-arrow" d="M616.544 511.311h313.745c21.29 1.872 37.863 19.617 37.863 41.233s-16.573 39.361-37.706 41.222l-0.157 0.011h-272.437v272.662c0.095 1.054 0.15 2.281 0.15 3.52 0 22.855-18.528 41.383-41.383 41.383s-41.383-18.528-41.383-41.383c0-1.239 0.054-2.465 0.161-3.676l-0.011 0.157v-313.745c0 0 0 0 0-0.001 0-22.776 18.4-41.255 41.146-41.382h0.012zM587.306 523.381c7.486-7.474 17.822-12.097 29.238-12.097s21.751 4.622 29.238 12.097l366.072 366.072c6.79 7.349 10.955 17.212 10.955 28.048 0 22.855-18.528 41.383-41.383 41.383-10.836 0-20.699-4.165-28.076-10.98l0.028 0.025-366.073-366.073c-7.474-7.486-12.097-17.822-12.097-29.238s4.622-21.751 12.097-29.238l-0.001 0.001zM93.561 302.073h272.662v-272.362c1.872-21.29 19.617-37.863 41.233-37.863s39.361 16.573 41.222 37.706l0.011 0.157v313.745c0 22.855-18.528 41.383-41.383 41.383v0h-313.745c-1.054 0.095-2.281 0.15-3.52 0.15-22.855 0-41.383-18.528-41.383-41.383s18.528-41.383 41.383-41.383c1.239 0 2.465 0.054 3.676 0.161l-0.157-0.011zM12.070-51.855c7.486-7.474 17.822-12.097 29.238-12.097s21.751 4.622 29.238 12.097l366.072 366.072c8.211 7.586 13.335 18.408 13.335 30.428 0 22.855-18.528 41.383-41.383 41.383-12.019 0-22.842-5.124-30.402-13.307l-0.025-0.028-366.073-366.073c-7.474-7.486-12.097-17.822-12.097-29.238s4.622-21.751 12.097-29.238l-0.001 0.001z" />
<glyph unicode="&#xe913;" glyph-name="full-page-arrow" d="M982.617 960.075h-313.745c-21.29-1.872-37.863-19.617-37.863-41.233s16.573-39.361 37.706-41.222l0.157-0.011h272.437v-272.662c-0.095-1.054-0.15-2.281-0.15-3.52 0-22.855 18.528-41.383 41.383-41.383s41.383 18.528 41.383 41.383c0 1.239-0.054 2.465-0.161 3.676l0.011-0.157v313.745c0 0 0 0 0 0.001 0 22.776-18.4 41.255-41.146 41.382h-0.012zM355.128 18.766h-272.662v272.362c-1.872 21.29-19.617 37.863-41.233 37.863s-39.361-16.573-41.222-37.706l-0.011-0.157v-313.745c0-22.855 18.528-41.383 41.383-41.383v0h313.745c1.054-0.095 2.281-0.15 3.52-0.15 22.855 0 41.383 18.528 41.383 41.383s-18.528 41.383-41.383 41.383c-1.239 0-2.465-0.054-3.676-0.161l0.157 0.011zM1011.855 947.93c-7.486 7.474-17.822 12.097-29.238 12.097s-21.751-4.622-29.238-12.097l-366.072-366.072c-6.79-7.349-10.955-17.212-10.955-28.048 0-22.855 18.528-41.383 41.383-41.383 10.836 0 20.699 4.165 28.076 10.98l-0.028-0.025 366.073 366.073c7.474 7.486 12.097 17.822 12.097 29.238s-4.622 21.751-12.097 29.238l0.001-0.001zM436.619 372.694c-7.486 7.474-17.822 12.097-29.238 12.097s-21.751-4.622-29.238-12.097l-366.072-366.072c-8.211-7.586-13.335-18.408-13.335-30.428 0-22.855 18.528-41.383 41.383-41.383 12.019 0 22.842 5.124 30.402 13.307l0.025 0.028 366.073 366.073c7.474 7.486 12.097 17.822 12.097 29.238s-4.622 21.751-12.097 29.238l0.001-0.001z" />
<glyph unicode="&#xe914;" glyph-name="double-sided-eraser" horiz-adv-x="683" d="M39.987 954.112c-12.074-5.687-21.942-14.355-28.918-25.077l-0.163-0.267c-6.867-10.303-10.959-22.968-10.959-36.588 0-0.169 0.001-0.338 0.002-0.506v0.026-409.6c-0.009-0.398-0.014-0.866-0.014-1.336 0-20.015 9.086-37.908 23.358-49.779l0.105-0.085 546.202-477.85c9.393-8.502 21.344-14.342 34.567-16.24l0.351-0.041c3.12-0.507 6.717-0.796 10.382-0.796 10.054 0 19.599 2.179 28.188 6.090l-0.426-0.174c12.056 5.692 21.906 14.359 28.867 25.076l0.163 0.268c6.867 10.303 10.959 22.968 10.959 36.588 0 0.169-0.001 0.338-0.002 0.506v-0.026 409.6c0.009 0.398 0.014 0.866 0.014 1.336 0 20.015-9.086 37.908-23.358 49.779l-0.105 0.085-546.15 477.901c-9.399 8.481-21.349 14.303-34.568 16.189l-0.351 0.041c-3.123 0.508-6.722 0.798-10.389 0.798-10.052 0-19.594-2.179-28.181-6.092l0.426 0.174zM614.4 413.85v-409.6l-204.8 179.2v409.6z" />
<glyph unicode="&#xe915;" glyph-name="mic" d="M738 468.667h72q0-108-75-189t-181-97v-140h-84v140q-106 16-181 97t-75 189h72q0-94 67-155t159-61 159 61 67 155zM512 340.667q-52 0-90 38t-38 90v256q0 52 38 90t90 38 90-38 38-90v-256q0-52-38-90t-90-38z" />
<glyph unicode="&#xe916;" glyph-name="mic_off" d="M182 810.667l714-714-54-54-178 178q-44-28-110-38v-140h-84v140q-106 16-181 97t-75 189h72q0-94 67-155t159-61q50 0 98 22l-70 70q-16-4-28-4-52 0-90 38t-38 90v32l-256 256zM640 462.667l-256 254v8q0 52 38 90t90 38 90-38 38-90v-262zM810 468.667q0-74-38-140l-52 54q18 40 18 86h72z" />
<glyph unicode="&#xe917;" glyph-name="videocam" d="M726 490.667l170 170v-468l-170 170v-150q0-18-13-30t-31-12h-512q-18 0-30 12t-12 30v428q0 18 12 30t30 12h512q18 0 31-12t13-30v-150z" />
<glyph unicode="&#xe918;" glyph-name="videocam_off" d="M140 852.667l756-756-54-54-136 136q-12-8-24-8h-512q-18 0-30 12t-12 30v428q0 18 12 30t30 12h32l-116 116zM896 660.667v-456l-478 478h264q18 0 31-12t13-30v-150z" />
<glyph unicode="&#xe919;" glyph-name="keyboard_arrow_down" d="M120 718.667l392-392 392 392 120-120-512-512-512 512z" />
<glyph unicode="&#xe91a;" glyph-name="keyboard_arrow_up" d="M120 134.667l-120 120 512 512 512-512-120-120-392 392z" />
<glyph unicode="&#xe967;" glyph-name="undo2" d="M761.862-64c113.726 206.032 132.888 520.306-313.862 509.824v-253.824l-384 384 384 384v-248.372c534.962 13.942 594.57-472.214 313.862-775.628z" />
<glyph unicode="&#xe968;" glyph-name="redo2" d="M576 711.628v248.372l384-384-384-384v253.824c-446.75 10.482-427.588-303.792-313.86-509.824-280.712 303.414-221.1 789.57 313.86 775.628z" />
<glyph unicode="&#xe9ad;" glyph-name="bin2" d="M192-64h640l64 704h-768zM640 832v128h-256v-128h-320v-192l64 64h768l64-64v192h-320zM576 832h-128v64h128v-64z" />
</font>
</defs>
</svg>
