<?xml version="1.0" encoding="utf-8"?>
<!-- Generator: Adobe Illustrator 19.0.0, SVG Export Plug-In . SVG Version: 6.00 Build 0)  -->
<svg version="1.1" id="Layer_1" xmlns="http://www.w3.org/2000/svg" xmlns:xlink="http://www.w3.org/1999/xlink" x="0px" y="0px"
	 viewBox="0 0 512 512" style="enable-background:new 0 0 512 512;" xml:space="preserve">
<style type="text/css">
	.st0{fill:#2cb1ff;}
</style>
<g>
	<path class="st0" d="M288.5863037,243.7357788c2.0007629,3.8954163,6.7722168,5.4431915,10.6785889,3.4639435
		c0.4588318-0.2294006,47.1647034-23.9493713,70.1965027-31.2328339c4.1809082-1.3239594,6.4969482-5.7865295,5.1729736-9.9674377
		c-1.3239441-4.1809082-5.7865295-6.496933-9.9674377-5.1729736l0,0
		c-24.2590637,7.684906-70.6323547,31.2443085-72.6051941,32.2307281c-3.9076843,1.986496-5.4650879,6.764679-3.4785767,10.6723633
		C288.5842285,243.7316437,288.5852966,243.7337036,288.5863037,243.7357788z M295.6747742,152.8703308
		c1.2478027,0.0002594,2.4779663-0.2945099,3.5901184-0.86026c0.4588318-0.2294006,47.1647034-23.9608459,70.1965027-31.2328491
		c4.1809082-1.3239517,6.4969482-5.7865295,5.1729736-9.9674377c-1.3239441-4.1809082-5.7865295-6.4969254-9.9674377-5.1729813
		c-24.2590637,7.6849136-70.6323547,31.2328415-72.6051941,32.2307358
		c-3.9021912,1.9972839-5.4463806,6.7797394-3.4491272,10.6819153
		C289.969574,151.2006531,292.6965332,152.8690643,295.6747742,152.8703308z"/>
	<path id="XMLID_18_" class="st0" d="M486.0541077,137.0072937c-4.3773193-0.0000153-7.9258118,3.5484619-7.9258118,7.9257507
		c0,0.0038452,0,0.0076752,0,0.0115051v309.3806763c-0.0126343,13.1392822-10.6609802,23.7876282-23.800293,23.800293H263.9257813
		v-18.2487793c11.5847168-4.0489502,41.7049561-13.4772644,71.4008179-13.4772644
		c69.1068726,0,116.0307007,15.3009949,116.5009766,15.4615784c4.1516113,1.3872681,8.6417847-0.8536072,10.0291138-5.0052795
		c0.2713623-0.8120728,0.4093628-1.6628113,0.4085693-2.519043V105.2582932
		c0.0057373-3.7213745-2.5819397-6.9440536-6.2167358-7.7422562c0,0-6.2167358-1.3764038-16.8609314-3.3263092
		c-4.3616333-0.4980011-8.3011169,2.6340714-8.7991333,6.995697c-0.4506836,3.947197,2.0821838,7.6210022,5.9316406,8.6035233
		c4.0603638,0.7455444,7.4555054,1.3993378,10.0706482,1.9269638v332.0569153
		c-17.9735413-4.7026978-57.8891907-13.2593079-111.0641479-13.2593079c-34.5591431,0-68.510376,11.3553467-79.0283813,15.2092285
		c-9.325119-4.1292114-37.5528259-15.2092285-71.6875763-15.2092285c-54.6546173,0-99.6744232,9.0154114-119.0014038,13.59198
		V111.4177017c15.8286209-3.8998108,62.6262817-14.0737076,118.9899292-14.0737076
		c28.9273682,0,53.7370148,9.003952,63.4635773,13.0758133v312.1793823c0.0025635,4.383606,3.5582886,7.9351501,7.9418945,7.9325867
		c1.4368591-0.000824,2.8465576-0.3916931,4.0786743-1.1308899c0.7914429-0.4702759,79.3839722-47.4170227,149.1446228-70.6782227
		c3.2428894-1.0764465,5.4329834-4.1074524,5.4367676-7.524353V25.9431515
		c0.0095825-4.3772774-3.5311279-7.9335384-7.9083862-7.9431324c-0.9619141-0.0021076-1.9161682,0.1709003-2.8161011,0.5105629
		c-63.4750671,23.8117485-127.7071228,63.7732773-128.3494263,64.1747284
		c-3.6359253,2.4487534-4.5982666,7.38134-2.1495361,11.0172348c2.3311768,3.4613037,6.944519,4.5262985,10.5570374,2.437088
		c0.5964355-0.3785095,56.4668884-35.1441231,114.7919312-58.6003036v307.9698792
		c-54.1384583,18.8222961-110.6856384,49.5504456-134.8644409,63.3144836V105.2582932
		c0.0014038-3.0052948-1.6946716-5.7536316-4.3815308-7.0999374c-1.3649292-0.6652603-33.8709412-16.7003403-74.9450836-16.7003403
		c-71.6875839,0-126.7895279,15.5189362-129.1064758,16.1727219c-3.4087334,0.9693069-5.7597389,4.0836868-5.757946,7.6275558
		v349.0554504c0.0188408,4.375824,3.5614548,7.9184265,7.937252,7.9372864c0.7374001,0,1.471096-0.1042786,2.1793022-0.3096924
		c0.5390892-0.1491394,55.4001656-15.5533447,124.747879-15.5533447c29.0076752,0,53.7943573,9.026886,63.4635925,13.0758057
		v18.650238H57.6719933c-13.1392937-0.0126343-23.7876396-10.6609802-23.8002815-23.800293V144.9445496
		c-0.1666031-4.3804626-3.8527222-7.796463-8.2331753-7.6298676c-4.1467667,0.1577148-7.4721375,3.4830933-7.6298542,7.6298676
		v309.3806763C18.027647,476.2246704,35.7725601,493.9747009,57.6719933,494h396.6560059
		c21.8994141-0.0252991,39.6443787-17.7753296,39.6632996-39.6747742V144.9445496
		c0-4.3836212-3.5536194-7.9372559-7.9372559-7.9372559C486.0540466,137.0072937,486.0540466,137.0072937,486.0541077,137.0072937z"
		/>
	<path class="st0" d="M288.5863037,196.1352081c1.9966125,3.8997192,6.7691956,5.4529724,10.6785889,3.4754028
		c0.4588318-0.24086,47.1647034-23.9723206,70.1965027-31.2328339c4.1809082-1.3239594,6.4969482-5.7865295,5.1729736-9.9674377
		c-1.3239441-4.1809082-5.7865295-6.496933-9.9674377-5.1729736l0,0
		c-24.2590637,7.6734314-70.6323547,31.2328339-72.6051941,32.2307281
		C288.1583252,187.4556732,286.6029358,192.22966,288.5863037,196.1352081z M288.5863037,291.3363342
		c2.0007629,3.8954163,6.7722168,5.4431763,10.6785889,3.4639587c0.4588318-0.2294006,47.1647034-23.9608765,70.1965027-31.2328491
		c4.1809082-1.3239441,6.4969482-5.7865295,5.1729736-9.9674377c-1.3239441-4.1809082-5.7865295-6.496933-9.9674377-5.1729889l0,0
		c-24.2590637,7.6849213-70.6323547,31.244339-72.6051941,32.2307281
		c-3.9034119,1.9875793-5.4588013,6.7615967-3.4754028,10.6671143L288.5863037,291.3363342z M210.2117157,165.2350006
		c-48.9884338-11.4929504-104.6524048,3.1427917-106.9922943,3.7736206
		c-4.1914749,1.2836304-6.5487442,5.7220917-5.2651138,9.913559c1.2198868,3.9833374,5.3117905,6.3457184,9.371376,5.4103851
		c0.5276108-0.1490936,54.1384735-14.2457428,99.2729645-3.6589355c4.2664337,0.9977264,8.5338593-1.6520996,9.5315704-5.9185181
		c0.9977417-4.2664337-1.6520844-8.5338745-5.9185028-9.5315857V165.2350006z M210.2117157,212.8355713
		c-48.9884338-11.4929657-104.6524048,3.1427765-106.9922943,3.7736359
		c-4.1914749,1.2836304-6.5487442,5.7220764-5.2651138,9.9135437c1.2198868,3.9833374,5.3117905,6.3457184,9.371376,5.4104004
		c0.5276108-0.1491241,54.1384735-14.2457733,99.2729645-3.6589355c4.2664337,0.9977112,8.5338593-1.6520996,9.5315704-5.9185486
		c0.9977417-4.2664185-1.6520844-8.5338593-5.9185028-9.5315704V212.8355713z M288.5863037,338.9368896
		c2.0007629,3.8954163,6.7722168,5.4431763,10.6785889,3.4639587c0.4588318-0.2294312,47.1647034-23.9608765,70.1965027-31.2328491
		c4.1809082-1.3239441,6.4969482-5.7865295,5.1729736-9.9674377c-1.3239441-4.1809082-5.7865295-6.4969177-9.9674377-5.1729736
		c-24.2590637,7.684906-70.6323547,31.2328186-72.6051941,32.2307129
		c-3.9034119,1.9875793-5.4588013,6.7615967-3.4754028,10.6671143L288.5863037,338.9368896z M210.2117157,260.4246521
		c-48.9884338-11.4814758-104.6524048,3.1427917-106.9922943,3.7850952
		c-4.1914749,1.2836304-6.5487442,5.7220764-5.2651138,9.9135742c1.2198868,3.9833374,5.3117905,6.3457031,9.371376,5.4103699
		c0.5276108-0.1491089,54.1384735-14.2457581,99.2729645-3.6589355c4.2664337,0.9977112,8.5338593-1.6520691,9.5315704-5.9185181
		C217.1279602,265.6897888,214.4781342,261.4223633,210.2117157,260.4246521L210.2117157,260.4246521z M210.2117157,355.6257629
		c-48.9884338-11.4929504-104.6524048,3.1542358-106.9922943,3.7850952
		c-4.1700439,1.3516235-6.4548264,5.8278198-5.1032028,9.9978638c1.2543106,3.869812,5.2313004,6.164856,9.209465,5.3146362
		c0.5276108-0.1491394,54.1384735-14.2457886,99.2729645-3.6474915c4.2664337,0.9977112,8.5338593-1.6520691,9.5315704-5.9185181
		C217.1279602,360.8908997,214.4781342,356.6234741,210.2117157,355.6257629z M210.2117157,308.0252075
		c-48.9884338-11.4929504-104.6524048,3.1427917-106.9922943,3.7850952
		c-4.1914749,1.2836304-6.5487442,5.7220764-5.2651138,9.9135742c1.2198868,3.9833069,5.3117905,6.3457031,9.371376,5.4103699
		c0.5276108-0.1491089,54.1384735-14.2572327,99.2729645-3.6703796c4.2664337,0.9977112,8.5338593-1.6520996,9.5315704-5.9185486
		c0.9977417-4.2664185-1.6520844-8.5338745-5.9185028-9.5315857V308.0252075z"/>
</g>
</svg>
