<?xml version="1.0" encoding="utf-8"?>
<!-- Generator: Adobe Illustrator 19.0.0, SVG Export Plug-In . SVG Version: 6.00 Build 0)  -->
<svg version="1.1" id="OBJECTS" xmlns="http://www.w3.org/2000/svg" xmlns:xlink="http://www.w3.org/1999/xlink" x="0px" y="0px"
	 viewBox="0 0 406.7231445 419.6740417" style="enable-background:new 0 0 406.7231445 419.6740417;" xml:space="preserve">
<style type="text/css">
	.st0{fill:#9CD5D8;}
	.st1{opacity:0.5;fill:#85C1C1;}
	.st2{opacity:0.5;}
	.st3{fill:#85C1C1;}
	.st4{fill:#FFFFFF;}
	.st5{fill:#FF7D6F;}
	.st6{fill:#009595;}
	.st7{fill:#FFA07F;}
	.st8{fill:#072743;}
	.st9{fill:#1B496F;}
	.st10{fill:#0F3358;}
	.st11{fill:#FFBF90;}
	.st12{fill:#FFD39C;}
	.st13{fill:#11B2AE;}
	.st14{fill:#4BC1BC;}
	.st15{fill:#D43400;}
	.st16{fill:#1E0C29;}
	.st17{fill:#FC5B68;}
	.st18{fill:#CF4A57;}
	.st19{fill:#AF1000;}
	.st20{fill:#EF5100;}
	.st21{fill:#831A3F;}
	.st22{fill:#AA2849;}
	.st23{fill:#600E36;}
	.st24{fill:#BA2222;}
	.st25{fill:#A11111;}
	.st26{fill:#D02D2D;}
</style>
<g>
	<g>
		<path class="st0" d="M406.2750854,147.9557037c-0.6916809-4.8042908-2.1291809-9.4494934-3.9647827-13.8874969
			c-3.7043152-8.8904953-9.0161133-16.809494-14.7874146-24.1276932
			c-5.8031921-7.3155975-12.1795959-14.0197983-18.7825928-20.3364029
			c-13.2021179-12.6526947-27.4194031-23.7352982-41.9565125-33.7018967
			c-14.579895-9.9154015-29.5708923-18.6435013-44.7949829-26.0748005c-7.592804-3.7587986-15.3041077-7.0562-22.9909973-10.1420994
			c-0.8881226-0.348999-1.7790222-0.6746006-2.668396-1.0130997C223.332489,2.4533148,188.2324982-5.1042848,155.2157898,3.7543149
			C45.8752937,33.0907135,8.873292,156.4819183,8.873292,156.4819183c-3.6796999,8.6366882-2.0035,21.5274963,3.9628,36.3303986
			c-0.0171003,0.3141937-0.0144997,0.4826965,0.0102997,0.4860992c0.0195999,0.002594,0.0492001-0.0866089,0.0879002-0.2464142
			c20.8843002,51.4883118,93.6042023,125.9555664,174.6268005,125.7399292
			c13.0883026-0.0348511,25.7341003-0.7952271,38.378891-2.7126465c-2.0818024,0.4922485-4.1608887,0.9683838-6.2336884,1.4172974
			c-7.1408081,1.5266724-14.2911072,2.4379883-21.3497009,2.8201294
			c-14.1269989,0.7636108-27.8511047-0.5740967-40.7441101-3.2177734
			c-12.9030914-2.6547241-25.0056915-6.5644226-36.1961975-11.1618347
			c-22.3988953-9.2333984-41.1949997-20.9786987-56.4841995-32.7421875
			c-15.2931976-11.804718-27.0797997-23.7650146-35.4958992-34.4777069C21.0065918,228,16.081892,218.4350128,13.970192,211.572113
			c-1.0796995-3.4264984-1.5394001-6.1444092-1.7242002-7.979599c-0.1048994-0.9170074-0.1101999-1.6168976-0.1630001-2.08461
			c-0.0507994-0.4685974-0.0482998-0.7063904-0.0824995-0.707489c-0.0762005-0.0034027-0.1557999,0.9490967-0.1170998,2.8190002
			c0.0671997,1.8667908,0.4159994,4.6489868,1.401,8.162796c1.9215994,7.0399933,6.7181997,16.8448944,15.0614996,27.7979889
			c8.3305988,10.9511108,20.0716,23.1560974,35.3740005,35.2098999
			c15.300602,12.0122986,34.1599007,24.0151978,56.7455025,33.5035095
			c11.2848053,4.7240906,23.5146027,8.7597351,36.5959015,11.5266418
			c13.0706024,2.755127,27.0265961,4.1913452,41.4463043,3.4777222c7.2043915-0.3573608,14.5151978-1.2565918,21.8264008-2.7890015
			c7.2545929-1.5402832,14.5862885-3.3309937,21.9411926-5.4888306c7.3491974-2.1733398,14.722702-4.7050476,22.0257111-7.7210388
			c2.9116821-1.1886902,5.8017883-2.487793,8.6821899-3.8364868c48.5678101-18.308197,95.6751099-51.9047089,123.5788879-94.8518066
			c6.5164185-10.0294952,7.2484131-21.7489014,4.8048096-33.621994c0.7961121-1.8713074,1.5927124-3.7442017,2.3911133-5.621109
			l0.3403931-0.8047943l0.2970886-0.8580017l0.5920105-1.7182007c0.3543091-1.1580048,0.6365051-2.342804,0.9213867-3.5224915
			C406.8877869,157.6963043,406.9512939,152.754715,406.2750854,147.9557037z M402.4372864,161.7176056
			c-0.2611084,1.0679016-0.5137024,2.1405029-0.8339844,3.1902008l-0.5371094,1.5575104l-0.2669983,0.7786865l-0.333313,0.7880096
			c-0.1725769,0.4059906-0.3442993,0.8101044-0.5167847,1.2158051
			c-5.1882019-18.1343079-16.7986145-36.0512085-25.5845032-48.2916031
			c-20.8659058-29.0702057-52.8547974-61.7301025-89.3670959-85.7806015
			c13.51828,6.8823013,26.8468933,14.7883949,39.8406067,23.6509018c14.3873901,9.8928986,28.4482727,20.8786011,41.4742737,33.3806
			c6.5140076,6.2390976,12.7794189,12.8384933,18.4431152,19.9839935
			c5.6334839,7.142807,10.7690125,14.8354034,14.2804871,23.2755966c1.7420044,4.2115021,3.0854187,8.572403,3.7241211,13.0093079
			C403.3829041,152.9092102,403.3188782,157.4005127,402.4372864,161.7176056z"/>
		<g>
			<g>
				<path class="st1" d="M49.0206909,185.2631073c0.2248001-0.7142029-5.3340988-3.0867004-12.5606995-4.7353973
					c-0.0151978-0.0034943-0.0298996-0.0065002-0.0449982-0.009903c-0.0146027-0.0296021-0.0289993-0.0590973-0.043602-0.0888062
					c2.395401-6.2636871,3.7749023-11.3069916,3.1226997-11.5656891c-0.572998-0.2273102-2.5326004,3.3003998-4.7276001,8.3612061
					c-4.2710991-8.3751068-8.1186981-14.7189026-8.7637997-14.3948059c-0.6778984,0.3405914,2.4459,7.9279022,6.9772015,16.946991
					c0.007,0.0139008,0.0139008,0.0276031,0.0209007,0.0415039c-5.593502-1.0149994-9.8196011-1.114502-9.910202-0.4962006
					c-0.096899,0.6419067,3.9962006,1.8009949,9.5461006,3.1303101c-2.410099,6.2925873-3.8010006,11.3677979-3.1460991,11.627594
					c0.6428986,0.2550049,3.0363998-4.2310944,5.5471992-10.3009033c3.6887016,7.0066071,6.8003006,11.9994965,7.3739014,11.7113037
					c0.5444984-0.2734985-1.3608017-5.2138977-4.4752998-11.8141937
					C44.0665932,185.0410004,48.8155937,185.9243164,49.0206909,185.2631073z"/>
				<path class="st1" d="M364.3859863,191.5058136c0.6806946-0.3117065-1.2835083-6.02771-4.9024963-12.4963989
					c-0.0075989-0.0136108-0.0152893-0.0265045-0.0228882-0.0401001c0.0122986-0.0306091,0.0244751-0.0611115,0.0366821-0.0917969
					c6.2545166-2.4195099,10.9222107-4.7753143,10.6772156-5.4327087c-0.21521-0.5776978-4.1468201,0.3319092-9.374115,2.0939941
					c3.3542175-8.7825928,5.484314-15.8895874,4.8114929-16.1512909c-0.7070923-0.2749023-4.2453918,7.1282959-7.9030762,16.5354919
					c-0.0057068,0.0145111-0.0112,0.0288086-0.0168152,0.0434113c-2.9949951-4.8320007-5.7532043-8.0354156-6.2728882-7.6883087
					c-0.5413208,0.3582001,1.3411865,4.173111,4.0737,9.183197c-6.2857056,2.4279022-10.9848022,4.7966003-10.7387085,5.4569092
					c0.2415161,0.647995,5.1752014-0.5816956,11.3630066-2.7857056c-2.7286072,7.4333038-4.3495178,13.0888062-3.7511902,13.3213959
					c0.5678711,0.2209015,2.9581909-4.5039978,5.7700806-11.2388916
					C361.230896,187.6798096,363.757782,191.7967072,364.3859863,191.5058136z"/>
				<path class="st1" d="M203.206192,94.6208115c0.3992004-0.1828079-0.7527008-3.5348969-2.875-7.3283997
					c-0.0045013-0.0079956-0.0088959-0.0156021-0.0133972-0.0234985c0.0072021-0.0179977,0.0142975-0.0359039,0.0214996-0.0539093
					c3.6678925-1.4188919,6.405304-2.8003922,6.2615967-3.185997c-0.126297-0.3386917-2.4319,0.1947021-5.497406,1.2281036
					c1.9670105-5.1504974,3.2163086-9.3183975,2.821701-9.4717941c-0.4146881-0.1613083-2.4897003,4.1802979-4.6347961,9.6970978
					c-0.0032959,0.0084991-0.0065002,0.0168991-0.0097961,0.0253983c-1.7564087-2.8336029-3.3740082-4.7123032-3.6786957-4.5086975
					c-0.3175049,0.2100983,0.7865906,2.447197,2.3889923,5.3853989c-3.686203,1.4238968-6.4420013,2.8129959-6.297699,3.2001953
					c0.1416931,0.3800049,3.0350037-0.3411942,6.6638031-1.6337051c-1.6002045,4.3593063-2.550705,7.6759109-2.1997986,7.8123093
					c0.3329926,0.1295013,1.7346954-2.6414032,3.3837891-6.5910034
					C201.3559875,92.3771133,202.8377991,94.7914124,203.206192,94.6208115z"/>
				<path class="st1" d="M63.4649925,89.1701126c-0.3937988-0.1941071-2.2658997,2.8156967-3.8675003,6.8567963
					c-0.0033989,0.0084-0.0064011,0.0167007-0.0097008,0.0251999c-0.0184975,0.005806-0.0368996,0.0115051-0.0554008,0.0173035
					c-3.4161987-1.9483032-6.2159996-3.1987-6.4241982-2.8438034c-0.1829987,0.3118057,1.6865005,1.7629013,4.4234009,3.4875031
					c-5.2359009,1.726799-9.2565994,3.3897018-9.126503,3.7926025c0.1368027,0.4234009,4.8136024-0.7089005,10.446003-2.5289001
					c0.0086975-0.0028076,0.0172997-0.0056992,0.0259972-0.0084991c-1.0882988,3.1512985-1.5237999,5.5917969-1.1735001,5.6994934
					c0.3634033,0.1136017,1.4011002-2.155098,2.6676025-5.2529984c3.4316978,1.9595032,6.2489014,3.2192993,6.4580002,2.8628998
					c0.2052994-0.3498001-2.1808014-2.1380005-5.4743996-4.1358948c4.3906975-1.5116043,7.5628014-2.8687057,7.4469948-3.2269058
					c-0.1098938-0.3399963-3.1435928,0.3226013-7.2474976,1.5377045
					C62.8933907,92.0216141,63.8298912,89.348114,63.4649925,89.1701126z"/>
				<g class="st2">
					<g>
						<path class="st3" d="M340.6788025,232.8416138c-1.0700989,0.0195923-1.4824219-10.1641083-6.0942078-21.5321045
							c-4.4648132-11.4266052-11.1655884-19.1062012-10.3749084-19.8276062
							c0.3363953-0.3209991,2.487915,1.1976013,5.263916,4.382309c0.6947021,0.7940979,1.4275818,1.6889038,2.1497803,2.6987
							c0.7601013,0.985199,1.4644165,2.1098938,2.2242126,3.2850952c1.4504089,2.3897095,2.8722839,5.1307068,4.0812073,8.1298065
							c1.1835938,3.0092926,2.0350037,5.9774017,2.6242981,8.7099915c0.2559814,1.3758087,0.5175781,2.6768036,0.6427002,3.9147949
							c0.1696777,1.2299042,0.2525024,2.383606,0.2937012,3.4378052
							C341.6625977,230.2617035,341.1437988,232.8435059,340.6788025,232.8416138z"/>
					</g>
					<g>
						<path class="st3" d="M347.4911804,242.9755096c-1.0015869-0.2416077-0.2928772-6.2707062-0.5746765-13.6110992
							c-0.2156982-7.3426971-1.3310242-13.309906-0.3480225-13.6188049c0.4644165-0.1376953,1.3657227,1.2203979,2.216217,3.6481018
							c0.8536987,2.4196014,1.5925903,5.9241943,1.7292786,9.8488007c0.129303,3.9248047-0.370697,7.4712982-1.0585938,9.9431915
							C348.7710876,241.6654053,347.9638977,243.0815125,347.4911804,242.9755096z"/>
					</g>
				</g>
				<g class="st2">
					<g>
						<path class="st3" d="M86.9173889,197.6782074c0.8059998,0.6697083-5.3547974,9.0164032-11.1149979,20.2949982
							c-5.8363953,11.2393951-9.0531998,21.1022034-10.066597,20.8350067
							c-0.4627991-0.1245117-0.2516022-2.7845001,0.8163986-6.9285126
							c1.0596008-4.1397858,3.0606003-9.7376862,6.0500031-15.5544891
							c2.9992981-5.8117981,6.3941956-10.6918945,9.1489944-13.9586945
							C84.5044937,199.0905151,86.5471954,197.373703,86.9173889,197.6782074z"/>
					</g>
					<g>
						<path class="st3" d="M98.4183884,185.2260132c0.1747055,1.0341034-6.900795,2.7758026-14.3044968,7.4259033
							c-7.4682007,4.5458984-12.1876984,10.0975952-13.0348969,9.479187
							c-0.3824997-0.2787933,0.3199997-2.0856934,2.1801987-4.5498962c0.9179001-1.239502,2.1651001-2.5930939,3.6596985-3.9868011
							c1.5152969-1.368103,3.2977982-2.7530975,5.3019028-4.0039978c2.014595-1.2341003,4.0500946-2.2098999,5.9510956-2.9542999
							c1.9146042-0.7142944,3.6828995-1.225296,5.2019043-1.492691
							C96.4093933,184.5802155,98.3398895,184.7591095,98.4183884,185.2260132z"/>
					</g>
				</g>
			</g>
			<g>
				<path class="st4" d="M52.3916931,311.2170105c-0.0174026-0.3309937-0.0348015-0.6618958-0.0522995-0.9928894
					c-0.0566025-1.0767212-0.922802-2.4532166-1.8003998-3.0457153c-0.8361015-0.5643921-1.7292023-0.8633118-2.7423019-0.8569946
					c-2.1288986,0.013092-4.3686981,1.6908875-4.4884987,3.9640808c-0.0174026,0.3312073-0.0349007,0.6625061-0.0522995,0.9936218
					c-0.0670013,1.2722473,0.2074966,2.361969,0.9445,3.3960266c0.835598,1.1724243,2.2693977,1.7383423,3.6581001,1.7297974
					c1.2820969-0.0079346,2.3434982-0.4659424,3.2383995-1.3829346
					C52.1532936,313.9396667,52.4699936,312.7041931,52.3916931,311.2170105z"/>
				<path class="st4" d="M50.9568939,286.8999023c-3.7707024,0-4.0573006,5.8742065-0.2590027,5.8742065
					C54.4686928,292.7741089,54.7551918,286.8999023,50.9568939,286.8999023z"/>
				<path class="st4" d="M351.4382019,260.7709961c-3.9720154,0-3.1469116,6.132019,0.7783813,6.132019
					C356.1886902,266.9030151,355.3634949,260.7709961,351.4382019,260.7709961z"/>
				<path class="st4" d="M359.9646912,279.6329956c-0.1116028-0.5682983-0.3615112-1.0756836-0.7496033-1.5221863
					c-0.6554871-0.8136902-1.805603-1.5112-2.8656006-1.591095c-1.1381836-0.0858154-2.3656006,0.1533813-3.2481995,0.9296875
					c-0.7911987,0.6957092-1.5911865,1.7623901-1.5911865,2.865509v0.7999878
					c-0.0935974,0.5984192-0.0335999,1.1737061,0.1799927,1.7261047c0.1116943,0.5682983,0.3615112,1.0757141,0.7496948,1.5222168
					c0.6555176,0.8136902,1.8055115,1.5112,2.8656006,1.591095c1.138092,0.0857849,2.365509-0.1534119,3.2481995-0.929718
					c0.7911987-0.6956787,1.591095-1.7623901,1.591095-2.8654785v-0.8000183
					C360.2382813,280.7607117,360.1782837,280.1853943,359.9646912,279.6329956z"/>
				<path class="st4" d="M70.9656906,33.6950073c-4.0441971,0-4.3297958,6.2840004-0.2764969,6.2840004
					C74.7333908,39.9790077,75.0188904,33.6950073,70.9656906,33.6950073z"/>
				<path class="st4" d="M93.4636917,37.7653122c-1.3688965-1.2044983-3.4736023-1.5686989-4.9269028-0.2653046
					c-0.2603989,0.2336082-0.5206985,0.4671059-0.7810974,0.7007065c-0.3817978,0.4146996-0.6327972,0.891098-0.7530975,1.4290009
					c-0.2218018,0.7001991-0.2537994,1.3535004-0.0951004,2.0711975c0.3970947,1.7965012,1.9128952,3.0709,3.7542953,3.1462021
					c1.596405,0.0653992,3.1320038-0.8111076,3.8266068-2.2854004
					C95.2517929,40.9411125,94.8004913,38.9416122,93.4636917,37.7653122z"/>
				<path class="st4" d="M287.1578064,19.0807152c-3.5241089,0-4.2368164,5.5125999-0.6608276,5.5125999
					C290.0210876,24.5933151,290.7338867,19.0807152,287.1578064,19.0807152z"/>
				<path class="st4" d="M306.7731934,28.6674137c-5.3688049,0-5.2633057,8.339201,0.1083984,8.339201
					C312.2503967,37.0066147,312.1448975,28.6674137,306.7731934,28.6674137z"/>
				<path class="st4" d="M2.9502921,179.9130096c-3.7612,0-4.0159998,5.8479919-0.2458,5.8479919
					C6.4657922,185.7610016,6.720592,179.9130096,2.9502921,179.9130096z"/>
				<path class="st4" d="M8.6136923,159.8916168c-5.0964003,0-4.6476002,7.8907928,0.4274998,7.8907928
					C14.1374922,167.7824097,13.6886921,159.8916168,8.6136923,159.8916168z"/>
				<path class="st4" d="M390.4102783,197.6229095c-4.1643982,0-3.2800903,6.4282074,0.8342285,6.4282074
					C395.408905,204.0511169,394.5246887,197.6229095,390.4102783,197.6229095z"/>
				<path class="st4" d="M396.3321838,177.7238159c-0.3630066-0.8659058-1.1374817-1.7681122-2.021698-2.0974121
					c-0.8478088-0.3155975-1.6940918-0.3496857-2.5629883-0.1121979c-0.6127014,0.167511-1.0895996,0.4745026-1.5227051,0.8485107
					c-0.7170105,0.4536896-1.2638855,1.1577911-1.7011108,1.876297c-0.474884,0.6143951-0.7648926,1.3067017-0.8699036,2.0769958
					c0.0004272,0.3851013,0.000824,0.7700958,0.0012207,1.1551971c0.1213074,1.3222961,0.9989929,2.4461975,2.1030884,3.0957031
					c2.1679077,1.2754974,5.1549072,0.4145966,6.1296997-1.998703c0.1166992-0.2886963,0.2352905-0.5735931,0.3271179-0.8712006
					c0.1257019-0.4076996,0.2626953-0.8395996,0.3239746-1.2630005c0.0334167-0.2299957,0.0367126-0.451889,0.0259094-0.6705933
					C396.6492004,179.0753174,396.6077881,178.3811035,396.3321838,177.7238159z"/>
			</g>
		</g>
	</g>
	<g>
		<g>
			<path class="st5" d="M218.0124969,182.2662048c0,0,56.5115814,4.2006989,66.5529938,9.0153046l-7.3187866,20.6746063
				l-61.4864044-4.9846039L218.0124969,182.2662048z"/>
			<path class="st6" d="M166.5616913,176.424408c0,0,34.0249939-4.2810974,52.0341034-0.6877899l-3.741806,41.8903961
				l-46.9483032-3.8583984L166.5616913,176.424408z"/>
		</g>
		<g>
			<g>
				<g>
					<polygon class="st5" points="200.4406891,217.6270142 167.9056854,235.0662994 180.5939941,259.0827942 
						210.2522888,244.7714996 					"/>
					<path class="st7" d="M171.7216949,242.2891083l8.8723907,16.7936859l23.8330994-11.5004883
						C194.9689941,240.2400055,183.4077911,237.6864014,171.7216949,242.2891083z"/>
				</g>
				<path class="st8" d="M244.9113922,182.2677155c0,0-34.8153076,12.2424011-47.5032959,26.9694977l15.6083984,43.1816864
					l38.9082947-28.8317871L244.9113922,182.2677155z"/>
			</g>
			<g>
				<g>
					<g>
						<path class="st9" d="M342.1958923,254.1164093l-28.2034912,8.6912079l-7.2684021,2.2385864l-7.4859924-12.7424011
							l2.0755005,43.8005981l1.6674805,35.354126h-90.6826935c0,0-0.3715057-64.6542053,14.8721924-112.9863129
							c0.7975006-2.5648041,1.6493988-5.0841064,2.5466003-7.5402069c4.0420074-11.1110992,9.0447083-21.0350037,15.19841-28.665802
							l35.5805969,0.7251129c0,0,23.2280884,8.2832947,32.7984009,18.8596954
							C322.8648987,212.4273071,342.1958923,254.1164093,342.1958923,254.1164093z"/>
						<path class="st8" d="M313.9924011,262.8076172c3.3531799-4.0511169,5.2201843-9.443512,5.2835999-14.7542114
							c0.1087952-7.8757019-3.2445068-15.4794006-7.9663086-21.7779999
							c-4.7307129-6.2897034-10.7756042-11.4465027-16.8205872-16.4853973
							c-10.8663025-9.0628052-23.5180054-18.4700012-37.5926208-16.9927979
							c-8.2470856,0.8610992-15.7329865,5.5193024-21.5422974,11.4553986
							c-2.0391998,2.0935974-3.9060974,4.3321075-5.6371002,6.6793976
							c4.0420074-11.1110992,9.0447083-21.0350037,15.19841-28.665802l35.5805969,0.7251129
							c0,0,23.2280884,8.2832947,32.7984009,18.8596954c9.5704041,10.5762939,28.9013977,52.2653961,28.9013977,52.2653961
							L313.9924011,262.8076172z"/>
						<path class="st10" d="M302.9809875,331.4585266h-90.6826935c0,0-0.3715057-64.6542053,14.8721924-112.9863129
							c1.2597046,21.805191,11.3738098,43.0756073,27.7775116,57.5399017
							c12.8421021,11.3284912,29.3544922,18.315979,46.365509,20.0922852L302.9809875,331.4585266z"/>
					</g>
					<g>
						<path class="st7" d="M347.6244812,302.1311951c-6.4254761,4.114624-28.1853943,4.7217102-45.8216858,4.4861145
							c-3.9695129-0.0542908-7.7304993-0.1539917-11.0566101-0.2629089
							c-3.335083-0.1085815-6.2352905-0.2355042-8.4827881-0.3352051
							c-9.407196,7.8392944-24.4334106,4.6491089-24.4334106,4.6491089l-0.9062805-2.8728027
							c0,0-4.2323151-2.1116943-4.9845123-3.3259888c-0.7613068-1.2054138-0.308197-5.4377136-0.308197-5.4377136
							l-4.0782013-1.0513916c0,0-3.1719971-2.4197083-2.7189026-6.7970886c0.4530945-4.386322,19.7388-6.996521,19.7388-6.996521
							s-5.5374146-12.8692017-5.084198-13.3222961c0.2719116-0.2720032,1.9393921-1.9394836,3.8516846-3.0270996
							c1.2870178-0.742981,2.6917114-1.2142944,3.8517151-0.824585c2.039093,0.6796875,8.1564941,16.3129883,8.1564941,16.3129883
							l6.7972107,3.1719971c6.2442932-1.2958984,15.0170898-1.957489,21.8957825-3.5796814
							c3.3260193-0.7795105,6.1809082-1.3684998,8.0205994-1.5860291c5.1386108-0.598175,6.6520996-0.0997925,7.1233215,0.3442993
							l-9.3981018-17.5727844l9.0899963-2.8005066l17.1650085-5.2926025
							C340.0932922,267.7741089,347.6244812,302.1311951,347.6244812,302.1311951z"/>
						<path class="st5" d="M327.532196,286.1444092c-14.8087158-0.2991028-30.2336121,8.0024109-44.6615906,4.6128845
							c-3.6161194-0.8517761-7.6581116-1.9030762-11.2742004-2.7550964
							c-1.4138184-7.1685791-4.2414246-14.0653992-8.2562256-20.1647949c1.2870178-0.742981,2.6917114-1.2142944,3.8517151-0.824585
							c2.039093,0.6796875,8.1564941,16.3129883,8.1564941,16.3129883l6.7972107,3.1719971
							c6.2442932-1.2958984,15.0170898-1.957489,21.8957825-3.5796814c3.3260193-0.7795105,6.1809082-1.3684998,8.0205994-1.5860291
							c5.1386108-0.598175,6.6520996-0.0997925,7.1233215,0.3442993l-9.3981018-17.5727844l9.0899963-2.8005066
							C321.2608032,269.7225037,323.7530823,278.4682007,327.532196,286.1444092z"/>
					</g>
				</g>
				<g>
					<path class="st7" d="M286.6708069,191.3526154c-0.7789001,0.97229-1.5641174,2.0597992-1.5888062,3.3053894
						c-0.0349121,1.7686005,1.4360962,3.156601,2.7886047,4.2967072c0.7013855,0.5914001,1.4778748,1.2127991,2.3947754,1.2422028
						c0.8612976,0.0278015,1.6408081-0.4766083,2.3354187-0.9866028c2.8963013-2.1269989,5.4545898-4.7134094,7.5494995-7.6329041
						c0.7940979-1.1067047,1.5523071-2.3746033,1.4326782-3.7314911c-0.1392822-1.5818024-1.4126892-2.7935028-2.6019897-3.8458099
						c-2.2062988-1.9519958-3.6944885-2.4315948-5.5274963-0.1708984
						C291.3317871,186.4462128,288.7897034,188.7078094,286.6708069,191.3526154z"/>
					<path class="st7" d="M294.9732971,199.3706055c-0.6385193,1.069809-1.2675171,2.2545013-1.1214905,3.491806
						c0.2073975,1.7566986,1.8545837,2.9302979,3.3502808,3.8746948c0.7756042,0.4897003,1.6300049,0.9990997,2.5422974,0.9028931
						c0.8569031-0.0904846,1.5601196-0.6966858,2.1783142-1.2969971c2.5780945-2.5031891,4.7581787-5.4154968,6.434082-8.5941925
						c0.6352234-1.204895,1.2127991-2.5646973,0.9087219-3.8923035c-0.3545227-1.5479889-1.7817078-2.5739899-3.1038208-3.4536896
						c-2.4525757-1.6318054-3.9924927-1.9031067-5.4989014,0.5870972
						C298.9190979,193.8725128,296.7102966,196.4608154,294.9732971,199.3706055z"/>
					<path class="st7" d="M308.4556885,196.9667053c-1.7435913,2.8825989-3.9523926,5.4708099-5.6894836,8.3807068
						c-0.6384277,1.0697021-1.2675171,2.2543945-1.121521,3.4917908c0.2075195,1.7566071,1.8546143,2.9303131,3.3503113,3.8746033
						c0.7756042,0.4898071,1.6300049,0.9990997,2.5422974,0.9029083c0.8569031-0.0904999,1.5600891-0.696701,2.1783142-1.2970123
						c2.5780945-2.5031891,4.7582703-5.41539,6.4341736-8.5941925c0.6352234-1.2048035,1.2127075-2.5646057,0.9085999-3.8921967
						c-0.3544922-1.5480957-1.7816772-2.5740967-3.1038818-3.4537964"/>
					<path class="st7" d="M311.1658936,208.6531067c-0.5317993,0.8908997-1.0555115,1.8773956-0.9338989,2.9076996
						c0.172699,1.4631042,1.5444031,2.4403076,2.7898865,3.2266998c0.6459045,0.4078979,1.3572998,0.8321075,2.1170044,0.7519073
						c0.7135925-0.0753021,1.2991943-0.5801086,1.8141174-1.0800018c2.1467896-2.0845947,3.9624939-4.5097961,5.3580017-7.1569061
						c0.5289001-1.0032959,1.0097961-2.1355896,0.7566833-3.2411957c-0.2952881-1.2891998-1.4837036-2.1436005-2.5848083-2.8760986
						c-2.0423889-1.358902-3.3246765-1.5848999-4.5791016,0.4888
						C314.4517822,204.0745087,312.6123047,206.2299042,311.1658936,208.6531067z"/>
					<g>
						<path class="st11" d="M301.5828857,187.8460083c-0.1390991-1.5820007-1.4126892-2.7935028-2.6018982-3.8459015
							c-2.2063904-1.9521027-3.6944885-2.4317932-5.5274048-0.17099c-0.4360962,0.5378876-0.8981934,1.0541992-1.3624878,1.5684967
							c3.2756958,1.5323029,5.8135071,3.7218018,8.1059875,6.1098938
							C300.9732056,190.4171143,301.6999817,189.1753082,301.5828857,187.8460083z"/>
						<path class="st11" d="M309.2655029,193.8565063c-0.3544006-1.5480957-1.7816162-2.5740967-3.1038208-3.4539032
							c-2.4525757-1.6315918-3.9925842-1.9028931-5.4989014,0.5873108
							c-0.1229858,0.2032013-0.2617798,0.3959961-0.3889771,0.5963898c2.4523926,2.5653076,4.6320801,5.3498077,7.1371765,7.796402
							c0.323822-0.5395966,0.6523132-1.0771942,0.9459229-1.6340942
							C308.9921875,196.543808,309.5695801,195.1841125,309.2655029,193.8565063z"/>
						<path class="st11" d="M317.0582886,199.8332062c-0.3543091-1.5480957-1.7814941-2.5740967-3.1036987-3.4537964
							c-2.4526978-1.6316986-3.9927063-1.9029999-5.4989014,0.5872955
							c-0.4324951,0.7150116-0.8941956,1.4116974-1.3696899,2.1000977c2.3637085,2.3613129,5.0029907,4.4344025,8.4447021,5.7280121
							c0.2053833-0.3572083,0.427002-0.7048035,0.6192017-1.0693054
							C316.7850037,202.5205078,317.3624878,201.1609039,317.0582886,199.8332062z"/>
						<path class="st11" d="M323.0675049,204.061203c-0.295105-1.289093-1.4836121-2.1434937-2.5846252-2.8759918
							c-2.0423889-1.358902-3.3247986-1.5848083-4.5791016,0.4888c-0.5307922,0.8775024-1.1178894,1.7198944-1.7141724,2.5569
							c2.4005737,1.1080933,5.2064819,1.8213959,8.6269836,1.9445953
							C323.0769043,205.4857025,323.2298889,204.7697144,323.0675049,204.061203z"/>
					</g>
				</g>
			</g>
		</g>
		<g>
			<g>
				<g>
					<g>
						<path class="st5" d="M94.5376892,368.3078003c-0.1891937,0.509613-0.4596939,0.9844055-0.7913971,1.4356079
							c-0.0878983,0.1099854-0.1759033,0.2200012-0.2638016,0.329895c-0.7667999,0.8977966-1.7868958,1.6698914-2.8741989,2.3248901
							c-0.1491013,0.0865173-0.2873001,0.1631165-0.4364014,0.2495117c-0.297699,0.1625977-0.5849991,0.3257141-0.8817978,0.4674988
							c-0.0428009,0.0291138-0.0959015,0.0578003-0.1484985,0.0761108
							c-0.2653046,0.1329041-0.5299988,0.2555847-0.7840042,0.3682861
							c-0.5181961,0.2250061-1.0251007,0.4299011-1.4788971,0.6061096c-0.2319031,0.082489-0.4533005,0.1657104-0.6640015,0.2388916
							c-0.1054001,0.0367126-0.2003021,0.0737-0.294899,0.1004944c-0.2735977,0.091217-0.5261993,0.1729126-0.7362976,0.2358093
							c-0.0847015,0.0375977-0.1688004,0.0647888-0.2313995,0.0722961
							c-0.1373062,0.0559082-0.2525024,0.0816956-0.3367004,0.1089172
							c-0.0102997-0.0005188-0.0102997-0.0005188-0.0207062-0.0010071
							c-0.1362991,0.0353088-0.2095947,0.0527039-0.2095947,0.0527039s-0.5859985-1.0115967-1.5270996-2.6405945
							c-0.2307053-0.394104-0.4702988-0.8198242-0.7297058-1.2669067c-0.1832962-0.2987061-0.365593-0.6180115-0.5473938-0.9478149
							c-1.0473022-1.7996826-2.2971039-3.9299927-3.5752029-6.1239014
							c-0.2302017-0.4043884-0.4712982-0.7989807-0.7014999-1.2033997
							c-1.6436005-2.8117981-3.3073959-5.6348877-4.6555023-7.8837891c-1.1468964-1.8872986-2.0631943-3.3804016-2.567894-4.1290894
							c-1.8157043-2.6746216-3.3468018-16.7588196-3.9902039-23.5257874
							c-0.0777969-0.7913513-0.1390991-1.4885559-0.1962967-2.0509644c0.0655975-0.5256348,0.1207962-1.0517273,0.1863937-1.5773926
							l22.4560013,1.0293884c0.1940994,0.2887878,0.3651047,0.6283875,0.4938049,0.9865417
							c0.8078995,2.0480042,0.8115005,5.1370239,0.5187988,8.1296082c-0.0251007,0.3201904-0.0604019,0.6398926-0.1057053,0.9487
							c-0.053299,0.4848022-0.1169968,0.9689941-0.1796951,1.4326782c-0.0453033,0.3088074-0.090004,0.6074219-0.1348038,0.9058228
							c-0.0277939,0.1543884-0.0447998,0.298584-0.0725937,0.4527893c-0.0716019,0.4320984-0.1423035,0.8434143-0.2228012,1.2441101
							c-0.0166016,0.1338806-0.0434036,0.267395-0.0703049,0.4008789c-0.0531998,0.2567139-0.0951004,0.4932251-0.1473999,0.7292175
							c-0.016098,0.1238098-0.0419006,0.2363892-0.067894,0.3493958c-0.0673065,0.3388977-0.1332016,0.6467896-0.1973038,0.9133911
							c-0.0782013,0.3489075-0.1431961,0.6362-0.1949997,0.8618164c-0.0140991,0.0823975-0.0381012,0.153595-0.0513992,0.2153015
							c-0.0130997,0.0615845-0.0262985,0.123291-0.0384979,0.164093c-0.0382004,0.1536865-0.0622025,0.2250977-0.0622025,0.2250977
							c0.0375977,0.0845947,0.0746994,0.1796875,0.1112976,0.2850037c0.036705,0.1052856,0.072403,0.2315063,0.1085052,0.3469849
							c0.1248932,0.4411011,0.2346954,0.985199,0.3411942,1.6016235c0.047905,0.3132019,0.1051025,0.6474915,0.151001,1.0019836
							c0.0155029,0.1148071,0.0305023,0.2397156,0.0458984,0.3546143c0.0305023,0.2397766,0.0610046,0.4794922,0.0910034,0.7296753
							c0.1069031,0.8341064,0.1911011,1.7087097,0.2556992,2.5615234c0.0211029,0.2187805,0.0421982,0.4373779,0.0529022,0.6555786
							c0.0079956,0.052124,0.0060959,0.0934143,0.0139999,0.1457214c0.0131989,0.1663818,0.0262985,0.3328857,0.039299,0.4992981
							c0.0202026,0.2392883,0.0295029,0.4884949,0.0501022,0.7175903c0.0125961,0.1767883,0.0246964,0.3638,0.0378952,0.530304
							c-0.0023956,0.0516968,0.0061035,0.0935974,0.0042038,0.1350098c0.0065002,0.0831909,0.0130997,0.1662903,0.0199966,0.2392883
							c0.0183029,0.2807007,0.0374985,0.5407104,0.0473022,0.7796021c0.0149994,0.125,0.0195999,0.2496033,0.0246964,0.3638916
							c0.0196991,0.2496948,0.0205994,0.4570007,0.0335999,0.6234131c-0.0037994,0.0827942,0.0028,0.1659851-0.0000992,0.2279968
							c0.0037994,0.1453857,0.0196991,0.2496948,0.0196991,0.2496948c0.0678024-0.1211853,0.1351013-0.2322083,0.212204-0.3321838
							c1.2846985-1.7966003,3.5562973-0.925415,3.5562973-0.925415L94.5376892,368.3078003z"/>
						<path class="st7" d="M110.6543884,244.4311066H82.9481888c-1.6184998,5.5861969-3.3511963,11.8418121-5.0878983,18.576004
							c-4.6582947,18.0892944-9.316597,39.5953979-11.7817001,60.6211243
							c-0.0634003,0.5257263-0.1177979,1.0513306-0.1811981,1.5769348c0.0542984,0.5620117,0.1177979,1.2597351,0.1903,2.0481873
							c0.6434021,6.7699585,2.1751022,20.8535461,3.9966965,23.5270386
							c0.4984055,0.7433167,1.4138031,2.2386169,2.5648041,4.1237183c1.350296,2.2565918,3.0088959,5.0751953,4.6583023,7.8845825
							c0.2266006,0.4078979,0.471199,0.7976074,0.6977997,1.2054138c2.1297989,3.6614075,4.2594986,7.3137817,6.3802948,10.9841919
							c0,0,0.072403-0.0181885,0.2265015-0.0543823c0.0905991-0.0272217,0.1994019-0.0544128,0.3443985-0.1088257
							c0.0544052-0.0090942,0.1450043-0.0362854,0.2266006-0.0724792c0.2084045-0.0634155,0.462204-0.1358948,0.7341003-0.2355957
							c0.0997009-0.0270996,0.1903-0.0634155,0.2990036-0.0997009c0.0634995-0.0272217,0.1360016-0.0454102,0.1993942-0.0726013
							c2.5376053-0.8972168,5.2927017-2.184021,7.0690002-4.2595215c0.081604-0.1087036,0.1722031-0.2174988,0.2628021-0.3352966
							c0.3263016-0.4440918,0.5981979-0.9242859,0.7884979-1.4318848l-1.3140945-14.8992004
							c0,0-2.2748032-0.8792114-3.5616989,0.9242859c-0.0725021,0.0997009-0.1359024,0.2084961-0.2084045,0.3262939
							c0,0-0.0181961-0.0997009-0.0181961-0.2447815c0-0.0634155-0.0090027-0.1448975,0-0.2265015
							c-0.0181046-0.1722107-0.0181046-0.3806152-0.0362015-0.6253052
							c-0.2628021-3.3804016-0.2446976-7.0419006-1.1781998-10.3135071
							c-0.0362015-0.1177979-0.0634003-0.2446899-0.0997009-0.3534851
							c-0.0271988-0.0997009-0.0634003-0.1993103-0.1087036-0.2810059c0,0,0.0272064-0.0722961,0.0544052-0.226593
							c0.0089951-0.0361023,0.0270996-0.0995178,0.0362015-0.1629944c0.5980988-2.7824097,1.2234955-5.6099243,1.4499969-8.455719
							c0.2901001-2.9906616,0.2901001-6.0811462-0.5165024-8.1293335
							c2.3925018-10.5218201,10.9298019-49.2835693,8.4646988-56.5519714c0,0,0.2084045-0.3625793,0.5891037-1.0151978
							C99.9865952,264.7614136,106.1454926,253.8801117,110.6543884,244.4311066z M88.6178894,358.7467041
							c-0.0634995,2.3383179,0.2356033,4.6855164,0.9878006,6.8878174
							c-0.9333954,0.3805847-1.8215942,0.3351746-2.7550964,0.7068787
							c-0.3534012-0.8973083-0.7341003-1.8125916-1.1600037-2.7189026
							c-0.4893951-1.0603943-1.0150986-2.1296997-1.6131973-3.1808777c-1.5407028-2.7461243-3.4076004-5.3563232-5.546402-7.3955078
							c-0.3263016-4.8394165-1.1873016-9.6246033-2.5195007-14.2921143c1.2144012,2.22052,2.7369995,4.2868958,4.5405045,6.0541992
							c1.5858994,1.5588074,0.471199,4.4316101,0.8609009,6.6429138c0.3806992,2.1932983,1.0603943,4.4770813,2.6644974,6.0177917
							c0.1722031,0.1631165,0.3715973,0.3262024,0.5709991,0.4622192c0.3986969,0.2808838,0.8609009,0.516571,1.3503036,0.6706848
							C86.8505936,358.9099121,87.7930908,358.9642029,88.6178894,358.7467041z"/>
					</g>
					<g>
						<path class="st5" d="M82.9481888,244.4311066c-1.6184998,5.5861969-3.3511963,11.8418121-5.0878983,18.576004
							c6.9603043,0.5436096,13.8299026,2.2746887,20.228302,5.0658875c1.8980026-3.3115845,8.0569-14.1928864,12.5657959-23.6418915
							H82.9481888z"/>
						<path class="st12" d="M73.9541931,299.4033203c0-13.0142212,5.0570984-27.5600281,8.7999954-39.8946228
							c0.4986038-1.6326904,2.8159027-8.0984955,5.1612015-15.0775909h-4.967598
							c-5.9725037,20.6068878-13.4918976,50.3465118-16.8692017,79.1971283
							c-0.0634003,0.5257263-0.1177979,1.0513306-0.1811981,1.5769348c0.0542984,0.5620117,0.1177979,1.2597351,0.1903,2.0481873
							c0.6434021,6.7699585,2.1751022,20.8535461,3.9966965,23.5270386
							c0.4984055,0.7433167,1.4138031,2.2386169,2.5648041,4.1237183c1.350296,2.2565918,3.0088959,5.0751953,4.6583023,7.8845825
							c0.2266006,0.4078979,0.471199,0.7976074,0.6977997,1.2054138c2.1297989,3.6614075,4.2594986,7.3137817,6.3802948,10.9841919
							c0,0,0.072403-0.0181885,0.2265015-0.0543823c0.0905991-0.0272217,0.1994019-0.0544128,0.3443985-0.1088257
							c0.0544052-0.0090942,0.1450043-0.0362854,0.2266006-0.0724792c0.2084045-0.0634155,0.462204-0.1358948,0.7341003-0.2355957
							c0.0997009-0.0270996,0.1903-0.0634155,0.2990036-0.0997009c0.0634995-0.0272217,0.1360016-0.0454102,0.1993942-0.0726013
							C73.8182907,352.0674133,70.8728943,324.9695129,73.9541931,299.4033203z"/>
					</g>
				</g>
				<g>
					<path class="st13" d="M111.5920944,331.4585266l1.2597961-82.1908264l-7.4859009,12.7333069l-3.5254974-1.0874939
						l-0.9695969-0.2991943l-20.9624023-6.4526062l-10.0144043-3.0815125c0,0,19.3310013-41.6889954,28.9013062-52.2651978
						c9.5703964-10.5853882,35.0731964-19.0954895,35.0731964-19.0954895l32.6896057-3.2987976
						c6.5523987,8.1293945,11.9085999,19.0772858,16.2858887,31.4299011
						c4.4046021,12.4068909,7.8122101,26.2187958,10.4495087,39.9852905
						c3.7610016,19.5664978,5.9723969,39.042511,7.2503052,54.2680969c1.4680939,17.473175,1.730896,29.3545227,1.730896,29.3545227
						H111.5920944z"/>
					<path class="st14" d="M111.5920944,331.4585266l1.2597961-82.1908264l-7.4859009,12.7333069l-3.5254974-1.0874939
						c3.0722961-7.7851105,12.5158005-13.5761108,14.7815018-21.9411011
						c7.7305984,5.3833008,9.9237976,16.485199,10.3498001,25.8924866c0.4258957,9.407196,0.4258957,19.6481934,6.2533035,27.043396
						c6.7790985,8.5916138,19.911087,10.2501221,29.9526978,5.8908997
						c10.0325012-4.3501892,17.2738037-13.5125732,22.1405029-23.3186951
						c4.1326904-8.3468018,6.8333893-17.4006042,7.975296-26.6445923
						c3.7610016,19.5664978,5.9723969,39.042511,7.2503052,54.2680969c1.4680939,17.473175,1.730896,29.3545227,1.730896,29.3545227
						H111.5920944z"/>
					<path class="st6" d="M111.5920944,331.4585266l1.2597961-82.1908264l-7.4859009,12.7333069l-4.4950943-1.3866882
						c5.2472992-7.213913,10.5037003-14.4279175,15.7510986-21.6419067
						c2.1750946,11.6093903-0.7885056,23.4726868-2.1841049,35.1999817
						c-1.3956985,11.727417-0.8065948,24.7778015,6.9784012,33.6594238
						c6.2896042,7.1776733,16.1137085,10.2047119,25.593399,11.3738708
						c11.3195038,1.3955994,23.0467987,0.5799255,33.6956024-3.51651
						c7.5402985-2.9000549,14.5095978-7.5492859,19.8386078-13.5851746
						c1.4680939,17.473175,1.730896,29.3545227,1.730896,29.3545227H111.5920944z"/>
					<path class="st6" d="M182.8440857,207.8506165c-4.5675964-8.6097107-9.969101-16.7663116-18.633194-18.2797089
						c-18.2796936-3.1810913-43.2839966-3.8336029-54.7846985,10.7212982
						c-12.7514038,16.1499023-22.7658997,34.438797-29.5177002,53.8695068l-10.0144043-3.0815125
						c0,0,19.3310013-41.6889954,28.9013062-52.2651978c9.5703964-10.5853882,35.0731964-19.0954895,35.0731964-19.0954895
						l32.6896057-3.2987976C173.1105957,184.5501099,178.4667969,195.4980011,182.8440857,207.8506165z"/>
				</g>
			</g>
			<g>
				<g>
					<path class="st7" d="M133.1266937,159.8931122l0.9606018,25.5823975l0,0
						c8.1690979,4.5700073,18.34729,3.391098,25.2554932-2.9252014l0.4213104-0.3851013l-5.3602142-25.0151978
						L133.1266937,159.8931122z"/>
					<path class="st5" d="M133.1266937,159.8931122l0.4517059,12.0296021
						c7.391098,2.7791901,16.4790955,1.449295,23.3565979-2.9609985l-2.5311127-11.8117065L133.1266937,159.8931122z"/>
				</g>
				<g>
					<g>
						<path class="st7" d="M80.9566956,139.6125183c1.1545944-4.9273071,3.5385971-11.3144073,7.2039948-14.8038101
							c2.6906052,2.1052017,6.1338043,5.8736038,9.1184998,7.9162064
							c-1.9610977-7.8035049-3.1768951-16.4393997-4.1734009-25.4581985
							c-2.4395981-22.0792999,4.5628052-35.4909058,15.4541016-43.341301
							c10.8182983-7.797802,24.8879089-9.2666016,37.4920044-4.9109001
							c11.9169006,4.1183968,26.506897,12.7519951,29.5390015,30.6078987
							c1.5609894,9.1926956,2.9866943,19.5632019,3.1996002,29.6884995
							c1.3053894-1.9438019,2.5045929-3.6867981,3.2715912-5.0332031c1.0193024-1.7893982,2.5023041-3.8343964,4.5514069-3.6288986
							c1.2962952,0.1299973,2.3003998,1.1569977,3.1434937,2.1506042c3.1483002,3.7109985,5.7683105,7.8700943,7.7556,12.3127975
							c0.9530029,2.1300964,1.7756042,4.4290009,1.5115967,6.7477875c-0.491394,4.3192139-4.4711914,7.2927094-8.2229919,9.4885101
							c-2.5606079,1.4989014-5.3699951,2.9365997-8.3289032,2.7156067
							c-2.0644989-0.1545105-3.9908905-1.1143036-5.6929932-2.2933044c-0.0628052-0.0435028-0.1240997-0.091507-0.1867981-0.1360016
							c-3.7716064,14.419693-12.967804,25.3115997-32.2926025,26.5848999
							c-20.2368011,1.3334045-32.082901-5.2767029-39.3473053-16.5437012
							c-1.3395996,2.3177948-3.4044952,4.5899963-6.0707016,4.6307068c-1.4381943,0.0219879-2.7929001-0.621109-4.0862961-1.250412
							c-1.9321976-0.9396973-3.8640976-1.879303-5.7962036-2.8190002c-3.4352951-1.6707916-7.229599-3.7590942-8.2154007-7.4494934
							C80.3340912,143.1028137,80.5588913,141.3105164,80.9566956,139.6125183z"/>
						<g>
							<path class="st4" d="M159.0667877,137.001709c-20.2509003-0.4104004-33.3898926,4.548996-36.643692,5.9208069
								c-0.5240021,0.2330017-0.8010025,0.3656006-0.8010025,0.3656006s0.5562973,19.6772919,22.777092,16.911087
								c18.441803-2.3004913,16.6197052-23.1435852,16.6197052-23.1435852
								C160.3626862,137.0274048,159.7068939,137.0147095,159.0667877,137.001709z"/>
							<g>
								<g>
									<g>
										<g>
											<path class="st15" d="M146.1431885,99.0730057c0.7689056,0.5014038,1.986496,0.0433044,3.4737091-0.4803925
												c1.4861908-0.5458984,3.3091888-1.1674042,5.2666016-1.4244995
												c1.9577942-0.2517014,3.8790894-0.1165009,5.4552002,0.0314026
												c1.5717926,0.1263962,2.8658905,0.2578964,3.4811859-0.4231033
												c0.5918121-0.6354065,0.281311-2.1634979-1.4072876-3.6964035
												c-1.633606-1.5130997-4.7694092-2.8450012-8.3697052-2.3798981
												c-3.5995026,0.4705048-6.2906952,2.5593033-7.4835052,4.4395981
												C145.3186951,97.053215,145.4085846,98.6099091,146.1431885,99.0730057z"/>
										</g>
										<g>
											<path class="st15" d="M103.9666901,106.2460098c0.7689056,0.5013046,1.9864044,0.0433044,3.4737015-0.4804001
												c1.4860992-0.5458984,3.3090973-1.1674957,5.2666016-1.4246063
												c1.9578018-0.2515945,3.879097-0.116394,5.4552002,0.0315094
												c1.5718002,0.1263962,2.8658981,0.2578964,3.4812012-0.4232025
												c0.5917969-0.6352997,0.2812958-2.1633987-1.4073029-3.6963959
												c-1.6335983-1.5130005-4.7694016-2.8449097-8.3696976-2.3799057
												c-3.5996017,0.4706039-6.2907028,2.5593033-7.4836044,4.4397049
												C103.142189,104.2261124,103.2320938,105.7829132,103.9666901,106.2460098z"/>
										</g>
									</g>
									<g>
										<g>
											<path class="st16" d="M108.4984894,118.6136093c0.4743042-1.1787949,1.3271027-2.5263977,2.6485062-3.6381989
												c1.3009949-1.1249008,3.0617981-2.0395966,5.0632935-2.3780975
												c1.9993057-0.3457031,3.927002-0.0697021,5.5212021,0.4939957
												c1.5988007,0.5814056,2.8820038,1.4393997,3.7756042,2.327507
												c0.8988953,0.8889999,1.4222946,1.7627945,1.6828995,2.392189
												c0.147995,0.3014069,0.2084961,0.5659103,0.2627945,0.7299042
												c0.0473022,0.1665039,0.0723038,0.2552032,0.0723038,0.2552032s-0.302803-0.2253036-0.8444977-0.545105
												c-0.5320053-0.3276978-1.3370056-0.7050934-2.3202057-1.0090942
												c-1.0969009-0.3394012-2.4366989-0.5632019-3.8726959-0.6200027
												c0.6932983,1.3003998,1.1833954,3.0270004,1.321701,4.9506989
												c0.3033981,4.2201004-1.1912994,7.7663956-3.3384018,7.9207077
												c-2.1471024,0.1542969-4.1334-3.1418076-4.4367981-7.3621063
												c-0.1244049-1.729599,0.0569992-3.3407974,0.4581985-4.6567001
												c-1.6853027,0.5844955-3.1546021,1.4210052-4.2021027,2.3347015
												c-0.773201,0.6570969-1.3126984,1.3476028-1.6432953,1.8751984
												c-0.1833038,0.2602005-0.2830048,0.4835052-0.3690033,0.6347046
												c-0.0839996,0.1534958-0.1281967,0.2348938-0.1281967,0.2348938s-0.0192032-0.090004-0.0551071-0.2593994
												c-0.030098-0.171196-0.0954971-0.4334946-0.1009979-0.771698
												C107.9463959,120.8445129,108.0190887,119.8040085,108.4984894,118.6136093z"/>
											<polygon class="st4" points="118.5475922,119.7826157 111.0646896,121.4708099 112.2899933,125.2956085 											"/>
										</g>
										<g>
											<path class="st16" d="M148.172699,112.623909c0.4070892-1.2036972,1.1824951-2.5970001,2.4390869-3.7817001
												c1.2354126-1.1966934,2.9417114-2.2093964,4.9210052-2.6602936
												c1.9765015-0.4580994,3.9167938-0.2914047,5.5402069,0.181694
												c1.628891,0.4902039,2.9585876,1.2742996,3.901001,2.1105042
												c0.9474945,0.8367996,1.5194855,1.6798019,1.8151855,2.293396
												c0.1646118,0.2927017,0.2400055,0.5534973,0.3037109,0.7139053
												c0.0565033,0.1639938,0.0863037,0.2508011,0.0863037,0.2508011s-0.3150024-0.2078018-0.8739014-0.4963074
												c-0.5497131-0.297493-1.3747101-0.6287994-2.3734131-0.8766937
												c-1.1142883-0.2770996-2.4645996-0.4249039-3.9015961-0.4005051
												c0.7657013,1.2593002,1.3525085,2.9552002,1.5991058,4.868103
												c0.5410004,4.1963959-0.7510071,7.8211975-2.88591,8.0964966
												c-2.1350861,0.2751999-4.3042908-2.9033051-4.8453979-7.0997009
												c-0.2216949-1.7198944-0.1316986-3.3386993,0.1945038-4.6753998
												c-1.6493988,0.6786041-3.0690918,1.5969009-4.0634918,2.568306
												c-0.7348022,0.6996994-1.2346039,1.4194946-1.5347137,1.9648972
												c-0.1684875,0.2699966-0.2553864,0.4985962-0.3326874,0.6545944
												c-0.0752106,0.1579971-0.1148071,0.2419052-0.1148071,0.2419052s-0.0240021-0.0886993-0.0697021-0.2560959
												c-0.0394897-0.1693039-0.1196899-0.4273071-0.1443024-0.7647018
												C147.7473907,114.8824158,147.7614899,113.8397141,148.172699,112.623909z"/>
											<polygon class="st4" points="158.2718964,113.2239151 150.8959961,115.3315125 152.3352966,119.0812149 											"/>
										</g>
									</g>
								</g>
								<g>
									<g>
										<g>
											
												<ellipse transform="matrix(-0.9425906 0.3339506 -0.3339506 -0.9425906 368.2281189 188.5675507)" class="st5" cx="167.9057465" cy="125.9348068" rx="8.1814423" ry="1.9568031"/>
										</g>
									</g>
									<g>
										<g>
											
												<ellipse transform="matrix(-0.9999377 -0.0111655 0.0111655 -0.9999377 223.8292389 272.1247559)" class="st5" cx="112.6742401" cy="135.437561" rx="8.1814604" ry="1.9567697"/>
										</g>
									</g>
								</g>
								<path class="st17" d="M143.4496918,130.4237061c-2.4122925-2.1365967-6.6007996-1.7723999-8.6078949,0.748703
									c0.7140961,0.6795044,1.4342957,1.4120026,2.2921906,1.8973999c0.8579102,0.4853973,1.8778992,0.7565002,2.8394012,0.539505
									C141.5948944,133.2433167,142.623291,131.8660126,143.4496918,130.4237061z"/>
								<g>
									<path class="st5" d="M84.9109955,143.7258148c0.4727936,1.1289978,1.527298,1.8880005,2.5319977,2.5869904
										c3.0486984,2.1213074,6.3622971,4.3289032,10.0763016,4.3011017
										c0.8613968-0.0063934,1.8493958-0.2209015,2.2520981-0.9823914
										c0.3521957-0.665802,0.1128998-1.4803009-0.1668015-2.1797028
										c-1.1108017-2.777298-2.8569031-5.4028015-5.4033966-6.9721069
										C91.748291,138.9682159,82.6069946,138.2236176,84.9109955,143.7258148z"/>
									<path class="st18" d="M85.2887955,141.8986053c0.0578995-0.1261902,0.1029968-0.3450012,0.2488937-0.5759888
										c0.2410049-0.4965057,0.7660065-1.1616058,1.6444016-1.7235107
										c1.7169037-1.1136932,5.013504-1.5419006,7.8047028,0.3725128
										c1.3042984,0.9203949,2.2550964,2.1070862,2.9116974,3.2365875
										c0.665802,1.1334991,1.0782013,2.2154083,1.3752975,3.1266022
										c0.5790024,1.8269043,0.7579041,2.9963074,0.7579041,2.9963074s-0.6843033-0.9788055-1.725502-2.5230103
										c-0.8881989-1.2858887-2.0755005-2.9545898-3.6561966-4.3251038
										c-0.1484985,0.1447144-0.3047028,0.3107147-0.4609985,0.5229034
										c-0.4982071,0.6445007-0.8757019,1.6127014-0.8987045,2.5105133
										c-0.0322952,0.897583,0.2845993,1.8872986,0.7421036,2.5609894
										c0.4430008,0.6858063,0.9649963,1.0561066,0.9649963,1.0561066s-0.1469955,0.035202-0.4291,0.0419922
										c-0.2812958,0.007309-0.6996994-0.0410004-1.1911011-0.2433014
										c-0.9532013-0.3615875-2.2699966-1.5925903-2.240097-3.4823914
										c0.0867996-1.8878021,1.4769974-3.0354004,2.4506989-3.337204c0.1767044-0.0603943,0.3280029-0.0838928,0.4820023-0.111496
										c-0.1105042-0.08461-0.2037048-0.1837006-0.3184052-0.2644958
										c-1.9844971-1.384201-4.5045929-1.6244049-6.1208954-1.1583099
										c-0.8151016,0.2342987-1.4532013,0.6098022-1.8293991,0.9541016
										c-0.3865051,0.3350067-0.584404,0.5675964-0.584404,0.5675964S85.2419891,142.0299072,85.2887955,141.8986053z"/>
								</g>
								<g>
									<path class="st5" d="M194.7440948,124.5667114c0.1373901,1.3777008-0.5554047,2.6956024-1.2292023,3.9272003
										c-2.0444946,3.7373047-4.3222961,7.7014923-8.296402,9.6484985
										c-0.9216919,0.4515076-2.0964966,0.7628021-2.9581909,0.2171936
										c-0.7536011-0.4769897-0.9611053-1.4168854-1.0602112-2.2633972
										c-0.3936005-3.3613892-0.0238953-6.9090881,1.7989044-9.828598
										C184.7546844,123.4554138,194.0744934,117.8523102,194.7440948,124.5667114z"/>
									<path class="st18" d="M193.3035889,122.9447098c-0.1333008-0.0951996-0.3056946-0.2894974-0.5923004-0.4423981
										c-0.5388947-0.3672028-1.4761963-0.7516022-2.7315979-0.8451996
										c-2.4624023-0.198204-6.219101,1.1271973-8.1067047,4.5212021
										c-0.8672943,1.6116943-1.2065887,3.3011932-1.2648926,4.7771912
										c-0.0657959,1.4848022,0.1091919,2.7834015,0.3101044,3.8504944
										c0.4205017,2.1304169,0.8939972,3.3922119,0.8939972,3.3922119s0.1734009-1.3403931,0.4059906-3.4344025
										c0.2163086-1.7552032,0.533905-4.0513,1.4403076-6.2590027c0.2404022,0.0653992,0.5012054,0.1480103,0.7882996,0.2766113
										c0.8970032,0.3780975,1.8493042,1.1433868,2.3838043,2.0267944
										c0.5441895,0.8782959,0.7684937,2.0341949,0.6635895,2.9496002
										c-0.0825958,0.919693-0.4286957,1.5666962-0.4286957,1.5666962s0.1766968-0.0429993,0.4812012-0.1862946
										c0.3040009-0.1422119,0.7225037-0.4129028,1.1313019-0.8759003
										c0.8105927-0.8675995,1.514801-2.7958069,0.4095001-4.6653137
										c-1.1645966-1.8372879-3.2980957-2.2430878-4.507309-2.0265884
										c-0.2226868,0.0337982-0.3971863,0.0907974-0.5770874,0.1451035
										c0.0697021-0.1431046,0.1127014-0.2916031,0.1890869-0.4332047
										c1.3289032-2.435997,3.8784027-4.0154953,5.8658142-4.4098969
										c1.0018005-0.1996002,1.8950958-0.1641998,2.4916992-0.0206985
										c0.6021881,0.1287003,0.9451904,0.2554932,0.9451904,0.2554932S193.4280853,123.0507126,193.3035889,122.9447098z"/>
								</g>
							</g>
						</g>
					</g>
					<g>
						<path class="st19" d="M177.9373932,77.5025101c5.0341949,6.6693039,4.2068939,15.2508011,4.6683044,23.5939026
							c0.2635956,4.9894028,0.3845978,10.4129028-1.4385071,14.9124985
							c-0.6188049,1.5073013-1.4492035,2.9153976-2.5890961,4.1646042
							c-1.930603-15.2551041-4.7169037-30.4181061-13.1002045-43.3053055
							c-1.5119019-2.3348999-3.3054962-4.6153946-5.7514038-5.9263992c-2.5392914-1.3350983-6.1702881-1.6078033-7.877594-3.9174957
							c1.4340973,2.4351959,2.3807068,5.1501999,2.776001,7.9362946
							c-4.9042969-2.9998932-10.2046967-5.5690994-15.8961029-6.2628937
							c-2.2039948-0.2761002-4.406601-0.2630997-6.6273041-0.2479019c-2.3853912,0.0003967-4.7072906,0.2093964-7.0902939,0.2275009
							c0.0355988,3.5009995,2.7696991,6.3469009,5.649498,8.3609009c0.2207031,0.1702957,0.4793091,0.3537903,0.5516968,0.6335983
							c0.1464996,0.577301-0.5610962,0.9757996-1.1183929,1.1380005
							c-7.4200058,2.2938004-14.8562012,3.3427963-22.6057053,3.7817001
							c-6.7080994,6.5569-10.3847961,15.7406006-11.6649933,25.0130005
							c-1.2778015,9.2901001,0.6294937,17.3563995,2.1631927,26.5911942
							c-6.4756927-2.9960022-10.4845963-9.0023956-12.5226974-15.8411942
							c-1.3379974-4.4896011-2.3292007-9.0960999-2.9295959-13.753006
							c-1.6448059-12.6176987-0.5167007-25.5927963,3.9878006-37.4672928
							c0.8939972,2.4506989,2.2304001,4.8262939,4.3566971,6.322998c-0.2040024-6.7679977,3.6692963-13.4473,8.2069016-18.4775009
							c4.5198975-5.0279999,10.2918015-8.7536011,16.1136017-12.2327995
							c5.2159958-3.1300011,10.5419998-6.1114998,15.8519974-9.0729065
							c-0.4423065,2.8759995-1.0950012,5.9417076-1.5529938,8.8377075
							c3.2156982-0.8483009,7.0283966-1.2675018,10.3351898-1.5493011
							c4.7154083-0.4272003,9.4864044-0.2834053,14.1809998-0.8704987c4.7149963-0.5718002,9.4665985-1.9794006,13.080307-5.0655022
							c-0.2397003,4.1690025-1.1706085,8.3005028-2.7695007,12.1567993
							c9.5730896,8.3791008,17.1226959,18.3019028,22.4268036,29.8695984
							C183.8209991,76.7440033,180.8228912,76.8956146,177.9373932,77.5025101z"/>
						<path class="st15" d="M177.9373932,77.5025101c5.0341949,6.6693039,4.2068939,15.2508011,4.6683044,23.5939026
							c0.2635956,4.9894028,0.3845978,10.4129028-1.4385071,14.9124985
							c-1.0115967-5.1821976-2.1273041-10.3328018-3.3674011-15.4674988
							c-2.5005035-10.2846985-5.5795898-20.7117004-11.829895-29.2481003
							c-6.253006-8.5541-16.2808075-14.9950981-26.8643036-14.389698c1.289505,2.2913933,2.5610046,4.5848999,3.8522949,6.894001
							c-3.7669983-3.2910004-9.062088-4.4154015-14.0553894-4.0426064
							c-4.9736023,0.3882065-9.7572021,2.1072044-14.4207077,3.9192047
							c1.4320068,3.5377922,3.6340027,6.7413979,6.4271011,9.3447914
							c-6.8740997,0.9223099-14.0690994-0.6437912-19.9342957-4.3689957
							c-8.232399,14.7766037-12.2454987,31.8641052-11.4045029,48.7595062
							c-0.1923981-1.493103-2.9225006-4.4479065-3.6543961-5.781105c-1.2447052-2.2247009-2.3006058-4.5280991-3.3052063-6.8560944
							c-0.0246964-0.0510025-0.0515976-0.1198044-0.0762939-0.1708069
							c-0.7654037-5.9366989-0.9421005-11.9312973-0.4069061-17.8729935c0.5653-6.6865082,2.007103-13.3053055,4.3947067-19.5942993
							c0.8939972,2.4506989,2.2304001,4.8262939,4.3566971,6.322998c-0.2040024-6.7679977,3.6692963-13.4473,8.2069016-18.4775009
							c4.5198975-5.0279999,10.2918015-8.7536011,16.1136017-12.2327995
							c5.2159958-3.1300011,10.5419998-6.1114998,15.8519974-9.0729065
							c-0.4423065,2.8759995-1.0950012,5.9417076-1.5529938,8.8377075
							c3.2156982-0.8483009,7.0283966-1.2675018,10.3351898-1.5493011
							c4.7154083-0.4272003,9.4864044-0.2834053,14.1809998-0.8704987c4.7149963-0.5718002,9.4665985-1.9794006,13.080307-5.0655022
							c-0.2397003,4.1690025-1.1706085,8.3005028-2.7695007,12.1567993
							c7.8197937,6.8342018,14.2921906,14.7094994,19.2794952,23.6797943
							c1.1260986,2.0051041,2.1699066,4.0749969,3.1473083,6.1898041
							C183.8209991,76.7440033,180.8228912,76.8956146,177.9373932,77.5025101z"/>
						<path class="st20" d="M183.6046906,70.8630066c-6.4806976-3.7361908-12.6371918-8.0381927-18.3708954-12.8464928
							c-2.0048981-1.6749992-4.0413055-3.4543991-6.5402985-4.1983986c0.7791901-1.9435005,2.2088928-3.6096001,4.0030975-4.6903
							c-5.9943085-1.5039024-12.4544983-1.0143013-18.1473083,1.3638992
							c1.2108002-1.9631004,2.4235992-3.9084015,3.6520081-5.8738022
							c-6.7597961,2.3712997-13.7173004,4.1899033-20.7633057,5.4597015
							c-3.2853928,0.5862007-6.7556992,1.1419983-9.319397,3.2615013c1.1615982-3.7458,2.3228989-7.4914017,3.4843979-11.2371101
							c-7.7721939,3.7668076-14.9009933,9.0226097-20.2607956,15.8033066
							c-5.3422012,6.7783051-8.8377991,15.1255035-9.2070007,23.7564011
							c-0.6604004-1.1978989-1.3228989-2.4134979-1.9832993-3.6113968c-2.297699,6.0063934-4.212204,12.1801987-5.7173004,18.445694
							c-1.3033981-3.1026001-2.074501-6.4184952-2.3073044-9.7674942c0.5653-6.6865082,2.007103-13.3053055,4.3947067-19.5942993
							c0.8939972,2.4506989,2.2304001,4.8262939,4.3566971,6.322998c-0.2040024-6.7679977,3.6692963-13.4473,8.2069016-18.4775009
							c4.5198975-5.0279999,10.2918015-8.7536011,16.1136017-12.2327995
							c5.2159958-3.1300011,10.5419998-6.1114998,15.8519974-9.0729065
							c-0.4423065,2.8759995-1.0950012,5.9417076-1.5529938,8.8377075
							c3.2156982-0.8483009,7.0283966-1.2675018,10.3351898-1.5493011
							c4.7154083-0.4272003,9.4864044-0.2834053,14.1809998-0.8704987c4.7149963-0.5718002,9.4665985-1.9794006,13.080307-5.0655022
							c-0.2397003,4.1690025-1.1706085,8.3005028-2.7695007,12.1567993
							C172.144989,54.0174141,178.6173859,61.8927116,183.6046906,70.8630066z"/>
					</g>
					<path class="st16" d="M160.1017914,94.3893127c-9.6649017,1.1352997-16.9613037,8.907402-17.8753967,18.2198029
						c-3.7859955-1.3816071-8.9004974-1.2506027-11.8543091,1.5674973
						c-3.7019958-7.5141983-11.8518906-12.2669983-20.6341934-11.2353973
						c-11.1440964,1.3090973-19.1455002,11.4404984-17.8365021,22.5844955
						c1.3091049,11.144104,11.4404984,19.1455078,22.5846024,17.8363953
						c11.1440964-1.3089905,19.145401-11.4403992,17.8363953-22.5844955
						c-0.1477966-1.2581024-0.4135895-2.4736023-0.7749939-3.6427994c1.4741974-0.9368057,2.7967987-1.8064957,4.6315002-2.1083984
						c1.9859924-0.3267975,4.0643005-0.0237045,5.8235931,0.9769974c0.0605011,0.0345001,0.1213989,0.0641022,0.1820068,0.0904999
						c0.0218048,0.2926025,0.0462952,0.585701,0.0809021,0.8798981
						c1.3089905,11.1440964,11.4402924,19.1455002,22.5845032,17.8364029
						c11.1439972-1.3090057,19.1454926-11.4403992,17.8363953-22.5844955
						C181.3772888,101.0817108,171.2457886,93.0803146,160.1017914,94.3893127z M114.1663895,140.64151
						c-9.643898,1.1327972-18.411499-5.7913971-19.5442963-15.4354019
						c-1.1328049-9.643898,5.7914963-18.4113922,15.4354019-19.5441971
						c9.643898-1.1329041,18.4113922,5.7914047,19.5441895,15.4353027
						C130.7345886,130.7411041,123.8102951,139.5087128,114.1663895,140.64151z M164.5302887,132.0896149
						c-9.6438904,1.1327972-18.411499-5.7915039-19.5442963-15.4354019
						c-1.1327972-9.6437988,5.7913971-18.4113998,15.4353943-19.5443039
						c9.6437988-1.1327972,18.4114075,5.7916031,19.5443115,15.4354019
						C181.0984955,122.189209,174.1740875,130.9568176,164.5302887,132.0896149z"/>
				</g>
			</g>
		</g>
		<g>
			<g>
				<path class="st7" d="M278.9639893,162.9348145l-0.9606018,25.5823975l0,0
					c-8.1690979,4.5699921-18.34729,3.391098-25.2554932-2.9252014l-0.4212952-0.3851013l5.360199-25.0151978
					L278.9639893,162.9348145z"/>
				<path class="st5" d="M278.9639893,162.9348145l-0.4516907,12.0294952
					c-7.3912048,2.7792969-16.4790955,1.4494019-23.3566132-2.9608917l2.5311127-11.8117065L278.9639893,162.9348145z"/>
			</g>
			<g>
				<g>
					<path class="st7" d="M331.1338806,142.6542053c-1.15448-4.9272919-3.5384827-11.3143921-7.2038879-14.8037949
						c-2.6906128,2.1052017-6.1337891,5.8736038-9.1184998,7.9162064
						c1.9610901-7.8035049,3.1769104-16.4395065,4.1734009-25.4582062
						c2.4396057-22.0794067-4.5628052-35.4908981-15.4541016-43.341301
						c-10.8182983-7.7977943-24.8880005-9.2665977-37.4920959-4.9108963
						c-11.9168091,4.1184006-26.506897,12.7519989-29.5389099,30.6079025
						c-1.5609894,9.1925964-2.9866943,19.5631943-3.1996002,29.6884995
						c-1.3053894-1.9438019-2.5045929-3.6868057-3.2715912-5.0332031c-1.0194092-1.7894058-2.5023956-3.834404-4.5514069-3.6288986
						c-1.2962952,0.1299973-2.3003998,1.1569977-3.1436005,2.1505966c-3.1481934,3.7109985-5.7682953,7.8701019-7.7556,12.3128052
						c-0.9528961,2.1300964-1.7754974,4.4290009-1.5115967,6.7478027c0.491394,4.3191986,4.4712982,7.2926941,8.2230072,9.4884949
						c2.5606995,1.4989014,5.3699951,2.9365997,8.3288879,2.7155914c2.0646057-0.1544952,3.9910126-1.1142883,5.6930084-2.2932892
						c0.0628967-0.0436096,0.1241913-0.091507,0.1869049-0.1360016
						c3.7715912,14.419693,12.9676971,25.3114929,32.2926025,26.5848999
						c20.2366943,1.3334045,32.0828857-5.2767029,39.34729-16.5437012c1.3395996,2.3177948,3.4043884,4.5899963,6.0707092,4.6306915
						c1.4382019,0.0220032,2.7928772-0.6212006,4.0863037-1.2503967c1.9320984-0.9396973,3.8640747-1.879303,5.7961731-2.8190002
						c3.4353027-1.6707916,7.2296143-3.7590942,8.2153015-7.4494934
						C331.7565918,146.144516,331.5317993,144.3522186,331.1338806,142.6542053z"/>
					<g>
						<g>
							<g>
								<g>
									<g>
										<path class="st21" d="M265.9473877,102.1147156c-0.7687988,0.5012894-1.9863892,0.0432892-3.4736023-0.4804001
											c-1.4862061-0.5459061-3.3092041-1.1675034-5.2666016-1.4244995
											c-1.9577942-0.2517014-3.8790894-0.1165009-5.4552917,0.031395
											c-1.571701,0.1264038-2.8659058,0.2579041-3.4812012-0.4230957
											c-0.5917053-0.6354065-0.2812042-2.1635056,1.4073944-3.6964035
											c1.633606-1.5130997,4.7693024-2.8450012,8.3696136-2.3798981
											c3.5995789,0.4704971,6.2906799,2.5591965,7.4835815,4.4395981
											C266.7720032,100.0949097,266.6820068,101.6516113,265.9473877,102.1147156z"/>
									</g>
									<g>
										<path class="st21" d="M308.1239014,109.2876129c-0.7687988,0.5013962-1.9864197,0.043396-3.4736023-0.4803009
											c-1.4862061-0.5459976-3.3092041-1.1675034-5.2666016-1.4245987
											c-1.9577942-0.2516022-3.8791199-0.1164017-5.4552002,0.0315018
											c-1.5718079,0.1263962-2.8659058,0.2578964-3.4812012-0.4232101
											c-0.5917969-0.6353912-0.281311-2.1633911,1.4072876-3.6963959
											c1.633606-1.5130997,4.7693176-2.8449936,8.3695984-2.3798981
											c3.5996094,0.4706039,6.290802,2.5592957,7.4836121,4.4397049
											C308.9484863,107.2678146,308.8585815,108.8245087,308.1239014,109.2876129z"/>
									</g>
								</g>
								<g>
									<g>
										<path class="st16" d="M303.5921936,121.6553116c-0.4743042-1.1788025-1.3272095-2.5263977-2.6485901-3.6381989
											c-1.3009033-1.1249008-3.0617065-2.0396042-5.0632019-2.3781052
											c-1.9994202-0.3457947-3.927124-0.0696945-5.5212097,0.4939957
											c-1.5987854,0.5814056-2.8819885,1.4394073-3.7756958,2.327507
											c-0.8988037,0.8889999-1.4222107,1.7627029-1.6828003,2.3921051
											c-0.1480103,0.3014984-0.2084961,0.5659943-0.2629089,0.7299957
											c-0.0473022,0.1663971-0.0722961,0.2552032-0.0722961,0.2552032s0.3027954-0.2253036,0.8446045-0.545105
											c0.5319824-0.3277054,1.3370056-0.705101,2.3201904-1.0090942
											c1.0968933-0.3395004,2.4367065-0.5632019,3.8726196-0.6200027
											c-0.6932983,1.3003922-1.1833191,3.0270004-1.3216248,4.9505997
											c-0.3033752,4.2201996,1.1913147,7.7664948,3.3384094,7.9207916
											c2.1470032,0.1543121,4.1333923-3.1417847,4.4367981-7.3621902
											c0.1242981-1.7294998-0.0570068-3.3406982-0.4581909-4.656601c1.6851807,0.5845032,3.15448,1.4209976,4.2020874,2.3347015
											c0.7731934,0.6570892,1.3127136,1.3475952,1.6433105,1.8751984
											c0.1832886,0.2601013,0.2829895,0.4834976,0.368988,0.6345978
											c0.0839233,0.1536026,0.1282043,0.2350006,0.1282043,0.2350006s0.0191956-0.0899963,0.0551147-0.2593994
											c0.0299988-0.171196,0.0954895-0.4335022,0.1009827-0.7717972
											C304.1442871,123.8862152,304.0715027,122.8457108,303.5921936,121.6553116z"/>
										<polygon class="st4" points="294.618988,122.9096146 287.5644836,125.9225082 286.3182068,122.1044083 										"/>
									</g>
									<g>
										<path class="st16" d="M263.9179993,115.6656113c-0.407196-1.2037964-1.1826172-2.5970001-2.4391174-3.7817001
											c-1.2355042-1.196701-2.9416809-2.2093964-4.92099-2.6603012
											c-1.9765015-0.4580994-3.9169006-0.2913971-5.5402069,0.1816025
											c-1.628891,0.490303-2.9585876,1.2743988-3.9010925,2.1106033
											c-0.947403,0.8367996-1.5193939,1.6797943-1.8152008,2.293396
											c-0.164505,0.2927017-0.2398987,0.5534973-0.3036041,0.7137985
											c-0.056488,0.1639938-0.0863953,0.2509003-0.0863953,0.2509003s0.315094-0.2078018,0.8739014-0.4962997
											c0.5498047-0.2976074,1.3746948-0.6288986,2.3733978-0.8767014
											c1.1143951-0.2771988,2.4645996-0.4249039,3.9017029-0.4004974
											c-0.7657013,1.2593002-1.3525085,2.9552002-1.5991058,4.868103
											c-0.5410004,4.1963959,0.7510071,7.8211975,2.88591,8.0963974
											c2.1350861,0.2752991,4.3042908-2.9032974,4.8453064-7.0997009
											c0.2218018-1.7198029,0.1317749-3.3386002-0.194519-4.6753006
											c1.6494141,0.6786041,3.0692139,1.5969009,4.0635986,2.5682983
											c0.7348022,0.6996994,1.2344971,1.4195023,1.5346985,1.9649048
											c0.168396,0.2699966,0.2553101,0.4985962,0.3326111,0.6545944
											c0.0751953,0.1580048,0.1148071,0.2419052,0.1148071,0.2419052s0.0240784-0.0886993,0.0697021-0.2561035
											c0.0395813-0.1692963,0.1197815-0.4272995,0.1442871-0.7647018
											C264.3432922,117.9240036,264.3291931,116.8814087,263.9179993,115.6656113z"/>
										<polygon class="st4" points="254.2948914,116.5995102 247.1304932,119.3410034 246.0309906,115.4780045 										"/>
									</g>
								</g>
							</g>
							<g>
								<g>
									<g>
										
											<ellipse transform="matrix(0.9425905 0.3339509 -0.3339509 0.9425905 57.0903587 -74.1412964)" class="st5" cx="244.1849365" cy="128.9765167" rx="8.1814423" ry="1.9567065"/>
									</g>
								</g>
								<g>
									<g>
										
											<ellipse transform="matrix(0.9999377 -0.0111655 0.0111655 0.9999377 -1.5275242 3.351763)" class="st5" cx="299.4164429" cy="138.4792633" rx="8.1814604" ry="1.9567686"/>
									</g>
								</g>
							</g>
							<path class="st17" d="M268.6409912,133.4654083c2.4122009-2.1367035,6.600708-1.7723999,8.6079102,0.748703
								c-0.7142029,0.6793976-1.4342957,1.4120026-2.2922058,1.8973999s-1.8778992,0.7565002-2.8395081,0.5394897
								C270.4957886,136.2850037,269.4674072,134.9077148,268.6409912,133.4654083z"/>
							<g>
								<path class="st5" d="M327.1796875,146.7674103c-0.4728088,1.1291046-1.5272827,1.8880005-2.5319824,2.5870972
									c-3.0488281,2.1213074-6.3624268,4.3289032-10.076416,4.3011017
									c-0.8613892-0.0063934-1.8493042-0.2209015-2.2521057-0.9823914
									c-0.3520813-0.665802-0.112793-1.4803009,0.1669006-2.1797028c1.1108093-2.777298,2.8568115-5.4028015,5.4033203-6.9721069
									C320.3422852,142.0099182,329.4835815,141.2653046,327.1796875,146.7674103z"/>
								<path class="st18" d="M326.8017883,144.9403076c-0.0578003-0.1261902-0.1029053-0.3450928-0.2488098-0.5759888
									c-0.2409973-0.4966125-0.7659912-1.1616058-1.6443787-1.7236023
									c-1.7169189-1.1136017-5.0135193-1.5419006-7.8048096,0.3725891
									c-1.3041992,0.9204102-2.2550049,2.1071014-2.9115906,3.2366028
									c-0.6658936,1.1334991-1.0782166,2.2153015-1.3753052,3.1266022
									c-0.57901,1.8269043-0.7579956,2.9962006-0.7579956,2.9962006s0.6843872-0.9788055,1.7254944-2.5229034
									c0.8883057-1.2859039,2.075592-2.9545898,3.656311-4.3251038c0.1484985,0.1447144,0.3046875,0.3107147,0.4608765,0.5229034
									c0.4983215,0.6445007,0.875824,1.6127014,0.8988037,2.510498c0.0323181,0.8975983-0.2846985,1.887207-0.7421875,2.5610046
									c-0.4429016,0.6858063-0.9649963,1.0561066-0.9649963,1.0561066s0.1470947,0.035202,0.4291992,0.0419922
									c0.2812805,0.007309,0.699707-0.0410004,1.1911011-0.2433014c0.953186-0.3616028,2.269989-1.5925903,2.2400818-3.4823914
									c-0.086792-1.8878021-1.4769897-3.0354004-2.4506836-3.3373108
									c-0.1766968-0.0602875-0.3280029-0.0838013-0.4819946-0.1113892c0.1104736-0.08461,0.2036743-0.1838074,0.3182983-0.2646027
									c1.9845886-1.3841095,4.5046997-1.6242981,6.1210022-1.1582031c0.815094,0.2342987,1.4530945,0.6098022,1.8293762,0.9541016
									c0.3865051,0.3350067,0.5844116,0.5675964,0.5844116,0.5675964S326.8486938,145.0716095,326.8017883,144.9403076z"/>
							</g>
							<g>
								<path class="st5" d="M217.3465881,127.6084137c-0.1373901,1.3777008,0.5554047,2.6955872,1.2292023,3.9272003
									c2.0444031,3.7373047,4.3222046,7.7014923,8.296402,9.6483917c0.9217072,0.4515991,2.0964966,0.7629089,2.9582062,0.2173004
									c0.7534943-0.4770966,0.9610901-1.4169006,1.0601959-2.2633972c0.3936005-3.3614044,0.0238953-6.9091034-1.7989044-9.828598
									C227.3359985,126.4971085,218.016098,120.8940048,217.3465881,127.6084137z"/>
								<path class="st18" d="M218.7869873,125.986412c0.1333008-0.0951996,0.3058014-0.2894974,0.5924072-0.4424057
									c0.5388947-0.3672943,1.4761963-0.7516937,2.7315979-0.845192c2.4624023-0.1983032,6.219101,1.1271896,8.1065979,4.5211868
									c0.8672943,1.6117096,1.206604,3.3012085,1.2649078,4.7771149c0.0658875,1.4848938-0.1091003,2.7834015-0.3101044,3.8506012
									c-0.4203949,2.1304016-0.8939056,3.3921967-0.8939056,3.3921967s-0.1734924-1.3404083-0.4060974-3.4344025
									c-0.2162933-1.7552032-0.533905-4.0513-1.4402008-6.2590027c-0.2404938,0.0653992-0.5012054,0.1479034-0.7882996,0.2765961
									c-0.8970032,0.3781128-1.8493042,1.1434021-2.3838043,2.0268097
									c-0.5441895,0.8782959-0.7684937,2.0341949-0.6635895,2.9496002
									c0.0825958,0.919693,0.4286957,1.5666962,0.4286957,1.5666962s-0.1768036-0.0429993-0.4812927-0.1862946
									c-0.3039093-0.1422119-0.7224121-0.4129028-1.1313019-0.8760071
									c-0.8105011-0.8674927-1.514801-2.7957001-0.4095001-4.6651917c1.1646881-1.8373108,3.2980957-2.243103,4.5074005-2.0266113
									c0.2225952,0.0337982,0.3972015,0.0908051,0.5769958,0.1451111
									c-0.0695953-0.1432037-0.1127014-0.2916107-0.1889954-0.4332123
									c-1.3289032-2.4360962-3.8785095-4.0154953-5.865799-4.4098969
									c-1.0018005-0.1996002-1.8951111-0.1641998-2.4917145-0.0206985
									c-0.6021881,0.1287003-0.9451904,0.2555008-0.9451904,0.2555008S218.6624908,126.0924149,218.7869873,125.986412z"/>
							</g>
						</g>
					</g>
				</g>
			</g>
		</g>
		<g>
			<path class="st5" d="M290.1710815,145.1218109c0,0-0.4436951,0.3071899-1.2946777,0.7957001
				c-0.8486023,0.4945984-2.1262207,1.1313934-3.7838135,1.7532959c-3.2944031,1.2488098-8.2279053,2.2990112-13.692688,1.7682037
				c-5.4698181-0.5195923-10.1390076-2.5923004-13.0386047-4.6385956c-1.4670105-1.0126038-2.516098-2.0025024-3.1860046-2.7223053
				c-0.3424072-0.3522034-0.5798035-0.6528015-0.7434998-0.8513947c-0.161499-0.1996002-0.2465057-0.3046112-0.2465057-0.3046112
				s0.1148987,0.071701,0.3330994,0.2078094c0.2174988,0.1360931,0.5292053,0.3446045,0.9515076,0.5793915
				c0.8303986,0.4857025,2.054184,1.132309,3.6161957,1.7660065c3.1131897,1.2928925,7.5870056,2.4785004,12.6072998,2.9571075
				c5.0220032,0.4887848,9.6690063,0.2567902,13.0266113-0.2255096c1.6789856-0.2373047,3.0460815-0.5032043,3.9844055-0.7290039
				C289.6472778,145.2490082,290.1710815,145.1218109,290.1710815,145.1218109z"/>
		</g>
		<g>
			<path class="st21" d="M337.6734924,76.947113c1.4772949,5.9089966,2.9997864,12.4614029,3.1719971,18.5515976
				c-3.3713989-2.4922943-7.612793-5.3379974-11.3646851-7.2139969c0.0452881,4.0237961-0.2538147,8.0568008-0.7886047,12.0988998
				c-0.4712219,3.5616989-1.1328125,7.1232986-1.9031067,10.6578979c-1.069397,4.9754028-2.34729,9.9057007-3.6069946,14.7451019
				c-0.1631165,0.6435013,0.987793,1.9486008,0.5166016,1.4954987c-2.6463928,3.9966049-7.0147095,7.9300003-11.4645081,9.7244034
				c4.6130066-13.0777054,5.4285889-27.4695053,2.3019104-40.9912033c-0.743103,2.2475967-2.2838135,3.9966965-3.0179138,6.2442017
				c-1.4410095-5.6824036-4.4045105-10.9569016-8.4375-15.216507c-2.3291016-2.4740906-5.0207825-4.6037903-7.9842834-6.2804947
				c0.389679,3.2627029,0.0270996,6.6158981-1.0513,9.7244034c-0.1088257,0.308197-0.2266235,0.6162949-0.3444214,0.9153976
				c-0.0997009-0.2537994-0.1902771-0.5075989-0.289978-0.7521973c-3.7792053-9.398201-10.9660034-17.4007034-19.9291992-22.122406
				c-1.8216248,7.277504-7.286499,13.5489044-14.2467041,16.3494034c0.389679-3.7340012-0.4532166-7.9391098-2.528595-11.0656967
				c-0.8791199,2.4105911-1.7944183,4.8665924-2.7913208,7.2411957c-3.733902,8.8361969-8.7184906,16.575798-18.2798004,16.9383926
				c-1.6403961,8.5371094-2.3562927,17.39151-3.0541992,26.0556107c-2.5737915-3.6161041-4.6763916-7.2956085-7.2411957-10.9208069
				c0,0-0.3533936-2.8093948-0.7339935-6.9510956c-0.3354034-3.5798035-0.6979065-8.1565018-0.8701019-12.7695999
				c-0.2628021-7.168602-0.0814972-14.446106,1.3141022-18.2342987c0,0,16.5759888-26.463501,40.5924835-32.6897011
				c14.1289063-3.6613998,26.381897,2.3202019,39.7677002,8.138401c13.376709,5.8183975,27.9316101,10.6125984,42.3506165,8.3558998
				C347.2438965,65.2017136,342.6853027,73.2131119,337.6734924,76.947113z"/>
			<path class="st22" d="M337.6734924,76.947113c1.4772949,5.9089966,2.9997864,12.4614029,3.1719971,18.5515976
				c-3.3713989-2.4922943-7.612793-5.3379974-11.3646851-7.2139969c0.0452881,4.0237961-0.2538147,8.0568008-0.7886047,12.0988998
				c-2.4468994-4.6221008-4.8937988-9.2533035-7.3499146-13.8751984c-0.888092-1.6767044-1.9031982-3.4710999-3.6522827-4.2234116
				c-1.749115-0.7520905-4.939209-0.3533936-4.8305054,1.5407104c-1.3232117-8.8362045-6.2080078-17.0923996-13.3132935-22.512001
				c-2.0391235-1.5497055-4.3683167-2.9182014-6.9240112-3.0542984c-2.5556946-0.1449013-6.5976868,3.3442993-7.286499,5.8094025
				c-8.3197021-5.8817024-17.699707-7.0690041-27.8864136-6.6340027
				c-0.3533936,10.0054016-9.4342804,17.7902985-19.1405945,15.3796005
				c-1.9122925,8.4193954-7.3499908,15.8961945-14.5730896,20.5906982
				c-0.2628021-7.168602-0.0814972-14.446106,1.3141022-18.2342987c0,0,16.5759888-26.463501,40.5924835-32.6897011
				c14.1289063-3.6613998,26.381897,2.3202019,39.7677002,8.138401c13.376709,5.8183975,27.9316101,10.6125984,42.3506165,8.3558998
				C347.2438965,65.2017136,342.6853027,73.2131119,337.6734924,76.947113z"/>
			<path class="st23" d="M251.7759857,79.0044098c0.6888123,0.7160034,1.4048004,1.3957062,2.1389008,2.0482025
				c-3.733902,8.8361969-8.7184906,16.575798-18.2798004,16.9383926c-1.6403961,8.5371094-2.3562927,17.39151-3.0541992,26.0556107
				c-2.5737915-3.6161041-4.6763916-7.2956085-7.2411957-10.9208069c0,0-0.3533936-2.8093948-0.7339935-6.9510956
				c4.2957001-3.7519989,8.1745911-6.1445999,9.5249939-13.0413971c0.2174988-1.0967026,0.4441071-2.3110046,1.3412933-2.9726028
				c0.7341003-0.5438004,1.7310028-0.5438004,2.6464081-0.6072998
				C244.2085876,89.1366119,249.8365936,84.7864151,251.7759857,79.0044098z"/>
		</g>
		<path class="st23" d="M293.4107056,90.650116c0.2174988-0.054306,0.4258728-0.0997009,0.6343994-0.1632004
			c-0.1088257,0.308197-0.2266235,0.6162949-0.3444214,0.9153976
			C293.6009827,91.1485138,293.5104065,90.8947144,293.4107056,90.650116z"/>
		<path class="st23" d="M323.6987,127.2821121c-2.6463928,3.9966049-7.0147095,7.9300003-11.4645081,9.7244034
			c4.6130066-13.0777054,5.4285889-27.4695053,2.3019104-40.9912033c-0.743103,2.2475967-2.2838135,3.9966965-3.0179138,6.2442017
			c-1.4410095-5.6824036-4.4045105-10.9569016-8.4375-15.216507c0.7612915-0.3986969,1.5043945-0.8155975,2.2294922-1.268692
			c3.3894043,4.2503967,9.1081238,6.516098,14.4824219,5.7366943c-1.7129211,5.0209045-0.8428955,10.8392029,2.2475891,15.144104
			c1.2687988,1.7671967,2.9000854,3.2535019,4.7489014,4.3863983c-1.069397,4.9754028-2.34729,9.9057007-3.6069946,14.7451019
			C323.0189819,126.4301147,324.1698914,127.7352142,323.6987,127.2821121z"/>
	</g>
	<g>
		<g>
			<g>
				<g>
					<g>
						<path class="st24" d="M101.600769,398.2879639c-22.2300415,5.3942261-44.1451416,12.5229187-65.5426636,21.3860779
							c1.1489258-9.3381042,2.5543213-18.7043762,4.217804-28.0873413
							c-7.4563599-5.9333496-15.1304932-11.7033997-23.017334-17.2987366
							c23.7531738-9.8388977,48.0808105-17.7523499,72.7581177-23.7404175
							C93.8780518,366.4610291,97.7393799,382.3745117,101.600769,398.2879639z"/>
					</g>
					<g>
						<path class="st24" d="M312.0539856,398.2879639c22.2300415,5.3942261,44.1451111,12.5229187,65.5426636,21.3860779
							c-1.1488953-9.3381042-2.5542908-18.7043457-4.2177734-28.0873413
							c7.4563293-5.9333496,15.1304626-11.7033997,23.017334-17.2987366
							c-23.7531433-9.8388977-48.0808105-17.7523499-72.7580872-23.7404175
							C319.7767334,366.4610291,315.9153442,382.3745117,312.0539856,398.2879639z"/>
					</g>
				</g>
				<g>
					<g>
						<path class="st25" d="M60.9041443,384.3268738c14.0718384,4.0238953,27.651062,8.7014465,40.6966248,13.9610901
							c-1.9306946-7.9567261-3.8613586-15.9134827-5.7920532-23.8702393
							C84.0818481,377.2633057,72.4381714,380.5663452,60.9041443,384.3268738z"/>
					</g>
					<g>
						<path class="st25" d="M317.8460693,374.4177246c11.7268066,2.8455811,23.370575,6.1486206,34.9045715,9.9091492
							c-14.0718079,4.0238953-27.6510315,8.7014465-40.6966553,13.9610901
							C313.9846802,390.3312378,315.9153442,382.3744812,317.8460693,374.4177246z"/>
					</g>
				</g>
			</g>
			<g>
				<path class="st26" d="M352.7506409,384.3268738c-94.8094482-30.9117126-197.0370789-30.9117126-291.8464966,0
					c-5.4552002-16.7337646-10.9102783-33.4675598-16.365509-50.2013245c105.4424744-34.37854,219.1350708-34.3785095,324.5775452,0
					C363.6609802,350.859314,358.2058105,367.5931091,352.7506409,384.3268738z"/>
			</g>
		</g>
		<g>
			<path class="st4" d="M98.2562866,351.9956055c-0.760498,0.4453125-2.2771606,1.2392883-4.1810303,1.688385
				c-2.1348877,0.503418-4.0043945,0.4510498-5.6759033-0.3708191c-1.4710693-0.7335205-2.6468506-2.2016296-3.1355591-4.1392517
				c-0.9212341-3.709198,1.349823-7.1821289,6.2156982-8.3275757c1.6766968-0.3938599,3.0615234-0.3778687,3.7437134-0.2593994
				c-0.0506287,0.4734802-0.1007996,0.9469604-0.1506042,1.4204102c-0.8391113-0.1208801-1.8606567-0.1402893-3.317749,0.2017822
				c-3.519928,0.8280334-5.3409729,3.2861633-4.5631714,6.4049377c0.7869568,3.1587219,3.4049988,4.4831238,6.6954346,3.7075806
				c1.1959534-0.2815552,1.9814758-0.6186523,2.3588867-0.9010925c-0.2859192-1.2425842-0.5719299-2.4851685-0.8578491-3.7277832
				c-0.9673767,0.2226257-1.9342957,0.4481812-2.9006653,0.6766968c-0.1021423-0.4317932-0.2041321-0.8635559-0.3062744-1.2953491
				c1.5703125-0.3713074,3.1420288-0.7348633,4.7150574-1.0906982
				C97.3496094,347.9874878,97.8029785,349.9915466,98.2562866,351.9956055z"/>
			<path class="st4" d="M100.682312,339.9632263c0.1413879,0.5529785-0.2345886,1.1013184-0.9855652,1.2651672
				c-0.6648254,0.1451721-1.2350159-0.1967468-1.3582153-0.7536621c-0.1275635-0.5758667,0.2693481-1.1317749,0.9589233-1.2822571
				C100.008606,339.037323,100.5581055,339.3866577,100.682312,339.9632263z M101.1124573,351.9434204
				c-0.6602478-2.9978333-1.3204651-5.9956665-1.9807129-8.9934998c0.6271973-0.1381531,1.2545776-0.2750549,1.8822021-0.4107361
				c0.6487122,3.0003357,1.2973938,6.0007019,1.9460754,9.0010376
				C102.3439636,351.6734314,101.7281189,351.8078308,101.1124573,351.9434204z"/>
			<path class="st4" d="M104.8693237,341.7215271c1.0296326,1.547699,2.0525208,3.0982971,3.0686035,4.6517334
				c0.5061035,0.7519836,0.9324951,1.4418945,1.2940063,2.1450195c0.0211182-0.0042725,0.0422974-0.0085144,0.0634155-0.0127869
				c0.0820313-0.7926331,0.2286987-1.598114,0.4038086-2.4875793c0.3270264-1.8244019,0.6612549-3.6488342,1.002594-5.4732361
				c0.6582031-0.1287537,1.3165894-0.2561646,1.9751282-0.3822327c-0.782959,3.2752991-1.539978,6.5514832-2.2713013,9.8282776
				c-0.5894775,0.1179199-1.178772,0.2369385-1.7679138,0.3570557c-1.9038391-2.7446899-3.8310242-5.479187-5.7815247-8.2032471
				C103.526947,342.0021362,104.1980286,341.861145,104.8693237,341.7215271z"/>
			<path class="st4" d="M116.1974487,344.4940491c0.4584656,2.2172852,2.2351379,2.8343506,4.0960999,2.5027161
				c1.3335266-0.2376099,2.1022034-0.5827637,2.7566223-0.9663696c0.1737671,0.3753662,0.34729,0.7507935,0.5205994,1.1263123
				c-0.6108704,0.3755798-1.677948,0.8685303-3.3034363,1.1591797c-3.140625,0.5631104-5.3632202-0.9065552-5.8852844-3.6359253
				c-0.5218811-2.7275391,0.9165344-5.2344666,3.9559326-5.7808228c3.405304-0.6073914,4.7531433,1.856781,5.0353088,3.5238342
				c0.0575256,0.3369446,0.0602112,0.6069336,0.0676575,0.7799988
				C121.0240479,343.6152649,118.6094971,344.0456238,116.1974487,344.4940491z M121.4865112,342.3230591
				c-0.1609802-1.0524597-0.9596252-2.5974731-3.0870667-2.2165222c-1.9120789,0.3445435-2.4635925,2.0359802-2.3998718,3.2044983
				C117.8271484,342.9713745,119.656189,342.6420288,121.4865112,342.3230591z"/>
			<path class="st4" d="M136.7011719,345.4690857c-0.1045227-0.3759766-0.209198-0.7519226-0.3140259-1.1278381
				c-0.0212708,0.0030518-0.042511,0.006134-0.0638123,0.0092163c-0.4712524,0.7993469-1.4790649,1.598938-2.940033,1.8197327
				c-2.0737915,0.314209-3.3362427-0.8119812-3.5454102-2.1282654c-0.3503723-2.1962585,1.6872864-3.7624512,5.7055664-4.3268127
				c-0.0091248-0.0628052-0.018158-0.1256409-0.0272827-0.188446c-0.1086731-0.7518616-0.5417786-2.0775452-2.676239-1.7597961
				c-0.9693298,0.1449585-1.9420471,0.5626831-2.6087036,1.0903015c-0.1997375-0.341217-0.3998108-0.6823425-0.6001587-1.0233459
				c0.7854004-0.6239319,1.9890747-1.136261,3.3066711-1.3326111c3.2001953-0.4738464,4.2459717,1.3285828,4.5018311,3.1541443
				c0.1602478,1.1368713,0.3205261,2.2737732,0.4807434,3.4106445c0.1115112,0.7910156,0.2628174,1.5576172,0.4778748,2.1615295
				C137.8324585,345.3070679,137.2667236,345.3875732,136.7011719,345.4690857z M135.752594,340.8571167
				c-2.0614929,0.2582703-4.3448181,0.9373169-4.0709229,2.704834c0.1653748,1.0722961,1.0503235,1.4555359,2.0055847,1.3121643
				c1.3373718-0.200592,2.0768127-1.0769348,2.2640381-1.8916931c0.0393066-0.1793823,0.0548096-0.3740234,0.0302734-0.5431519
				C135.9052734,341.9118652,135.8289185,341.384491,135.752594,340.8571167z"/>
			<path class="st4" d="M144.2186279,331.5180054c2.6376953-0.3299255,5.2774658-0.638916,7.9188843-0.927002
				c0.0502319,0.4601746,0.1003418,0.9203186,0.1505737,1.3804932c-2.0028687,0.2184143-4.0047607,0.4489136-6.0054932,0.6914673
				c0.17099,1.4102478,0.3420105,2.8204956,0.513031,4.2307434c1.8329468-0.2221985,3.6668091-0.4342041,5.5014954-0.6359863
				c0.0499268,0.4539795,0.0998535,0.9079285,0.1498108,1.361908c-1.8296814,0.2012329-3.6584778,0.4126282-5.4863586,0.6342468
				c0.2329102,1.9205017,0.4657593,3.8410034,0.6986694,5.7615051c-0.616272,0.074707-1.2324829,0.1506042-1.8486023,0.2276611
				C145.2799377,340.0013733,144.7492981,335.7596741,144.2186279,331.5180054z"/>
			<path class="st4" d="M154.891449,336.8217468c-0.1130371-1.0790405-0.2321777-2.0043335-0.3865051-2.8482666
				c0.5563965-0.0584412,1.112854-0.1159668,1.6693726-0.1725464c0.0826721,0.5972595,0.1652527,1.194519,0.2477722,1.7917786
				c0.0288391-0.0029297,0.0577087-0.0058594,0.0865173-0.0087891c0.3503418-1.2792358,1.4232788-2.1713257,2.7046509-2.293457
				c0.2172852-0.0207214,0.3710327-0.0157166,0.5479736,0.0058899c0.0494995,0.5240173,0.098877,1.0480652,0.1483765,1.572113
				c-0.197876-0.0195923-0.3948364-0.0205383-0.654541,0.004303c-1.3423767,0.128479-2.2050476,1.1149597-2.336731,2.3903809
				c-0.0199585,0.23172-0.036438,0.5013123-0.0077515,0.7850342c0.1645508,1.6280823,0.3291016,3.2561951,0.4936523,4.8843079
				c-0.6173706,0.0623474-1.2346191,0.1259155-1.8518066,0.1906128
				C155.3320923,341.0226746,155.1117554,338.9222107,154.891449,336.8217468z"/>
			<path class="st4" d="M163.6793518,330.4975586c0.0704956,0.5664368-0.3699951,1.0626221-1.1318665,1.1300049
				c-0.6749268,0.0596924-1.1949463-0.3517151-1.2467651-0.9197083c-0.0536499-0.5873718,0.4077148-1.0884399,1.107666-1.1503296
				C163.1304016,329.4937744,163.6290588,329.9099121,163.6793518,330.4975586z M162.602356,342.4351501
				c-0.2762146-3.0572205-0.5523987-6.1144409-0.8286133-9.1716614c0.6366272-0.0574951,1.2733459-0.1137695,1.9101563-0.1688232
				c0.2644958,3.0582581,0.5289612,6.1164856,0.7934875,9.1747437
				C163.8522644,342.3234558,163.2272644,342.3786926,162.602356,342.4351501z"/>
			<path class="st4" d="M168.3007813,337.6409302c0.2210083,2.2533875,1.9169922,3.055481,3.7967529,2.9230347
				c1.3467407-0.0948792,2.1455688-0.3565979,2.8346558-0.6686707c0.1327515,0.3916626,0.2652588,0.7833557,0.3975525,1.1751099
				c-0.64505,0.3087158-1.7554016,0.685791-3.3970642,0.8024292c-3.1726685,0.2268982-5.22052-1.4704285-5.4506836-4.2396851
				c-0.2302551-2.7674866,1.4589539-5.1074219,4.5294189-5.3283691c3.4396667-0.2428894,4.5166931,2.3501282,4.6210327,4.0376892
				c0.0216675,0.3411255-0.0044556,0.6098938-0.0150757,0.7827759
				C173.1775208,337.2790833,170.7386169,337.4509583,168.3007813,337.6409302z M173.7722778,336.0431519
				c-0.0485535-1.0635376-0.6781311-2.6845093-2.8270264-2.531311c-1.9317932,0.139801-2.6562195,1.7631531-2.7160645,2.9317932
				C170.0762634,336.2998047,171.9240417,336.1662903,173.7722778,336.0431519z"/>
			<path class="st4" d="M177.8907471,334.56604c-0.0548401-0.9495544-0.1222839-1.7272644-0.2318115-2.4829102
				c0.5652466-0.032959,1.1305542-0.0649719,1.6959229-0.0960388c0.0640869,0.5043945,0.1280518,1.0088196,0.1919556,1.5132446
				c0.0144958-0.0007935,0.0289001-0.0015869,0.043396-0.0023804c0.4715576-0.901886,1.6455078-1.823761,3.3871765-1.9068909
				c1.4595642-0.0712891,3.756134,0.5965271,3.8796387,3.7532654c0.0736694,1.8315125,0.1473389,3.6630554,0.2209778,5.4945984
				c-0.6265259,0.025177-1.2529907,0.0515442-1.879364,0.0791321c-0.0778809-1.7678223-0.1557617-3.5356445-0.2336121-5.3034363
				c-0.0646057-1.4823303-0.7483826-2.6924133-2.5508118-2.6051025c-1.2593689,0.061554-2.1949768,0.8925171-2.467926,1.8412476
				c-0.0753174,0.214325-0.1028442,0.5014038-0.0874939,0.7861328c0.1001282,1.8429871,0.2002869,3.6859741,0.300415,5.5289612
				c-0.6261902,0.0340271-1.2522888,0.0692444-1.8783569,0.1056519
				C178.1508179,339.0363464,178.020813,336.8012085,177.8907471,334.56604z"/>
			<path class="st4" d="M198.8532257,326.9952698c0.0585938,3.7098389,0.117157,7.4196777,0.1757507,11.1294861
				c0.0129089,0.8182678,0.0492249,1.7504272,0.1231232,2.3772888c-0.5628204,0.0087585-1.1256561,0.0185242-1.6884918,0.0292358
				c-0.0386505-0.5322266-0.0774384-1.0644531-0.116272-1.5966797c-0.0142975,0.0002747-0.0286102,0.0005493-0.042923,0.000824
				c-0.5597076,1.0384521-1.802597,1.8433533-3.4893799,1.88797c-2.494812,0.0658875-4.4827881-1.7453003-4.5863953-4.540741
				c-0.1350403-3.0603333,1.9755707-5.0230408,4.5493011-5.0895386c1.6124115-0.0418396,2.7152863,0.6027222,3.2070465,1.3352051
				c0.0144958-0.0003052,0.0289917-0.0005798,0.043457-0.0008545c-0.0359955-1.8326721-0.0719147-3.6653137-0.1078796-5.4979858
				C197.5647736,327.0168457,198.2089996,327.0054626,198.8532257,326.9952698z M197.0784607,335.0767822
				c-0.0041199-0.2089539-0.0311279-0.4945984-0.0998688-0.7022705c-0.3018036-1.0595703-1.3631439-1.9141235-2.7969055-1.8778687
				c-1.9791718,0.0505371-3.1031342,1.6109924-3.0369263,3.6455078c0.0606842,1.8649292,1.1378937,3.3695374,3.1703339,3.3172302
				c1.2627411-0.0322876,2.4029388-0.7977295,2.7233734-2.0600586c0.0594025-0.2297363,0.0766449-0.4586487,0.0713501-0.7242126
				C197.0993805,336.142334,197.0888824,335.6095581,197.0784607,335.0767822z"/>
			<path class="st4" d="M209.8097382,342.0879211c0.0038757-0.640625,0.0078125-1.2812195,0.0117035-1.9218445
				c-1.2397003-0.0273438-2.5219269-0.3710022-3.2721863-0.8469238c0.1710968-0.4248962,0.3426056-0.8497314,0.5145874-1.2744446
				c0.7731628,0.4573364,1.8864746,0.8213196,3.0873566,0.8294983c1.5209808,0.010376,2.5595245-0.7561646,2.5734711-1.8413086
				c0.0127106-1.0454102-0.8202057-1.7047119-2.4158173-2.2865906c-2.1996765-0.7767029-3.5669861-1.6482544-3.5680389-3.3041992
				c-0.001709-1.5785828,1.2879333-2.7806091,3.3057404-3.0531921c0.0041046-0.640625,0.008194-1.2812195,0.0122833-1.9218445
				c0.4542694,0.0028992,0.908493,0.0064392,1.3627625,0.0105591c-0.0056152,0.6152039-0.0111694,1.2304077-0.0167847,1.8456421
				c1.3137512,0.0501709,2.2077942,0.3674316,2.8370667,0.6998291c-0.1884155,0.4158936-0.3762817,0.8318787-0.5637512,1.2479858
				c-0.4550934-0.2345581-1.3451385-0.665802-2.743454-0.6774292c-1.6831512-0.0130615-2.3194427,0.8629456-2.3215332,1.6231384
				c-0.0035095,0.9898987,0.8002319,1.4850769,2.6803894,2.1857605c2.2262726,0.8205872,3.3325348,1.8310852,3.3053436,3.5233765
				c-0.0248871,1.5035095-1.2256012,2.8894958-3.4297028,3.1925659c-0.0058289,0.6598206-0.0116577,1.3196106-0.0174713,1.9794312
				C210.7043762,342.0939636,210.2570496,342.0906372,209.8097382,342.0879211z"/>
			<path class="st4" d="M226.5888519,328.4614563c-0.0144348,0.3675537-0.0288696,0.7351074-0.0432892,1.1026917
				c-2.2083588,3.6711121-4.3709259,7.3567505-6.4875183,11.0559998c-0.6480865-0.0174255-1.2961884-0.0335999-1.9443359-0.0484619
				c2.0923309-3.6000671,4.2291412-7.1867981,6.4103088-10.7593384c0.0004425-0.0123596,0.0008698-0.0247498,0.001297-0.0371094
				c-2.3149567-0.081543-4.6303864-0.1470947-6.9460144-0.1966248c0.009903-0.4631348,0.0198212-0.926239,0.0297241-1.3893433
				C220.6028595,328.2533264,223.5962677,328.3440552,226.5888519,328.4614563z"/>
			<path class="st4" d="M238.8947754,341.4889526c-0.0243835-0.3894653-0.0488892-0.7789307-0.0735321-1.168396
				c-0.0214081-0.0014038-0.0428009-0.0027771-0.064209-0.0041809c-0.6252899,0.6846313-1.774704,1.2585449-3.2463074,1.1724548
				c-2.088974-0.1213989-3.0883331-1.4843445-3.0204773-2.8153992c0.1119995-2.2212219,2.4231873-3.3321533,6.4633179-3.0534058
				c0.0041199-0.063324,0.0081787-0.1266785,0.0122986-0.190033c0.0492706-0.7580566-0.0998383-2.1446228-2.249176-2.275116
				c-0.9762268-0.0585938-2.0118408,0.1489258-2.7715149,0.5272827c-0.1244507-0.3751526-0.249176-0.7502441-0.3742371-1.1253052
				c0.8954163-0.4480286,2.1758423-0.7004089,3.5027618-0.6200256c3.2220001,0.1980896,3.8712921,2.1777954,3.7437897,4.0168152
				c-0.0785065,1.1454163-0.1569977,2.2908325-0.2354889,3.4362793c-0.0545349,0.7969666-0.0651245,1.5783386,0.0198975,2.2135925
				C240.0329132,341.5643311,239.4638824,341.5261536,238.8947754,341.4889526z M238.9217377,336.7805786
				c-2.066391-0.173584-4.435318,0.0185852-4.53302,1.8045349c-0.0600128,1.0833435,0.7241669,1.6412354,1.6865234,1.6985168
				c1.3467865,0.0802612,2.2499542-0.6242371,2.6012573-1.3826294c0.0756073-0.1673584,0.1307831-0.3546143,0.1418304-0.5251465
				C238.8528137,337.8440857,238.8872681,337.3123169,238.9217377,336.7805786z"/>
			<path class="st4" d="M243.9631195,335.1107483c0.0709686-0.9485168,0.1074066-1.728241,0.0987701-2.4917603
				c0.5647888,0.0421143,1.1295471,0.0851746,1.6941986,0.1291809c-0.0031738,0.5084534-0.0064697,1.0169067-0.0098877,1.5253601
				c0.0144348,0.0011292,0.0288696,0.0022583,0.0433197,0.0033875c0.5871735-0.831543,1.8729095-1.5899963,3.6113739-1.441925
				c1.4570007,0.122467,3.6469116,1.0884399,3.3514557,4.2337646c-0.1693726,1.8251648-0.3387451,3.6503296-0.5081329,5.4754944
				c-0.6248016-0.0579529-1.2497101-0.1147461-1.8746948-0.1703186c0.1567383-1.7625732,0.3135071-3.5251465,0.4702911-5.2877197
				c0.1321564-1.4778137-0.3856354-2.7677612-2.1851501-2.9197693c-1.2569885-0.1056213-2.2947083,0.5942383-2.6910858,1.4984741
				c-0.1030121,0.2024841-0.1683502,0.4833984-0.1908417,0.7676697c-0.1446075,1.8400269-0.2892303,3.6800537-0.4338531,5.5201111
				c-0.6254272-0.0491638-1.2508545-0.0970764-1.8764191-0.1438293
				C243.6293488,339.5761719,243.7962189,337.3434448,243.9631195,335.1107483z"/>
			<path class="st4" d="M265.7627258,330.3819275c-0.4330139,3.684967-0.8659668,7.3699036-1.2989807,11.0548401
				c-0.0955811,0.8127747-0.1830139,1.7415466-0.1924744,2.3726807c-0.5599365-0.0658875-1.1199646-0.1307983-1.6801147-0.1947327
				c0.032074-0.5326843,0.0640869-1.0653687,0.0959473-1.598053c-0.0142212-0.0016479-0.0284729-0.0032654-0.0426636-0.0048828
				c-0.6930237,0.9551392-2.0335693,1.5882874-3.7134094,1.4091187c-2.4845886-0.2650757-4.2173157-2.3235779-3.9499664-5.1081238
				c0.2709503-3.0513,2.6250763-4.7172852,5.1881256-4.4423523c1.6056824,0.1720886,2.6152039,0.9571533,3.0063782,1.7483215
				c0.0144043,0.0016174,0.0288086,0.0032654,0.0432434,0.0048828c0.2069397-1.8212891,0.4138794-3.6425781,0.6207886-5.4638672
				C264.4807434,330.2325745,265.1217957,330.3066406,265.7627258,330.3819275z M262.9309692,338.157135
				c0.0236206-0.2076416,0.0343018-0.4943848-0.0061646-0.7092896c-0.1592712-1.0902405-1.0995789-2.0778809-2.5280457-2.2319031
				c-1.9703979-0.2120056-3.2922363,1.1858826-3.4958801,3.2112732c-0.1867065,1.8565674,0.6829224,3.4905701,2.7070313,3.7079163
				c1.2575378,0.1352844,2.4907532-0.4723816,2.9758911-1.6811829c0.089325-0.2198486,0.1367188-0.444458,0.166687-0.708374
				C262.8106384,339.216095,262.8708191,338.686615,262.9309692,338.157135z"/>
			<path class="st4" d="M282.8245544,345.7732239c-0.8685913,0.1340027-2.5657959,0.3139343-4.4936218,0.0306091
				c-2.1617126-0.3177795-3.8717651-1.0544739-5.1157227-2.4338074c-1.0906982-1.2232666-1.6383057-3.0210571-1.3781433-5.0022888
				c0.5115051-3.7875366,3.8854675-6.1806335,8.8119507-5.4544983c1.6975403,0.2510376,2.9745483,0.7756958,3.5629272,1.1368713
				c-0.2210999,0.4215698-0.441803,0.8432922-0.6621399,1.2651062c-0.7330322-0.4212952-1.6720276-0.8153687-3.1470032-1.0336304
				c-3.563385-0.5258179-6.1503906,1.0894165-6.5773926,4.275177c-0.4328918,3.2264099,1.500885,5.4211731,4.8323669,5.9112854
				c1.2111816,0.1784973,2.0621948,0.1540833,2.5159302,0.0305481c0.1922607-1.260498,0.3844604-2.5209961,0.5767517-3.7814941
				c-0.9779968-0.1491394-1.9562988-0.2953186-2.934967-0.4385986c0.0643005-0.4389954,0.12854-0.8779907,0.1928406-1.3170166
				c1.590271,0.2327881,3.1796875,0.4733276,4.768219,0.7216187
				C283.4592285,341.7131348,283.1418762,343.7431946,282.8245544,345.7732239z"/>
			<path class="st4" d="M287.3316345,342.7200317c-0.3227844,2.2410889,1.1367188,3.4251404,2.999176,3.7458191
				c1.3343201,0.2297974,2.1748962,0.1665649,2.9209595,0.0283203c0.0358276,0.4120789,0.0713501,0.8241272,0.10672,1.2361755
				c-0.7022705,0.1455383-1.8738403,0.2462463-3.5007324-0.0328369c-3.1439209-0.5379028-4.731781-2.6752625-4.2947693-5.4194946
				c0.4367065-2.7424927,2.6392822-4.6114197,5.6820984-4.0922241c3.407959,0.5862732,3.8389893,3.36203,3.5373535,5.0257263
				c-0.0606079,0.3363647-0.1498413,0.591217-0.2016296,0.7565308
				C292.1668091,343.5339661,289.7503357,343.117981,287.3316345,342.7200317z M293.0415955,342.4760437
				c0.2067871-1.044342-0.0196838-2.769043-2.1491699-3.1338806c-1.9146729-0.3258972-3.0072021,1.0775146-3.3446655,2.1980896
				C289.3803711,341.8418274,291.2116394,342.1537781,293.0415955,342.4760437z"/>
			<path class="st4" d="M300.6303711,337.4031067c-0.1643372,0.866394-0.3286743,1.7327881-0.4930115,2.5991821
				c0.9021912,0.1711121,1.8040466,0.3447266,2.7055359,0.5208435c-0.0814819,0.4169312-0.1629333,0.8338623-0.2443848,1.2507629
				c-0.8992004-0.1756592-1.7987366-0.3488464-2.6986389-0.5195007c-0.3084717,1.6262817-0.6169434,3.2525635-0.9253845,4.8788452
				c-0.2125854,1.1228638,0.0266724,1.8253174,1.0613403,2.024353c0.4864197,0.093689,0.8559265,0.1079102,1.0995483,0.0967102
				c-0.0519104,0.4163818-0.1039124,0.8327332-0.1559753,1.249115c-0.3840332,0.0603943-0.9707947,0.0437622-1.6872559-0.0935364
				c-0.8639526-0.1655273-1.5136414-0.5391541-1.8728027-1.0714417c-0.4364624-0.5854187-0.478241-1.4242859-0.2800903-2.4910583
				c0.3058472-1.6463318,0.6117249-3.2926331,0.9176025-4.9389343c-0.5360107-0.0996094-1.0721436-0.1982727-1.608429-0.2960815
				c0.0762329-0.4179382,0.1524658-0.8358459,0.2286682-1.2537537c0.5376587,0.098053,1.0751953,0.1970215,1.6125488,0.2968445
				c0.1344299-0.7236328,0.2688904-1.4472656,0.4033203-2.1708679
				C299.3383789,337.4561462,299.9841919,337.4289856,300.6303711,337.4031067z"/>
			<path class="st4" d="M310.3262939,353.1351318c0.1353455-0.6261597,0.2706909-1.2523499,0.4060669-1.8785095
				c-1.214325-0.2827759-2.4051514-0.8836365-3.0455017-1.5042725c0.2555237-0.3805542,0.5114746-0.7608948,0.7678528-1.1411133
				c0.666748,0.6071472,1.6872559,1.1931458,2.8673401,1.4491272c1.4945068,0.3241882,2.6743774-0.2114258,2.9107056-1.2705688
				c0.2271118-1.0205383-0.4573364-1.8379211-1.9081421-2.736908c-2.0050964-1.214325-3.1711426-2.3493958-2.8321838-3.9702759
				c0.3224182-1.5453186,1.8378601-2.4556885,3.8792114-2.3058777c0.1355591-0.6261292,0.2710876-1.2522583,0.4066467-1.8783875
				c0.4463501,0.0966492,0.8926392,0.1939087,1.3388367,0.291748c-0.1317749,0.6009521-0.2635803,1.2019043-0.3953857,1.8028564
				c1.2825623,0.3204651,2.0976563,0.8157043,2.6488037,1.2710876c-0.270813,0.3681335-0.5411987,0.7364197-0.8111572,1.1049194
				c-0.3997803-0.3236389-1.1873169-0.9295654-2.5611267-1.2297363c-1.6535339-0.3603821-2.4593506,0.3657227-2.6175842,1.1092529
				c-0.2067261,0.9680786,0.4824829,1.6185913,2.1888123,2.692627c2.022522,1.2629395,2.9042969,2.4806519,2.5301514,4.1312866
				c-0.3331604,1.4663696-1.7998352,2.574585-4.0312805,2.4159851c-0.1411743,0.6445313-0.2823792,1.289093-0.4235535,1.9336548
				C311.2054138,353.3257751,310.7658997,353.2301331,310.3262939,353.1351318z"/>
			<path class="st4" d="M329.6475525,343.2698364c-0.0896606,0.35672-0.1793213,0.7134705-0.2689819,1.0702209
				c-2.9300232,3.1352539-5.8172913,6.2945251-8.661499,9.4769897c-0.6347961-0.1511841-1.2697754-0.3011169-1.9050293-0.4497681
				c2.7995605-3.0905762,5.6407776-6.1585999,8.5233765-9.2032471c0.0029602-0.0119934,0.0059204-0.0240173,0.0088806-0.0360107
				c-2.2643738-0.5594482-4.5317078-1.1028748-6.8018494-1.6303101c0.1048279-0.4512024,0.2096863-0.9024048,0.3144836-1.3536072
				C323.7919006,341.8259888,326.722229,342.5345764,329.6475525,343.2698364z"/>
		</g>
	</g>
	<g>
		<g>
			<path class="st4" d="M67.0039902,157.1010132l0.0763016,3.4516907l-2.0305023-2.7923889
				c-2.614399-3.5953064-6.3617973-6.0754089-10.4977989-6.9477081l0,0l0,0
				c2.7622032-3.1996002,4.2411003-7.4429016,4.1429024-11.8871918l-0.0762024-3.4517059l2.0305023,2.7922974
				c2.6142998,3.5953979,6.3616028,6.0754089,10.4975967,6.9476013l0,0l0,0
				C68.3845901,148.4133148,66.9057922,152.6567078,67.0039902,157.1010132z"/>
			<path class="st4" d="M48.8140907,140.174118l0.0531006,2.3970947l-1.410099-1.9393005
				c-1.8156013-2.4963989-4.4179993-4.2187958-7.2901001-4.8244934l0,0l0,0
				c1.9179993-2.2219086,2.9449997-5.1689148,2.8770981-8.2552109l-0.0529976-2.3968964l1.4099007,1.939003
				c1.8153992,2.4967957,4.4179001,4.2191925,7.2901001,4.8248901l0,0l0,0
				C49.7729912,134.1411133,48.7458916,137.0881042,48.8140907,140.174118z"/>
		</g>
		<g>
			<path class="st4" d="M351.2167969,119.8274155l2.3868103-2.494606l-0.5387268,3.4101944
				c-0.6936951,4.3909073,0.2025146,8.7944107,2.5103149,12.3358078l0,0l0,0
				c-4.2156067,0.3092957-8.2619019,2.2640991-11.3349915,5.4761047l-2.3868103,2.4945984l0.5386047-3.410202
				c0.6936951-4.3908997-0.202301-8.7943115-2.5101929-12.335701l0,0l0,0
				C344.0975037,124.9943085,348.1437073,123.0394135,351.2167969,119.8274155z"/>
			<path class="st4" d="M352.1098938,144.6587067l1.6575012-1.7325897l-0.3742065,2.3683929
				c-0.4813843,3.0491028,0.1408997,6.1072083,1.7434998,8.5662994l0,0l0,0
				c-2.9273987,0.2149048-5.7374878,1.5724945-7.8717957,3.803009l-1.6574097,1.7322998l0.3742065-2.3681183
				c0.4818115-3.0491943-0.1405945-6.1072845-1.7431946-8.5665894l0,0l0,0
				C347.1658936,148.2467041,349.9761047,146.8891144,352.1098938,144.6587067z"/>
		</g>
		<g>
			<path class="st4" d="M196.8220978,31.590414l0.8389893-1.9951l0.4481049,2.1175003
				c0.5769958,2.7263985,2.0876007,5.1041908,4.2319031,6.6610985l0,0l0,0c-2.3992004,1.125-4.3307953,3.175602-5.4111023,5.7444
				l-0.8390961,1.9951019l-0.4481049-2.1174088c-0.5769043-2.7263908-2.0874939-5.1041908-4.2317963-6.6610909l0,0l0,0
				C193.8101959,36.2099152,195.7417908,34.1593132,196.8220978,31.590414z"/>
			<path class="st4" d="M202.9046936,45.9304123l0.5825958-1.3855972l0.311203,1.4704971
				c0.4008026,1.8931999,1.4497986,3.5445023,2.938797,4.6256027l0,0l0,0
				c-1.6660004,0.7812996-3.0074005,2.2053986-3.7577972,3.9892998l-0.5825958,1.385498l-0.3111115-1.4705009
				c-0.400589-1.8932037-1.4497986-3.5445976-2.9386902-4.6257973l0,0l0,0
				C200.8130951,49.1382141,202.1545868,47.7141151,202.9046936,45.9304123z"/>
		</g>
	</g>
</g>
</svg>
