<?xml version="1.0" encoding="utf-8"?>
<!-- Generator: Adobe Illustrator 19.0.0, SVG Export Plug-In . SVG Version: 6.00 Build 0)  -->
<svg version="1.1" id="Layer_1" xmlns="http://www.w3.org/2000/svg" xmlns:xlink="http://www.w3.org/1999/xlink" x="0px" y="0px"
	 viewBox="-230.9385071 24.9385071 512 512" style="enable-background:new -230.9385071 24.9385071 512 512;" xml:space="preserve">
<style type="text/css">
	.st0{fill:#F3F3F3;}
	.st1{fill:#E7E7E7;}
	<!-- .st2{fill:#39AED8;} -->
	.st2{fill:#e2c052;}
	.st3{fill:#D12222;}
	.st4{fill:#CAD6D8;}
	.st5{opacity:0.08;}
	.st6{display:none;fill:#E7E7E7;}
</style>
<g>
	<circle class="st0" cx="25.0614929" cy="280.9385071" r="238"/>
	<path class="st1" d="M-212.9385376,280.9384766c0,131.4437866,106.5562744,238,238,238v-476
		C-106.3822632,42.9384766-212.9385376,149.494751-212.9385376,280.9384766z"/>
	<circle class="st2" cx="25.0614929" cy="280.9385071" r="203.6940613"/>
	<path class="st0" d="M26.5005112,280.9385071h-2.8771439c-5.3539639,0-9.6959705-4.34021-9.6959705-9.6959534v-117.926178
		c0-5.3539581,4.3402252-9.6959686,9.6959705-9.6959686h2.8771439c5.3539619,0,9.6959686,4.3402252,9.6959686,9.6959686v117.927948
		C36.1946831,276.5982971,31.8544464,280.9385071,26.5005112,280.9385071z"/>
	<path class="st0" d="M26.5005112,280.9385071l2.034605,2.0346069c3.7856655,3.785675,3.7856655,9.9251099,0,13.7116699
		l-68.0893402,68.0893555c-3.7856636,3.7856445-9.9251099,3.7856445-13.7116585,0l-2.0345917-2.0346069
		c-3.7856636-3.785675-3.7856636-9.9251099,0-13.7116699l68.0893097-68.0893555
		C16.5745029,277.152832,22.7130489,277.152832,26.5005112,280.9385071z"/>
	<!-- <path class="st3" d="M160.3806458,247.9989624L160.3806458,247.9989624
		c0.544754,2.2111206-0.8068695,4.4454193-3.0180206,4.9901886L27.1228065,285.0620728
		c-2.2111225,0.5447693-4.4454269-0.8068848-4.9901924-3.0180054l0,0c-0.5447502-2.2111206,0.8068829-4.4454346,3.0180054-4.9902039
		l130.2398224-32.0729218C157.6016083,244.436203,159.835907,245.7869415,160.3806458,247.9989624z"/> -->
	<circle class="st4" cx="25.0614834" cy="280.9385071" r="18.4040623"/>
	<path class="st5" d="M-178.6325684,280.9384766c0,112.4971313,91.1969604,203.6940918,203.6940308,203.6940918V77.2444458
		C-87.4356079,77.2444458-178.6325684,168.4414063-178.6325684,280.9384766z"/>
</g>
<rect x="-239" y="4.8770142" class="st6" width="264.0614624" height="659"/>
<rect x="-239" y="4.8770142" class="st6" width="264.0614624" height="659"/>
<rect x="-239" y="4.8770142" class="st6" width="264.0614624" height="659"/>
</svg>
