<?xml version="1.0" encoding="utf-8"?>
<!-- Generator: Adobe Illustrator 16.0.0, SVG Export Plug-In . SVG Version: 6.00 Build 0)  -->
<!DOCTYPE svg PUBLIC "-//W3C//DTD SVG 1.1//EN" "http://www.w3.org/Graphics/SVG/1.1/DTD/svg11.dtd">
<svg version="1.1" id="Layer_1" xmlns="http://www.w3.org/2000/svg" xmlns:xlink="http://www.w3.org/1999/xlink" x="0px" y="0px"
	 width="38.498px" height="36px" viewBox="0 0 38.498 36" enable-background="new 0 0 38.498 36" xml:space="preserve">
<path fill-rule="evenodd" clip-rule="evenodd" fill="#A3A3A2" d="M10.82,9.18c-0.22-0.22-0.31-0.17-0.51-0.17
	c-0.49,0-0.81,0.32-0.81,0.81c0,0.2-0.02,0.29,0.15,0.49c1.44,1.49,3.01,3.04,4.48,4.53c1.4,1.37,2.8,2.79,4.12,4.17
	c-2.87,2.891-5.76,5.75-8.58,8.641c-0.1,0.1-0.17,0.369-0.17,0.52c0,0.41,0.32,0.801,0.79,0.801c0.19,0,0.29,0.029,0.51-0.171
	c2.92-2.84,5.81-5.8,8.7-8.69c2.891,2.891,5.689,5.881,8.68,8.69c0.291,0.3,0.24,0.171,0.49,0.171c0.41,0,0.801-0.311,0.801-0.801
	c0-0.1-0.121-0.47-0.191-0.52C27.66,25.96,25.95,24.27,24.3,22.63c-1.17-1.2-2.399-2.42-3.6-3.62c2.87-2.9,5.829-5.74,8.6-8.7
	c0.3-0.32,0.171-0.27,0.171-0.49c0-0.44-0.311-0.81-0.801-0.81c-0.08,0-0.13-0.02-0.18,0c-0.07,0-0.19,0.05-0.24,0.1
	c-1.79,1.74-3.58,3.53-5.32,5.31c-1.15,1.16-2.33,2.36-3.45,3.48C16.58,14.99,13.72,12.02,10.82,9.18z"/>
</svg>
