<svg width="28" height="25" viewBox="0 0 28 25" fill="none" xmlns="http://www.w3.org/2000/svg">
<path d="M13.7116 11.7961C13.8925 11.8632 14.0949 11.8679 14.2884 11.7961L24.6652 7.90491V16.876C24.9287 16.8097 25.2017 16.7706 25.4855 16.7706C25.7694 16.7706 26.0424 16.8097 26.3059 16.876V7.28956L27.4694 6.87373C28.1762 6.60803 28.1776 5.60333 27.4694 5.33708L14.2884 0.414722C14.1025 0.345809 13.8974 0.345809 13.7116 0.414722L0.53061 5.33708C-0.176186 5.60278 -0.177553 6.60749 0.53061 6.87373L13.7116 11.7961Z" fill="#3C8AFF"/>
<path d="M25.4856 18.4113C24.0828 18.4113 23.0244 20.1746 23.0244 22.5133V24.1541C23.0244 24.6075 23.3913 24.9744 23.8448 24.9744H27.1264C27.5798 24.9744 27.9468 24.6075 27.9468 24.1541V22.5133C27.9468 20.1746 26.8885 18.4113 25.4856 18.4113Z" fill="#3C8AFF"/>
<path d="M22.4853 10.4748L14.8644 13.3328C14.2936 13.5436 13.69 13.5381 13.1411 13.3344L5.51463 10.4747C4.83032 12.9826 5.00435 14.6285 4.97564 15.1298C4.97564 15.7101 5.5655 16.1064 6.09968 15.8917C6.11894 15.8845 8.03691 15.1298 9.89799 15.1298C11.6293 15.1298 13.4704 16.5767 13.4888 16.5919C13.7822 16.8253 14.2092 16.833 14.5127 16.5911C15.0206 16.1841 16.6558 15.1297 18.1019 15.1297C19.963 15.1297 21.881 15.8844 21.9002 15.8917C22.4332 16.1058 23.0243 15.7112 23.0243 15.1297C22.9968 14.6487 23.1656 12.9677 22.4853 10.4748Z" fill="#3C8AFF"/>
</svg>
