<svg width="28" height="25" viewBox="0 0 28 25" fill="none" xmlns="http://www.w3.org/2000/svg">
<path d="M13.7115 11.7961C13.8924 11.8632 14.0948 11.8679 14.2884 11.7961L24.6651 7.90491V16.876C24.9286 16.8097 25.2017 16.7706 25.4855 16.7706C25.7693 16.7706 26.0424 16.8097 26.3059 16.876V7.28956L27.4694 6.87373C28.1762 6.60803 28.1775 5.60333 27.4694 5.33708L14.2884 0.414722C14.1025 0.345809 13.8974 0.345809 13.7115 0.414722L0.530549 5.33708C-0.176247 5.60278 -0.177614 6.60749 0.530549 6.87373L13.7115 11.7961Z" fill="#3C8AFF"/>
<path d="M25.4855 18.4113C24.0827 18.4113 23.0243 20.1746 23.0243 22.5132V24.154C23.0243 24.6075 23.3912 24.9744 23.8447 24.9744H27.1263C27.5797 24.9744 27.9467 24.6075 27.9467 24.154V22.5132C27.9467 20.1746 26.8884 18.4113 25.4855 18.4113Z" fill="#3C8AFF"/>
<path d="M22.4853 10.4748L14.8644 13.3328C14.2936 13.5436 13.69 13.5381 13.1411 13.3344L5.5146 10.4747C4.83029 12.9826 5.00432 14.6285 4.97561 15.1298C4.97561 15.7101 5.56547 16.1064 6.09965 15.8917C6.1189 15.8845 8.03687 15.1298 9.89796 15.1298C11.6293 15.1298 13.4703 16.5767 13.4888 16.5919C13.7821 16.8253 14.2091 16.833 14.5126 16.5911C15.0206 16.1841 16.6558 15.1297 18.1019 15.1297C19.963 15.1297 21.881 15.8844 21.9002 15.8917C22.4331 16.1058 23.0243 15.7112 23.0243 15.1297C22.9967 14.6487 23.1656 12.9677 22.4853 10.4748Z" fill="#3C8AFF"/>
</svg>
