<svg width="20" height="28" viewBox="0 0 20 28" fill="none" xmlns="http://www.w3.org/2000/svg">
<path d="M11.7414 21.4847C11.2258 21.4847 10.7138 21.4111 10.2194 21.2658C10.1529 21.2463 10.0845 21.2364 10.0161 21.2364C9.94779 21.2364 9.87949 21.2462 9.81313 21.2657C9.31943 21.4106 8.80813 21.484 8.29332 21.484C6.78796 21.484 5.35766 20.8617 4.33583 19.7704V27.0988C4.33583 27.387 4.48862 27.6536 4.73726 27.7993C4.9859 27.945 5.29315 27.9479 5.5446 27.807L10.0184 25.2994L14.4921 27.807C14.6155 27.8761 14.7523 27.9106 14.8891 27.9106C15.031 27.9106 15.1728 27.8734 15.2995 27.7992C15.5482 27.6535 15.7009 27.3869 15.7009 27.0987V19.7688C14.6791 20.8615 13.2477 21.4846 11.7414 21.4847Z" fill="#3C8AFF"/>
<path d="M10.0184 14.3106C12.3671 14.3106 14.2711 12.4065 14.2711 10.0576C14.2711 7.7088 12.3671 5.80469 10.0184 5.80469C7.66975 5.80469 5.76576 7.7088 5.76576 10.0576C5.76576 12.4065 7.66975 14.3106 10.0184 14.3106Z" fill="#3C8AFF"/>
<path d="M19.4076 8.1811C19.6216 6.69489 18.9438 5.20993 17.6809 4.39793C17.3108 4.1599 17.0186 3.8225 16.8359 3.42216C16.2124 2.05622 14.8395 1.17343 13.3381 1.1731C12.8981 1.17299 12.4699 1.04716 12.0997 0.809181C10.8368 -0.00281864 9.20459 -0.00314336 7.94137 0.808315C7.57128 1.04607 7.14318 1.17169 6.70332 1.17169C6.70294 1.17169 6.70251 1.17169 6.70208 1.17169C5.20099 1.17169 3.82801 2.05389 3.20414 3.41929C3.02126 3.81953 2.72889 4.15682 2.35864 4.39469C1.09542 5.2062 0.416997 6.69089 0.630402 8.1772C0.692967 8.61278 0.629319 9.05458 0.446439 9.45487C-0.177539 10.8205 0.0543762 12.4363 1.03735 13.5713C1.32544 13.904 1.51076 14.31 1.57332 14.7456C1.78667 16.2319 2.85532 17.4658 4.29579 17.889C4.718 18.0131 5.09345 18.2545 5.38149 18.5872C6.36446 19.7221 7.93044 20.1823 9.37118 19.7596C9.79339 19.6357 10.2398 19.6358 10.6619 19.7599C11.0177 19.8644 11.3809 19.9151 11.7413 19.9151C12.8403 19.9151 13.9115 19.4435 14.6521 18.5891C14.9403 18.2566 15.3159 18.0154 15.7381 17.8915C17.1788 17.4687 18.2479 16.2353 18.4619 14.7492C18.5246 14.3136 18.7101 13.9076 18.9983 13.5751C19.9818 12.4405 20.2144 10.8248 19.591 9.45887C19.4084 9.05853 19.3449 8.61673 19.4076 8.1811ZM10.0184 15.9343C6.77817 15.9343 4.14209 13.298 4.14209 10.0576C4.14209 6.81715 6.77817 4.18079 10.0184 4.18079C13.2587 4.18079 15.8948 6.8171 15.8948 10.0575C15.8948 13.2979 13.2587 15.9343 10.0184 15.9343Z" fill="#3C8AFF"/>
</svg>
