<svg width="28" height="28" viewBox="0 0 28 28" fill="none" xmlns="http://www.w3.org/2000/svg">
<path d="M20.1219 12.4438C15.8819 12.4438 12.4438 15.8819 12.4438 20.122C12.4438 24.362 15.8819 27.8001 20.1219 27.8001C24.3619 27.8001 27.8 24.362 27.8 20.122C27.8 15.8819 24.3619 12.4438 20.1219 12.4438ZM20.975 23.4031V24.3876C20.975 24.8585 20.5928 25.2407 20.1219 25.2407C19.651 25.2407 19.2688 24.8585 19.2688 24.3876V23.4167C18.994 23.3383 18.7364 23.2205 18.5044 23.067C18.1136 22.8059 18.0078 22.2753 18.2689 21.8828C18.5317 21.4921 19.0606 21.3897 19.453 21.6474C19.6305 21.7651 19.8608 21.8282 20.1219 21.8282C20.644 21.8282 20.975 21.5484 20.975 21.4017C20.975 21.2549 20.644 20.9751 20.1219 20.9751C18.7108 20.9751 17.5625 20.0179 17.5625 18.8423C17.5625 17.9158 18.2774 17.1343 19.2688 16.8409V15.8563C19.2688 15.3854 19.651 15.0032 20.1219 15.0032C20.5928 15.0032 20.975 15.3854 20.975 15.8563V16.8272C21.2497 16.9057 21.5074 17.0234 21.7394 17.177C22.1301 17.438 22.2359 17.9687 21.9749 18.3611C21.7138 18.7519 21.1849 18.8559 20.7907 18.5966C20.6133 18.4789 20.3812 18.4157 20.1219 18.4157C19.5998 18.4157 19.2688 18.6955 19.2688 18.8423C19.2688 18.989 19.5998 19.2688 20.1219 19.2688C21.5329 19.2688 22.6813 20.2261 22.6813 21.4017C22.6813 22.3282 21.9663 23.1096 20.975 23.4031Z" fill="#3C8AFF"/>
<path d="M10.7375 0.5C5.08299 0.5 0.5 5.08299 0.5 10.7375C0.5 16.392 5.08299 20.975 10.7375 20.975C10.7512 20.975 10.7665 20.9733 10.7802 20.9733C10.7546 20.6918 10.7375 20.4085 10.7375 20.1219C10.7375 16.3289 12.9915 13.0699 16.2282 11.5906H10.7375C10.2666 11.5906 9.88438 11.2084 9.88438 10.7375V4.76562C9.88438 4.2947 10.2666 3.9125 10.7375 3.9125C11.2084 3.9125 11.5906 4.2947 11.5906 4.76562V9.88438H16.7094C17.1803 9.88438 17.5625 10.2666 17.5625 10.7375C17.5625 10.8808 17.5181 11.0088 17.4567 11.1265C18.303 10.8774 19.1954 10.7375 20.1219 10.7375C20.4085 10.7375 20.6918 10.7546 20.9733 10.7802C20.9733 10.7665 20.975 10.7512 20.975 10.7375C20.975 5.08299 16.392 0.5 10.7375 0.5Z" fill="#3C8AFF"/>
</svg>
