<svg width="19" height="19" viewBox="0 0 19 19" fill="none" xmlns="http://www.w3.org/2000/svg">
<path d="M9.5 0C4.25359 0 0 4.25329 0 9.5C0 14.7467 4.25359 19 9.5 19C14.7467 19 19 14.7467 19 9.5C19 4.25329 14.7467 0 9.5 0ZM10.3822 13.1643H8.48216V8.27858H10.3822V13.1643ZM9.43216 7.46425C8.90747 7.46425 8.48216 7.0392 8.48216 6.51425C8.48216 5.98931 8.90747 5.56425 9.43216 5.56425C9.95685 5.56425 10.3822 5.98931 10.3822 6.51425C10.3822 7.03924 9.95685 7.46425 9.43216 7.46425Z" fill="#C3C6CD"/>
</svg>
