<svg width="26" height="26" viewBox="0 0 26 26" fill="none" xmlns="http://www.w3.org/2000/svg">
<circle cx="19.639" cy="19.65" r="5.85" fill="#3C8AFF"/>
<path d="M18.0514 20.7496C17.8715 20.9295 17.8715 21.221 18.0514 21.4009C18.2312 21.5807 18.5228 21.5807 18.7026 21.4009L19.6983 20.4052L20.7008 21.4077C20.893 21.5999 21.2045 21.5999 21.3966 21.4077C21.5888 21.2156 21.5888 20.9041 21.3966 20.7119L20.3941 19.7094L21.3898 18.7137C21.5696 18.5339 21.5696 18.2423 21.3898 18.0625C21.2099 17.8826 20.9184 17.8826 20.7385 18.0625L19.7429 19.0582L18.754 18.0693C18.5619 17.8772 18.2504 17.8772 18.0582 18.0693C17.8661 18.2615 17.8661 18.573 18.0582 18.7651L19.0471 19.754L18.0514 20.7496Z" fill="#ECF3FD"/>
<path d="M19.3094 0.800049H2.03396C1.29359 0.800049 0.800003 1.29363 0.800003 2.03401V24.2453C0.800003 24.9856 1.29359 25.4792 2.03396 25.4792H15.2373C13.263 24.1219 11.9056 21.9007 11.9056 19.3094C11.9056 15.2374 15.2373 11.9057 19.3094 11.9057C19.6796 11.9057 20.1732 11.9057 20.5433 12.0291V2.03401C20.5433 1.29363 20.0498 0.800049 19.3094 0.800049ZM10.6717 10.6717H4.50188C3.7615 10.6717 3.26792 10.0547 3.26792 9.43776C3.26792 8.69739 3.7615 8.2038 4.50188 8.2038H10.6717C11.412 8.2038 11.9056 8.69739 11.9056 9.43776C11.9056 10.0547 11.412 10.6717 10.6717 10.6717ZM16.8415 5.73588H4.50188C3.7615 5.73588 3.26792 5.11891 3.26792 4.50193C3.26792 3.76155 3.7615 3.26797 4.50188 3.26797H16.8415C17.5818 3.26797 18.0754 3.76155 18.0754 4.50193C18.0754 5.11891 17.5818 5.73588 16.8415 5.73588Z" fill="#3C8AFF"/>
</svg>
