<?xml version="1.0" encoding="utf-8"?>
<!-- Generator: Adobe Illustrator 19.0.0, SVG Export Plug-In . SVG Version: 6.00 Build 0)  -->
<svg version="1.1" id="Layer_1" xmlns="http://www.w3.org/2000/svg" xmlns:xlink="http://www.w3.org/1999/xlink" x="0px" y="0px"
	 viewBox="0 0 512 512" style="enable-background:new 0 0 512 512;" xml:space="preserve">
<style type="text/css">
	.st0{fill:#E5E5E5;}
	.st1{fill:#B3B6B7;}
</style>
<g>
	<rect class="st0" width="512" height="512"/>
	<g>
		<path class="st1" d="M471.9098816,512c0.2091675-9.6636353,0.1530762-19.3475342-1.3005371-28.7716064
			c-3.1707764-20.5560913-11.2628784-39.3164673-29.7966309-51.1402588
			c-9.4221191-6.0110474-19.1629639-12.0244751-29.5546875-15.911499
			c-23.1012573-8.6409912-46.7024536-15.9458618-70.1073608-23.7728271
			c-0.5167236-0.1728516-1.1238403-0.0752563-1.8775635-0.1133423c-0.1694946,1.1916504-0.3305054,2.2045898-0.4558105,3.2219238
			c-3.1229248,25.3551025-11.2698364,48.6361084-28.1798706,68.3029175
			c-14.5424194,16.913147-32.9970093,28.5229492-52.5739136,38.5505371
			c-1.2545166,0.6425781-3.5437775,0.3313599-4.8685455-0.4051514c-7.7175293-4.2905884-15.4685669-8.5654907-22.8806152-13.3529663
			c-27.0390015-17.4646606-45.4937134-41.335083-53.1826782-72.913269
			c-1.892334-7.7718506-3.0830688-15.7145386-4.6517334-23.866394
			c-19.4125366,6.3388672-38.9616089,12.0713501-58.0037766,19.1647339
			c-13.1123047,4.8844604-25.8118896,11.1114502-38.1796265,17.706665
			c-19.7006836,10.5056152-28.6433105,28.9608154-34.1359863,49.4804688
			c-1.1462402,4.2822876-1.4616089,8.7869873-2.1599121,13.189209V512H471.9098816z"/>
		<path class="st1" d="M266.0023193,82.4633026c7.0670471,1.2298508,14.2277222,2.0732651,21.1842957,3.7589722
			c25.0932007,6.080513,46.2098083,18.409935,60.5028992,40.5381393
			c9.3190918,14.4275742,12.7324829,30.8294144,12.6320496,47.6512527
			c-0.0874634,14.6526947-1.9456787,29.2948914-3.026001,43.9414063c-0.0650024,0.8813782-0.1709595,1.7597809-0.2559204,2.6196289
			c9.7300415,1.982132,13.4331055,5.8234711,14.0465393,16.6629181
			c0.8936768,15.7922821-3.9236145,29.8395081-14.6333313,41.7279968c-1.663269,1.8463135-3.1989136,3.9550171-4.2286377,6.201355
			c-8.4043274,18.3335571-17.8811951,36.0194092-30.9273987,51.5465698
			c-13.0487366,15.5302429-28.5145264,27.578064-48.849823,31.7935181
			c-26.619278,5.5180664-49.8828888-1.6585999-69.9414063-19.6585999
			c-16.2538605-14.5858154-27.4137573-32.8606262-37.1008301-52.1384277
			c-3.8775787-7.7166138-7.6936951-15.2533569-13.1797333-22.2182312
			c-9.4085846-11.9448547-13.2515869-26.1310425-10.5091858-41.4869995
			c1.4254913-7.9820709,4.923111-11.0448761,13.2871857-12.2127991c-0.6760712-5.5674591-1.4134979-11.1485138-2.0220184-16.7435913
			c-1.8242493-16.7733002-2.3331299-33.5262299,0.8860474-50.2167664
			c5.5016479-28.5244064,22.8683777-47.533905,48.2600555-60.0203629
			c12.6518097-6.2215729,26.1168518-9.6221542,40.1444702-10.8805618c1.3170013-0.1181488,2.6041565-0.5690231,3.9051666-0.8654175
			C252.7852631,82.4633026,259.3937988,82.4633026,266.0023193,82.4633026z M343.5405579,198.5307007
			c-2.0032959-0.4016266-2.5699768-0.567627-3.1473083-0.623291c-13.2849731-1.281311-26.6479492-2.0193787-39.8418579-3.9271545
			c-32.507843-4.7005463-61.3816376-17.3346252-84.6505737-41.1202698
			c-3.1400757-3.2097931-6.0573578-3.5738373-9.9749756-2.4510803
			c-18.383194,5.2684479-28.5339203,18.9438477-36.1699982,35.2006836
			c-0.4178009,0.8894653-0.3701782,2.0757141-0.2956696,3.1062012c0.7778931,10.7577972,1.3148041,21.5446167,2.5177002,32.256134
			c0.8599243,7.6575317,2.6316376,15.212677,3.996521,22.8135071c-1.0062866-0.3858185-1.352829-0.9964905-1.7005463-1.6064911
			c-2.2186432-3.8920898-4.063736-8.0693207-6.7573242-11.5990143c-2.9264832-3.8348389-6.4045868-3.6328125-9.3701172,0.1351929
			c-1.344223,1.7079773-2.6879578,3.9019623-2.8555603,5.9707489c-1.0141296,12.51828,2.3049469,23.6904755,10.8709106,33.1870575
			c2.3573608,2.6134644,4.5758972,5.5638428,6.0385895,8.7373352c7.8534851,17.0394287,15.6781616,34.0427856,26.8194427,49.3210754
			c21.0459747,28.8608704,52.8588715,33.4368286,81.0900421,24.929657
			c17.1754761-5.1756592,29.0808411-17.4025269,37.8939819-32.2767334
			c8.0059509-13.5116882,14.4927063-27.9183044,21.8344421-41.8326111c1.7110901-3.2428894,3.9075012-6.3237305,6.3368225-9.0765686
			c8.3300781-9.4393005,11.7081604-20.4796906,10.713562-32.8249207c-0.3237-4.0183258-2.5587463-7.7739105-6.7438965-8.7729797
			c-4.0535278-0.9676971-6.1755066,2.5562897-7.8913269,5.4945679c-2.3849182,4.0841064-4.3232117,8.4290924-6.2548218,12.2691193
			C338.4516602,230.4528046,340.967865,214.6689148,343.5405579,198.5307007z"/>
		<path class="st1" d="M248.3099518,416.6889954c-4.8647461-5.3562012-9.3788452-10.3265076-13.893219-15.2966003
			c-2.5813446-2.8418884-2.383606-5.4788513,0.5501099-7.9510498c0.4736633-0.3991394,0.8469238-0.9202881,1.2522583-1.3971863
			c4.080307-4.8006897,8.7775116-7.8165588,15.5724792-6.8388062c3.9262085,0.5649719,8.0002899,0.0996399,12.0078278,0.1027832
			c5.0891724,0.0039673,14.1685791,6.4657898,15.5231323,11.2695923c0.2388611,0.8473206-0.2973938,2.2236938-0.9346924,2.9567566
			c-3.9308472,4.5214539-7.7384949,9.2026672-12.1112366,13.2668152c-2.4686279,2.2944641-2.7669373,3.9199524-1.5004883,6.9324951
			c4.8443604,11.523468,9.2974548,23.2108459,14.0617065,34.7689819c0.8769836,2.127594,0.7177124,3.6246033-0.5956726,5.4510803
			c-5.6985779,7.9245605-12.766571,14.4215698-20.6664124,20.0415649c-0.7352905,0.5231018-2.4582977,0.5548401-3.1906281,0.0471802
			c-7.86026-5.4488525-15.0478821-11.6184692-20.4967041-19.6269836c-1.3959656-2.0517578-1.6412811-3.7362671-0.6488037-6.1411743
			C238.4789886,441.5783691,243.4859924,428.7864685,248.3099518,416.6889954z"/>
	</g>
</g>
</svg>
