<svg xmlns="http://www.w3.org/2000/svg" width="296" height="178" viewBox="0 0 296 178">
  <defs>
    <linearGradient id="amy-graph-a" x1="50%" x2="50%" y1="0%" y2="100%">
      <stop offset="0%" stop-color="#E4E8EC" stop-opacity=".293"/>
      <stop offset="100%" stop-color="#C4CDD5" stop-opacity=".574"/>
    </linearGradient>
    <linearGradient id="amy-graph-b" x1="2.661%" y1="0%" y2="100%">
      <stop offset="0%" stop-color="#3095E1"/>
      <stop offset="100%" stop-color="#4CBE80"/>
    </linearGradient>
  </defs>
  <g fill="none" fill-rule="evenodd" transform="translate(.04 .78)">
    <rect width="294" height="155" x="1" y="3" fill="#F9FAFB"/>
    <path stroke="url(#amy-graph-a)" stroke-linecap="square" d="M1,0 L1,157.690002"/>
    <path stroke="#DFE3E8" stroke-dasharray="3 4" stroke-linecap="round" d="M295.01001 129L1 129M295.01001 98L1 98M295.01001 67L1 67M295.01001 36L1 36"/>
    <path stroke="url(#amy-graph-a)" stroke-linecap="square" d="M74.5 0L74.5 157.690002M148 0L148 157.690002M221.5 0L221.5 157.690002M295 0L295 157.690002"/>
    <path stroke="url(#amy-graph-b)" stroke-linecap="square" stroke-width="3" d="M257,53 C231.322017,58.0636274 219.035482,67.4715666 196.310537,75.0023594 C177.597666,81.2035959 135.885863,81.5461695 119.418982,88.4565444 C102.254563,95.6596431 94.0216857,104.45657 72.4211932,108.705185 C62.0106188,110.752847 48.6169977,112.675067 37.7783509,113.463447"/>
    <rect width="28" height="28" x="23" y="99" fill="#349AD5" rx="14"/>
    <path fill="#FFF" d="M32.96,120.05 C32.6399984,120.05 32.3900009,119.960001 32.21,119.78 C32.0299991,119.599999 31.94,119.356668 31.94,119.05 L31.94,106.95 C31.94,106.643332 32.0299991,106.400001 32.21,106.22 C32.3900009,106.039999 32.6399984,105.95 32.96,105.95 L36.88,105.95 C39.1600114,105.95 40.9266604,106.563327 42.18,107.79 C43.4333396,109.016673 44.06,110.749989 44.06,112.99 C44.06,115.230011 43.4333396,116.966661 42.18,118.2 C40.9266604,119.43334 39.1600114,120.05 36.88,120.05 L32.96,120.05 Z M36.76,118.33 C40.226684,118.33 41.96,116.550018 41.96,112.99 C41.96,109.443316 40.226684,107.67 36.76,107.67 L34,107.67 L34,118.33 L36.76,118.33 Z"/>
    <path fill="#637381" d="M29.496 168.48C29.6720009 168.48 29.8159994 168.537999 29.928 168.654 30.0400006 168.770001 30.096 168.919999 30.096 169.104L30.096 176.472C30.096 176.656001 30.0460005 176.799999 29.946 176.904 29.8459995 177.008001 29.7080009 177.06 29.532 177.06 29.3639992 177.06 29.2320005 177.008001 29.136 176.904 29.0399995 176.799999 28.992 176.656001 28.992 176.472L28.992 170.892 26.64 175.368C26.4879992 175.648001 26.2920012 175.788 26.052 175.788 25.8119988 175.788 25.6160008 175.648001 25.464 175.368L23.1 170.94 23.1 176.472C23.1 176.656001 23.0520005 176.799999 22.956 176.904 22.8599995 177.008001 22.7240009 177.06 22.548 177.06 22.3799992 177.06 22.2460005 177.006001 22.146 176.898 22.0459995 176.789999 21.996 176.648001 21.996 176.472L21.996 169.104C21.996 168.919999 22.0519994 168.770001 22.164 168.654 22.2760006 168.537999 22.4199991 168.48 22.596 168.48 22.8440012 168.48 23.0439992 168.623999 23.196 168.912L26.064 174.396 28.908 168.912C29.0600008 168.623999 29.2559988 168.48 29.496 168.48zM39.54 176.28C39.5800002 176.376 39.6 176.456 39.6 176.52 39.6 176.672001 39.5380006 176.799999 39.414 176.904 39.2899994 177.008001 39.1520008 177.06 39 177.06 38.8959995 177.06 38.7980005 177.03 38.706 176.97 38.6139995 176.91 38.5440002 176.824001 38.496 176.712L37.704 174.912 33.312 174.912 32.52 176.712C32.4719998 176.824001 32.4000005 176.91 32.304 176.97 32.2079995 177.03 32.1080005 177.06 32.004 177.06 31.8439992 177.06 31.7020006 177.008001 31.578 176.904 31.4539994 176.799999 31.392 176.672001 31.392 176.52 31.392 176.456 31.4119998 176.376 31.452 176.28L34.836 168.876C34.8920003 168.747999 34.9819994 168.648 35.106 168.576 35.2300006 168.504 35.3599993 168.468 35.496 168.468 35.6320007 168.468 35.7619994 168.504 35.886 168.576 36.0100006 168.648 36.0999997 168.747999 36.156 168.876L39.54 176.28zM33.756 173.928L37.272 173.928 35.508 169.956 33.756 173.928zM47.484 176.232C47.5560004 176.336001 47.592 176.447999 47.592 176.568 47.592 176.712001 47.5340006 176.834 47.418 176.934 47.3019994 177.034 47.1680008 177.084 47.016 177.084 46.7919989 177.084 46.6120007 176.984001 46.476 176.784L44.868 174.288C44.6839991 173.999999 44.488001 173.798001 44.28 173.682 44.071999 173.565999 43.8000017 173.508 43.464 173.508L42.108 173.508 42.108 176.436C42.108 176.628001 42.0540005 176.779999 41.946 176.892 41.8379995 177.004001 41.688001 177.06 41.496 177.06 41.3119991 177.06 41.1640006 177.004001 41.052 176.892 40.9399994 176.779999 40.884 176.628001 40.884 176.436L40.884 169.14C40.884 168.955999 40.9379995 168.810001 41.046 168.702 41.1540005 168.593999 41.303999 168.54 41.496 168.54L44.484 168.54C45.4200047 168.54 46.1339975 168.747998 46.626 169.164 47.1180025 169.580002 47.364 170.187996 47.364 170.988 47.364 171.652003 47.1760019 172.189998 46.8 172.602 46.4239981 173.014002 45.8880035 173.275999 45.192 173.388 45.400001 173.444 45.5879992 173.543999 45.756 173.688 45.9240008 173.832001 46.0879992 174.031999 46.248 174.288L47.484 176.232zM44.34 172.512C44.9640031 172.512 45.4259985 172.390001 45.726 172.146 46.0260015 171.901999 46.176 171.524003 46.176 171.012 46.176 170.499997 46.0280015 170.126001 45.732 169.89 45.4359985 169.653999 44.9720032 169.536 44.34 169.536L42.096 169.536 42.096 172.512 44.34 172.512zM108.448 176.28C108.488 176.376 108.508 176.456 108.508 176.52 108.508 176.672001 108.446001 176.799999 108.322 176.904 108.197999 177.008001 108.060001 177.06 107.908 177.06 107.803999 177.06 107.706 177.03 107.614 176.97 107.522 176.91 107.452 176.824001 107.404 176.712L106.612 174.912 102.22 174.912 101.428 176.712C101.38 176.824001 101.308 176.91 101.212 176.97 101.116 177.03 101.016001 177.06 100.912 177.06 100.751999 177.06 100.610001 177.008001 100.486 176.904 100.361999 176.799999 100.3 176.672001 100.3 176.52 100.3 176.456 100.32 176.376 100.36 176.28L103.744 168.876C103.8 168.747999 103.889999 168.648 104.014 168.576 104.138001 168.504 104.267999 168.468 104.404 168.468 104.540001 168.468 104.669999 168.504 104.794 168.576 104.918001 168.648 105.008 168.747999 105.064 168.876L108.448 176.28zM102.664 173.928L106.18 173.928 104.416 169.956 102.664 173.928zM110.404 177.06C110.219999 177.06 110.072001 177.004001 109.96 176.892 109.847999 176.779999 109.792 176.628001 109.792 176.436L109.792 169.14C109.792 168.955999 109.845999 168.810001 109.954 168.702 110.062001 168.593999 110.211999 168.54 110.404 168.54L113.296 168.54C114.192004 168.54 114.887998 168.759998 115.384 169.2 115.880002 169.640002 116.128 170.263996 116.128 171.072 116.128 171.872004 115.880002 172.495998 115.384 172.944 114.887998 173.392002 114.192004 173.616 113.296 173.616L111.028 173.616 111.028 176.436C111.028 176.628001 110.974001 176.779999 110.866 176.892 110.757999 177.004001 110.604001 177.06 110.404 177.06zM113.164 172.62C114.348006 172.62 114.94 172.104005 114.94 171.072 114.94 170.047995 114.348006 169.536 113.164 169.536L111.028 169.536 111.028 172.62 113.164 172.62zM124.216 176.232C124.288 176.336001 124.324 176.447999 124.324 176.568 124.324 176.712001 124.266001 176.834 124.15 176.934 124.033999 177.034 123.900001 177.084 123.748 177.084 123.523999 177.084 123.344001 176.984001 123.208 176.784L121.6 174.288C121.415999 173.999999 121.220001 173.798001 121.012 173.682 120.803999 173.565999 120.532002 173.508 120.196 173.508L118.84 173.508 118.84 176.436C118.84 176.628001 118.786001 176.779999 118.678 176.892 118.569999 177.004001 118.420001 177.06 118.228 177.06 118.043999 177.06 117.896001 177.004001 117.784 176.892 117.671999 176.779999 117.616 176.628001 117.616 176.436L117.616 169.14C117.616 168.955999 117.669999 168.810001 117.778 168.702 117.886001 168.593999 118.035999 168.54 118.228 168.54L121.216 168.54C122.152005 168.54 122.865998 168.747998 123.358 169.164 123.850002 169.580002 124.096 170.187996 124.096 170.988 124.096 171.652003 123.908002 172.189998 123.532 172.602 123.155998 173.014002 122.620003 173.275999 121.924 173.388 122.132001 173.444 122.319999 173.543999 122.488 173.688 122.656001 173.832001 122.819999 174.031999 122.98 174.288L124.216 176.232zM121.072 172.512C121.696003 172.512 122.157999 172.390001 122.458 172.146 122.758002 171.901999 122.908 171.524003 122.908 171.012 122.908 170.499997 122.760001 170.126001 122.464 169.89 122.167999 169.653999 121.704003 169.536 121.072 169.536L118.828 169.536 118.828 172.512 121.072 172.512zM185.496 168.48C185.672001 168.48 185.815999 168.537999 185.928 168.654 186.040001 168.770001 186.096 168.919999 186.096 169.104L186.096 176.472C186.096 176.656001 186.046001 176.799999 185.946 176.904 185.846 177.008001 185.708001 177.06 185.532 177.06 185.363999 177.06 185.232 177.008001 185.136 176.904 185.04 176.799999 184.992 176.656001 184.992 176.472L184.992 170.892 182.64 175.368C182.487999 175.648001 182.292001 175.788 182.052 175.788 181.811999 175.788 181.616001 175.648001 181.464 175.368L179.1 170.94 179.1 176.472C179.1 176.656001 179.052 176.799999 178.956 176.904 178.86 177.008001 178.724001 177.06 178.548 177.06 178.379999 177.06 178.246001 177.006001 178.146 176.898 178.046 176.789999 177.996 176.648001 177.996 176.472L177.996 169.104C177.996 168.919999 178.051999 168.770001 178.164 168.654 178.276001 168.537999 178.419999 168.48 178.596 168.48 178.844001 168.48 179.043999 168.623999 179.196 168.912L182.064 174.396 184.908 168.912C185.060001 168.623999 185.255999 168.48 185.496 168.48zM195.54 176.28C195.58 176.376 195.6 176.456 195.6 176.52 195.6 176.672001 195.538001 176.799999 195.414 176.904 195.289999 177.008001 195.152001 177.06 195 177.06 194.895999 177.06 194.798 177.03 194.706 176.97 194.614 176.91 194.544 176.824001 194.496 176.712L193.704 174.912 189.312 174.912 188.52 176.712C188.472 176.824001 188.4 176.91 188.304 176.97 188.208 177.03 188.108001 177.06 188.004 177.06 187.843999 177.06 187.702001 177.008001 187.578 176.904 187.453999 176.799999 187.392 176.672001 187.392 176.52 187.392 176.456 187.412 176.376 187.452 176.28L190.836 168.876C190.892 168.747999 190.981999 168.648 191.106 168.576 191.230001 168.504 191.359999 168.468 191.496 168.468 191.632001 168.468 191.761999 168.504 191.886 168.576 192.010001 168.648 192.1 168.747999 192.156 168.876L195.54 176.28zM189.756 173.928L193.272 173.928 191.508 169.956 189.756 173.928zM202.176 168.696C202.288001 168.551999 202.427999 168.48 202.596 168.48 202.740001 168.48 202.869999 168.537999 202.986 168.654 203.102001 168.770001 203.16 168.903999 203.16 169.056 203.16 169.200001 203.112 169.323999 203.016 169.428L200.184 172.956 200.184 176.436C200.184 176.636001 200.126001 176.789999 200.01 176.898 199.893999 177.006001 199.744001 177.06 199.56 177.06 199.375999 177.06 199.228001 177.006001 199.116 176.898 199.003999 176.789999 198.948 176.636001 198.948 176.436L198.948 172.956 196.116 169.428C196.02 169.323999 195.972 169.196001 195.972 169.044 195.972 168.891999 196.027999 168.760001 196.14 168.648 196.252001 168.535999 196.383999 168.48 196.536 168.48 196.696001 168.48 196.835999 168.551999 196.956 168.696L199.572 171.984 202.176 168.696zM254.6 177.06C254.359999 177.076 254.176001 177.04 254.048 176.952 253.919999 176.864 253.856 176.732001 253.856 176.556 253.856 176.243998 254.027998 176.076 254.372 176.052L254.744 176.028C255.120002 176.012 255.399999 175.898001 255.584 175.686 255.768001 175.473999 255.86 175.140002 255.86 174.684L255.86 169.104C255.86 168.919999 255.917999 168.770001 256.034 168.654 256.150001 168.537999 256.299999 168.48 256.484 168.48 256.676001 168.48 256.827999 168.537999 256.94 168.654 257.052001 168.770001 257.108 168.919999 257.108 169.104L257.108 174.684C257.108 175.436004 256.930002 176.005998 256.574 176.394 256.217998 176.782002 255.684004 176.996 254.972 177.036L254.6 177.06zM262.46 177.096C261.331994 177.096 260.476003 176.804003 259.892 176.22 259.307997 175.635997 259.016 174.776006 259.016 173.64L259.016 169.104C259.016 168.911999 259.071999 168.760001 259.184 168.648 259.296001 168.535999 259.443999 168.48 259.628 168.48 259.812001 168.48 259.959999 168.535999 260.072 168.648 260.184001 168.760001 260.24 168.911999 260.24 169.104L260.24 173.724C260.24 174.500004 260.425998 175.087998 260.798 175.488 261.170002 175.888002 261.723996 176.088 262.46 176.088 263.188004 176.088 263.739998 175.888002 264.116 175.488 264.492002 175.087998 264.68 174.500004 264.68 173.724L264.68 169.104C264.68 168.919999 264.735999 168.770001 264.848 168.654 264.960001 168.537999 265.107999 168.48 265.292 168.48 265.476001 168.48 265.623999 168.535999 265.736 168.648 265.848001 168.760001 265.904 168.911999 265.904 169.104L265.904 173.64C265.904 174.768006 265.610003 175.625997 265.022 176.214 264.433997 176.802003 263.580006 177.096 262.46 177.096zM274.172 168.48C274.348001 168.48 274.489999 168.537999 274.598 168.654 274.706001 168.770001 274.76 168.919999 274.76 169.104L274.76 176.436C274.76 176.620001 274.704001 176.769999 274.592 176.886 274.479999 177.002001 274.336001 177.06 274.16 177.06 273.951999 177.06 273.792001 176.980001 273.68 176.82L268.976 170.616 268.976 176.436C268.976 176.620001 268.922001 176.769999 268.814 176.886 268.705999 177.002001 268.564001 177.06 268.388 177.06 268.211999 177.06 268.072001 177.004001 267.968 176.892 267.863999 176.779999 267.812 176.628001 267.812 176.436L267.812 169.104C267.812 168.919999 267.867999 168.770001 267.98 168.654 268.092001 168.537999 268.235999 168.48 268.412 168.48 268.620001 168.48 268.779999 168.559999 268.892 168.72L273.596 174.936 273.596 169.104C273.596 168.919999 273.647999 168.770001 273.752 168.654 273.856001 168.537999 273.995999 168.48 274.172 168.48z"/>
    <rect width="28" height="28" x="246" y="38" fill="#4CB337" rx="14"/>
    <path fill="#FFF" d="M264.06,51.77 C264.873337,51.9966678 265.503331,52.409997 265.95,53.01 C266.396669,53.610003 266.62,54.343329 266.62,55.21 C266.62,56.410006 266.190004,57.3499966 265.33,58.03 C264.469996,58.7100034 263.286674,59.05 261.78,59.05 L256.62,59.05 C256.233331,59.05 255.930001,58.9433344 255.71,58.73 C255.489999,58.5166656 255.38,58.2166686 255.38,57.83 L255.38,46.17 C255.38,45.7833314 255.489999,45.4833344 255.71,45.27 C255.930001,45.0566656 256.233331,44.95 256.62,44.95 L261.58,44.95 C263.046674,44.95 264.196663,45.2733301 265.03,45.92 C265.863338,46.5666699 266.28,47.4699942 266.28,48.63 C266.28,49.3766704 266.083335,50.0233306 265.69,50.57 C265.296665,51.1166694 264.753337,51.5166654 264.06,51.77 Z M257.9,50.89 L261.16,50.89 C262.933342,50.89 263.82,50.2300066 263.82,48.91 C263.82,48.24333 263.600002,47.7500016 263.16,47.43 C262.719998,47.1099984 262.053338,46.95 261.16,46.95 L257.9,46.95 L257.9,50.89 Z M261.5,57.05 C262.433338,57.05 263.113331,56.883335 263.54,56.55 C263.966669,56.216665 264.18,55.6966702 264.18,54.99 C264.18,54.2833298 263.963336,53.7566684 263.53,53.41 C263.096665,53.0633316 262.420005,52.89 261.5,52.89 L257.9,52.89 L257.9,57.05 L261.5,57.05 Z"/>
    <path stroke="#DFE3E8" stroke-linecap="square" stroke-width="2" d="M2,157 L294,157"/>
  </g>
</svg>
