<svg xmlns="http://www.w3.org/2000/svg" width="296" height="178" viewBox="0 0 296 178">
  <defs>
    <linearGradient id="steven-graph-a" x1="50%" x2="50%" y1="0%" y2="100%">
      <stop offset="0%" stop-color="#E4E8EC" stop-opacity=".293"/>
      <stop offset="100%" stop-color="#C4CDD5" stop-opacity=".574"/>
    </linearGradient>
    <linearGradient id="steven-graph-b" x1="2.661%" y1="0%" y2="100%">
      <stop offset="0%" stop-color="#3095E1"/>
      <stop offset="100%" stop-color="#4CBE80"/>
    </linearGradient>
  </defs>
  <g fill="none" fill-rule="evenodd" transform="translate(0 .78)">
    <rect width="294" height="155" x="1" y="3" fill="#F9FAFB"/>
    <path stroke="url(#steven-graph-a)" stroke-linecap="square" d="M1,0 L1,157.690002"/>
    <path stroke="#DFE3E8" stroke-dasharray="3 4" stroke-linecap="round" d="M293.01001 129L1 129M293.01001 98L1 98M293.01001 67L1 67M293.01001 36L1 36"/>
    <path stroke="url(#steven-graph-a)" stroke-linecap="square" d="M59 0L59 157.690002M118 0L118 157.690002M177 0L177 157.690002M236 0L236 157.690002M295 0L295 157.690002"/>
    <path stroke="url(#steven-graph-b)" stroke-linecap="square" stroke-width="3" d="M257,22 C231.322017,27.0636274 220.469639,28.3459376 197.744694,35.8767304 C179.031823,42.0779669 150.492803,59.7102614 134.025922,66.6206363 C116.861503,73.823735 93.3314206,74.6030664 71.7309281,78.851681 C61.3203537,80.8993434 47.8386467,83.2116202 37,84"/>
    <rect width="28" height="28" x="16" y="69" fill="#349AD5" rx="14"/>
    <path fill="#FFF" d="M29.84,90.21 C28.4933266,90.21 27.320005,89.9200029 26.32,89.34 C25.319995,88.7599971 24.553336,87.9266721 24.02,86.84 C23.486664,85.7533279 23.22,84.4700074 23.22,82.99 C23.22,81.523326 23.486664,80.2466721 24.02,79.16 C24.553336,78.0733279 25.319995,77.2400029 26.32,76.66 C27.320005,76.0799971 28.4933266,75.79 29.84,75.79 C30.7200044,75.79 31.5533294,75.9266653 32.34,76.2 C33.1266706,76.4733347 33.8133304,76.8699974 34.4,77.39 C34.6533346,77.590001 34.78,77.856665 34.78,78.19 C34.78,78.4300012 34.713334,78.6333325 34.58,78.8 C34.446666,78.9666675 34.2866676,79.05 34.1,79.05 C33.8733322,79.05 33.6533344,78.9633342 33.44,78.79 C32.7999968,78.3099976 32.2166693,77.9733343 31.69,77.78 C31.1633307,77.5866657 30.56667,77.49 29.9,77.49 C28.433326,77.49 27.3066706,77.9633286 26.52,78.91 C25.7333294,79.8566714 25.34,81.2166578 25.34,82.99 C25.34,84.7766756 25.7333294,86.1433286 26.52,87.09 C27.3066706,88.0366714 28.433326,88.51 29.9,88.51 C30.5400032,88.51 31.1233307,88.410001 31.65,88.21 C32.1766693,88.009999 32.77333,87.676669 33.44,87.21 C33.706668,87.0366658 33.9266658,86.95 34.1,86.95 C34.2866676,86.95 34.446666,87.0333325 34.58,87.2 C34.713334,87.3666675 34.78,87.5699988 34.78,87.81 C34.78,88.143335 34.6533346,88.409999 34.4,88.61 C33.8133304,89.1300026 33.1266706,89.5266653 32.34,89.8 C31.5533294,90.0733347 30.7200044,90.21 29.84,90.21 Z"/>
    <path fill="#637381" d="M16.596 177.06C16.4119991 177.06 16.2640006 177.002001 16.152 176.886 16.0399994 176.769999 15.984 176.620001 15.984 176.436L15.984 169.14C15.984 168.955999 16.0379995 168.810001 16.146 168.702 16.2540005 168.593999 16.403999 168.54 16.596 168.54L20.892 168.54C21.2760019 168.54 21.468 168.707998 21.468 169.044 21.468 169.380002 21.2760019 169.548 20.892 169.548L17.208 169.548 17.208 172.2 20.652 172.2C21.0360019 172.2 21.228 172.367998 21.228 172.704 21.228 173.040002 21.0360019 173.208 20.652 173.208L17.208 173.208 17.208 176.436C17.208 176.628001 17.1540005 176.779999 17.046 176.892 16.9379995 177.004001 16.788001 177.06 16.596 177.06zM23.328 177C23.135999 177 22.9860005 176.946001 22.878 176.838 22.7699995 176.729999 22.716 176.584001 22.716 176.4L22.716 169.14C22.716 168.955999 22.7699995 168.810001 22.878 168.702 22.9860005 168.593999 23.135999 168.54 23.328 168.54L27.744 168.54C27.9280009 168.54 28.0699995 168.584 28.17 168.672 28.2700005 168.76 28.32 168.883999 28.32 169.044 28.32 169.204001 28.2700005 169.326 28.17 169.41 28.0699995 169.494 27.9280009 169.536 27.744 169.536L23.928 169.536 23.928 172.2 27.504 172.2C27.6880009 172.2 27.8299995 172.244 27.93 172.332 28.0300005 172.42 28.08 172.543999 28.08 172.704 28.08 172.864001 28.0300005 172.988 27.93 173.076 27.8299995 173.164 27.6880009 173.208 27.504 173.208L23.928 173.208 23.928 176.004 27.744 176.004C28.1280019 176.004 28.32 176.167998 28.32 176.496 28.32 176.656001 28.2700005 176.78 28.17 176.868 28.0699995 176.956 27.9280009 177 27.744 177L23.328 177zM34.716 172.644C35.2040024 172.780001 35.5819987 173.023998 35.85 173.376 36.1180013 173.728002 36.252 174.167997 36.252 174.696 36.252 175.424004 36.0020025 175.989998 35.502 176.394 35.0019975 176.798002 34.3040045 177 33.408 177L30.348 177C30.155999 177 30.0060005 176.946001 29.898 176.838 29.7899995 176.729999 29.736 176.584001 29.736 176.4L29.736 169.14C29.736 168.955999 29.7899995 168.810001 29.898 168.702 30.0060005 168.593999 30.155999 168.54 30.348 168.54L33.276 168.54C34.1480044 168.54 34.8299975 168.733998 35.322 169.122 35.8140025 169.510002 36.06 170.051997 36.06 170.748 36.06 171.196002 35.9420012 171.583998 35.706 171.912 35.4699988 172.240002 35.1400021 172.483999 34.716 172.644zM30.948 172.2L33.084 172.2C34.2680059 172.2 34.86 171.752004 34.86 170.856 34.86 170.407998 34.7140015 170.076001 34.422 169.86 34.1299985 169.643999 33.684003 169.536 33.084 169.536L30.948 169.536 30.948 172.2zM33.276 176.004C33.8920031 176.004 34.3439986 175.892001 34.632 175.668 34.9200014 175.443999 35.064 175.096002 35.064 174.624 35.064 174.143998 34.9180015 173.786001 34.626 173.55 34.3339985 173.313999 33.884003 173.196 33.276 173.196L30.948 173.196 30.948 176.004 33.276 176.004zM84.496 168.48C84.6720009 168.48 84.8159994 168.537999 84.928 168.654 85.0400006 168.770001 85.096 168.919999 85.096 169.104L85.096 176.472C85.096 176.656001 85.0460005 176.799999 84.946 176.904 84.8459995 177.008001 84.7080009 177.06 84.532 177.06 84.3639992 177.06 84.2320005 177.008001 84.136 176.904 84.0399995 176.799999 83.992 176.656001 83.992 176.472L83.992 170.892 81.64 175.368C81.4879992 175.648001 81.2920012 175.788 81.052 175.788 80.8119988 175.788 80.6160008 175.648001 80.464 175.368L78.1 170.94 78.1 176.472C78.1 176.656001 78.0520005 176.799999 77.956 176.904 77.8599995 177.008001 77.7240009 177.06 77.548 177.06 77.3799992 177.06 77.2460005 177.006001 77.146 176.898 77.0459995 176.789999 76.996 176.648001 76.996 176.472L76.996 169.104C76.996 168.919999 77.0519994 168.770001 77.164 168.654 77.2760006 168.537999 77.4199991 168.48 77.596 168.48 77.8440012 168.48 78.0439992 168.623999 78.196 168.912L81.064 174.396 83.908 168.912C84.0600008 168.623999 84.2559988 168.48 84.496 168.48zM94.54 176.28C94.5800002 176.376 94.6 176.456 94.6 176.52 94.6 176.672001 94.5380006 176.799999 94.414 176.904 94.2899994 177.008001 94.1520008 177.06 94 177.06 93.8959995 177.06 93.7980005 177.03 93.706 176.97 93.6139995 176.91 93.5440002 176.824001 93.496 176.712L92.704 174.912 88.312 174.912 87.52 176.712C87.4719998 176.824001 87.4000005 176.91 87.304 176.97 87.2079995 177.03 87.1080005 177.06 87.004 177.06 86.8439992 177.06 86.7020006 177.008001 86.578 176.904 86.4539994 176.799999 86.392 176.672001 86.392 176.52 86.392 176.456 86.4119998 176.376 86.452 176.28L89.836 168.876C89.8920003 168.747999 89.9819994 168.648 90.106 168.576 90.2300006 168.504 90.3599993 168.468 90.496 168.468 90.6320007 168.468 90.7619994 168.504 90.886 168.576 91.0100006 168.648 91.0999997 168.747999 91.156 168.876L94.54 176.28zM88.756 173.928L92.272 173.928 90.508 169.956 88.756 173.928zM102.484 176.232C102.556 176.336001 102.592 176.447999 102.592 176.568 102.592 176.712001 102.534001 176.834 102.418 176.934 102.301999 177.034 102.168001 177.084 102.016 177.084 101.791999 177.084 101.612001 176.984001 101.476 176.784L99.868 174.288C99.6839991 173.999999 99.488001 173.798001 99.28 173.682 99.071999 173.565999 98.8000017 173.508 98.464 173.508L97.108 173.508 97.108 176.436C97.108 176.628001 97.0540005 176.779999 96.946 176.892 96.8379995 177.004001 96.688001 177.06 96.496 177.06 96.3119991 177.06 96.1640006 177.004001 96.052 176.892 95.9399994 176.779999 95.884 176.628001 95.884 176.436L95.884 169.14C95.884 168.955999 95.9379995 168.810001 96.046 168.702 96.1540005 168.593999 96.303999 168.54 96.496 168.54L99.484 168.54C100.420005 168.54 101.133998 168.747998 101.626 169.164 102.118002 169.580002 102.364 170.187996 102.364 170.988 102.364 171.652003 102.176002 172.189998 101.8 172.602 101.423998 173.014002 100.888003 173.275999 100.192 173.388 100.400001 173.444 100.587999 173.543999 100.756 173.688 100.924001 173.832001 101.087999 174.031999 101.248 174.288L102.484 176.232zM99.34 172.512C99.9640031 172.512 100.425998 172.390001 100.726 172.146 101.026001 171.901999 101.176 171.524003 101.176 171.012 101.176 170.499997 101.028001 170.126001 100.732 169.89 100.435999 169.653999 99.9720032 169.536 99.34 169.536L97.096 169.536 97.096 172.512 99.34 172.512zM143.448 176.28C143.488 176.376 143.508 176.456 143.508 176.52 143.508 176.672001 143.446001 176.799999 143.322 176.904 143.197999 177.008001 143.060001 177.06 142.908 177.06 142.803999 177.06 142.706 177.03 142.614 176.97 142.522 176.91 142.452 176.824001 142.404 176.712L141.612 174.912 137.22 174.912 136.428 176.712C136.38 176.824001 136.308 176.91 136.212 176.97 136.116 177.03 136.016001 177.06 135.912 177.06 135.751999 177.06 135.610001 177.008001 135.486 176.904 135.361999 176.799999 135.3 176.672001 135.3 176.52 135.3 176.456 135.32 176.376 135.36 176.28L138.744 168.876C138.8 168.747999 138.889999 168.648 139.014 168.576 139.138001 168.504 139.267999 168.468 139.404 168.468 139.540001 168.468 139.669999 168.504 139.794 168.576 139.918001 168.648 140.008 168.747999 140.064 168.876L143.448 176.28zM137.664 173.928L141.18 173.928 139.416 169.956 137.664 173.928zM145.404 177.06C145.219999 177.06 145.072001 177.004001 144.96 176.892 144.847999 176.779999 144.792 176.628001 144.792 176.436L144.792 169.14C144.792 168.955999 144.845999 168.810001 144.954 168.702 145.062001 168.593999 145.211999 168.54 145.404 168.54L148.296 168.54C149.192004 168.54 149.887998 168.759998 150.384 169.2 150.880002 169.640002 151.128 170.263996 151.128 171.072 151.128 171.872004 150.880002 172.495998 150.384 172.944 149.887998 173.392002 149.192004 173.616 148.296 173.616L146.028 173.616 146.028 176.436C146.028 176.628001 145.974001 176.779999 145.866 176.892 145.757999 177.004001 145.604001 177.06 145.404 177.06zM148.164 172.62C149.348006 172.62 149.94 172.104005 149.94 171.072 149.94 170.047995 149.348006 169.536 148.164 169.536L146.028 169.536 146.028 172.62 148.164 172.62zM159.216 176.232C159.288 176.336001 159.324 176.447999 159.324 176.568 159.324 176.712001 159.266001 176.834 159.15 176.934 159.033999 177.034 158.900001 177.084 158.748 177.084 158.523999 177.084 158.344001 176.984001 158.208 176.784L156.6 174.288C156.415999 173.999999 156.220001 173.798001 156.012 173.682 155.803999 173.565999 155.532002 173.508 155.196 173.508L153.84 173.508 153.84 176.436C153.84 176.628001 153.786001 176.779999 153.678 176.892 153.569999 177.004001 153.420001 177.06 153.228 177.06 153.043999 177.06 152.896001 177.004001 152.784 176.892 152.671999 176.779999 152.616 176.628001 152.616 176.436L152.616 169.14C152.616 168.955999 152.669999 168.810001 152.778 168.702 152.886001 168.593999 153.035999 168.54 153.228 168.54L156.216 168.54C157.152005 168.54 157.865998 168.747998 158.358 169.164 158.850002 169.580002 159.096 170.187996 159.096 170.988 159.096 171.652003 158.908002 172.189998 158.532 172.602 158.155998 173.014002 157.620003 173.275999 156.924 173.388 157.132001 173.444 157.319999 173.543999 157.488 173.688 157.656001 173.832001 157.819999 174.031999 157.98 174.288L159.216 176.232zM156.072 172.512C156.696003 172.512 157.157998 172.390001 157.458 172.146 157.758002 171.901999 157.908 171.524003 157.908 171.012 157.908 170.499997 157.760001 170.126001 157.464 169.89 157.167999 169.653999 156.704003 169.536 156.072 169.536L153.828 169.536 153.828 172.512 156.072 172.512zM202.496 168.48C202.672001 168.48 202.815999 168.537999 202.928 168.654 203.040001 168.770001 203.096 168.919999 203.096 169.104L203.096 176.472C203.096 176.656001 203.046 176.799999 202.946 176.904 202.846 177.008001 202.708001 177.06 202.532 177.06 202.363999 177.06 202.232 177.008001 202.136 176.904 202.04 176.799999 201.992 176.656001 201.992 176.472L201.992 170.892 199.64 175.368C199.487999 175.648001 199.292001 175.788 199.052 175.788 198.811999 175.788 198.616001 175.648001 198.464 175.368L196.1 170.94 196.1 176.472C196.1 176.656001 196.052 176.799999 195.956 176.904 195.86 177.008001 195.724001 177.06 195.548 177.06 195.379999 177.06 195.246001 177.006001 195.146 176.898 195.045999 176.789999 194.996 176.648001 194.996 176.472L194.996 169.104C194.996 168.919999 195.051999 168.770001 195.164 168.654 195.276001 168.537999 195.419999 168.48 195.596 168.48 195.844001 168.48 196.043999 168.623999 196.196 168.912L199.064 174.396 201.908 168.912C202.060001 168.623999 202.255999 168.48 202.496 168.48zM212.54 176.28C212.58 176.376 212.6 176.456 212.6 176.52 212.6 176.672001 212.538001 176.799999 212.414 176.904 212.289999 177.008001 212.152001 177.06 212 177.06 211.895999 177.06 211.798 177.03 211.706 176.97 211.614 176.91 211.544 176.824001 211.496 176.712L210.704 174.912 206.312 174.912 205.52 176.712C205.472 176.824001 205.4 176.91 205.304 176.97 205.208 177.03 205.108001 177.06 205.004 177.06 204.843999 177.06 204.702001 177.008001 204.578 176.904 204.453999 176.799999 204.392 176.672001 204.392 176.52 204.392 176.456 204.412 176.376 204.452 176.28L207.836 168.876C207.892 168.747999 207.981999 168.648 208.106 168.576 208.230001 168.504 208.359999 168.468 208.496 168.468 208.632001 168.468 208.761999 168.504 208.886 168.576 209.010001 168.648 209.1 168.747999 209.156 168.876L212.54 176.28zM206.756 173.928L210.272 173.928 208.508 169.956 206.756 173.928zM219.176 168.696C219.288001 168.551999 219.427999 168.48 219.596 168.48 219.740001 168.48 219.869999 168.537999 219.986 168.654 220.102001 168.770001 220.16 168.903999 220.16 169.056 220.16 169.200001 220.112 169.323999 220.016 169.428L217.184 172.956 217.184 176.436C217.184 176.636001 217.126001 176.789999 217.01 176.898 216.893999 177.006001 216.744001 177.06 216.56 177.06 216.375999 177.06 216.228001 177.006001 216.116 176.898 216.003999 176.789999 215.948 176.636001 215.948 176.436L215.948 172.956 213.116 169.428C213.02 169.323999 212.972 169.196001 212.972 169.044 212.972 168.891999 213.027999 168.760001 213.14 168.648 213.252001 168.535999 213.383999 168.48 213.536 168.48 213.696001 168.48 213.835999 168.551999 213.956 168.696L216.572 171.984 219.176 168.696zM255.6 177.06C255.359999 177.076 255.176001 177.04 255.048 176.952 254.919999 176.864 254.856 176.732001 254.856 176.556 254.856 176.243998 255.027998 176.076 255.372 176.052L255.744 176.028C256.120002 176.012 256.399999 175.898001 256.584 175.686 256.768001 175.473999 256.86 175.140002 256.86 174.684L256.86 169.104C256.86 168.919999 256.917999 168.770001 257.034 168.654 257.150001 168.537999 257.299999 168.48 257.484 168.48 257.676001 168.48 257.827999 168.537999 257.94 168.654 258.052001 168.770001 258.108 168.919999 258.108 169.104L258.108 174.684C258.108 175.436004 257.930002 176.005998 257.574 176.394 257.217998 176.782002 256.684004 176.996 255.972 177.036L255.6 177.06zM263.46 177.096C262.331994 177.096 261.476003 176.804003 260.892 176.22 260.307997 175.635997 260.016 174.776006 260.016 173.64L260.016 169.104C260.016 168.911999 260.071999 168.760001 260.184 168.648 260.296001 168.535999 260.443999 168.48 260.628 168.48 260.812001 168.48 260.959999 168.535999 261.072 168.648 261.184001 168.760001 261.24 168.911999 261.24 169.104L261.24 173.724C261.24 174.500004 261.425998 175.087998 261.798 175.488 262.170002 175.888002 262.723996 176.088 263.46 176.088 264.188004 176.088 264.739998 175.888002 265.116 175.488 265.492002 175.087998 265.68 174.500004 265.68 173.724L265.68 169.104C265.68 168.919999 265.735999 168.770001 265.848 168.654 265.960001 168.537999 266.107999 168.48 266.292 168.48 266.476001 168.48 266.623999 168.535999 266.736 168.648 266.848001 168.760001 266.904 168.911999 266.904 169.104L266.904 173.64C266.904 174.768006 266.610003 175.625997 266.022 176.214 265.433997 176.802003 264.580006 177.096 263.46 177.096zM275.172 168.48C275.348001 168.48 275.489999 168.537999 275.598 168.654 275.706001 168.770001 275.76 168.919999 275.76 169.104L275.76 176.436C275.76 176.620001 275.704001 176.769999 275.592 176.886 275.479999 177.002001 275.336001 177.06 275.16 177.06 274.951999 177.06 274.792001 176.980001 274.68 176.82L269.976 170.616 269.976 176.436C269.976 176.620001 269.922001 176.769999 269.814 176.886 269.705999 177.002001 269.564001 177.06 269.388 177.06 269.211999 177.06 269.072001 177.004001 268.968 176.892 268.863999 176.779999 268.812 176.628001 268.812 176.436L268.812 169.104C268.812 168.919999 268.867999 168.770001 268.98 168.654 269.092001 168.537999 269.235999 168.48 269.412 168.48 269.620001 168.48 269.779999 168.559999 269.892 168.72L274.596 174.936 274.596 169.104C274.596 168.919999 274.647999 168.770001 274.752 168.654 274.856001 168.537999 274.995999 168.48 275.172 168.48z"/>
    <rect width="28" height="28" x="252" y="6" fill="#4CB337" rx="14"/>
    <path fill="#FFF" d="M272.87,24.53 C272.95,24.7033342 272.99,24.8766658 272.99,25.05 C272.99,25.3566682 272.866668,25.6166656 272.62,25.83 C272.373332,26.0433344 272.090002,26.15 271.77,26.15 C271.556666,26.15 271.356668,26.0933339 271.17,25.98 C270.983332,25.8666661 270.836667,25.6900012 270.73,25.45 L269.53,22.77 L262.49,22.77 L261.29,25.45 C261.183333,25.6900012 261.036668,25.8666661 260.85,25.98 C260.663332,26.0933339 260.456668,26.15 260.23,26.15 C259.923332,26.15 259.643335,26.0433344 259.39,25.83 C259.136665,25.6166656 259.01,25.3566682 259.01,25.05 C259.01,24.8766658 259.05,24.7033342 259.13,24.53 L264.65,12.67 C264.770001,12.403332 264.953332,12.2000007 265.2,12.06 C265.446668,11.9199993 265.709999,11.85 265.99,11.85 C266.270001,11.85 266.533332,11.9199993 266.78,12.06 C267.026668,12.2000007 267.209999,12.403332 267.33,12.67 L272.87,24.53 Z M263.37,20.77 L268.65,20.77 L266.01,14.83 L263.37,20.77 Z"/>
    <path stroke="#DFE3E8" stroke-linecap="square" stroke-width="2" d="M2,157 L294,157"/>
  </g>
</svg>
