<?xml version="1.0" encoding="utf-8"?>
<!-- Generator: Adobe Illustrator 19.0.0, SVG Export Plug-In . SVG Version: 6.00 Build 0)  -->
<svg version="1.1" id="Layer_1" xmlns="http://www.w3.org/2000/svg" xmlns:xlink="http://www.w3.org/1999/xlink" x="0px" y="0px"
	 viewBox="-230.9385071 24.9385071 512 512" style="enable-background:new -230.9385071 24.9385071 512 512;" xml:space="preserve">
<style type="text/css">
	.st0{fill:#F3F3F3;}
	.st1{fill:#E7E7E7;}
	.st2{fill:#3DB39E;}
	.st3{fill:#3AAA96;}
</style>
<g>
	<g>
		<path class="st0" d="M218.4365234,117.3133011c0.3720398,0-188.5406494-72.5156403-193.3750305-74.374794
			c-3.718317,1.4871368-193.7470551,74.374794-193.3750458,74.374794v136.8496704
			c0,94.8283691,27.14711,218.6629944,193.3750458,264.7745972
			c165.8559265-46.1125488,193.003006-172.1783752,193.003006-264.7745972
			C218.4365234,207.3072815,218.4365234,117.3133011,218.4365234,117.3133011z"/>
		<path class="st1" d="M-168.3135376,254.1639099c0,94.8283386,27.14711,218.6629639,193.3750458,264.7745667V42.9385071
			c-7.0655556,2.603199-193.3750458,74.374794-193.3750458,74.374794S-168.3125916,254.1639099-168.3135376,254.1639099z"/>
		<path class="st2" d="M180.8766479,142.9732666c0.3720245,0-152.0968323-61.3597565-156.1871643-62.8468857
			c-3.3472366,1.1160583-156.5591888,60.2436905-156.187149,59.871666v114.9089661
			c0,79.5811768,15.6191864,188.1686401,156.187149,226.8436584
			c140.1968994-38.6750183,156.1871643-149.1216431,156.1871643-226.8436584
			C181.2486725,215.4888916,181.2486725,142.9732666,180.8766479,142.9732666z"/>
		<path class="st3" d="M25.0615063,80.1263733c-3.3472385,1.116066-156.5591888,60.2436981-156.1871643,59.8716736v114.9089661
			c0,79.5811768,15.619194,188.1686401,156.1871643,226.8436584V80.1263733z"/>
	</g>
	<g>
		<path class="st0" d="M104.8455353,280.9372864c0,43.8969116-35.6416702,79.6289673-79.5019455,79.7852783h-0.2808743
			c-43.989727,0-79.7852631-35.7931213-79.7852631-79.7852783c0-43.9897308,35.795536-79.7828217,79.7852631-79.7828217h0.2808743
			C69.2038651,201.3107758,104.8455353,237.0428162,104.8455353,280.9372864z"/>
		<path class="st1" d="M24.779398,201.1544647v159.5681c-43.8602829-0.156311-79.5019455-35.8883667-79.5019455-79.7852783
			C-54.7225494,237.0428162-19.080883,201.3107758,24.779398,201.1544647z"/>
		<path class="st3" d="M61.275898,269.4483337l-35.932312,35.9371948l-7.7643299,7.7643127
			c-1.8342276,1.8342285-4.2399731,2.7501221-6.6432762,2.7501221c-2.4057455,0-4.8090487-0.9158936-6.6457195-2.7501221
			l-16.693676-16.7009888c-3.6684561-3.668457-3.6684561-9.6107788,0-13.2816772
			c3.6635714-3.668457,9.6132126-3.668457,13.2816687,0l10.0577259,10.0577393l37.0582504-37.0582581
			c3.6684532-3.6708984,9.6180954-3.6708984,13.2816658,0C64.9443588,259.8351135,64.9443588,265.7847595,61.275898,269.4483337z"/>
		<path class="st2" d="M61.275898,269.4483337l-35.932312,35.9371948v-26.5706787l22.6506443-22.6481934
			c3.6684532-3.6708984,9.6180954-3.6708984,13.2816658,0C64.9443588,259.8351135,64.9443588,265.7847595,61.275898,269.4483337z"/>
	</g>
</g>
</svg>
