<?xml version="1.0" encoding="utf-8"?>
<!-- Generator: Adobe Illustrator 19.0.0, SVG Export Plug-In . SVG Version: 6.00 Build 0)  -->
<svg version="1.1" id="Layer_1" xmlns="http://www.w3.org/2000/svg" xmlns:xlink="http://www.w3.org/1999/xlink" x="0px" y="0px"
	 viewBox="0 0 512 512" style="enable-background:new 0 0 512 512;" xml:space="preserve">
<style type="text/css">
	.st0{fill:#2cb1ff;}
</style>
<g>
	<path class="st0" d="M268.9595642,319.3781128c8.2557983-0.6392212,15.8147278-4.870697,20.6757202-11.5742798
		l74.2884216-102.691803c2.5758667-3.5445709,1.7905884-8.5061493-1.7539978-11.082016
		c-2.7809753-2.0209503-6.5470581-2.0209503-9.3280029,0l-102.7147217,74.299881
		c-12.646759,9.1304016-15.4972992,26.7843018-6.3668823,39.4310608
		C249.5474854,315.7771912,259.1053467,320.1834717,268.9595642,319.3781128z M254.3972473,290.2305908
		c0.2747498-3.6291199,2.1293945-6.9377136,5.0487366-9.0556335l62.6568604-45.3355255l-45.3126221,62.645462
		c-4.0453186,5.5326843-11.8098755,6.7384033-17.3425598,2.6930542
		C255.9856567,298.6466675,254.076004,294.5072632,254.3972473,290.2305908z"/>
	<path class="st0" d="M446.6724854,173.2054596c-0.0801392-0.1717377-0.0801392-0.3434601-0.1602783-0.5151825
		c-0.1030273-0.148819-0.2518616-0.2404175-0.3434448-0.3892517c-8.0252991-13.7609253-17.5159607-26.5601959-28.2889099-38.1573944
		l17.0237122-17.0351639l11.2193909,11.2193985l33.6581726-33.6581879l-33.6581726-33.6581879l-33.6581726,33.6581879
		l11.2193909,11.2193909l-17.0351563,17.0351639c-11.6344604-10.8026581-24.4274902-20.2860794-38.1459656-28.2774506
		c-0.1488342-0.1144867-0.2289734-0.2633057-0.3892517-0.3548965c-0.1717224-0.103035-0.3434448-0.0915909-0.5151672-0.1831741
		c-25.0488281-14.4485016-52.7806396-23.6379013-81.500885-27.006691v-9.433445h11.906311
		c10.9331665,0,19.8285522-8.8953781,19.8285522-19.8285637C317.8326111,26.8953781,308.9372253,18,297.9926147,18h-71.4034271
		c-10.9446411,0-19.8285675,8.8953762-19.8285675,19.8400116c0,10.9331856,8.8839111,19.8285637,19.8285675,19.8285637h11.9062958
		v9.1701393c-8.6054535,0.9033966-17.1495819,2.3178558-25.5870819,4.2358932
		c-4.2741852,0.9800262-6.9446259,5.2394104-5.9645996,9.513588c0.9800415,4.2741852,5.2394104,6.9446259,9.5135956,5.9645996
		c7.2778778-1.6704102,14.642868-2.9354935,22.0609894-3.7894058l8.506134-0.6640091
		c2.6102448-0.1946182,5.0029449-0.3434525,7.3269501-0.4464874v15.6842575c0,4.3848343,3.5545959,7.9394302,7.9394226,7.9394302
		c4.3848572,0,7.9394531-3.5545959,7.9394531-7.9394302V81.6986847
		c29.8344116,1.3738022,57.9515991,9.3876572,82.9433594,22.5647278l-7.8192444,13.5434036
		c-2.1160583,3.8368225-0.7211304,8.6626129,3.1156921,10.7786942c3.7303467,2.057373,8.4196472,0.8014374,10.6223755-2.8449783
		l7.8077698-13.5090714c24.8371277,15.7662582,45.8877563,36.820816,61.6494141,61.6608734l-13.5090637,7.7963409
		c-3.7936401,2.1971588-5.0878601,7.0536652-2.8907471,10.8473206c2.1972046,3.7936554,7.0537109,5.0878754,10.8473511,2.8907166
		l13.543396-7.8192291c13.7365417,26.0402679,21.4589539,54.829361,22.5990601,84.2485046h-15.6727905
		c-4.3816528,0-7.9337158,3.5520325-7.9337158,7.9337158c0,4.3816528,3.552063,7.9337158,7.9337158,7.9337158h15.6727905
		c-1.1401062,29.4191284-8.8625793,58.2082214-22.5990601,84.2484741l-13.543396-7.8192444
		c-3.7936401-2.1908264-8.64505-0.8914795-10.835907,2.9021606c-2.1907959,3.7936707-0.8914795,8.6450806,2.9021912,10.835907
		l13.5090637,7.7963562c-15.7649536,24.8413086-36.8195801,45.8959351-61.6608582,61.6608887l-7.7963257-13.5090637
		c-2.1908569-3.7936707-7.0422363-5.0929871-10.835907-2.9021912c-3.7936401,2.1908569-5.0929871,7.0422363-2.9021606,10.835907l0,0
		l7.8192444,13.543396c-25.6507568,13.5431213-53.9782104,21.2485352-82.954834,22.5647278v-15.6155396
		c0-4.3816528-3.5520325-7.9337463-7.9337158-7.9337463c-4.3816528,0-7.9337158,3.5520935-7.9337158,7.9337463v15.6842346
		c-12.7586975-0.4213867-25.4478149-2.0621948-37.8940735-4.8999023c-4.2331848-1.1309814-8.5816956,1.3838806-9.712677,5.6170349
		c-1.1309662,4.2332153,1.3838654,8.5817261,5.6170654,9.7127075c0.1806641,0.0482483,0.3629913,0.0901489,0.5466156,0.1255188
		C228.7758026,492.1682739,244.9523315,494,261.0029297,494l1.1448669-0.0228882L262.2966309,494l0.1716919-0.0343323
		c36.8230591-0.2164001,72.9599609-9.9833374,104.8784485-28.3461609c0.2518616-0.1144714,0.5037231-0.1717224,0.7441406-0.3091125
		c0.1602783-0.1030273,0.2518616-0.2518616,0.4006958-0.3434448c32.077179-18.7139282,58.78125-45.3903503,77.5283203-77.4481506
		c0.1602783-0.2175293,0.3434448-0.3778076,0.480835-0.6182251c0.0915833-0.1717224,0.0915833-0.3434448,0.1717224-0.5037231
		c18.7225952-32.4030151,28.5635986-69.1725769,28.5293274-106.5957031
		C475.2018127,241.002655,464.7838135,204.6197662,446.6724854,173.2054596z M446.1229553,83.4502869l11.2193909,11.2193985
		l-11.2193909,11.2193985l-11.2193909-11.2193985L446.1229553,83.4502869z M254.3628998,65.7625732V41.7896957h-27.7737427
		c-2.1824646-0.0125046-3.9486237-1.7786598-3.9611359-3.961132c0-2.17519,1.7859497-3.9725838,3.9611359-3.9725838h71.4034271
		c2.1908264,0.2040749,3.8014526,2.1455307,3.5973511,4.3363686c-0.1777649,1.9082909-1.6890564,3.41959-3.5973511,3.5973473
		h-27.7622681v23.9728775c-2.7705078-0.1144867-5.4036255-0.17173-7.9337158-0.17173l-0.6983643,0.0114517h-0.5953064
		c-1.3051147,0-2.6102295,0.0801392-3.9039001,0.103035c-0.915863,0.0228882-1.7859497,0.0114441-2.7476044,0.0572433H254.3628998z
		 M190.893158,129.0605621H151.21315c-4.3816681,0-7.9337158,3.5520325-7.9337158,7.9337006
		c0,4.3816833,3.5520477,7.9337158,7.9337158,7.9337158h39.6685791c4.3816681,0,7.9337006-3.5520325,7.9337006-7.9337158
		c0-4.3816681-3.5520325-7.9337006-7.9337006-7.9337006H190.893158z M190.893158,184.5965729H111.556015
		c-4.3816681,0-7.9337082,3.5520477-7.9337082,7.9337158s3.5520401,7.9337158,7.9337082,7.9337158h79.3371429
		c4.3816833,0,7.9337158-3.5520477,7.9337158-7.9337158S195.2748413,184.5965729,190.893158,184.5965729L190.893158,184.5965729z
		 M190.893158,240.1325684H71.8759918c-4.3816681,0-7.9337082,3.5520477-7.9337082,7.9337311
		c0,4.3816528,3.5520401,7.9337006,7.9337082,7.9337006h119.0057373c4.3816681,0,7.9337006-3.5520477,7.9337006-7.9337006
		c0-4.3816833-3.5520325-7.9337311-7.9337006-7.9337311H190.893158z M190.893158,295.6685791H40.1525879
		c-4.3816757,0-7.9337158,3.5520325-7.9337158,7.9337158c0,4.3816528,3.5520401,7.9337158,7.9337158,7.9337158H190.893158
		c4.3816833,0,7.9337158-3.552063,7.9337158-7.9337158C198.8268738,299.2206116,195.2748413,295.6685791,190.893158,295.6685791
		L190.893158,295.6685791z M190.893158,351.2045898H87.7434158c-4.3816681,0-7.9337082,3.5520325-7.9337082,7.9337158
		c0,4.3816528,3.5520401,7.9337158,7.9337082,7.9337158H190.893158c4.3816833,0,7.9337158-3.552063,7.9337158-7.9337158
		C198.8268738,354.7566223,195.2748413,351.2045898,190.893158,351.2045898L190.893158,351.2045898z M190.893158,406.729126
		h-55.5359955c-4.3816681,0-7.9337234,3.552063-7.9337234,7.9337158s3.5520554,7.9337158,7.9337234,7.9337158h55.5245667
		c4.3816681,0,7.9337158-3.552063,7.9337158-7.9337158s-3.5520477-7.9337158-7.9337158-7.9337158H190.893158z"/>
</g>
</svg>
