<svg width="62" height="57" viewBox="0 0 62 57" fill="none" xmlns="http://www.w3.org/2000/svg">
<path d="M16.7891 45.0331C12.7164 45.0331 9.0937 42.4254 7.77823 38.5433L7.68926 38.2507C7.37902 37.2227 7.24905 36.3581 7.24905 35.4931V18.1478L1.0774 38.7491C0.283638 41.7793 2.09242 44.9208 5.12724 45.7579L44.4653 56.2929C44.9563 56.4201 45.4473 56.4811 45.9308 56.4811C48.4644 56.4811 50.7795 54.7995 51.4284 52.3213L53.7203 45.0331H16.7891Z" fill="#858B98"/>
<path d="M23.7854 18.3211C26.5915 18.3211 28.8731 16.039 28.8731 13.2329C28.8731 10.4268 26.5915 8.14474 23.7854 8.14474C20.9793 8.14474 18.6973 10.4268 18.6973 13.2329C18.6973 16.039 20.9793 18.3211 23.7854 18.3211Z" fill="#858B98"/>
<path d="M55.5848 0.512741H17.4248C13.9195 0.512741 11.0649 3.36729 11.0649 6.87305V34.8568C11.0649 38.3625 13.9195 41.2171 17.4248 41.2171H55.5848C59.0906 41.2171 61.9451 38.3625 61.9451 34.8568V6.87305C61.9451 3.36729 59.0906 0.512741 55.5848 0.512741ZM17.4248 5.6009H55.5848C56.2873 5.6009 56.857 6.1706 56.857 6.87305V24.9329L48.8206 15.5555C47.9682 14.5558 46.7342 14.0215 45.409 13.9913C44.0912 13.9987 42.8549 14.5838 42.0103 15.5965L32.5616 26.9373L29.4835 23.8667C27.7437 22.1268 24.9119 22.1268 23.1744 23.8667L16.1531 30.8856V6.87305C16.1531 6.1706 16.7228 5.6009 17.4248 5.6009Z" fill="#858B98"/>
</svg>
