<svg xmlns="http://www.w3.org/2000/svg" viewBox="0 0 355 206" xmlns:xlink="http://www.w3.org/1999/xlink"><defs><filter id="a" width="100.9%" height="347.4%" x="-.5%" y="-123.7%" filterUnits="objectBoundingBox"><feGaussianBlur stdDeviation=".534" in="SourceGraphic"/></filter><path id="c" d="M46.312 11.75h262.554v165.584H46.312z"/><filter id="b" width="108%" height="112.7%" x="-4%" y="-3.9%" filterUnits="objectBoundingBox"><feOffset dy="2" in="SourceAlpha" result="shadowOffsetOuter1"/><feGaussianBlur stdDeviation="2.5" in="shadowOffsetOuter1" result="shadowBlurOuter1"/><feColorMatrix values="0 0 0 0 0 0 0 0 0 0 0 0 0 0 0 0 0 0 0.25 0" in="shadowBlurOuter1" result="shadowMatrixOuter1"/><feOffset dy="2" in="SourceAlpha" result="shadowOffsetOuter2"/><feGaussianBlur stdDeviation="1" in="shadowOffsetOuter2" result="shadowBlurOuter2"/><feColorMatrix values="0 0 0 0 0 0 0 0 0 0 0 0 0 0 0 0 0 0 0.26 0" in="shadowBlurOuter2" result="shadowMatrixOuter2"/><feMerge><feMergeNode in="shadowMatrixOuter1"/><feMergeNode in="shadowMatrixOuter2"/></feMerge></filter><ellipse id="d" cx="13.359" cy="13.354" rx="13.359" ry="13.354"/></defs><g fill="none" fill-rule="evenodd"><rect width="349.818" height="1.296" x="1.943" y="204.704" fill="#000" filter="url(#a)" rx=".648"/><rect width="355" height="7.774" y="196.931" fill="#A9ABAE" rx="3.887"/><path fill="#E6E7E8" d="M0 185.918h355v15.547H0z"/><rect width="12.308" height="2.591" x="326.496" y="190.453" fill="#C0C0C0" rx="1.296"/><path fill="#A9ABAE" d="M152.883 185.918v4.462c0 .398.315.72.715.72h47.804c.395 0 .715-.324.715-.72v-4.462h-49.234z"/><path fill="#373435" d="M37.76 0c-1.176 0-2.13.956-2.13 2.136v183.782h282.445V2.136c0-1.18-.954-2.136-2.13-2.136H37.76z"/><path fill="#4B4B4D" d="M45.995 11.66h263.01v165.836H45.995z"/><path fill="#FFF" d="M64.16 0l253.915 185.918V2.136c0-1.18-.958-2.136-2.138-2.136H64.16z" opacity=".05"/><ellipse cx="177.5" cy="5.83" fill="#7C7B7B" rx="1.296" ry="1.296"/><use fill="#000" filter="url(#b)" xlink:href="#c"/><use fill="#F3F5F7" xlink:href="#c"/><path fill="#F6A623" d="M144.012 112.878l-3.908 2.054.747-4.35-3.16-3.08 4.37-.634 1.96-3.957 1.96 3.96 4.37.64-3.16 3.08.75 4.35m12.3-2.05l-3.9 2.06.75-4.35-3.16-3.08 4.37-.63 1.96-3.96 1.96 3.96 4.37.64-3.16 3.08.75 4.35m12.3-2.05l-3.9 2.06.75-4.35-3.16-3.08 4.37-.63 1.95-3.96 1.95 3.96 4.37.64-3.16 3.08.75 4.35"/><g transform="translate(156.75 130.508)"><rect width="39.187" height="10.133" fill="#5CB85C" rx="4.273"/><path fill="#FFF" d="M14.858 4.518c-.047-.06-.108-.107-.184-.143-.076-.035-.15-.052-.22-.052-.036 0-.073.003-.11.01-.038.006-.072.018-.102.036-.03.01-.055.04-.075.07-.02.02-.03.06-.03.11 0 .04.008.07.024.09.02.02.04.05.07.07.04.02.07.03.12.05l.15.05c.08.02.16.05.24.08.09.03.16.07.23.12.07.05.13.11.17.19.05.08.07.17.07.28 0 .13-.02.24-.07.33-.05.09-.11.17-.19.23s-.17.11-.28.14c-.1.03-.21.04-.32.04-.16 0-.32-.03-.47-.09-.15-.06-.27-.14-.37-.25l.36-.37c.06.06.13.12.22.17.09.04.18.07.27.07.04 0 .08-.01.12-.02.04-.01.08-.03.11-.04.03-.02.05-.05.07-.08.02-.03.03-.07.03-.12 0-.04-.01-.08-.03-.11-.02-.03-.05-.06-.09-.08-.04-.02-.09-.05-.15-.07l-.2-.06c-.07-.03-.14-.05-.21-.09-.07-.03-.13-.08-.18-.13-.05-.05-.09-.11-.13-.18-.03-.07-.05-.158-.05-.26 0-.127.03-.235.08-.325s.12-.16.2-.22c.08-.06.18-.1.28-.128.11-.028.21-.04.32-.04.13 0 .26.022.39.07.14.05.25.12.35.21l-.34.37zm2.62.824c0 .136-.024.26-.07.373-.045.112-.11.208-.197.29-.08.08-.18.14-.3.186-.12.05-.25.07-.4.07-.15 0-.28-.02-.4-.06-.12-.04-.22-.1-.3-.18-.08-.08-.14-.17-.19-.29-.04-.11-.07-.23-.07-.37V3.93h.55V5.3c0 .06.01.12.03.176.02.056.04.105.08.15.03.043.08.078.13.103.06.02.12.04.2.04.08 0 .15-.02.2-.04.06-.03.1-.06.14-.11.04-.05.06-.1.08-.15.02-.06.02-.12.02-.18V3.93h.55v1.415zm2.212.195c0 .124-.025.228-.074.313-.05.084-.114.152-.196.203-.08.05-.173.088-.277.11-.104.023-.21.034-.32.034h-.903v-2.27h.904c.088 0 .177.01.27.03.09.017.175.048.25.092.074.04.135.1.182.17.047.07.07.17.07.28 0 .12-.033.23-.102.31-.068.08-.158.14-.27.17V5c.065.01.125.03.182.06.057.03.106.066.147.11.042.046.075.098.1.158.024.06.037.126.037.2zm-.622-.952c0-.077-.03-.133-.088-.168-.06-.035-.146-.053-.262-.053h-.27v.468h.296c.103 0 .182-.02.24-.062.055-.042.084-.103.084-.185zm.074.9c0-.093-.036-.158-.106-.195-.07-.036-.165-.054-.282-.054h-.305v.52h.3c.04 0 .08-.005.13-.012.04-.008.08-.02.12-.04.03-.02.07-.047.09-.082.02-.035.03-.08.03-.136zm2.968.712l.013-1.605h-.01l-.59 1.605h-.384l-.58-1.605h-.01l.01 1.605h-.52v-2.27h.78l.51 1.456h.01l.49-1.455h.79v2.27h-.53zm1.004 0v-2.27h.55v2.27h-.55zm1.99-1.8v1.8h-.547v-1.8h-.64v-.47h1.83v.47h-.642z"/></g><path fill="#F6A623" d="M192.64 112.878l-3.908 2.054.746-4.35-3.16-3.08 4.368-.634 1.954-3.957 1.953 3.96 4.37.64-3.162 3.08.75 4.35m12.3-1.87l-3.91 2.06.75-4.35-3.16-3.08 4.37-.63 1.96-3.96 1.96 3.96 4.37.64-3.16 3.08.75 4.35"/><g transform="translate(162.983 60.714)"><mask id="e" fill="#fff"><use xlink:href="#d"/></mask><use fill="#CECECE" xlink:href="#d"/><g fill-rule="nonzero" mask="url(#e)"><path fill="#734A3E" d="M7.214 13.096s-.757-3.083-.757-4.144c0-2.277 1.893-2.26 1.893-2.26 1.127-1.877 5.3-1.885 5.3-1.885l.377.754c2.082-.66 4.92-.75 4.92-.75s.545.76.758 1.89c.44 2.35-.38 6.41-.38 6.41H7.215z"/><path fill="#623F33" d="M13.65 4.807s-4.19 0-5.3 1.884c0 0-1.893-.01-1.893 2.27 0 1.06.757 4.15.757 4.15h2.443l2.478-3.39s3.816-1.94 6.813-4.9c0 0-2.84.1-4.92.76l-.38-.75z"/><path fill="#F6B47B" d="M20.834 24.723l-.034-.308c-.014-.12-.124-.21-.246-.196h-.02l-.332-2.65c-.072-.58-.47-1.06-1.024-1.25L17 19.61l.055-.11-.82-.543c-.174-.116-.41-.07-.525.104l-.116.18c-.034-.08-.053-.18-.053-.27v-1.22l1.64-.67c.85-.35 1.4-1.17 1.4-2.08v-.37c.63 0 1.14-.5 1.14-1.13 0-.29-.11-.57-.3-.77.19-1.07.67-4.11.31-6.01-.21-1.13-.75-1.88-.75-1.88s-2.84.1-4.92.76l-.38-.75s-4.19 0-5.3 1.89H8.3l-.07.01-.05.01-.06.01-.07.02c-.46.1-1.27.43-1.5 1.56l-.015.09c-.016.09-.03.18-.036.28-.01.1-.02.2-.02.31 0 .08 0 .18.01.28.01.11.02.22.04.346l.01.073c.07.55.2 1.24.33 1.85l.02.085c.09.414.18.79.24 1.064l.02.06c-.18.2-.29.464-.29.753 0 .626.51 1.13 1.14 1.13V15c0 .91.55 1.734 1.4 2.085l1.63.674v1.21c0 .09-.02.19-.06.27l-.12-.18c-.12-.17-.35-.22-.53-.11l-.82.54.05.11-2.18.72c-.56.19-.95.67-1.03 1.25l-.33 2.65-.02-.01c-.12-.02-.23.07-.25.19l-.03.31c-.01.12.072.23.2.24l.55.06v.88c0 .41.34.75.75.75h12.11c.42 0 .76-.34.76-.76V25l.554-.06c.12-.016.21-.126.2-.25z"/><path fill="#FF4F4F" d="M20.202 21.574c-.072-.576-.47-1.06-1.024-1.243l-2.448-.81c-.357.8-2.324 1.49-2.324 1.49l-.757.76c0 .01-.7 0-.76 0l-.76-.75s-1.97-.69-2.33-1.49l-2.45.82c-.55.19-.95.67-1.02 1.25l-.36 2.87 3.12.34v1.88h8.32V24.8h3.17l-.4-3.203z"/><path fill="#734A3E" d="M7.214 13.096s-.757-3.083-.757-4.144c0-2.277 1.893-2.26 1.893-2.26 1.096-1.853 5.3-1.885 5.3-1.885l.377.754c2.082-.66 4.92-.75 4.92-.75s.545.76.758 1.89c.44 2.35-.38 6.41-.38 6.41H7.215z"/><path fill="#623F33" d="M13.65 4.807s-4.19 0-5.3 1.884c0 0-1.893-.01-1.893 2.27 0 1.06.757 4.15.757 4.15h2.443l2.478-3.39s3.816-1.94 6.813-4.9c0 0-2.84.1-4.92.76l-.38-.75z"/><path fill="#E2A071" d="M15.54 17.712H11v1.246c0 .27-.152.51-.38.644 3.174.553 4.92-1.89 4.92-1.89z"/><path fill="#FDC88E" d="M18.57 12.343v-.754c0-1.04-.848-1.89-1.893-1.89H9.864c-1.046 0-1.893.84-1.893 1.88v.75c-.62 0-1.13.5-1.13 1.13 0 .62.51 1.13 1.14 1.13v.37c0 .91.55 1.73 1.4 2.08l2.45 1.01c.46.19.96.29 1.46.29s1-.1 1.46-.29l2.45-1.02c.85-.35 1.4-1.18 1.4-2.09v-.37c.63 0 1.14-.51 1.14-1.13 0-.63-.51-1.13-1.13-1.13z"/><path fill="#623F33" d="M10.62 13.85c-.208 0-.378-.17-.378-.377v-.377c0-.207.17-.377.38-.377.207 0 .377.17.377.37v.37c0 .2-.17.37-.38.37zm5.3 0c-.208 0-.38-.17-.38-.377v-.377c0-.207.172-.377.38-.377.208 0 .378.17.378.37v.37c0 .2-.17.37-.378.37z"/><path fill="#E2A071" d="M13.27 16.497c-.673 0-1.302-.164-1.727-.452-.173-.117-.217-.35-.1-.523.118-.172.353-.217.526-.1.29.202.78.322 1.3.322s1-.12 1.3-.322c.17-.117.41-.072.52.1.12.172.07.406-.1.523-.43.288-1.06.452-1.73.452z"/><path fill="#F23F44" d="M9.107 25.06v-.852c0-.363-.132-.713-.37-.987l-2.083-2.39c-.168.22-.28.47-.315.75l-.4 3.15c.6.04 2.2.23 3.16.34z"/><path fill="#D6343A" d="M9.107 24.564l-3.12-.345c-.122-.02-.233.07-.246.19l-.03.31c-.01.12.08.23.2.24l3.21.35v-.76z"/><path fill="#F23F44" d="M17.434 25.06v-.852c0-.363.13-.713.37-.987l2.082-2.39c.168.21.28.47.316.75l.395 3.15c-.602.04-2.203.23-3.163.34z"/><path fill="#D6343A" d="M17.434 24.564l3.12-.345c.122-.02.232.07.246.19l.034.31c.014.12-.075.23-.197.24l-3.203.35v-.76z"/><path fill="#F23F44" d="M10.83 19.06l1.305 1.948L11 22.515 9.484 19.5l.82-.543c.175-.116.41-.07.526.104zm4.88 0l-1.304 1.948 1.135 1.507 1.52-3.015-.82-.54c-.17-.116-.41-.07-.52.104zm-2.44 5.716c-.21 0-.378-.17-.378-.377v-2.64h.757v2.64c0 .2-.17.37-.38.37z"/><path fill="#F6B47B" d="M9.958 16.286c-.307-.328-.473-.76-.473-1.207v-4.33c1.33-.15 4.227-.5 7.192-1.05H9.864c-.13 0-.257.01-.38.04-.863.17-1.513.93-1.513 1.84v.75c-.62 0-1.13.5-1.13 1.13 0 .62.51 1.13 1.14 1.13v.37c0 .91.55 1.73 1.4 2.08l2.45 1.01c.12.05.24.09.37.13-1.08-.79-1.8-1.48-2.22-1.93z"/></g></g><path fill="#4A4A4A" d="M159.773 53.414h-.385v-3.782h1.112c.185 0 .357.018.516.054.158.035.295.093.41.173.117.08.207.18.27.31.065.13.097.28.097.47 0 .14-.025.26-.075.38-.05.11-.117.21-.203.29-.085.08-.187.15-.304.2-.11.05-.24.08-.38.09l1.11 1.8h-.47l-1.05-1.77h-.64v1.77zm0-2.1h.668c.31 0 .55-.055.72-.167.17-.113.25-.28.25-.505 0-.125-.02-.23-.07-.315-.04-.086-.11-.155-.19-.21-.08-.052-.18-.09-.3-.116-.11-.02-.24-.03-.39-.03h-.68v1.35zm4.307.487c0-.21-.057-.37-.17-.48-.115-.1-.28-.16-.498-.16-.15 0-.288.03-.417.08-.128.06-.236.13-.326.22l-.21-.24c.1-.1.24-.19.41-.25.17-.07.36-.1.57-.1.13 0 .26.02.38.06.11.04.22.1.31.17.08.08.15.17.2.29.05.12.07.25.07.4v1.1c0 .1 0 .2.01.3.01.11.02.19.03.26h-.33l-.03-.19c-.01-.07-.01-.14-.01-.21h-.01c-.12.17-.25.29-.39.36-.15.08-.32.11-.52.11-.1 0-.2-.01-.3-.04-.11-.03-.2-.07-.28-.13-.09-.06-.15-.14-.21-.23s-.09-.21-.09-.35c0-.19.05-.34.15-.45.1-.11.23-.19.39-.25.16-.05.35-.09.56-.11.21-.01.43-.02.66-.02v-.08zm-.107.37c-.15 0-.3.01-.45.02-.153.01-.29.04-.413.08s-.223.09-.302.17c-.078.07-.117.17-.117.29 0 .09.02.17.06.23.04.06.08.11.14.15.06.04.12.07.19.08s.14.03.21.03c.13 0 .25-.02.35-.06.1-.04.19-.1.25-.18.07-.08.12-.16.16-.26s.05-.21.05-.32v-.19h-.1zm2.458-.94h-.7v1.46c0 .1.01.17.03.23.02.06.05.11.08.14.04.04.08.06.12.07.05.02.1.02.15.02.05 0 .11 0 .16-.02.06-.01.11-.03.16-.06l.02.32c-.06.03-.13.05-.2.06-.07.02-.14.02-.22.02-.07 0-.14-.01-.21-.02-.07-.02-.14-.05-.2-.1s-.12-.12-.16-.2c-.04-.08-.06-.2-.06-.34v-1.56h-.52v-.3h.52v-.7h.36v.71h.71v.31zm2.48.76c-.01-.23-.08-.43-.23-.58-.14-.15-.34-.23-.6-.23-.12 0-.23.02-.33.07s-.19.11-.27.18c-.07.08-.14.17-.18.26-.04.1-.07.2-.08.31h1.71zm.37.12v.17h-2.08c.01.13.03.24.08.35.05.11.11.21.2.29.08.08.18.15.29.2.12.05.23.07.36.07.19 0 .35-.04.49-.13.14-.08.24-.18.32-.3l.27.22c-.15.19-.31.32-.49.41-.18.08-.37.12-.58.12-.18 0-.35-.03-.51-.1-.16-.06-.29-.15-.41-.27-.11-.11-.2-.25-.27-.41-.06-.16-.09-.33-.09-.52s.03-.36.1-.52c.07-.16.16-.3.27-.41.12-.12.25-.21.4-.27.16-.07.32-.1.5-.1.2 0 .37.03.52.1.15.06.27.15.37.26.1.11.18.24.23.39.05.15.08.31.08.48z"/><path fill="#5CB85C" d="M173.352 52.19c0 .14-.015.286-.045.44-.03.152-.086.294-.168.426-.09.132-.2.24-.35.326-.15.085-.34.128-.58.128-.31 0-.55-.076-.74-.23-.19-.153-.31-.354-.38-.603l.62-.176c.03.13.09.23.17.3.08.08.18.11.3.11.09 0 .17-.02.23-.05.06-.03.11-.08.15-.15.03-.06.05-.14.07-.23.01-.09.02-.19.02-.29v-2.54h.67v2.56zm2.576-.314c0-.082-.012-.16-.035-.235-.023-.07-.06-.14-.11-.19-.05-.05-.112-.1-.19-.13-.076-.03-.165-.05-.27-.05-.19 0-.354.06-.488.18-.133.12-.207.27-.22.45h1.313zm.64.288v.086c0 .028 0 .057-.004.085h-1.95c.007.093.03.177.072.254.04.07.095.14.163.19.06.05.14.1.22.13.08.03.17.05.27.05.16 0 .29-.03.4-.09.11-.06.2-.14.27-.24l.42.34c-.25.34-.62.51-1.1.51-.2 0-.38-.03-.55-.1-.17-.06-.31-.15-.44-.27-.13-.12-.22-.26-.29-.42-.07-.17-.11-.36-.11-.57 0-.21.03-.4.1-.57.07-.17.16-.32.29-.43.12-.12.26-.21.43-.28.16-.07.34-.1.54-.1.17 0 .34.03.49.09.15.06.28.14.39.26.11.11.19.26.26.43.06.17.09.37.09.6zm.62-1.314h.616v.427h.01c.072-.15.17-.27.3-.363.128-.092.278-.14.45-.14.023 0 .05.002.08.004.027.002.052.006.073.013v.59c-.042-.01-.08-.02-.11-.02h-.087c-.146 0-.264.03-.353.08-.09.06-.158.12-.208.2-.05.08-.09.15-.11.23-.02.08-.03.14-.03.19v1.38h-.64v-2.57zm3.656 1.026c0-.082-.01-.16-.034-.235-.024-.07-.06-.14-.11-.19-.05-.05-.113-.1-.19-.13-.076-.03-.166-.05-.27-.05-.192 0-.355.06-.49.18-.132.12-.206.27-.22.45h1.314zm.642.288v.086c0 .028-.002.057-.006.085h-1.95c.007.093.03.177.072.254.04.07.095.14.163.19.068.05.144.1.23.13.085.03.174.05.267.05.16 0 .295-.03.406-.09.11-.06.2-.14.272-.24l.428.34c-.253.34-.62.51-1.1.51-.2 0-.384-.03-.55-.1-.17-.06-.314-.15-.437-.27-.12-.12-.21-.26-.28-.42-.07-.17-.1-.36-.1-.57 0-.21.04-.4.11-.57.07-.17.17-.32.29-.43.12-.12.27-.21.43-.28.17-.07.35-.1.54-.1.18 0 .35.03.5.09.15.06.29.14.4.26.11.11.2.26.26.43s.1.37.1.6zm3.68-1.39c.17 0 .312.03.43.09.12.058.22.136.295.232.08.096.14.206.17.33.04.126.06.254.06.386v1.602h-.64v-1.42c0-.076 0-.154-.01-.236-.01-.082-.03-.156-.07-.222-.03-.065-.08-.12-.14-.162-.06-.043-.14-.065-.25-.065-.1 0-.18.02-.25.06-.07.04-.13.1-.17.16-.04.06-.08.14-.1.22-.02.08-.03.16-.03.25v1.4h-.64v-1.55c0-.16-.03-.29-.11-.4-.07-.11-.19-.16-.36-.16-.09 0-.18.02-.25.06-.07.04-.13.09-.17.16-.04.06-.08.13-.1.22-.02.08-.03.17-.03.25v1.41h-.64v-2.56h.61v.41h.01c.03-.07.07-.13.12-.18.05-.06.11-.11.17-.16.07-.05.15-.09.23-.11.09-.03.18-.04.29-.04.2 0 .37.04.5.13.13.08.23.2.3.35.09-.16.2-.28.34-.36.15-.09.31-.13.51-.13zm1.31.076h.71l.717 1.864h.01l.637-1.864h.668l-1.213 3.114c-.046.118-.096.222-.15.313-.053.09-.117.167-.192.23-.075.062-.163.11-.265.14-.1.033-.223.05-.366.05-.053 0-.107-.004-.163-.01-.06-.004-.12-.014-.17-.028l.05-.56.12.03h.11c.07 0 .12-.01.17-.03.04-.02.08-.04.12-.08.03-.04.06-.08.08-.13l.08-.18.12-.33-1.1-2.57zm5.13-.63h-1.16v-.588h2.993v.588h-1.16v3.194h-.68V50.22zm1.705 2.82c0-.114.05-.212.13-.294.09-.082.19-.123.3-.123.12 0 .22.04.3.118.09.08.13.18.13.29 0 .12-.04.21-.12.3-.08.08-.18.13-.3.13-.05 0-.11-.01-.16-.03-.05-.02-.09-.05-.13-.08-.04-.03-.07-.08-.09-.13-.02-.05-.03-.1-.03-.16z"/></g></svg>