<svg width="24" height="22" viewBox="0 0 24 22" fill="none" xmlns="http://www.w3.org/2000/svg">
<path d="M20.4099 11.493C18.8777 12.6422 17.0072 13.44 14.9714 13.8336C14.7658 15.2898 13.512 16.4137 12 16.4137C10.4879 16.4137 9.23412 15.2898 9.02852 13.8336C6.99275 13.44 5.12225 12.6422 3.59001 11.493C1.27495 9.75674 0 7.42931 0 4.93945V17.7129C0 19.6223 1.55348 21.1757 3.46288 21.1757H20.5371C22.4465 21.1757 23.9999 19.6223 23.9999 17.7129V4.93945C23.9999 7.42931 22.725 9.75674 20.4099 11.493Z" fill="#3C8AFF"/>
<path d="M8.99834 12.3908V11.1136C8.99834 10.7253 9.31315 10.4105 9.70146 10.4105H14.2985C14.6868 10.4105 15.0016 10.7253 15.0016 11.1136V12.3908C19.3857 11.4392 22.5937 8.45918 22.5937 4.93944V4.23632H16.9394V2.83907C16.9394 1.27359 15.6658 0 14.1003 0H9.89965C8.33422 0 7.06058 1.27359 7.06058 2.83907V4.23632H1.40625V4.93944C1.40625 8.45918 4.61427 11.4392 8.99834 12.3908ZM8.46678 2.83907C8.46678 2.04899 9.10957 1.40625 9.8996 1.40625H14.1003C14.8903 1.40625 15.5331 2.04899 15.5331 2.83907V4.23632H8.46673V2.83907H8.46678Z" fill="#3C8AFF"/>
<path d="M13.5953 11.8167H10.4045V13.4121C10.4045 14.2918 11.1203 15.0075 11.9999 15.0075C12.8796 15.0075 13.5953 14.2918 13.5953 13.4121V11.8167Z" fill="#3C8AFF"/>
</svg>
