<svg xmlns="http://www.w3.org/2000/svg" viewBox="0 0 355 206" xmlns:xlink="http://www.w3.org/1999/xlink"><defs><filter id="filter-1" width="100.9%" height="347.4%" x="-.5%" y="-123.7%" filterUnits="objectBoundingBox"><feGaussianBlur stdDeviation=".534" in="SourceGraphic"/></filter><circle id="path-2" cx="13.5" cy="13.5" r="13.5"/><circle id="path-4" cx="13.5" cy="13.5" r="13.5"/><circle id="path-6" cx="13.5" cy="13.5" r="13.5"/><linearGradient id="linearGradient-8" x1="89.816%" x2="16.599%" y1="0%" y2="100%"><stop stop-color="#95DD95" offset="0%"/><stop stop-color="#5CB85C" offset="100%"/></linearGradient><circle id="path-9" cx="13.5" cy="13.5" r="13.5"/></defs><g id="Page-1" fill="none" fill-rule="evenodd"><g id="Group-2"><g id="Group"><rect id="shadow" width="349.818" height="1.296" x="1.943" y="204.704" fill="#000" filter="url(#filter-1)" rx=".648"/><rect id="base" width="355" height="7.774" y="196.931" fill="#A9ABAE" rx="3.887"/><path id="shape" fill="#E6E7E8" d="M0 185.918h355v15.547H0z"/><rect id="light" width="12.308" height="2.591" x="326.496" y="190.453" fill="#C0C0C0" rx="1.296"/><path id="bevel" fill="#A9ABAE" d="M152.883 185.918v4.462c0 .398.315.72.715.72h47.804c.395 0 .715-.324.715-.72v-4.462h-49.234z"/><path id="screen" fill="#373435" d="M37.76 0c-1.176 0-2.13.956-2.13 2.136v183.782h282.445V2.136c0-1.18-.954-2.136-2.13-2.136H37.76z"/><path id="display" fill="#4B4B4D" d="M45.995 11.66h263.01v165.836H45.995z"/><path id="shine" fill="#FFF" d="M64.16 0l253.915 185.918V2.136c0-1.18-.958-2.136-2.138-2.136H64.16z" opacity=".05"/><ellipse id="camera" cx="177.5" cy="5.83" fill="#7C7B7B" rx="1.296" ry="1.296"/></g><path id="4" fill="#F3F5F7" d="M46 12h262v166H46z"/><g id="Tutor-3"><g id="boy" transform="translate(187 95)"><mask id="mask-3" fill="#fff"><use xlink:href="#path-2"/></mask><use id="Mask" fill="#CECECE" xlink:href="#path-2"/><g id="Layer_1" mask="url(#mask-3)"><g id="Group" fill-rule="nonzero"><path id="Shape" fill="#734A3E" d="M7.308 12.948s-.774-3.143-.774-4.224c0-2.32 1.935-2.304 1.935-2.304 1.15-1.912 5.41-1.92 5.41-1.92l.38.768C16.4 4.596 19.3 4.5 19.3 4.5s.558.768.776 1.92c.45 2.387-.388 6.528-.388 6.528H7.308z"/><path id="Shape" fill="#623F33" d="M13.887 4.5s-4.28 0-5.418 1.92c0 0-1.94-.016-1.94 2.304 0 1.08.77 4.224.77 4.224h2.5l2.53-3.456s3.9-1.984 6.96-4.992c0 0-2.9.096-5.03.768l-.39-.768z"/><path id="Shape" fill="#F6B47B" d="M21.233 24.798l-.035-.314c-.014-.124-.126-.213-.25-.2l-.02.003-.34-2.698c-.075-.59-.482-1.08-1.047-1.27l-2.22-.74.06-.11-.84-.56c-.17-.12-.41-.07-.53.1l-.12.17c-.03-.09-.05-.19-.05-.28v-1.24l1.67-.69c.87-.36 1.43-1.2 1.43-2.13v-.38c.64 0 1.16-.52 1.16-1.15 0-.31-.11-.58-.31-.79.2-1.1.68-4.19.31-6.13-.21-1.15-.77-1.92-.77-1.92s-2.9.09-5.03.77l-.39-.76s-4.28 0-5.42 1.92h-.16l-.05.01-.06.01c-.02 0-.04 0-.07.01-.47.1-1.29.43-1.53 1.58l-.02.09-.03.28c-.01.1-.01.2-.01.31 0 .08.01.18.02.29l.03.35.01.07c.08.56.21 1.26.35 1.89.01.03.01.06.02.09.09.42.18.8.25 1.08l.02.07c-.18.2-.3.47-.3.77 0 .63.52 1.15 1.16 1.15v.38c0 .93.56 1.77 1.43 2.13l1.67.69v1.24c0 .1-.02.19-.06.28l-.12-.17c-.12-.18-.36-.23-.54-.11l-.84.55.05.11-2.22.73c-.57.19-.97.68-1.05 1.27l-.34 2.7h-.02c-.12-.02-.24.07-.25.2l-.04.31c-.01.12.08.23.2.25l.57.06v.9c0 .42.34.77.77.77H19.7c.43 0 .77-.35.77-.77v-.89l.564-.07c.125-.01.215-.12.2-.25z"/><path id="Shape" fill="#FF4F4F" d="M20.587 21.59c-.074-.588-.48-1.08-1.046-1.268l-2.5-.828c-.36.816-2.37 1.518-2.37 1.518l-.77.768c0 .003-.71 0-.77 0l-.77-.768s-2.01-.702-2.37-1.518l-2.5.828c-.56.187-.97.68-1.04 1.267l-.36 2.92 3.2.34v1.92h8.51v-1.92H21l-.41-3.27z"/><path id="Shape" fill="#734A3E" d="M7.308 12.948s-.774-3.143-.774-4.224c0-2.32 1.935-2.304 1.935-2.304 1.12-1.888 5.41-1.92 5.41-1.92l.38.768C16.4 4.596 19.3 4.5 19.3 4.5s.558.768.776 1.92c.45 2.387-.388 6.528-.388 6.528H7.308z"/><path id="Shape" fill="#623F33" d="M13.887 4.5s-4.28 0-5.418 1.92c0 0-1.94-.016-1.94 2.304 0 1.08.77 4.224.77 4.224h2.5l2.53-3.456s3.9-1.984 6.96-4.992c0 0-2.9.096-5.03.768l-.39-.768z"/><path id="Shape" fill="#E2A071" d="M15.822 17.652h-4.644v1.27c0 .277-.154.52-.388.656 3.246.564 5.032-1.926 5.032-1.926z"/><path id="Shape" fill="#FDC88E" d="M18.918 12.18v-.768c0-1.06-.866-1.92-1.935-1.92h-6.966c-1.07 0-1.935.86-1.935 1.92v.768c-.64 0-1.16.516-1.16 1.152 0 .636.52 1.152 1.16 1.152v.384c0 .93.564 1.77 1.43 2.127l2.5 1.034c.47.19.977.29 1.488.29.51 0 1.017-.1 1.488-.3l2.5-1.04c.866-.36 1.43-1.2 1.43-2.13v-.39c.64 0 1.16-.52 1.16-1.15 0-.64-.52-1.16-1.16-1.16z"/><path id="Shape" fill="#623F33" d="M10.79 13.716c-.212 0-.386-.173-.386-.384v-.384c0-.21.174-.384.387-.384.22 0 .39.173.39.384v.384c0 .21-.17.384-.38.384zm5.42 0c-.214 0-.388-.173-.388-.384v-.384c0-.21.174-.384.387-.384.21 0 .38.173.38.384v.384c0 .21-.18.384-.39.384z"/><path id="Shape" fill="#E2A071" d="M13.5 16.415c-.688 0-1.332-.168-1.766-.462-.176-.12-.222-.358-.102-.533.12-.175.36-.22.538-.1.304.204.8.327 1.33.327s1.026-.123 1.33-.328c.177-.12.418-.08.538.1.12.17.074.41-.102.53-.434.29-1.078.46-1.766.46z"/><path id="Shape" fill="#F23F44" d="M9.243 25.142v-.87c0-.37-.134-.726-.378-1.005l-2.13-2.44c-.17.217-.286.478-.322.762l-.403 3.2c.61.03 2.25.22 3.23.34z"/><path id="Shape" fill="#D6343A" d="M9.243 24.636l-3.19-.35c-.125-.015-.237.074-.25.198l-.036.314c-.014.124.076.236.2.25l3.276.36v-.772z"/><path id="Shape" fill="#F23F44" d="M17.757 25.142v-.87c0-.37.134-.726.378-1.005l2.13-2.44c.17.217.286.478.322.762l.404 3.2c-.61.03-2.25.22-3.23.34z"/><path id="Shape" fill="#D6343A" d="M17.757 24.636l3.19-.35c.125-.015.237.074.25.198l.036.314c.014.124-.076.236-.2.25l-3.276.36v-.772z"/><path id="Shape" fill="#F23F44" d="M11.006 19.028l1.333 1.984-1.17 1.536-1.55-3.072.84-.555c.17-.11.41-.07.53.11zm4.988 0l-1.333 1.984 1.17 1.536 1.55-3.072-.84-.555c-.17-.11-.41-.07-.53.11zM13.5 24.852c-.214 0-.387-.172-.387-.384V21.78h.774v2.688c0 .212-.173.384-.387.384z"/><path id="Shape" fill="#F6B47B" d="M10.114 16.2c-.314-.335-.484-.775-.484-1.23v-4.407c1.36-.15 4.322-.507 7.353-1.07h-6.966c-.133 0-.262.014-.387.04V9.53c-.883.18-1.548.954-1.548 1.883v.768c-.64 0-1.16.52-1.16 1.16s.52 1.15 1.16 1.15v.39c0 .93.564 1.77 1.43 2.13l2.5 1.04c.122.05.247.1.373.13-1.105-.8-1.84-1.5-2.27-1.96z"/></g></g></g></g><g id="Tutor-2"><g id="boy-(1)" transform="translate(151 95)"><mask id="mask-5" fill="#fff"><use xlink:href="#path-4"/></mask><use id="Mask" fill="#CECECE" xlink:href="#path-4"/><g id="Layer_1" mask="url(#mask-5)"><g id="Group" fill-rule="nonzero"><path id="Shape" fill="#956E55" d="M20.995 25.657l-.487-3.888c-.004-.04-.01-.08-.017-.11-.1-.54-.49-.99-1.02-1.16l-2.25-.75.1-.1-.9-.91c-.14-.14-.36-.15-.51-.03l-.11.09v-.96l1.66-.69c.86-.36 1.42-1.2 1.42-2.13v-.19c.64 0 1.15-.52 1.15-1.15 0-.64-.51-1.16-1.15-1.16V10.8c0-1.06-.86-1.92-1.92-1.92h-6.92c-1.06 0-1.92.86-1.92 1.92v1.73c-.63 0-1.15.515-1.15 1.15s.52 1.153 1.16 1.153v.19c0 .93.56 1.77 1.42 2.125l1.66.69v.96l-.11-.09c-.15-.13-.37-.12-.51.022l-.9.906.1.092-2.25.75c-.53.18-.91.62-1.02 1.16-.01.037-.01.07-.02.11L6 25.633c-.084.69.45 1.292 1.145 1.292h12.75c.7 0 1.23-.61 1.15-1.297z"/><path id="Shape" fill="#7C5A49" d="M11.172 17.88v1.932c2.977.314 4.608-1.948 4.608-1.948l-4.608.016z"/><path id="Shape" fill="#A2795C" d="M18.852 12.552v-1.728c0-1.06-.86-1.92-1.92-1.92H10.02c-1.06 0-1.92.86-1.92 1.92v1.728c-.636 0-1.152.516-1.152 1.152 0 .636.516 1.152 1.152 1.152v.192c0 .93.56 1.77 1.418 2.127l2.48 1.034c.47.19.97.29 1.478.29.507 0 1.01-.1 1.477-.3l2.48-1.04c.86-.36 1.42-1.2 1.42-2.13v-.19c.636 0 1.15-.52 1.15-1.15 0-.64-.514-1.15-1.15-1.15z"/><path id="Shape" fill="#623F33" d="M10.788 13.896c-.21 0-.384-.173-.384-.384v-.384c0-.21.173-.384.384-.384.21 0 .384.173.384.384v.384c0 .21-.173.384-.384.384zm5.376 0c-.21 0-.384-.173-.384-.384v-.384c0-.21.173-.384.384-.384.21 0 .384.173.384.384v.384c0 .21-.173.384-.384.384z"/><path id="Shape" fill="#7C5A49" d="M13.476 16.595c-.683 0-1.32-.168-1.752-.462-.175-.12-.22-.358-.1-.533.118-.175.357-.22.532-.1.302.204.796.327 1.32.327.525 0 1.018-.123 1.32-.328.176-.12.414-.08.534.1.12.17.074.41-.102.53-.43.29-1.07.46-1.752.46z"/><path id="Shape" fill="#956E55" d="M10.116 16.38c-.31-.335-.48-.775-.48-1.23V8.942c-.876.178-1.536.952-1.536 1.88v1.73c-.636 0-1.152.515-1.152 1.15 0 .637.516 1.153 1.152 1.153v.192c0 .93.56 1.77 1.418 2.127l2.48 1.034c.123.05.247.093.372.13-1.097-.802-1.826-1.503-2.254-1.96z"/><path id="Shape" fill="#623F33" d="M7.812 6.306l.288 4.902c.636 0 1.152-.516 1.152-1.152H17.7c0 .636.516 1.152 1.152 1.152l.29-4.902c.05-.882-.65-1.626-1.535-1.626H9.345c-.884 0-1.585.744-1.533 1.626zm11.136 5.862h-3.936c-.317 0-.576.258-.576.576v.02c-.244-.25-.584-.404-.96-.404s-.716.155-.96.405v-.02c0-.32-.258-.577-.576-.577H8.004c-.106 0-.192.086-.192.192 0 .106.086.192.192.192h1.09c-.022.06-.034.125-.034.192v1.152c0 .318.258.576.576.576h2.304c.318 0 .576-.258.576-.576v-.192c0-.53.43-.96.96-.96s.96.43.96.96v.192c0 .318.26.576.576.576h2.304c.318 0 .576-.258.576-.576v-1.152c0-.067-.012-.132-.033-.192h1.08c.1 0 .19-.086.19-.192 0-.106-.09-.192-.2-.192zm-6.816 1.728c0 .106-.086.192-.192.192H9.636c-.106 0-.192-.086-.192-.192v-1.152c0-.106.086-.192.192-.192h2.304c.106 0 .192.086.192.192v1.152zm5.376-1.152v1.152c0 .106-.086.192-.192.192h-2.304c-.106 0-.192-.086-.192-.192v-1.152c0-.106.086-.192.192-.192h2.304c.106 0 .192.086.192.192z"/><path id="Shape" fill="#95B995" d="M17.7 26.952h2.15c.694 0 1.23-.607 1.145-1.295l-.08-.625-.407-3.263c-.073-.59-.477-1.08-1.038-1.27l-2.484-.83c-.274.61-1.892 1.9-3.51 1.9-1.618 0-3.236-1.29-3.51-1.9l-2.484.83c-.56.18-.965.68-1.038 1.26l-.365 2.92-.13.96c-.09.69.45 1.29 1.14 1.29h10.6z"/><path id="Shape" fill="#95B995" d="M13.092 20.424l.384 1.152-1.27.03z"/><path id="Shape" fill="#95B995" d="M13.86 20.424l-.384 1.152 1.27.03z"/><path id="Shape" fill="#79A67C" d="M13.092 20.424l-.886 1.182c-.14.187-.414.206-.58.04l-1.99-1.99.904-.904c.14-.14.365-.15.518-.024l2.034 1.696zm.768 0l.887 1.182c.14.187.413.206.578.04l1.99-1.99-.903-.904c-.14-.14-.365-.15-.517-.024l-2.035 1.696z"/><path id="Shape" fill="#79A67C" d="M13.86 20.424l-.384 1.152-.384-1.152v6.528h.768zm-7.096.584c-.17.216-.285.477-.32.76l-.486 3.89c-.086.687.45 1.294 1.143 1.294h2.16v-2.5c0-.37-.13-.726-.37-1.005l-2.11-2.44zm13.424 0c.17.216.285.477.32.76l.487 3.89c.085.687-.45 1.294-1.144 1.294H17.7v-2.5c0-.37.133-.726.375-1.005l2.113-2.44z"/></g></g></g></g><g id="Tutor-1"><g id="boy-(2)" transform="translate(114 95)"><mask id="mask-7" fill="#fff"><use xlink:href="#path-6"/></mask><use id="Mask" fill="#CECECE" xlink:href="#path-6"/><g id="Layer_1" mask="url(#mask-7)"><g id="Group" fill-rule="nonzero"><path id="Shape" fill="#FFD7A3" d="M21.104 25.814l-.496-3.956c-.075-.598-.486-1.1-1.058-1.29l-1.91-.635c-.263-.087-.55-.032-.753.14l-.562-.187c-.32-.106-.536-.405-.536-.74v-1.26l1.68-.703c.87-.364 1.44-1.217 1.44-2.164v-.39c.65 0 1.17-.53 1.17-1.18 0-.32-.13-.61-.34-.82l.41-3.3c.19-1.54-.53-3.05-1.85-3.87-.63-.4-1.37-.61-2.12-.61h-5.62c-.82.04-1.53.5-1.92 1.17h-.11c-1.16 0-2.12.98-1.99 2.13v.02l.55 4.45c-.21.21-.34.5-.34.82 0 .65.52 1.17 1.17 1.17V15c0 .945.57 1.8 1.45 2.16l1.69.705v1.26c0 .336-.22.635-.54.74l-.56.19c-.2-.17-.49-.228-.75-.14l-1.91.635c-.57.19-.98.69-1.06 1.285L5.78 25.8c-.09.7.457 1.32 1.164 1.32h12.99c.71 0 1.255-.62 1.168-1.32z"/><path id="Shape" fill="#FDC88E" d="M11.093 19.145c0 .02 0 .038-.002.057v.052l-.01.045c-.04.21-.17.4-.36.51 3.28.56 5.08-1.96 5.08-1.96h-4.7v1.29z"/><path id="Shape" fill="#734A3E" d="M18.325 5.466c-.634-.396-1.367-.605-2.115-.605h-.03v8.21h3.523l.467-3.73c.192-1.54-.527-3.05-1.845-3.87z"/><path id="Shape" fill="#623F33" d="M6.565 8.16c0 .01.002.018.003.026l.61 4.88h2.35V6.033h-.97c-1.156 0-2.123.982-1.993 2.128z"/><path id="Shape" fill="#FFE1B2" d="M18.92 12.284v-.78c0-1.08-.876-1.955-1.957-1.955H9.92c-1.082 0-1.958.87-1.958 1.95v.78c-.65 0-1.174.52-1.174 1.17 0 .64.525 1.17 1.174 1.17v.39c0 .94.57 1.8 1.445 2.16l2.53 1.05c.476.2.987.3 1.504.3.52 0 1.03-.1 1.51-.3l2.53-1.06c.88-.36 1.45-1.22 1.45-2.16v-.39c.65 0 1.18-.53 1.18-1.18s-.52-1.17-1.17-1.17z"/><path id="Shape" fill="#623F33" d="M10.7 13.847c-.214 0-.39-.176-.39-.39v-.39c0-.216.176-.392.39-.392.217 0 .393.176.393.39v.392c0 .214-.176.39-.392.39zm5.48 0c-.215 0-.39-.176-.39-.39v-.39c0-.216.175-.392.39-.392.216 0 .392.176.392.39v.392c0 .214-.176.39-.39.39z"/><path id="Shape" fill="#E4B07B" d="M13.44 16.593c-.695 0-1.346-.17-1.785-.47-.178-.12-.225-.364-.103-.542.12-.17.365-.22.544-.1.307.21.81.34 1.345.34.54 0 1.04-.12 1.35-.33.18-.12.43-.07.55.11.13.18.08.43-.1.55-.44.3-1.09.47-1.78.47z"/><path id="Shape" fill="#FFD7A3" d="M16.963 9.55H9.92c-.136 0-.266.013-.393.04-.893.18-1.565.968-1.565 1.913v.78c-.65 0-1.174.526-1.174 1.174 0 .647.525 1.172 1.174 1.172v.39c0 .94.57 1.8 1.445 2.16l2.53 1.05c.122.05.25.09.377.13-1.118-.82-1.862-1.53-2.298-2-.317-.34-.49-.79-.49-1.25v-4.43c2.174 1.73 6.86 1.59 9.394 1.59v-.78c0-1.08-.876-1.96-1.957-1.96z"/><path id="Shape" fill="#734A3E" d="M16.18 4.86H10.7c-1.295 0-2.347 1.05-2.347 2.345 0 2.26 2.153 3.627 3.914 4.298 0 0-.196-.358-.46-.887 1.56.522 3.974.887 7.26.887V10.38c0-5.698-2.886-5.52-2.886-5.52zm2.756 7.032h-2.002c-.224-.123-.48-.194-.754-.194-.72 0-1.33.49-1.51 1.155-.224-.452-.69-.764-1.23-.764-.537 0-1.004.31-1.228.76-.18-.67-.79-1.16-1.51-1.16-.274 0-.53.07-.754.19H7.962c-.108 0-.196.08-.196.19s.088.19.196.19h1.52c-.216.27-.346.61-.346.98 0 .86.702 1.56 1.565 1.56.74 0 1.35-.51 1.52-1.18h.05c.11 0 .2-.09.2-.2 0-.54.44-.98.98-.98s.98.43.98.97c0 .11.09.19.2.19h.05c.18.68.79 1.18 1.52 1.18.87 0 1.57-.7 1.57-1.57 0-.37-.13-.71-.34-.97h1.54c.11 0 .19-.09.19-.2 0-.11-.08-.2-.19-.2zm-8.235 2.54c-.64 0-1.17-.524-1.17-1.17 0-.647.53-1.173 1.18-1.173.65 0 1.18.52 1.18 1.17 0 .64-.52 1.17-1.17 1.17zm5.48 0c-.64 0-1.17-.524-1.17-1.17 0-.647.53-1.173 1.18-1.173s1.18.52 1.18 1.17c0 .64-.52 1.17-1.17 1.17z"/><path id="Shape" fill="#B97E63" d="M13.44 22.345c1.595 0 2.982-.884 3.695-2.19l-.81-.27c-.08-.025-.15-.063-.216-.11-.55.896-1.54 1.496-2.67 1.496s-2.12-.6-2.67-1.49c-.07.05-.14.09-.22.11l-.81.27c.71 1.31 2.1 2.19 3.69 2.19z"/><path id="Shape" fill="#FFA64E" d="M21.104 25.814l-.496-3.956c-.075-.598-.486-1.1-1.058-1.29l-1.91-.635c-.333-.11-.707.008-.895.303-.694 1.09-1.913 1.816-3.304 1.816-1.39 0-2.61-.725-3.3-1.816-.18-.295-.56-.414-.89-.303l-1.91.636c-.57.19-.98.69-1.06 1.28l-.49 3.95c-.09.7.46 1.32 1.17 1.32h12.99c.71 0 1.26-.62 1.17-1.32z"/><path id="Shape" fill="#FF8C51" d="M6.6 21.084c-.174.22-.29.485-.326.774l-.495 3.956c-.09.7.45 1.318 1.16 1.318h2.19V24.59c0-.377-.14-.74-.39-1.025l-2.15-2.48zm13.682 0c.174.22.29.485.326.774l.496 3.956c.087.7-.46 1.318-1.166 1.318h-2.192V24.59c0-.377.136-.74.382-1.025l2.154-2.48z"/></g></g></g></g><path id="Rectangle-65" fill="#FFF" d="M97 66h168v14H97z"/><path id="Rectangle-66" fill="url(#linearGradient-8)" d="M90 66h95v14H90z"/><path id="Notifying-all-qualif" fill="#4A4A4A" d="M144.697 54.29h.01v-2.992h.387v3.512h-.483l-2.21-3.02h-.01v3.02H142v-3.512h.483l2.214 2.99zm3.883-.64c0 .174-.033.336-.1.485-.065.15-.158.278-.276.387-.118.11-.26.194-.424.255-.165.06-.346.092-.543.092-.193 0-.372-.04-.537-.1-.165-.06-.306-.15-.424-.26-.118-.11-.21-.24-.277-.39-.07-.15-.1-.31-.1-.49s.03-.34.1-.49c.06-.15.15-.28.27-.39.12-.11.26-.2.42-.26.16-.06.34-.09.53-.09s.38.03.54.09c.16.06.3.14.42.25.11.11.21.24.27.39.06.15.1.31.1.48zm-.387 0c0-.13-.022-.252-.067-.366-.045-.114-.108-.213-.19-.297-.083-.085-.183-.152-.3-.2-.12-.05-.252-.076-.4-.076-.146 0-.277.03-.394.08-.116.05-.215.12-.298.2-.082.09-.146.19-.19.3-.045.12-.068.24-.068.37s.023.25.068.37c.044.12.108.22.19.3.083.09.182.15.298.2.117.05.248.07.395.07.147 0 .28-.02.398-.07s.218-.11.3-.2c.083-.08.146-.18.19-.29.046-.11.068-.23.068-.36zm2.305-.88h-.71v1.355c0 .086.01.157.028.213.017.057.043.1.077.132.034.03.075.053.12.064.048.012.098.018.152.018.05 0 .103-.007.158-.02.056-.013.11-.032.16-.055l.015.293c-.065.023-.132.04-.202.052-.07.01-.146.017-.228.017-.068 0-.14-.01-.215-.03-.075-.02-.145-.05-.21-.1-.064-.05-.117-.11-.158-.19-.04-.08-.062-.19-.062-.31v-1.45h-.52v-.28h.52v-.66h.366v.65h.7v.28zm.94 2.04h-.365v-2.322h.365v2.322zm.075-3.215c0 .07-.027.127-.08.17-.054.046-.113.068-.178.068-.064 0-.123-.022-.177-.067-.054-.044-.08-.1-.08-.17s.026-.127.08-.172c.054-.045.113-.067.177-.067.065 0 .124.022.177.067.054.045.08.102.08.17zm1.96 1.176h-.59v2.04h-.366v-2.04h-.526v-.28h.53v-.63c0-.26.07-.47.21-.62.14-.15.36-.23.65-.23.05 0 .1.01.15.01.06.01.11.02.15.03l-.06.3c-.04-.01-.08-.02-.12-.02-.04-.01-.08-.01-.13-.01-.09 0-.17.01-.24.04-.06.03-.11.08-.14.13-.03.05-.05.12-.07.19-.01.07-.02.15-.02.23v.6h.6v.29zm1.386 1.68h.01l.78-1.96h.39l-1.25 2.93c-.08.18-.17.32-.29.43-.12.11-.29.16-.51.16-.11 0-.22-.01-.33-.03l.03-.3c.08.03.17.04.27.04.12 0 .22-.03.29-.1.07-.07.13-.17.18-.3l.2-.48-1.08-2.32h.41l.85 1.96zm2.12.37h-.37V52.5h.36v2.32zm.07-3.21c0 .07-.03.13-.08.17-.06.05-.12.07-.18.07-.07 0-.13-.02-.18-.06-.06-.04-.08-.1-.08-.17s.02-.12.08-.17c.05-.04.11-.06.17-.06.06 0 .12.03.17.07.05.05.08.1.08.17zm1.22.9c.01.07.01.13.01.21v.19h.01c.07-.13.19-.24.35-.33.16-.08.33-.12.51-.12.32 0 .55.09.71.26.16.18.24.41.24.7v1.43h-.37v-1.29c0-.12-.02-.23-.04-.33s-.06-.18-.11-.25-.12-.12-.21-.16c-.09-.04-.2-.06-.33-.06-.1 0-.19.02-.28.06-.09.04-.17.09-.25.17-.07.08-.13.17-.17.28-.05.12-.07.25-.07.41v1.19h-.37V53c0-.064 0-.145-.01-.244-.01-.1-.01-.19-.02-.268h.35zm2.93 2.79c.1.12.23.22.41.31.17.08.35.13.55.13.18 0 .33-.02.45-.07.12-.04.23-.11.3-.19.07-.08.13-.18.17-.29.03-.11.05-.23.05-.35v-.44h-.01c-.1.15-.24.26-.41.34-.18.08-.36.12-.54.12-.2 0-.38-.03-.54-.09-.16-.06-.3-.14-.41-.24-.11-.1-.2-.23-.26-.37s-.1-.3-.1-.47c0-.17.03-.32.09-.47.06-.15.15-.28.26-.38.11-.11.25-.19.41-.26.16-.06.33-.09.53-.09.19 0 .36.04.54.12.18.08.31.2.41.34h.01v-.4h.36v2.3c0 .13-.02.26-.06.4-.04.15-.11.28-.21.4-.1.12-.24.22-.41.3-.18.08-.41.12-.69.12-.24 0-.46-.04-.67-.12-.21-.08-.39-.2-.54-.34l.26-.25zm.07-1.65c0 .12.02.24.06.35.04.11.1.21.18.29.08.09.18.15.29.2.12.05.25.08.4.08.14 0 .27-.02.38-.06.12-.04.22-.1.31-.18.08-.08.15-.17.2-.28.04-.11.07-.24.07-.37s-.03-.24-.07-.35c-.05-.11-.12-.21-.21-.29-.09-.08-.19-.15-.31-.2-.12-.05-.25-.07-.39-.07-.15 0-.29.03-.41.08s-.22.12-.3.2c-.08.08-.15.18-.19.29-.05.11-.07.22-.07.35zm6.11-.3c0-.2-.06-.35-.17-.45-.12-.1-.28-.15-.5-.15-.15 0-.29.03-.42.08s-.24.12-.33.2l-.2-.22c.1-.09.24-.17.41-.24.17-.06.36-.09.57-.09.13 0 .26.02.38.05.11.04.22.09.31.16s.16.16.21.26c.05.11.07.23.07.37v1.02c0 .09 0 .18.01.28 0 .1.01.18.03.24h-.33l-.03-.18c-.01-.07-.01-.13-.01-.19h-.01c-.11.16-.24.27-.39.34-.14.07-.32.1-.52.1-.1 0-.2-.01-.3-.04-.1-.02-.2-.06-.28-.12-.09-.06-.16-.13-.21-.22-.06-.09-.09-.2-.09-.33 0-.18.05-.32.14-.42.1-.1.23-.18.39-.23.16-.05.35-.08.57-.1.21-.01.43-.02.66-.02v-.08zm-.11.34c-.15 0-.3.01-.46.02-.15.01-.29.04-.41.07-.13.03-.23.09-.31.15-.08.07-.12.16-.12.26 0 .08.02.15.05.21.03.06.08.1.13.14.06.04.12.06.19.08s.14.02.21.02c.13 0 .24-.02.34-.06.1-.04.18-.1.25-.17s.12-.15.15-.24.05-.19.05-.29v-.18h-.11zm1.76 1.16h-.37V51.1h.36v3.75zm1.35 0h-.37V51.1h.36v3.75zm4.38-.39c-.11.15-.25.26-.42.34-.18.08-.35.12-.53.12-.2 0-.38-.03-.54-.09-.16-.06-.3-.15-.41-.26-.12-.11-.2-.23-.27-.38-.06-.15-.1-.31-.1-.48 0-.17.03-.34.09-.48.06-.15.15-.27.26-.38.11-.11.25-.2.41-.26.15-.06.33-.09.53-.09.18 0 .35.04.53.12.17.08.31.19.41.34h.01v-.4h.36V56h-.37v-1.582h-.01zm-1.86-.77c0 .13.02.25.06.37.04.12.11.22.19.3.08.09.18.15.3.2.11.05.25.07.4.07.14 0 .27-.02.39-.07.11-.05.22-.11.3-.19.08-.08.15-.18.2-.29.05-.11.07-.23.07-.37 0-.13-.03-.25-.08-.37-.05-.11-.12-.21-.2-.29-.09-.08-.19-.15-.31-.2-.12-.04-.25-.07-.39-.07-.15 0-.29.03-.4.08-.12.05-.22.12-.3.2-.08.09-.15.19-.19.3-.04.11-.06.23-.06.36zm5.03 1.17l-.02-.21-.01-.19h-.01c-.07.14-.19.25-.35.33-.16.09-.33.13-.51.13-.32 0-.56-.09-.72-.26-.16-.17-.24-.4-.24-.69V52.5h.37v1.285c0 .126.01.237.03.336.02.1.06.19.11.26s.12.13.21.17c.09.04.2.06.33.06.09 0 .19-.02.28-.05.09-.03.17-.09.24-.16.07-.07.13-.17.17-.28.04-.11.06-.25.06-.4v-1.2h.36v1.81c0 .06 0 .14.01.24l.01.27h-.35zm2.88-1.5c0-.2-.06-.35-.17-.45-.12-.1-.28-.15-.5-.15-.15 0-.29.03-.42.08s-.24.12-.33.2l-.21-.22c.1-.09.24-.17.41-.23.17-.06.36-.09.58-.09.14 0 .26.02.38.05.12.04.22.09.31.16s.16.16.21.27c.05.11.08.23.08.37v1.01c0 .09 0 .18.01.28 0 .1.02.18.03.25h-.33c-.01-.06-.02-.12-.03-.19-.01-.06-.01-.13-.01-.19h-.01c-.12.16-.25.27-.39.34-.15.07-.32.1-.53.1-.1 0-.2-.01-.3-.04-.11-.02-.2-.06-.28-.12-.09-.05-.16-.13-.21-.22-.06-.09-.09-.2-.09-.33 0-.18.05-.32.15-.42.1-.11.23-.18.4-.23.16-.05.35-.08.57-.1.21-.01.43-.02.66-.02v-.07zm-.11.34c-.15 0-.31.01-.46.02-.15.01-.29.04-.42.07-.12.04-.23.09-.3.15-.08.07-.12.16-.12.27 0 .08.01.15.05.21.03.06.08.1.14.14.05.03.12.06.19.07.07.02.14.02.21.02.13 0 .24-.02.34-.06.1-.04.18-.09.25-.17.07-.07.12-.15.16-.24.03-.09.05-.19.05-.29v-.17h-.11zm1.76 1.16h-.37V51.1h.36v3.75zm1.35 0h-.37V52.5h.36v2.322zm.08-3.21c0 .07-.03.13-.08.17-.06.05-.12.07-.18.07-.07 0-.13-.02-.18-.06-.06-.04-.08-.1-.08-.17s.02-.13.08-.17c.05-.05.11-.07.18-.07.06 0 .12.02.17.07.05.05.08.1.08.17zm2.84 3.22h-.37V52.5h.36v2.32zm.08-3.21c0 .07-.03.12-.08.17-.06.04-.12.07-.18.07-.07 0-.13-.02-.18-.06-.06-.05-.08-.1-.08-.17s.02-.13.08-.17c.05-.04.11-.06.17-.06.07 0 .13.02.18.07.05.04.08.1.08.17zm-.97 1.17h-.59v2.04h-.37V52.8h-.52v-.29h.52v-.634c0-.265.07-.474.21-.626.14-.152.35-.23.64-.23.04 0 .09 0 .15.007.05 0 .1.01.15.02l-.07.3c-.04-.01-.08-.014-.12-.02-.04-.01-.08-.01-.13-.01-.1 0-.18.014-.24.044s-.11.07-.15.13c-.04.05-.06.12-.07.19-.01.07-.02.15-.02.23v.6h.59v.28zm3.77.7c-.01-.22-.09-.4-.23-.54s-.34-.22-.61-.22c-.12 0-.24.03-.34.07-.1.05-.19.1-.27.17-.08.07-.14.15-.19.25-.05.09-.08.19-.08.29h1.71zm.37.11v.08c0 .03 0 .06-.01.09h-2.09c0 .12.03.23.08.33.04.11.11.19.19.27.08.08.18.14.29.18.11.05.23.07.36.07.19 0 .35-.04.49-.12.14-.08.24-.17.31-.28l.27.2c-.15.17-.32.3-.5.38-.18.08-.38.11-.58.11-.19 0-.36-.03-.52-.09-.16-.06-.3-.15-.41-.26-.12-.11-.21-.23-.27-.38-.07-.15-.1-.31-.1-.48s.03-.34.1-.49c.06-.15.15-.28.26-.39.11-.11.25-.19.4-.25.15-.06.32-.09.5-.09.19 0 .37.03.52.09.15.06.27.14.37.24.1.11.17.23.22.37.05.14.08.29.08.45zm2.85.84c-.11.15-.25.26-.42.34-.17.08-.35.11-.53.11-.2 0-.38-.03-.54-.09-.16-.06-.3-.15-.41-.25-.12-.11-.2-.23-.27-.38-.06-.15-.09-.31-.09-.48 0-.17.03-.33.09-.48.06-.15.15-.28.26-.39.12-.11.25-.2.41-.26.16-.07.34-.1.54-.1.18 0 .36.04.53.12.17.07.31.19.42.34h.01V51.1h.36v3.75h-.36v-.39h-.01zm-1.87-.77c0 .13.02.25.07.37.04.11.1.21.18.3.08.08.18.15.3.2.12.05.25.07.4.07.14 0 .27-.02.38-.07.12-.05.22-.12.31-.2.08-.08.15-.18.2-.29.05-.11.07-.24.07-.37s-.03-.25-.08-.37c-.05-.11-.12-.21-.2-.3-.09-.09-.19-.15-.31-.2-.12-.05-.25-.07-.39-.07-.15 0-.29.02-.4.07-.12.05-.22.12-.3.2-.08.09-.14.19-.19.3-.05.12-.07.24-.07.37zm5.7-.87h-.7v1.35c0 .08.01.15.02.21.02.06.04.1.08.13.03.03.07.05.12.06.05.02.1.02.15.02.05 0 .11 0 .16-.02.06-.01.11-.03.16-.05l.02.29c-.06.03-.13.04-.2.06-.07.01-.15.02-.23.02-.07 0-.14-.01-.21-.03-.08-.02-.15-.05-.21-.1-.06-.04-.12-.11-.16-.19-.05-.08-.07-.18-.07-.31V52.8h-.52v-.28h.52v-.654h.37v.654h.71v.28zm2.39 2.04l-.02-.21c-.01-.08-.01-.14-.01-.19h-.01c-.07.14-.19.25-.35.33-.16.09-.33.13-.51.13-.32 0-.56-.09-.72-.27-.16-.17-.24-.41-.24-.69v-1.42h.37v1.29c0 .12.01.24.03.33.02.1.06.19.11.26s.12.13.21.17c.09.04.2.06.33.06.1 0 .19-.02.28-.05.09-.04.17-.09.24-.17.07-.08.13-.17.17-.28.04-.11.06-.25.06-.4v-1.2h.37v2.06s.01.19.02.27h-.35zm2.43-2.04h-.71v1.35c0 .08.01.15.03.21.01.06.04.1.07.13.03.03.07.05.12.06.04.02.09.02.15.02.05 0 .1 0 .16-.02.05-.01.11-.03.16-.05l.01.29c-.06.03-.13.04-.2.06-.07.01-.15.02-.23.02-.07 0-.14-.01-.22-.03-.07-.02-.14-.05-.21-.1-.06-.04-.12-.11-.16-.19-.04-.08-.06-.18-.06-.31V52.8h-.52v-.28h.52v-.654h.37v.654h.71v.28zm3.07.88c0 .17-.04.33-.1.48-.07.15-.16.27-.28.38-.12.11-.26.2-.42.26-.16.06-.34.09-.54.09-.19 0-.37-.03-.54-.09-.16-.06-.31-.14-.42-.25-.12-.11-.21-.23-.28-.38-.07-.15-.1-.31-.1-.48s.03-.33.1-.48c.06-.15.15-.27.27-.38.12-.11.26-.19.43-.25.16-.06.34-.09.53-.09s.38.03.54.09c.16.06.3.15.42.26.12.11.21.24.28.39.06.15.1.31.1.49zm-.39 0c0-.13-.02-.25-.07-.37-.04-.11-.11-.21-.19-.3-.08-.08-.18-.15-.3-.2-.12-.05-.25-.07-.4-.07-.14 0-.27.03-.39.08s-.22.12-.3.2c-.08.09-.15.19-.19.3-.05.12-.07.24-.07.37s.02.25.07.36c.04.12.11.22.19.3.08.09.18.15.3.2.11.05.24.07.39.07.15 0 .28-.02.4-.07s.22-.11.3-.2c.08-.08.15-.18.19-.3.05-.11.07-.23.07-.36zm1.17-.65v-.25c-.01-.1-.01-.19-.02-.27h.34l.01.21v.19h.01c.07-.14.18-.25.32-.33.14-.08.3-.13.48-.13.05 0 .09 0 .13.01.03 0 .07.01.11.02l-.05.32-.11-.02c-.05-.01-.1-.01-.15-.01-.1 0-.19.02-.28.05-.09.03-.17.09-.24.16-.07.07-.12.16-.16.27-.04.11-.07.24-.07.4v1.19h-.37V53zm3.27.04c-.05-.1-.13-.18-.24-.24-.11-.06-.24-.09-.38-.09-.06 0-.13.01-.19.02-.06.02-.12.04-.17.07-.05.03-.09.07-.12.12s-.04.1-.04.17c0 .11.05.2.14.25.1.06.25.11.46.15.29.06.51.14.65.25.14.11.21.25.21.43 0 .13-.03.25-.09.34-.06.09-.13.17-.22.23s-.19.1-.31.12c-.11.02-.23.04-.34.04-.19 0-.37-.03-.55-.11-.18-.07-.33-.18-.44-.34l.29-.2c.06.1.16.19.28.26.12.07.26.1.41.1.08 0 .15 0 .22-.01.07-.012.13-.035.184-.07.056-.03.1-.073.13-.124.035-.06.05-.12.05-.19 0-.13-.06-.22-.19-.28-.13-.06-.31-.12-.55-.17-.076-.02-.155-.04-.24-.07-.084-.022-.16-.06-.23-.11s-.13-.11-.177-.18c-.04-.07-.07-.16-.07-.27 0-.12.03-.22.08-.305.05-.08.11-.15.2-.204.08-.05.18-.09.29-.12.1-.02.21-.04.33-.04.17 0 .34.04.51.11.16.078.29.18.37.31l-.28.196zm1.75 1.53c0 .07-.03.13-.08.19-.06.06-.13.08-.21.08-.09 0-.16-.03-.21-.08-.06-.05-.08-.11-.08-.18 0-.07.02-.13.08-.19.05-.05.12-.08.21-.08.08 0 .15.03.21.08.05.06.08.12.08.19zm1.79 0c0 .07-.03.13-.08.19s-.12.08-.21.08-.16-.03-.21-.08c-.06-.05-.08-.11-.08-.18 0-.07.02-.13.08-.19.05-.05.12-.08.21-.08.08 0 .15.03.21.08.05.06.08.12.08.19zm1.79 0c0 .07-.03.13-.08.19-.06.06-.13.08-.21.08s-.16-.03-.21-.08c-.05-.05-.08-.11-.08-.18 0-.07.03-.13.08-.19.05-.05.12-.08.21-.08s.15.03.21.08c.05.06.08.12.08.19z"/><g id="girl-(1)" transform="translate(224 95)"><mask id="mask-10" fill="#fff"><use xlink:href="#path-9"/></mask><use id="Mask" fill="#CECECE" xlink:href="#path-9"/><g id="Layer_1" mask="url(#mask-10)"><g id="Group" fill-rule="nonzero" transform="translate(3.96 4.86)"><g id="Shape"><path fill="#734A3E" d="M18.528 17.16c-.36-.768-.05-.957-.272-1.768-.144-.528-.466-.74-.576-1.184-.105-.42.078-1.152-.032-1.504-.2-.636-.45-.803-.576-1.328-.128-.528.208-.928.096-1.488-.14-.702-.393-.99-.496-1.36-.192-.688-.133-.86-.112-1.424.048-1.28-.44-2.85-.816-3.648-.425-.902-.984-1.405-1.647-1.68H9.6v18.96c5.28.048 9.6-1.536 9.6-1.536-.016-1.376-.254-1.15-.672-2.04z"/><path fill="#623F33" d="M5.103 1.776c-.663.275-1.222.778-1.647 1.68-.376.797-.864 2.368-.816 3.648.02.564.08.736-.112 1.424-.103.37-.356.658-.496 1.36-.112.56.224.96.096 1.488-.127.525-.377.692-.576 1.328-.11.352.073 1.084-.032 1.504-.11.443-.432.656-.576 1.184-.22.81.088 1-.272 1.768-.418.89-.656.664-.672 2.04 0 0 4.32 1.584 9.6 1.536V1.776H5.103z"/></g><g id="Shape"><path fill="#FDC88E" d="M16.722 20.968l-.143-1.075-.32-2.355c-.09-.64-.49-1.195-1.07-1.476l-1.48-.714c-.15-.07-.32-.006-.39.135l-.9-.332c-.32-.1-.53-.39-.53-.72v-1.24l1.65-.69c.86-.36 1.42-1.19 1.42-2.12v-.39c.63 0 1.15-.51 1.15-1.15s-.52-1.15-1.15-1.15C13.59 6.31 9.67 6.53 9.6 4.67c-.07 1.865-4 1.64-5.378 3.02-.636 0-1.152.516-1.152 1.152 0 .635.517 1.15 1.153 1.15v.384c0 .93.56 1.77 1.418 2.13l1.66.69v1.23c0 .33-.21.62-.52.73l-.9.33c-.07-.14-.24-.21-.38-.14l-1.48.714c-.58.28-.98.836-1.07 1.476l-.31 2.357-.14 1.076c-.09.69.45 1.3 1.15 1.3H15.6c.696 0 1.233-.62 1.14-1.31z"/><path fill="#F5B97A" d="M7.296 13.152v1.27c0 .274-.145.52-.372.658 3.212.555 4.98-1.928 4.98-1.928H7.296z"/></g><path id="Shape" fill="#00BEA4" d="M16.722 20.968l-.457-3.43c-.085-.64-.487-1.195-1.07-1.476l-1.48-.714c-.15-.072-.325-.002-.392.15-.97 2.2-2.635 3.222-3.723 3.702-1.088-.48-2.752-1.503-3.723-3.703-.067-.15-.242-.22-.39-.15l-1.483.715c-.582.28-.983.836-1.07 1.476l-.456 3.43c-.092.69.445 1.304 1.142 1.304h11.96c.697 0 1.234-.614 1.142-1.304z"/><ellipse id="Oval" cx="4.224" cy="8.832" fill="#FDC88E" rx="1.152" ry="1.152"/><path id="Shape" fill="#FFD7A3" d="M14.976 7.68v-.768c0-1.06-.86-1.92-1.92-1.92H6.144c-1.06 0-1.92.86-1.92 1.92v.768c-.636 0-1.152.516-1.152 1.152 0 .636.516 1.152 1.152 1.152v.384c0 .93.56 1.77 1.418 2.127l2.48 1.034c.47.19.97.29 1.478.29.507 0 1.01-.1 1.477-.3l2.48-1.04c.86-.36 1.42-1.2 1.42-2.13v-.38c.635 0 1.15-.52 1.15-1.15 0-.64-.515-1.16-1.15-1.16z"/><path id="Shape" fill="#FDC88E" d="M9.98 4.752l-.572-.336s-.99 1.274-3.648 1.92C4.428 6.66 4.224 7.68 4.224 7.68c-.636 0-1.152.516-1.152 1.152 0 .636.516 1.152 1.152 1.152v.384c0 .93.56 1.77 1.418 2.127l2.48 1.034c.122.05.246.09.372.13-1.097-.81-1.827-1.51-2.254-1.96-.31-.34-.48-.78-.48-1.23V7.63c1.056-.784 3.696-.688 4.22-2.88z"/><path id="Shape" fill="#623F33" d="M6.912 9.216c-.21 0-.384-.173-.384-.384v-.384c0-.21.173-.384.384-.384.21 0 .384.173.384.384v.384c0 .21-.173.384-.384.384zm5.376 0c-.21 0-.384-.173-.384-.384v-.384c0-.21.173-.384.384-.384.21 0 .384.173.384.384v.384c0 .21-.173.384-.384.384z"/><path id="Shape" fill="#E4B07B" d="M9.6 11.915c-.683 0-1.32-.168-1.752-.462-.175-.12-.22-.358-.1-.533.118-.175.357-.22.532-.1.302.204.795.327 1.32.327s1.018-.123 1.32-.328c.176-.12.414-.08.533.1.12.17.074.41-.1.53-.432.29-1.07.46-1.753.46z"/><path id="Shape" fill="#00AB9A" d="M9.845 19.72c1.855-.87 3.275-2.34 4.132-4.245l-.263-.127c-.15-.072-.324-.002-.39.15-.972 2.2-2.636 3.222-3.724 3.702-1.088-.48-2.752-1.503-3.723-3.703-.067-.15-.242-.22-.39-.15l-.264.128C6.08 17.38 7.5 18.85 9.355 19.72l.245.117.245-.116zm-4.47.907c0-.427-.14-.842-.403-1.18l-1.89-2.427c-.07.164-.123.337-.147.518l-.457 3.43c-.092.69.445 1.304 1.142 1.304h1.756v-1.645zm8.45 0c0-.427.14-.842.403-1.18l1.89-2.427c.07.164.123.337.147.518l.457 3.43c.092.69-.445 1.304-1.142 1.304h-1.756v-1.645z"/><path id="Shape" fill="#734A3E" d="M10.755 0c-.78 0-1.136.364-1.153.382C9.584.364 9.228 0 8.448 0c-2.124 0-6.84 2.928-4.992 7.296l.768.384C5.604 6.3 9.53 6.525 9.602 4.66 9.674 6.525 13.6 6.3 14.98 7.68l.767-.384C17.595 2.928 12.88 0 10.755 0z"/><path id="Shape" fill="#623F33" d="M8.448 0c-2.124 0-6.84 2.928-4.992 7.296v.384h.768c.303-.303.73-.528 1.21-.716C5.688 2.424 8.144.032 9.6.384V.382C9.59.37 9.235 0 8.45 0z"/></g></g></g></g></g></svg>