<?xml version="1.0" encoding="utf-8"?>
<!-- Generator: Adobe Illustrator 19.0.0, SVG Export Plug-In . SVG Version: 6.00 Build 0)  -->
<svg version="1.1" id="Layer_1" xmlns="http://www.w3.org/2000/svg" xmlns:xlink="http://www.w3.org/1999/xlink" x="0px" y="0px"
	 viewBox="2479.6364746 -194.9777832 1151.4736328 1114.5217285"
	 style="enable-background:new 2479.6364746 -194.9777832 1151.4736328 1114.5217285;" xml:space="preserve">
<style type="text/css">
	.st0{fill:#E71C23;}
	.st1{clip-path:url(#SVGID_2_);fill:url(#SVGID_3_);}
</style>
<g>
	<path d="M2561.2624512,913.2231445l1.1860352-18.0221558c-7.5422363,3.3406982-18.9855957,5.7605591-27.5222168,5.7605591
		c-27.3093262,0-36.4436035-16.5279541-30.6188965-45.6872559c5.2434082-26.1845703,21.1328125-46.2475586,47.3198242-46.2475586
		c9.1013184,0,17.7067871,1.4898071,26.2531738,4.2799683l5.947998-18.5678101
		c-8.3349609-2.0501099-17.6828613-3.5355225-26.9790039-3.5355225c-42.1523438,0-67.5229492,28.4197388-75.3120117,67.4115601
		c-6.6862793,33.4257202,3.3144531,60.5494995,45.2790527,60.5494995
		C2538.9001465,919.1644287,2551.0529785,916.9248657,2561.2624512,913.2231445L2561.2624512,913.2231445z"/>
	<path d="M2647.4624023,823.5187378c-16.9331055-1.670105-28.5114746,9.8319702-35.1054688,22.2835693h-0.3652344
		c2.7165527-7.0608521,4.9018555-15.2227783,5.947998-20.4235229h-18.9453125l-18.4475098,92.3050537h19.8710938
		l7.5021973-37.5209961c5.519043-27.6694336,16.9978027-40.4864502,34.7233887-37.1506348L2647.4624023,823.5187378
		L2647.4624023,823.5187378z"/>
	<polygon points="2663.8620605,917.6838379 2682.3093262,825.3787842 2662.4389648,825.3787842 2643.9892578,917.6838379 	"/>
	<path class="st0" d="M2691.3371582,799.1947021c1.5209961-7.6210938-3.5275879-13.4481812-10.9519043-13.4481812
		c-7.6206055,0-15.0351563,6.0263672-16.5134277,13.4481812c-1.4853516,7.4116821,3.5185547,13.4385376,11.1489258,13.4385376
		C2682.4445801,812.6332397,2689.8591309,806.6063843,2691.3371582,799.1947021L2691.3371582,799.1947021z"/>
	<path d="M2750.560791,914.5142212l1.7106934-16.9025879c-5.9484863,2.7852783-13.8989258,4.4602051-20.9482422,4.4602051
		c-18.3879395,0-21.9536133-12.8169556-18.5822754-29.7147217c3.8984375-19.5031738,14.9238281-31.935791,31.8288574-31.935791
		c6.6813965,0,12.7053223,1.4805298,17.8662109,3.5257568l5.4946289-17.27771
		c-5.7629395-1.8600464-12.6220703-2.7755737-19.498291-2.7755737c-31.7695313,0-51.0756836,21.3584595-56.9362793,50.6937256
		c-6.5744629,32.8799438,8.359375,44.5769043,32.1303711,44.5769043
		C2733.8500977,919.1644287,2743.9575195,916.9248657,2750.560791,914.5142212L2750.560791,914.5142212z"/>
	<polygon points="2844.5407715,917.6838379 2817.7871094,867.5266724 2860.3879395,825.3787842 2836.0561523,825.3787842 
		2798.253418,864.9260254 2814.8022461,782.1021729 2794.9335938,782.1021729 2767.8383789,917.6838379 2787.7138672,917.6838379 
		2797.0576172,870.8765869 2819.2744141,917.6838379 	"/>
	<path d="M2939.0668945,863.4454346c4.3771973-21.9138184-3.3527832-39.9266968-29.729248-39.9266968
		c-26.9245605,0-46.3117676,20.8034668-51.8706055,48.6484375c-6.4963379,32.5053101,6.3110352,47.3675537,35.0981445,47.3675537
		c11.3344727,0,23.0810547-2.0404053,33.138916-5.946167l1.2932129-15.7825317
		c-8.3544922,3.715271-18.6398926,5.9456787-28.1064453,5.9456787c-18.3972168,0-25.923584-9.661499-21.1091309-31.024292
		h58.8745117C2937.7312012,869.2064819,2938.546875,866.0552979,2939.0668945,863.4454346L2939.0668945,863.4454346z
		 M2920.1306152,858.8044434h-39.203125c4.1638184-12.4418945,13.5856934-20.6227417,24.732666-20.6227417
		C2917.3664551,838.1817017,2923.0112305,846.1774292,2920.1306152,858.8044434L2920.1306152,858.8044434z"/>
	<path d="M2996.1760254,917.3043823l3.2741699-16.3428345c-3.7109375,0.9300537-8.2897949,1.4854126-12.3757324,1.4854126
		c-9.286377,0-11.3266602-3.7157593-8.5769043-17.453064l8.8261719-44.2120361h24.1442871l3.081543-15.4030762h-24.3361816
		l6.9448242-34.7351685l-20.7578125,5.3907471l-5.869873,29.3444214h-17.645752l-3.0698242,15.4030762h17.6333008
		l-10.057373,50.3330688c-4.1118164,20.6184082,0.3056641,28.2297974,19.9938965,28.2297974
		C2983.5087891,919.3447266,2990.5788574,918.4146729,2996.1760254,917.3043823L2996.1760254,917.3043823z"/>
	<path d="M3136.671875,913.2231445l1.1767578-18.0221558c-7.5354004,3.3406982-18.9714355,5.7605591-27.5134277,5.7605591
		c-27.2944336,0-36.434082-16.5279541-30.6162109-45.6872559c5.2387695-26.1845703,21.135498-46.2475586,47.3103027-46.2475586
		c9.1062012,0,17.7189941,1.4898071,26.2695313,4.2799683l5.9365234-18.5678101
		c-8.3232422-2.0501099-17.6762695-3.5355225-26.9672852-3.5355225c-42.1572266,0-67.4968262,28.4197388-75.2839355,67.4115601
		c-6.6813965,33.4257202,3.3173828,60.5494995,45.2556152,60.5494995
		C3114.3120117,919.1644287,3126.4648438,916.9248657,3136.671875,913.2231445L3136.671875,913.2231445z"/>
	<path d="M3242.2302246,869.7565308c6.4963379-32.5-8.2045898-46.2426758-32.9086914-46.2426758
		c-28.0441895,0-50.328125,21.3584595-55.8991699,49.2086792c-6.4914551,32.5004883,7.3742676,46.8121948,32.9985352,46.8121948
		C3213.7255859,919.534729,3236.5595703,898.1762695,3242.2302246,869.7565308L3242.2302246,869.7565308z M3221.5458984,871.0616455
		c-4.270752,21.3584595-17.0456543,31.3804932-29.8620605,31.3804932c-15.4128418,0-21.387207-10.9472046-17.2446289-31.7555542
		c4.2375488-21.1733398,17.7854004-30.4547729,29.8618164-30.4547729
		C3220.0932617,840.2318115,3225.4841309,851.3733521,3221.5458984,871.0616455L3221.5458984,871.0616455z"/>
	<path d="M3329.1494141,917.6838379l18.449707-92.3050537h-19.8637695l-8.9116211,44.567749
		c-3.6730957,18.3831787-16.8217773,33.0602417-30.7492676,33.0602417c-10.5915527,0-12.4042969-6.6765137-10.1074219-18.1980591
		l11.8820801-59.4299316H3270.15625l-12.9165039,64.6404419c-3.2648926,16.3330688,0.5976563,29.5247192,21.5905762,29.5247192
		c15.6027832,0,28.3771973-8.1760254,36.1308594-20.0629883l0.1564941,0.1900024
		c-1.9743652,5.1958618-3.934082,13.1824341-4.9111328,18.0128784H3329.1494141L3329.1494141,917.6838379z"/>
	<path d="M3433.0993652,917.6838379l12.916748-64.6399536c3.2644043-16.3427734-0.5981445-29.5251465-21.581543-29.5251465
		c-15.6027832,0-28.3769531,8.1716309-36.1447754,20.0537109l-0.1472168-0.1802368
		c1.9692383-5.2105103,3.9387207-13.1873169,4.9067383-18.0134277h-18.9433594l-18.4492188,92.3050537h19.8728027
		l8.9020996-44.5817871c3.6826172-18.3880005,16.8266602-33.0554199,30.7497559-33.0554199
		c10.5913086,0,12.4135742,6.6813965,10.1069336,18.1980591l-11.8723145,59.4299316h19.6833496V917.6838379z"/>
	<path d="M3519.8476563,914.5142212l1.7126465-16.9025879c-5.9504395,2.7852783-13.8894043,4.4602051-20.954834,4.4602051
		c-18.3833008,0-21.951416-12.8169556-18.5825195-29.7147217c3.9008789-19.5031738,14.9287109-31.935791,31.8312988-31.935791
		c6.6911621,0,12.6984863,1.4805298,17.8706055,3.5257568l5.5-17.27771
		c-5.7653809-1.8600464-12.6367188-2.7755737-19.517334-2.7755737c-31.7458496,0-51.0686035,21.3584595-56.9245605,50.6937256
		c-6.5671387,32.8799438,8.3613281,44.5769043,32.1352539,44.5769043
		C3503.1394043,919.1644287,3513.2280273,916.9248657,3519.8476563,914.5142212L3519.8476563,914.5142212z"/>
	<path d="M3583.4626465,799.1947021c1.4091797-7.0656738-3.2648926-12.4515381-10.1452637-12.4515381
		c-7.046875,0-13.9177246,5.5753784-15.2939453,12.4515381c-1.371582,6.8708496,3.2644043,12.4321899,10.3259277,12.4321899
		C3575.2109375,811.6268921,3582.0915527,806.0655518,3583.4626465,799.1947021L3583.4626465,799.1947021z M3556.998291,917.6838379
		l18.449707-92.3050537h-19.8735352l-18.4492188,92.3050537H3556.998291L3556.998291,917.6838379z"/>
	<polygon points="3603.3312988,917.6838379 3630.4172363,782.1021729 3610.5534668,782.1021729 3583.4577637,917.6838379 	"/>
	<polygon points="2538.5610352,731.944458 2563.6137695,606.5840454 2543.3657227,606.5840454 2518.317627,731.944458 	"/>
	<path d="M2650.5544434,731.944458l12.9208984-64.6398926c3.2648926-16.3336182-0.6074219-29.5203857-21.5908203-29.5203857
		c-15.5930176,0-28.3720703,8.1711426-36.1281738,20.0581055l-0.1491699-0.1851196
		c1.9665527-5.1958618,3.935791-13.1867676,4.887207-18.0177612h-18.9360352l-18.4350586,92.3050537h19.8728027
		l8.9025879-44.5769043c3.6748047-18.3783569,16.8266602-33.0559082,30.7443848-33.0559082
		c10.59375,0,12.4208984,6.6813354,10.1025391,18.2028809l-11.8654785,59.4251099h19.6743164V731.944458z"/>
	<path d="M2731.4729004,731.5698242l3.2648926-16.3287354c-3.7109375,0.9159546-8.2780762,1.4805908-12.3757324,1.4805908
		c-9.2844238,0-11.317627-3.7201538-8.5700684-17.453125l8.8286133-44.2114868h24.1342773l3.0822754-15.4176636h-24.3171387
		l6.9350586-34.7259521l-20.7580566,5.3858643l-5.8745117,29.3400879h-17.6335449l-3.0820313,15.4176636h17.6450195
		l-10.0690918,50.3233643c-4.1071777,20.6135254,0.3103027,28.2346191,19.9963379,28.2346191
		C2718.8007813,733.6150513,2725.8664551,732.6849976,2731.4729004,731.5698242L2731.4729004,731.5698242z"/>
	<path d="M2841.4353027,677.7157593c4.3605957-21.9186401-3.3571777-39.9315796-29.7270508-39.9315796
		c-26.9245605,0-46.3139648,20.798645-51.8776855,48.6581421c-6.4963379,32.5,6.3232422,47.3573608,35.1079102,47.3573608
		c11.3320313,0,23.0571289-2.0403442,33.1242676-5.9456787l1.3027344-15.7825317
		c-8.3518066,3.715332-18.6396484,5.9407959-28.1154785,5.9407959c-18.3811035,0-25.9333496-9.6517334-21.0974121-31.0101318
		h58.8696289C2840.0895996,683.4666138,2840.9060059,680.3208008,2841.4353027,677.7157593L2841.4353027,677.7157593z
		 M2822.4848633,673.0747681h-39.1889648c4.1687012-12.4515381,13.595459-20.6134644,24.732666-20.6134644
		C2819.7255859,652.4613037,2825.3913574,660.4429321,2822.4848633,673.0747681L2822.4848633,673.0747681z"/>
	<path d="M2925.3884277,637.7841797c-16.935791-1.6749268-28.5236816,9.8369141-35.0939941,22.2836304h-0.3745117
		c2.7167969-7.0516357,4.8994141-15.2276611,5.9389648-20.4284058h-18.9411621l-18.4301758,92.3050537h19.8728027
		l7.4880371-37.5161133c5.5307617-27.6694946,17.0070801-40.4865112,34.7236328-37.1409302L2925.3884277,637.7841797
		L2925.3884277,637.7841797z"/>
	<path d="M3009.4416504,731.944458l12.9257813-64.6398926c3.2600098-16.3336182-0.6074219-29.5203857-21.5908203-29.5203857
		c-15.5979004,0-28.3720703,8.1711426-36.1257324,20.0581055l-0.161377-0.1851196
		c1.9787598-5.1958618,3.9365234-13.1867676,4.8969727-18.0177612h-18.9453125l-18.4306641,92.3050537h19.8684082
		l8.9069824-44.5769043c3.6796875-18.3783569,16.8193359-33.0559082,30.7443848-33.0559082
		c10.5939941,0,12.4111328,6.6813354,10.107666,18.2028809l-11.8657227,59.4251099h19.6694336V731.944458z"/>
	<path d="M3106.7194824,731.944458c1.1860352-7.8013916,2.8994141-17.2728271,4.4890137-25.2685547l7.5402832-37.6867065
		c3.7727051-18.9482422-1.5661621-31.2050171-29.7954102-31.2050171c-11.8867188,0-23.8972168,2.6049805-33.6938477,6.1307983
		l-1.5117188,16.9074707c8.7456055-4.8309937,20.390625-7.4359741,28.9228516-7.4359741
		c14.482666,0,18.1269531,5.9553833,15.8349609,17.4628296l-1.1867676,5.9456787
		c-33.2165527,0-56.831543,12.2572021-61.0546875,33.4256592c-2.9348145,14.6819458,5.3051758,23.5888062,21.1047363,23.5888062
		c14.6342773,0,27.7783203-8.1760254,34.421875-19.1281128l0.1520996,0.1802979
		c-1.7463379,5.0107422-3.1555176,11.1420288-4.3513184,17.0925293h19.1279297V731.944458z M3094.2727051,692.0177612
		c-2.6335449,13.1775513-14.3354492,26.1845093-27.8691406,26.1845093c-7.7868652,0-11.7231445-4.4606934-10.3515625-11.3271484
		c1.6010742-7.9957886,9.6396484-16.7174683,38.5861816-16.7174683L3094.2727051,692.0177612L3094.2727051,692.0177612z"/>
	<path d="M3186.8669434,731.5698242l3.2746582-16.3287354c-3.7158203,0.9159546-8.2854004,1.4805908-12.3666992,1.4805908
		c-9.2910156,0-11.3408203-3.7201538-8.5842285-17.453125l8.8220215-44.2114868h24.1533203l3.0749512-15.4176636h-24.3244629
		l6.9328613-34.7259521l-20.7509766,5.3858643l-5.8747559,29.3400879h-17.6333008l-3.0847168,15.4176636h17.6433105
		l-10.0600586,50.3233643c-4.1191406,20.6135254,0.3037109,28.2346191,19.9873047,28.2346191
		C3174.2021484,733.6150513,3181.2580566,732.6849976,3186.8669434,731.5698242L3186.8669434,731.5698242z"/>
	<path d="M3259.8967285,613.4456177c1.4145508-7.0467529-3.2741699-12.4375-10.1455078-12.4375
		c-7.0510254,0-13.9223633,5.5661621-15.298584,12.4375c-1.3759766,6.8806152,3.2648926,12.4515991,10.3354492,12.4515991
		C3251.6589355,625.8972168,3258.5302734,620.3262329,3259.8967285,613.4456177L3259.8967285,613.4456177z M3233.4370117,731.944458
		l18.4401855-92.3050537h-19.8730469l-18.4399414,92.3050537H3233.4370117L3233.4370117,731.944458z"/>
	<path d="M3357.8015137,684.0360718c6.4819336-32.5145264-8.2285156-46.2518921-32.9228516-46.2518921
		c-28.0446777,0-50.328125,21.3584595-55.8942871,49.2179565c-6.4870605,32.5004883,7.3693848,46.7975464,32.9936523,46.7975464
		C3329.2729492,733.7996826,3352.1166992,712.4412842,3357.8015137,684.0360718L3357.8015137,684.0360718z
		 M3337.1120605,685.3174438c-4.270752,21.3584595-17.0498047,31.3945313-29.8666992,31.3945313
		c-15.407959,0-21.3920898-10.9520264-17.2302246-31.7550659c4.2182617-21.1732788,17.7807617-30.4552612,29.8620605-30.4552612
		C3335.659668,654.5016479,3341.0456543,665.6436768,3337.1120605,685.3174438L3337.1120605,685.3174438z"/>
	<path d="M3451.5395508,731.944458l12.9067383-64.6398926c3.2746582-16.3336182-0.5883789-29.5203857-21.5812988-29.5203857
		c-15.6022949,0-28.3674316,8.1711426-36.1303711,20.0581055l-0.142334-0.1851196
		c1.9504395-5.1958618,3.9291992-13.1867676,4.8876953-18.0177612h-18.9335938l-18.449707,92.3050537h19.8686523
		l8.9160156-44.5769043c3.6730957-18.3783569,16.817627-33.0559082,30.744873-33.0559082
		c10.5866699,0,12.4086914,6.6813354,10.1027832,18.2028809l-11.8730469,59.4251099h19.6835938V731.944458z"/>
	<path d="M3549.9277344,731.944458c1.1865234-7.8013916,2.8994141-17.2728271,4.4985352-25.2685547l7.5307617-37.6867065
		c3.7915039-18.9482422-1.5656738-31.2050171-29.7954102-31.2050171c-11.8820801,0-23.9162598,2.6049805-33.7202148,6.1307983
		l-1.5183105,16.9074707c8.7600098-4.8309937,20.4331055-7.4359741,28.9697266-7.4359741
		c14.4777832,0,18.1223145,5.9553833,15.8210449,17.4628296l-1.1862793,5.9456787
		c-33.2453613,0-56.862793,12.2572021-61.0957031,33.4256592c-2.932373,14.6819458,5.3242188,23.5888062,21.0976563,23.5888062
		c14.6818848,0,27.8215332-8.1760254,34.4838867-19.1281128l0.1376953,0.1802979
		c-1.7416992,5.0107422-3.1506348,11.1420288-4.3466797,17.0925293h19.123291V731.944458z M3537.4951172,692.0177612
		c-2.6477051,13.1775513-14.3398438,26.1845093-27.9018555,26.1845093c-7.7963867,0-11.7402344-4.4606934-10.3640137-11.3271484
		c1.5947266-7.9957886,9.6564941-16.7174683,38.6269531-16.7174683L3537.4951172,692.0177612L3537.4951172,692.0177612z"/>
	<polygon points="3604.0144043,731.944458 3631.1101074,596.3720093 3611.2365723,596.3720093 3584.1416016,731.944458 	"/>
</g>
<g>
	<g>
		<g>
			<defs>
				<path id="SVGID_1_" d="M3243.2409668-75.3614883c0,0,17.685791-15.8063049,31.7458496-24.7418137
					c0,0,6.9282227-4.232811,6.9990234-12.6202545c0,0,0.3513184-8.0311661-9.0773926-15.8943024
					c0,0-2.9040527-2.6758881-4.9587402-6.1166687c0,0-3.1604004-5.5753937,0.6455078-13.8656006
					c0,0,3.0368652-6.270752,9.5-8.5555725c0,0,3.0273438-1.2526398,10.7619629-3.1676331
					c0,0,4.7407227-0.6715393,7.4172363-2.9252167c3.0649414-2.6880951,3.3498535-8.3091583,1.7224121-12.1479034
					c0,0-2.206543-6.2114563-16.3476563-7.0895081c0,0-9.4812012-1.3571625-22.2365723,1.5942993
					c0,0-9.376709,1.7579803-22.1936035,7.0895081c-7.6347656,4.0952454-129.9299316,51.462326-210.3339844,288.8565063
					c0,0-35.1220703,109.656189-38.1779785,226.4324646c0,0-5.0087891,81.5881653,21.7880859,126.2122498
					c0,0,3.8740234,7.0895081,12.6936035,13.9511414c0,0,7.3950195,6.315918,15.1560059-0.5218811
					c0,0,7.7893066-6.0787964-0.239502-18.6868591c0,0-1.2434082-1.9077148-2.7687988-6.5389709
					c0,0-1.9050293-7.2508545,0.951416-14.0079956c0,0,3.4213867-11.3033752,17.298584-12.8170166
					c0,0,14.0319824,0.3795166,20.7041016-8.18573c0,0,6.5388184-9.2814636,4.3562012-22.7296753
					c0,0-1.6230469-17.2728882-3.1794434-40.0214844c-2.3635254-40.5817566,0.1137695-76.7241516,10.1645508-129.9659576
					c0,0,14.5773926-70.815918,29.1359863-106.5977936C3129.3354492,85.8022232,3156.4880371,7.8608789,3243.2409668-75.3614883z
					 M3350.854248-35.0693474c0,0-5.8081055-9.2819176,3.0273438-20.9764519c0,0,5.3051758-5.8795815,15.0998535-7.5521049
					c0,0,2.6098633-0.4174461,5.7316895-0.9562798c0,0,10.9619141-1.7152863,10.5915527-13.903511
					c0,0,0.21875-10.5084152-15.9345703-12.0745239c0,0-14.8713379-1.4232941-31.1428223,5.8319626
					c0,0-33.5874023,13.2655029-80.5273438,61.5154877c-35.5754395,36.7021484-79.9438477,112.9039993-104.6901855,194.3925781
					c-25.1928711,82.9448242-35.8696289,160.0553131-23.1384277,239.8567657c0,0,7.2888184,38.9729004,28.3154297,53.4697266
					c0,0,7.0515137,5.0914307,14.1601563,2.633667c0,0,3.9333496-1.7940063,5.3901367-4.2993774
					c1.6608887-2.6667175,3.3742676-7.9719543-0.0805664-12.8787231c0,0-1.0769043-1.7463684-2.6430664-4.1332092
					c0,0-3.4641113-5.2765503-4.213623-11.5404968c0,0-2.0263672-11.0040588,3.0654297-17.7232971
					c4.2182617-6.3305054,10.3256836-7.9767761,10.3256836-7.9767761
					c106.3034668-34.9820557,197.1657715-141.1386414,205.878418-272.6634216
					C3393.5192871,70.1902771,3382.7614746,16.7395325,3350.854248-35.0693474z M3026.4724121-21.0710354
					c35.3947754-64.2910385,94.3498535-120.6767044,111.1955566-135.1711578
					c11.5405273-10.6269684,9.8752441-20.0818787,9.8752441-20.0818787
					c-2.3964844-10.0054932-21.9658203-16.302475-47.0493164-18.2174683
					c-172.3935547-9.0394897-325.7058105,123.4911423-330.1286621,296.0719299
					c-1.4428711,56.4021988,7.027832,97.8022232,27.0314941,139.8028564
					c6.128418,12.5322571,20.3024902,8.9282074,21.8234863-1.4188843
					c4.0476074-79.2552948,31.0742188-177.9311981,58.3098145-226.5533905
					c18.2407227-30.4815006,36.9631348-61.2973557,60.8959961-41.1464272
					c9.8134766,10.4185677-5.1274414,28.3624668-20.9050293,62.3386765
					c-27.1716309,61.4489136-38.4060059,116.031311-46.4206543,155.6091614
					c-8.4208984,48.644104-11.2678223,99.5155792-7.3271484,141.8150482
					c3.5925293,62.0184326,31.0009766,100.9626465,48.1931152,89.009552
					c11.15625-9.4621887-6.8994141-18.7247314-1.4873047-30.3653259c0,0,3.3498535-6.7003174,10.9968262-6.714386
					c0,0,2.9304199,0.5218811,9.1015625,0.0947571c11.1916504-0.6832275,8.6293945-19.0376892,8.6293945-19.0376892
					c-5.9675293-64.9465637,7.1035156-146.0357361,7.1035156-146.0357361
					C2960.2614746,125.4228668,2991.0842285,43.2277756,3026.4724121-21.0710354z"/>
			</defs>
			<clipPath id="SVGID_2_">
				<use xlink:href="#SVGID_1_"  style="overflow:visible;"/>
			</clipPath>
			
				<radialGradient id="SVGID_3_" cx="3146.001709" cy="648.8970947" r="589.5735474" gradientTransform="matrix(1 0 0 -1 -0.0151 556.8451538)" gradientUnits="userSpaceOnUse">
				<stop  offset="0" style="stop-color:#C7EAFB"/>
				<stop  offset="0.25" style="stop-color:#00BCE4"/>
				<stop  offset="0.48" style="stop-color:#0081C6"/>
				<stop  offset="0.5008" style="stop-color:#007FB9"/>
				<stop  offset="0.5826" style="stop-color:#007791"/>
				<stop  offset="0.6563" style="stop-color:#007274"/>
				<stop  offset="0.7194" style="stop-color:#006E5F"/>
				<stop  offset="0.7694" style="stop-color:#006B52"/>
				<stop  offset="0.8" style="stop-color:#006A4E"/>
				<stop  offset="1" style="stop-color:#005C39"/>
			</radialGradient>
			<path class="st1" d="M2556.9038086-91.056572c0-327.0013733,264.0554199-591.0592041,588.9072266-591.0592041
				c325.2028809,0,589.2585449,264.0578308,589.2585449,591.0592041c0,325.0252686-264.0556641,589.0685425-589.2585449,589.0685425
				C2820.9543457,498.0216675,2556.9038086,233.968689,2556.9038086-91.056572z"/>
		</g>
	</g>
	<g>
		<path d="M3352.3537598,367.2607422c16.7224121,0,30.0563965,13.595459,30.0563965,30.5976563
			c0,17.2679749-13.324707,30.7399902-30.1894531,30.7399902c-16.7314453,0-30.3220215-13.4720154-30.3220215-30.7399902
			c0-17.0021973,13.5905762-30.5976563,30.3220215-30.5976563H3352.3537598z M3352.2207031,372.0251465
			c-13.4667969,0-24.4760742,11.5497437-24.4760742,25.833252c0,14.5487976,11.0092773,25.9663086,24.6091309,25.9663086
			c13.5998535,0.1419373,24.4760742-11.417511,24.4760742-25.8336792c0-14.4161377-10.8762207-25.9658813-24.4760742-25.9658813
			H3352.2207031z M3346.512207,415.6720581h-5.442627v-34.1326599c2.8515625-0.4033203,5.5805664-0.8163452,9.6516113-0.8163452
			c5.1628418,0,8.5700684,1.0870056,10.6152344,2.5865173c2.0263672,1.4995422,3.1274414,3.8056946,3.1274414,7.0700989
			c0,4.4893188-2.9990234,7.2036743-6.6721191,8.2950439v0.2750549c2.9897461,0.540802,5.0393066,3.2648621,5.7231445,8.2901917
			c0.8205566,5.3096008,1.6271973,7.3504639,2.1638184,8.4320984h-5.7043457
			c-0.8156738-1.0913696-1.6320801-4.2182312-2.3151855-8.7124634c-0.8164063-4.3465271-2.9899902-5.9694824-7.3457031-5.9694824
			h-3.8012695V415.6720581z M3346.512207,396.7670288h3.9436035c4.4890137,0,8.2946777-1.6229553,8.2946777-5.8460693
			c0-2.9898376-2.173584-5.9792175-8.2946777-5.9792175c-1.7653809,0-2.9897461,0.142395-3.9436035,0.2750549V396.7670288z"/>
	</g>
</g>
</svg>
