<?xml version="1.0" encoding="utf-8"?>
<!-- Generator: Adobe Illustrator 19.0.0, SVG Export Plug-In . SVG Version: 6.00 Build 0)  -->
<svg version="1.1" id="Layer_1" xmlns="http://www.w3.org/2000/svg" xmlns:xlink="http://www.w3.org/1999/xlink" x="0px" y="0px"
	 viewBox="2299.0078125 98.161293 1367.6699219 585.727417"
	 style="enable-background:new 2299.0078125 98.161293 1367.6699219 585.727417;" xml:space="preserve">
<style type="text/css">
	.st0{fill:#A6A8AA;}
	.st1{fill:#2D4F9E;}
</style>
<g>
	<path class="st0" d="M2767.5927734,274.166687l-58.2792969,58.2871094l-58.8630371-58.2871094l58.8630371-58.8630371
		L2767.5927734,274.166687z M2650.4504395,157.0243073l-58.2871094,58.2793427l-58.8630371-58.2793427l58.8630371-58.862999
		L2650.4504395,157.0243073z M2767.5927734,508.459198l-58.2792969,58.2871399l-58.8630371-58.2871399l58.8630371-58.8708191
		L2767.5927734,508.459198z M2650.4504395,391.3168335l-58.2871094,58.2715454l-58.8630371-58.2715454l58.8630371-58.8630371
		L2650.4504395,391.3168335z M2533.300293,274.166687l-58.2792969,58.2871094l-58.8708496-58.2871094l58.8708496-58.8630371
		L2533.300293,274.166687z M2650.4504395,625.593811l-58.2871094,58.2949219l-58.8630371-58.2948608l58.8630371-58.8474121
		l58.2871094,58.8474121V625.593811z M2533.300293,508.459198l-58.2792969,58.2871399l-58.8708496-58.2871399l58.8708496-58.8708191
		L2533.300293,508.459198z M2416.1501465,391.3168335l-58.2792969,58.2715454l-58.8630371-58.2715454l58.8630371-58.8630371
		L2416.1501465,391.3168335z"/>
	<path class="st1" d="M3249.4616699,345.7221069v88.8625793h48.4741211v-88.8625793H3249.4616699z M3198.0849609,296.096344
		h77.3374023c39.2446289,0,75.0263672,0.5758362,76.1779785,49.0499268
		c0.5759277,34.0462341-22.5131836,40.9721985-22.5131836,40.9721985s28.2873535,6.3501282,27.7116699,46.1627808
		c-0.5759277,53.6646423-53.6645508,50.2172241-72.7148438,50.7775269h-85.9990234V296.096344z M3412.7590332,296.096344h54.8242188
		v186.9624329h-54.8242188V296.096344z M2974.7651367,296.096344h75.6020508
		c45.0031738,0,75.026123,3.4629822,78.4736328,49.6257629c1.7353516,28.2797852-12.692627,50.2016296-12.692627,50.2016296
		l39.8205566,75.6020508l-45.5947266,24.2408752l-38.0771484-72.7149658v-76.7537842h-43.2834473v136.7607422h-54.248291V296.096344
		z M2771.0559082,390.1650696l56.5517578,56.5595093l55.9758301-56.5595093l-55.9758301-55.9758911L2771.0559082,390.1650696z
		 M2727.7724609,390.1650696c0-54.248291,45.5869141-97.5317078,99.8352051-97.5317078s99.8352051,43.2834167,99.8352051,97.5317078
		s-45.5869141,98.0920715-99.8352051,98.0920715s-99.8352051-43.8515625-99.8352051-98.0920105V390.1650696z
		 M3614.7407227,361.8775635c33.4702148-1.1517639,51.9370117,20.7779236,51.9370117,54.8163452
		c0,43.2834473-23.6650391,65.7967834-54.8242188,66.3570862h-88.2944336v-50.2016296h91.1816406V361.8775635z"/>
	<path class="st1" d="M3527.6057129,386.6943054c-5.1984863-8.6535645-8.661377-25.9685059,4.6225586-53.0887451
		l23.6494141-50.7775269l47.9060059,21.929657l-26.5522461,58.8630371v44.4351807
		C3577.2314453,408.0481262,3542.609375,410.9430542,3527.6057129,386.6943054z"/>
</g>
</svg>
