<?xml version="1.0" encoding="utf-8"?>
<!-- Generator: Adobe Illustrator 19.0.0, SVG Export Plug-In . SVG Version: 6.00 Build 0)  -->
<svg version="1.1" id="Layer_1" xmlns="http://www.w3.org/2000/svg" xmlns:xlink="http://www.w3.org/1999/xlink" x="0px" y="0px"
	 viewBox="1961.2528076 89.3211746 1273.5488281 381.0346985"
	 style="enable-background:new 1961.2528076 89.3211746 1273.5488281 381.0346985;" xml:space="preserve">
<style type="text/css">
	.st0{clip-path:url(#SVGID_2_);fill:#E60000;}
	.st1{clip-path:url(#SVGID_4_);fill:#E60000;}
</style>
<g transform="translate(27.552 258.585)">
	<g>
		<defs>
			<rect id="SVGID_1_" x="1933.7008057" y="-169.2638092" width="361.7153931" height="381.0346985"/>
		</defs>
		<clipPath id="SVGID_2_">
			<use xlink:href="#SVGID_1_"  style="overflow:visible;"/>
		</clipPath>
		<path class="st0" d="M2125.1032715-34.3900261H2012.211792l-78.5109863-134.8737793h270.1124268L2125.1032715-34.3900261"/>
	</g>
</g>
<g transform="translate(27.552 258.585)">
	<g>
		<defs>
			<rect id="SVGID_3_" x="1933.7008057" y="-169.2638092" width="361.7153931" height="381.0346985"/>
		</defs>
		<clipPath id="SVGID_4_">
			<use xlink:href="#SVGID_3_"  style="overflow:visible;"/>
		</clipPath>
		<path class="st1" d="M2216.0739746-168.5827789l79.3422852,134.8320007l-139.3452148,247.0818787h-162.571167
			l222.5740967-381.9138794"/>
	</g>
</g>
<path d="M3101.7878418,383.7018738c-4.888916-0.3434448-12.8867188-1.5031738-16.6525879-2.4150696
	c-16.7736816-4.0609741-25.1784668-11.5548401-28.954834-25.8155823c-0.9511719-3.5921936-1.0727539-4.9526062-1.25-13.9550171
	c-0.138916-7.0979004-0.057373-10.2324829,0.2832031-10.8688354c0.4711914-0.8804321,0.6193848-0.8924255,9.6547852-0.7832336
	l9.1765137,0.1117249l0.0415039,7.6544189c0.0314941,5.8525085,0.206543,8.2385864,0.7438965,10.1369019
	c2.314209,8.175293,7.4267578,13.1109314,16.0644531,15.508606c9.7734375,2.7133789,15.2941895,2.9918518,55.5786133,2.8044128
	c37.6923828-0.175415,40.3034668-0.3144531,49.4384766-2.6314392c10.489502-2.6612549,15.8164063-7.7996216,18.0776367-17.4383545
	c1.0710449-4.5649414,1.0632324-17.7375183-0.0124512-21.5870667c-2.0283203-7.2592468-5.6000977-11.1145935-12.2678223-13.2416992
	c-6.8061523-2.1709595-7.1276855-2.1850281-57.3044434-2.4982605c-44.7705078-0.2792664-46.9853516-0.3285217-52.1972656-1.1634521
	c-9.8688965-1.5805359-15.1140137-3.118042-20.7636719-6.0870972c-9.2185059-4.8442078-14.8603516-13.9798279-16.6142578-26.9025269
	c-0.6999512-5.1598816-0.3347168-19.2241364,0.6081543-23.3744507c1.6518555-7.2745819,4.6989746-13.1270905,9.1445313-17.5604248
	c4.7573242-4.7453156,10.4440918-7.6121979,19.7478027-9.9556885c9.3085938-2.3447266,16.5285645-3.0613403,36.3215332-3.6046143
	c20.2790527-0.5569,64.6179199,0.0988922,73.4035645,1.0852661c20.0026855,2.2454376,29.6911621,8.432251,34.1779785,21.8258057
	c1.7207031,5.1350708,2.4841309,10.8733673,2.3466797,17.6402893l-0.114502,5.6712646h-18.6188965l-0.2680664-4.7581177
	c-0.46875-8.3097992-2.0959473-13.2557678-5.5905762-16.9919434c-3.2106934-3.4320679-7.5297852-5.1615448-16.168457-6.4735413
	c-4.4165039-0.6707001-8.5424805-0.7389679-44.5866699-0.7389679c-42.4455566,0-45.2329102,0.1092377-53.0102539,2.0745544
	c-7.5183105,1.9003448-11.8171387,4.9596252-14.4345703,10.2726135c-2.1225586,4.3079681-2.8300781,8.652359-2.5710449,15.7879181
	c0.5891113,16.2368469,6.3024902,21.8981934,24.7001953,24.4717102c4.0256348,0.5631409,11.8464355,0.7137451,50.2802734,0.9685974
	c46.9060059,0.31073,48.838623,0.3823242,57.4790039,2.1204834c16.4345703,3.3058777,24.7304688,12.7191162,26.6894531,30.2824402
	c0.6472168,5.8049316,0.5566406,19.9945374-0.1584473,24.699707c-2.128418,14.0133667-8.2319336,23.3963928-18.6374512,28.6514587
	c-5.3227539,2.6881409-14.2353516,5.0241699-24.3718262,6.3874817c-4.3005371,0.5780029-10.796875,0.6839294-46.1726074,0.7530212
	C3122.3820801,383.8106689,3102.9257813,383.7817078,3101.7878418,383.7018738L3101.7878418,383.7018738z M2349.3813477,301.8415833
	v-80.0608521h31.4467773l71.8547363,70.4411621c39.5202637,38.7428284,72.1020508,70.5011292,72.404541,70.5743713
	c0.4550781,0.1108704,0.5671387-11.9901123,0.6540527-70.3377075l0.1047363-70.4709473h19.4462891l0.104248,79.957428
	l0.1047363,79.957428h-29.1772461l-69.7143555-68.3045349c-38.3427734-37.5673828-71.2561035-69.8242493-73.1403809-71.6824036
	c-2.7709961-2.7324219-3.501709-3.2595367-3.8205566-2.7572479c-0.246582,0.3876953-0.3972168,27.3117218-0.4013672,71.6824188
	l-0.0061035,71.0617676h-19.8601074V301.8415833L2349.3813477,301.8415833z M2585.3217773,301.9450378l0.1044922-79.957428
	h157.2255859l0.1118164,8.7909698l0.1115723,8.7909851l-69.0012207,0.1046753l-69.0012207,0.1046753v50.0638885
	l66.1049805,0.1046753l66.1049805,0.1046753l-0.1118164,8.7909851l-0.1115723,8.7909851l-65.9934082,0.2068481
	l-65.9931641,0.2068787l-0.1069336,28.030426l-0.105957,28.0303955l68.9956055,0.1046753l68.9963379,0.1046753l0.1115723,8.7922058
	l0.1118164,8.7922363h-157.6574707L2585.3217773,301.9450378z M2814.2321777,380.1489868
	c-5.5117188-13.6268921-60.9602051-157.7327271-60.795166-158.0000153c0.1254883-0.2027283,4.5881348-0.3686371,9.9169922-0.3686371
	c9.597168,0,9.6948242,0.0086823,10.2800293,0.9309387c0.324707,0.5118103,12.7307129,32.3036346,27.567627,70.6480103
	c14.8376465,38.3443909,27.161377,70.0629883,27.385498,70.4854126c0.2243652,0.4224548,0.5544434,0.6090393,0.732666,0.4137573
	c0.1787109-0.195282,12.1022949-32.0996704,26.4975586-70.8991699s26.359375-70.7795868,26.5869141-71.0675659
	c0.3205566-0.4058838,3.3356934-0.4985657,13.4643555-0.4137421l13.0512695,0.1092377l26.1767578,70.9144592
	c14.3974609,39.0030823,26.3664551,71.1044006,26.5979004,71.3360901c0.286377,0.2858887,0.5463867,0.1009521,0.8093262-0.5767822
	c5.4284668-13.9798279,51.9685059-133.2084351,53.3632813-136.7087708l1.9785156-4.9650116l10.265625-0.1108856
	l10.2658691-0.1109009l-0.1877441,0.9814301c-0.1030273,0.5403595-14.0270996,36.5706329-30.9423828,80.0682831
	l-30.7553711,79.0873108h-14.3691406c-11.1147461,0-14.4125977-0.1170959-14.5637207-0.5171814
	c-0.107666-0.284668-11.6020508-31.0520325-25.5437012-68.372406
	c-13.9418945-37.3203735-25.5178223-68.3045349-25.7243652-68.8535767c-0.2783203-0.7406158-0.4951172-0.8779755-0.8415527-0.531662
	c-0.2563477,0.2565155-12.0341797,31.4264679-26.1730957,69.2668915l-25.7067871,68.8010559l-14.3120117,0.1088257
	l-14.3125,0.1087952l-0.7128906-1.7642212L2814.2321777,380.1489868z"/>
</svg>
