<?xml version="1.0" encoding="utf-8"?>
<!-- Generator: Adobe Illustrator 19.0.0, SVG Export Plug-In . SVG Version: 6.00 Build 0)  -->
<svg version="1.1" id="Layer_1" xmlns="http://www.w3.org/2000/svg" xmlns:xlink="http://www.w3.org/1999/xlink" x="0px" y="0px"
	 viewBox="1454.472168 158.7355347 1130.1296387 242.5288391"
	 style="enable-background:new 1454.472168 158.7355347 1130.1296387 242.5288391;" xml:space="preserve">
<style type="text/css">
	.st0{fill:#2D739F;}
	.st1{fill:#444444;}
</style>
<g>
	<circle id="a" class="st0" cx="1517.3837891" cy="257.6618042" r="62.9116325"/>
	<polygon class="st0" points="2543.5725098,363.8821716 2546.3078613,363.8821716 2549.9550781,374.8233032 
		2553.6020508,363.8821716 2556.3374023,363.8821716 2556.3374023,377.1027222 2554.513916,377.1027222 2554.513916,369.3527527 
		2554.513916,367.9851074 2554.513916,366.1615601 2550.8666992,377.1027222 2549.0432129,377.1027222 2545.3962402,366.1615601 
		2545.3962402,377.1027222 2543.5727539,377.1027222 2543.5727539,363.8821716 	"/>
	<polygon class="st0" points="2542.204834,363.8821716 2542.204834,365.2498169 2537.6459961,365.2498169 2537.6459961,376.6468506 
		2535.8225098,376.6468506 2535.8225098,365.2498169 2531.263916,365.2498169 2531.263916,363.8821716 	"/>
	<polygon class="st1" points="2421.3964844,392.6026917 2421.3964844,356.5880737 2413.1904297,356.5880737 
		2413.1904297,399.8967896 2443.7346191,399.8967896 2443.7346191,392.6026917 	"/>
	<polygon class="st1" points="2347.5437012,381.6615295 2368.9699707,381.6615295 2368.9699707,374.3674316 
		2347.5437012,374.3674316 2347.5437012,363.8821716 2371.7053223,363.8821716 2371.7053223,356.5880737 2339.3376465,356.5880737 
		2339.3376465,399.8967896 2371.7053223,399.8967896 2371.7053223,392.6026917 2347.0878906,392.6026917 2347.5437012,381.6615295 	
		"/>
	<polygon class="st1" points="2288.2790527,357.0439453 2288.2790527,385.7644653 2265.940918,357.0439453 
		2258.6467285,357.0439453 2258.6467285,400.3526611 2266.8525391,400.3526611 2266.8525391,370.7203674 2289.6467285,400.3526611 
		2296.4848633,400.3526611 2296.4848633,357.0439453 	"/>
	<polygon class="st1" points="2207.1320801,357.0439453 2207.1320801,385.7644653 2184.7939453,357.0439453 2177.5,357.0439453 
		2177.5,400.3526611 2185.7058105,400.3526611 2185.7058105,370.7203674 2208.9558105,400.3526611 2215.7939453,400.3526611 
		2215.7939453,357.0439453 2207.1323242,357.0439453 	"/>
	<polygon class="st1" points="2044.8383789,374.3674011 2025.2354736,374.3674011 2025.2354736,356.5880432 
		2017.0296631,356.5880432 2017.0296631,399.896759 2025.2354736,399.896759 2025.2354736,381.661499 2044.8383789,381.661499 
		2044.8383789,399.896759 2053.0441895,399.896759 2053.0441895,356.5880432 2044.8383789,356.5880432 	"/>
	<path class="st1" d="M1971.4415283,387.5879822l5.4705811,5.4705505l-0.4559326,0.4558716
		c-4.5588379,4.5588074-9.5734863,7.7499695-17.3234863,7.7499695c-12.7646484,0-21.8823242-10.0293579-21.8823242-22.3381958
		c0-12.3088074,9.1176758-22.3381958,22.3382568-22.3381958c7.7498779,0,12.7646484,2.7352905,16.8675537,6.8382263v0.4558716
		l-5.0146484,5.9264832h-0.4559326c-3.1911621-3.1911621-6.8382568-5.014679-11.8529053-5.014679
		c-8.2059326,0-13.6763916,6.3823242-13.6763916,14.5881653c0,8.2058716,5.9263916,15.0440979,13.6763916,15.0440979
		c5.0146484-1.3676453,8.2059326-3.1911316,12.3088379-6.8382263V387.5879822z"/>
	<path class="st0" d="M2555.8813477,199.7648468l-31,88.8968658l-29.1762695-88.8968658h-29.6323242l45.1320801,120.808548
		l-0.4558105,0.9117432c0,0-9.1176758,24.6176147-17.3234863,30.5440369
		c-6.3823242,3.1911621-20.9707031,3.1911621-26.8969727,2.7352905v22.7940674
		c10.0292969,0,32.8234863,0.4558716,40.1174316-4.1029358c9.1176758-5.9264832,11.3972168-8.2058716,17.779541-21.4264221
		c6.8381348-14.1322937,60.1762695-152.2643585,60.1762695-152.2643585h-28.720459V199.7648468z"/>
	<path class="st0" d="M2410.4550781,219.8236389v-20.0587921h-27.8085938v121.7202911h27.8085938v-46.4998474
		c0-8.2058716,0.9118652-15.4999695,3.1911621-20.97052c8.2060547-21.8823242,31.9118652-28.2646332,43.7646484-30.0881653
		l-9.5734863-23.249939c-9.5734863,1.3676605-26.8969727,5.9264679-37.3823242,19.1470032"/>
	<path class="st0" d="M1930.8681641,300.0587769c-21.4263916,0-36.4705811-17.3235168-36.4705811-39.20578
		c0-21.4264221,14.5882568-38.7499237,35.1029053-38.7499237c14.1323242,0,23.2498779,6.3823547,31.4558105,15.0440979
		l17.3234863-18.6911163c-11.3969727-12.3087921-25.5292969-20.9705353-48.3233643-20.9705353
		c-36.4705811,0-62.9116211,29.1764069-62.9116211,63.8233795s26.8969727,62.9116211,62.9116211,62.9116211
		c23.7058105,0,37.8381348-9.5734863,49.69104-22.7940674l-16.8675537-16.4117126
		c-9.1176758,8.6617737-18.6911621,15.0440979-31.9117432,15.0440979"/>
	<polygon class="st0" points="2179.3234863,289.1176147 2146.5,199.7648926 2116.4118652,199.7648926 2166.5588379,322.3969727 
		2191.6323242,322.3969727 2241.3232422,199.7648926 2212.1469727,199.7648926 	"/>
	<path class="st1" d="M2111.3969727,356.1321411L2092.25,399.8967285h8.2058105l4.5588379-10.48526h19.6030273l4.5588379,10.48526
		l8.2058105-0.4558716l-18.6911621-43.3087158H2111.3969727z M2108.2058105,382.5732727l6.8383789-15.9558105l6.8381348,15.9558105
		H2108.2058105z"/>
	<path class="st0" d="M2358.0288086,237.6030273l0.0002441-0.000061
		c-2.279541-7.7499695-5.9265137-14.5881805-10.4853516-20.5146484
		c-5.0146484-5.9264221-10.9411621-10.4852295-18.2353516-14.132309
		c-7.2939453-3.6470184-15.9558105-5.4705505-25.5292969-5.4705505c-9.1176758,0-16.8676758,1.8235321-24.1616211,5.014679
		c-7.2941895,3.1911469-13.2207031,7.7499695-18.6911621,13.6764526
		c-5.4707031,5.9264526-9.5734863,12.3088074-12.3088379,20.0587616c-3.1911621,7.75-4.5588379,15.9558563-4.5588379,24.6175842
		v0.4558716c0,9.1176453,1.8234863,17.7793884,5.0146484,25.5293579c3.1911621,7.75,7.75,14.5882263,13.2207031,20.0588074
		c5.470459,5.4705811,11.8527832,9.5735168,19.6027832,12.764679c7.75,3.1911316,15.9558105,4.5588074,24.6176758,4.5588074
		c10.9411621,0,20.5146484-2.2793884,28.720459-6.3823547c8.2058105-4.1029358,15.0439453-9.5734863,20.970459-16.4117126
		l-16.4116211-14.5881958c-5.0146484,5.014679-10.029541,8.6617737-15.0441895,10.9411621
		c-5.0146484,2.2794189-10.9411621,3.6470642-17.7792969,3.6470642c-9.1176758,0-16.8676758-2.735321-23.25-8.2058716
		c-6.3823242-5.014679-10.4853516-12.764679-11.8527832-22.7940674h89.3525391
		c0.4560547-1.3676453,0.4560547-2.7352905,0.4560547-4.1029358v-3.6470642
		C2361.6760254,254.0147247,2360.3083496,245.3529816,2358.0288086,237.6030273z M2334.322998,249.0000916h-62.911377
		c0.9116211-9.5735016,4.5585938-14.132309,10.0292969-20.0587921c5.9265137-5.9264679,12.7646484-8.6617737,21.4262695-8.6617737
		c4.5588379,0,8.6618652,0.4559021,12.3088379,2.2794189c3.6472168,1.8235321,6.8383789,4.1029358,9.5734863,6.8382111
		c2.7353516,2.7352905,5.0146484,5.9264679,6.3823242,10.0293732c1.8234863,4.102951,2.7353516,5.0146942,3.1911621,9.5735016
		V249.0000916z"/>
	<path class="st0" d="M2110.4853516,285.0147095C2113.6765137,277.7205811,2115.5,269.51474,2115.5,260.8529663v-0.4558716
		c0-8.6617279-1.3676758-16.8676147-4.5588379-24.6175842l0,0c-3.1911621-7.7499847-7.75-14.132309-13.6765137-20.0587616
		C2091.3383789,209.7942657,2084.5,205.2354431,2076.75,202.0442963c-8.2058105-3.1911469-16.4116211-5.014679-25.9851074-5.014679
		s-18.2353516,1.8235321-25.9852295,5.014679c-7.75,3.1911469-14.5882568,7.7499695-20.5146484,13.6764526
		c-5.9265137,5.4705811-10.4853516,12.3088074-13.6765137,20.0587616c-3.1911621,7.75-5.0146484,15.9558563-5.0146484,24.6175842
		v0.4558716c0,8.6617737,1.8234863,16.8676758,5.0146484,24.6176147c3.1911621,7.75,7.75,14.1323242,13.6765137,20.0587769
		c5.9263916,5.4706116,12.7646484,10.0294495,20.5146484,13.2205811c7.75,3.1911621,16.4117432,5.014679,25.5294189,5.014679
		s17.7792969-1.8235168,25.9851074-5.014679c7.75-3.1911316,14.5883789-7.7499695,20.5146484-13.6764526
		C2102.7353516,299.6029053,2107.2941895,292.764679,2110.4853516,285.0147095z M2087.6911621,260.8530273
		c0,5.4705505-0.9116211,10.48526-2.2792969,16.4117126c-1.8237305,4.5588074-4.1030273,8.6617126-7.2941895,12.3088074
		c-3.1911621,3.1911621-6.8383789,5.9264526-11.3969727,8.2058411c-4.5588379,2.2794189-9.5734863,3.1911621-15.5,3.1911621
		c-5.4705811,0-10.4852295-1.3676147-15.0440674-3.1911621c-4.5588379-2.2793884-8.6617432-5.014679-11.8529053-8.6617432
		c-3.1912842-3.6470642-5.9265137-8.2058716-7.75-12.764679c-1.8236084-5.0147095-2.7353516-10.0294189-2.7353516-15.0440979
		v-0.4559021c0-5.4705811,0.4559326-10.48526,2.2794189-15.0440826c1.3676758-4.5588074,4.1029053-8.6616974,7.2940674-12.3087769
		c3.6470947-3.1911774,7.2941895-6.3823547,11.8529053-8.2058563c4.5588379-2.2794189,9.5736084-3.1911774,15.0440674-3.1911774
		c5.4707031,0,10.4853516,0.9117584,15.0441895,3.1911774c4.5588379,1.8235016,8.6618652,4.5587769,11.8530273,8.2058563
		c3.1911621,3.6470184,5.9265137,7.7499695,7.75,12.3087769c1.8234863,4.5588226,2.7353516,9.5735321,2.7353516,15.0440826
		L2087.6911621,260.8530273z"/>
	<path class="st0" d="M1841.9711914,261.3088684c-3.6470947-2.7352905-7.75-5.014679-12.3087158-6.8382263
		c-4.5588379-1.8235321-9.1176758-3.6470642-13.2205811-5.014679c-3.6470947-1.3676605-6.8382568-2.2794189-10.0294189-3.6470642
		c-3.1911621-0.9117584-6.3823242-2.2794189-8.6617432-3.6470642c-2.7352295-1.3676605-4.5588379-2.7352905-5.9265137-4.5588226
		c-1.3675537-1.8235321-2.2792969-3.6470642-2.2792969-5.4705658c0-3.6470642,1.3675537-6.3823395,4.5587158-8.6617432
		c2.7353516-2.2794037,7.2941895-3.6470642,12.7647705-3.6470642c5.0146484,0,10.4852295,0.9117432,16.4116211,3.1911469
		c5.9265137,1.8235321,11.8529053,5.0146942,17.7794189,8.2058868l10.9411621-19.6029205
		c-6.3823242-4.1029358-13.6763916-7.7499542-21.4263916-10.0293732c-7.75-2.2794037-15.5-3.6470642-23.25-3.6470642
		c-5.9263916,0-11.8529053,0.9117584-16.8675537,2.7352905c-5.4705811,1.8235321-10.0294189,4.1029358-13.6763916,7.2940826
		c-4.1030273,3.1911621-6.8382568,7.2940979-9.1176758,11.3970337c-2.2794189,4.5588226-3.1911621,9.5735016-3.1911621,15.4999847
		v0.4558716c0,5.9264679,1.3676758,10.9411469,3.6470947,14.5881805c2.2794189,4.1029358,5.4705811,7.2940826,8.6617432,10.0293732
		c3.6470947,2.7352905,7.75,5.014679,12.3088379,6.3823547c4.5587158,1.8235168,9.1175537,3.1911621,13.220459,4.5588074
		c3.6470947,0.9117432,6.8382568,2.2794189,10.4853516,3.1911621c3.1911621,0.9117432,6.3823242,2.2793884,8.6617432,3.1911621
		c2.7352295,1.3676453,4.5588379,2.73526,5.9265137,4.5588074c1.3675537,1.8235168,2.2792969,3.6470642,2.2792969,5.9264526
		v0.4558716c0,4.1029663-1.8234863,7.2940979-5.0146484,9.5735168c-3.1911621,2.2793884-7.75,3.6470642-14.1323242,3.6470642
		s-12.7646484-1.3676758-19.6029053-3.6470642c-6.8381348-2.7352905-13.6763916-6.3823547-20.0587158-10.9411621
		l-12.3088379,18.6911316c7.75,5.9264526,15.9558105,10.4852905,25.0734863,13.6764221
		c9.1176758,3.1911621,17.7794189,4.5588379,26.4411621,4.5588379c5.9975586-0.0259705,11.9691162-0.7915344,17.7792969-2.2794189
		c5.4705811-1.8235168,10.4853516-4.1029358,14.1323242-7.2940979c4.1030273-3.1911621,7.2941895-7.2940979,9.5734863-11.8529053
		c2.2794189-5.014679,3.6470947-10.4852905,3.6470947-16.8675842v-0.4558716c0-5.4705811-1.3676758-10.4852905-3.6470947-14.1323242
		c-3.1911621-3.6470642-5.9263916-7.2940979-9.5734863-9.5734863"/>
	<polygon class="st0" points="1710.6774902,321.4851074 1738.4863281,321.4851074 1738.4863281,199.7648926 
		1710.6774902,199.7648926 1710.6774902,321.4852295 	"/>
	<path class="st0" d="M1694.7216797,239.4264832c0,45.5881348-35.1029053,80.6910095-85.7056885,80.6910095h-48.7792969
		c10.0292969-6.8382263,18.2352295-15.4999695,24.1616211-25.9852295h25.0734863
		c33.7352295,0,56.0733643-22.7940674,56.0733643-54.7057495s-21.8822021-55.1615906-56.0733643-55.1615906h-31.9116211v23.7058105
		c-4.5588379-5.9264679-10.0294189-10.9411621-16.4117432-15.0440979c-3.6470947-2.7352905-7.75-5.0146942-11.8529053-6.8382263
		v-27.3528748h60.1762695c50.1469727,0.4558716,85.2498779,35.5587616,85.2498779,80.690979"/>
</g>
</svg>
