<?xml version="1.0" standalone="no"?>
<!DOCTYPE svg PUBLIC "-//W3C//DTD SVG 20010904//EN"
 "http://www.w3.org/TR/2001/REC-SVG-20010904/DTD/svg10.dtd">
<svg version="1.0" xmlns="http://www.w3.org/2000/svg"
 width="70.000000pt" height="70.000000pt" viewBox="0 0 70.000000 70.000000"
 preserveAspectRatio="xMidYMid meet">
<metadata>
Created by potrace 1.11, written by Peter Selinger 2001-2013
</metadata>
<g transform="translate(0.000000,70.000000) scale(0.100000,-0.100000)"
fill="#000000" stroke="none">
<path d="M66 613 c-4 -16 -7 -32 -20 -98 -2 -11 -11 -51 -20 -88 -27 -114 -25
-119 73 -242 l87 -110 153 -3 c165 -3 155 -6 203 60 15 20 34 42 41 50 7 7 33
40 56 72 l44 59 -18 81 c-9 45 -19 90 -22 101 -4 17 -11 54 -17 90 -1 6 -6 18
-12 28 -10 17 -16 14 -72 -33 -35 -29 -59 -57 -55 -63 3 -6 14 -43 23 -84 19
-78 17 -85 -33 -138 -11 -11 -26 -30 -34 -42 -14 -21 -23 -23 -98 -23 l-82 0
-39 47 c-68 80 -67 79 -55 131 6 26 14 57 16 70 3 12 7 31 9 41 3 14 -9 30
-47 58 -72 55 -75 56 -81 36z m66 -72 l25 -20 -21 -91 c-13 -57 -17 -94 -11
-98 6 -4 28 -29 50 -57 66 -84 64 -83 173 -83 l97 1 62 77 c40 49 61 84 59 96
-2 10 -9 39 -16 64 -21 79 -21 86 5 110 14 13 28 21 31 17 10 -9 51 -194 50
-221 -1 -16 -32 -66 -79 -126 l-79 -100 -134 0 c-116 0 -136 2 -149 17 -91
111 -153 196 -150 206 2 7 6 26 9 42 3 17 12 61 21 100 8 38 15 73 15 77 0 13
16 9 42 -11z"/>
<path d="M293 515 c-45 -20 -53 -29 -62 -62 -16 -64 -16 -77 4 -108 34 -53 53
-64 108 -63 48 0 55 3 90 41 33 36 37 46 33 78 -12 86 -23 99 -116 136 -3 1
-28 -9 -57 -22z m105 -45 c6 0 16 -18 22 -41 10 -37 9 -44 -12 -75 -20 -29
-29 -34 -65 -34 -35 0 -45 5 -62 29 -38 53 -24 106 33 132 36 16 43 16 57 3 8
-8 21 -14 27 -14z"/>
</g>
</svg>
